<svg width="55" height="415" viewBox="0 0 55 415" fill="none" xmlns="http://www.w3.org/2000/svg">
<path d="M20.358 42.424C20.358 42.06 20.228 41.748 19.968 41.488C19.76 41.28 19.5 41.176 19.188 41.176L6.942 41.176L6.942 96.556L1.21104e-06 96.556L6.13893e-08 0.148001L12.87 0.148001C14.846 0.148001 16.718 0.512001 18.486 1.24C20.254 2.02 21.788 3.06 23.088 4.36C24.388 5.66 25.402 7.194 26.13 8.962C26.91 10.73 27.3 12.602 27.3 14.578L27.378 53.968C27.378 54.28 27.482 54.54 27.69 54.748C27.95 55.008 28.236 55.138 28.548 55.138L46.488 55.138C46.8 55.138 47.06 55.008 47.268 54.748C47.528 54.54 47.658 54.28 47.658 53.968L47.658 42.424C47.658 42.06 47.528 41.748 47.268 41.488C47.06 41.28 46.8 41.176 46.488 41.176L37.596 41.176L37.596 0.148C39.572 0.252 41.522 0.85 43.446 1.942C45.37 3.086 47.06 4.386 48.516 5.842C51.428 8.754 53.326 12.264 54.21 16.372C54.47 17.828 54.6 19.206 54.6 20.506L54.6 73.624C54.6 76.796 54.158 79.76 53.274 82.516C52.39 85.324 51.194 87.768 49.686 89.848C48.178 91.928 46.384 93.566 44.304 94.762C42.224 95.958 39.962 96.556 37.518 96.556C34.97 96.556 32.63 95.958 30.498 94.762C28.418 93.566 26.624 91.928 25.116 89.848C23.608 87.768 22.438 85.324 21.606 82.516C20.774 79.76 20.358 76.796 20.358 73.624L20.358 42.424ZM54.6 181.54C54.6 184.4 54.054 187.078 52.962 189.574C51.87 192.122 50.388 194.332 48.516 196.204C46.644 198.076 44.434 199.558 41.886 200.65C39.39 201.742 36.712 202.288 33.852 202.288L20.904 202.288C18.044 202.288 15.34 201.742 12.792 200.65C10.296 199.558 8.086 198.076 6.162 196.204C4.29 194.332 2.782 192.122 1.638 189.574C0.546002 187.078 2.25857e-06 184.4 2.22447e-06 181.54L1.56779e-06 126.472C1.53368e-06 123.612 0.546002 120.934 1.638 118.438C2.782 115.942 4.29 113.758 6.162 111.886C8.086 110.014 10.296 108.532 12.792 107.44C15.34 106.348 18.044 105.802 20.904 105.802L33.852 105.802C36.712 105.802 39.39 106.348 41.886 107.44C44.434 108.532 46.644 110.014 48.516 111.886C50.388 113.758 51.87 115.942 52.962 118.438C54.054 120.986 54.6 123.69 54.6 126.55L54.6 181.54ZM19.89 147.142L47.736 157.828L47.736 148.936C47.736 148.416 47.554 147.974 47.19 147.61C46.878 147.298 46.488 147.142 46.02 147.142L19.89 147.142ZM35.88 160.87L6.942 149.794L6.942 159.154C6.942 159.622 7.098 160.012 7.41 160.324C7.774 160.688 8.19 160.87 8.658 160.87L35.88 160.87ZM20.358 255.02C20.358 254.656 20.228 254.344 19.968 254.084C19.76 253.876 19.5 253.772 19.188 253.772L6.942 253.772L6.942 309.152L3.74622e-06 309.152L2.59657e-06 212.744L12.87 212.744C14.846 212.744 16.718 213.108 18.486 213.836C20.254 214.616 21.788 215.656 23.088 216.956C24.388 218.256 25.402 219.79 26.13 221.558C26.91 223.326 27.3 225.198 27.3 227.174L27.378 266.564C27.378 266.876 27.482 267.136 27.69 267.344C27.95 267.604 28.236 267.734 28.548 267.734L46.488 267.734C46.8 267.734 47.06 267.604 47.268 267.344C47.528 267.136 47.658 266.876 47.658 266.564L47.658 255.02C47.658 254.656 47.528 254.344 47.268 254.084C47.06 253.876 46.8 253.772 46.488 253.772L37.596 253.772L37.596 212.744C39.572 212.848 41.522 213.446 43.446 214.538C45.37 215.682 47.06 216.982 48.516 218.438C51.428 221.35 53.326 224.86 54.21 228.968C54.47 230.424 54.6 231.802 54.6 233.102L54.6 286.22C54.6 289.392 54.158 292.356 53.274 295.112C52.39 297.92 51.194 300.364 49.686 302.444C48.178 304.524 46.384 306.162 44.304 307.358C42.224 308.554 39.962 309.152 37.518 309.152C34.97 309.152 32.63 308.554 30.498 307.358C28.418 306.162 26.624 304.524 25.116 302.444C23.608 300.364 22.438 297.92 21.606 295.112C20.774 292.356 20.358 289.392 20.358 286.22L20.358 255.02ZM20.358 360.518C20.358 360.154 20.228 359.842 19.968 359.582C19.76 359.374 19.5 359.27 19.188 359.27L6.942 359.27L6.94201 414.65L5.00427e-06 414.65L3.85462e-06 318.242L12.87 318.242C14.846 318.242 16.718 318.606 18.486 319.334C20.254 320.114 21.788 321.154 23.088 322.454C24.388 323.754 25.402 325.288 26.13 327.056C26.91 328.824 27.3 330.696 27.3 332.672L27.378 372.062C27.378 372.374 27.482 372.634 27.69 372.842C27.95 373.102 28.236 373.232 28.548 373.232L46.488 373.232C46.8 373.232 47.06 373.102 47.268 372.842C47.528 372.634 47.658 372.374 47.658 372.062L47.658 360.518C47.658 360.154 47.528 359.842 47.268 359.582C47.06 359.374 46.8 359.27 46.488 359.27L37.596 359.27L37.596 318.242C39.572 318.346 41.522 318.944 43.446 320.036C45.37 321.18 47.06 322.48 48.516 323.936C51.428 326.848 53.326 330.358 54.21 334.466C54.47 335.922 54.6 337.3 54.6 338.6L54.6 391.718C54.6 394.89 54.158 397.854 53.274 400.61C52.39 403.418 51.194 405.862 49.686 407.942C48.178 410.022 46.384 411.66 44.304 412.856C42.224 414.052 39.962 414.65 37.518 414.65C34.97 414.65 32.63 414.052 30.498 412.856C28.418 411.66 26.624 410.022 25.116 407.942C23.608 405.862 22.438 403.418 21.606 400.61C20.774 397.854 20.358 394.89 20.358 391.718L20.358 360.518Z" fill="#D9F24F"/>
</svg>
