<svg width="207" height="29" viewBox="0 0 207 29" fill="none" xmlns="http://www.w3.org/2000/svg">
<path d="M20.38 0.670166V2.38016H32.54V7.07016H27.45C28.98 7.88016 30.94 8.57014 33.37 9.08014L30.06 13.8902L29.29 13.5002V22.2502H4.74999V13.3502L3.69999 13.9202L0.73999 9.20016C2.86999 8.69016 5.13 7.97016 6.87 7.07016H1.53999V2.38016H13.49V0.670166H20.38ZM1.94999 27.7902V23.2802H32.17V27.7902H1.94999ZM10.84 10.4702H13.91V8.18015C13 9.03015 11.88 9.81015 10.84 10.4702ZM11.05 13.9901V14.9202H23V13.9901H11.05ZM11.05 18.7401H23V17.7202H11.05V18.7401ZM20.11 8.07016V10.4802H23.66C22.16 9.69016 21.15 8.97016 20.11 8.07016Z" fill="#D9F24F"/>
<path d="M54.68 5.41998C54.58 5.62998 54.47 5.80998 54.23 6.16998H66.71V9.38998H52.94C52.8 9.65998 52.7 9.77996 52.49 10.05H67.79V13.9H50.12C49.88 14.2 49.74 14.35 49.42 14.62H65.28V28.27H58.73V27.61H47.12V28.27H40.46V21.27L39.1 22.2L35.51 17.81C38.33 16.58 40.53 15.29 42.17 13.9H36.14V10.05H45.24C45.52 9.77996 45.59 9.68998 45.8 9.38998H37.3V6.16998H47.2C47.41 5.89998 47.55 5.68995 47.72 5.35995C45.25 5.38996 41.87 5.44998 38.52 5.44998L37.16 1.56998C46.33 1.56998 54.9 1.38998 64.13 0.72998L66.12 4.99997C62.55 5.23997 59.07 5.35998 54.68 5.41998ZM46.94 17.75V18.56H58.79V17.75H46.94ZM46.94 20.66V21.5H58.79V20.66H46.94ZM46.94 23.61V24.54H58.79V23.61H46.94Z" fill="#D9F24F"/>
<path d="M102.39 1.20996V25.23C102.39 27.15 100.72 27.97 95.87 28.12L95 24.99H91.17V27.54H87.02V20.48L86.74 20.51L86.46 19.37L84.82 19.7H85.94V23.85C85.94 25.23 85.42 26.35 84.27 27.13C83.22 27.88 81.83 28.15 78.83 28.48L77.02 25.38C79.67 25.32 81.03 25.2 81.86 24.48H77.43V20.24L76.8 18.59V28.24H71.22V1.21997H86.1V11.05H83.31C82.54 11.92 81.78 12.67 80.91 13.37L81.47 13.76C82.27 12.95 82.83 12.23 83.46 11.35L86 12.94L87.32 11.32C87.56 11.47 87.81 11.68 87.98 11.8C88.22 11.62 88.43 11.35 88.64 11.08H87.31V1.21997H102.39V1.20996ZM76.81 5.26996H81.17V4.51996H76.81V5.26996ZM76.81 7.85995H81.17V7.10995H76.81V7.85995ZM76.81 12.45L77.75 11.28L78.48 11.79C78.76 11.58 79 11.34 79.21 11.04H76.81V12.45ZM79.18 15.97C78.34 15.25 77.58 14.77 76.81 14.38V16.91C77.19 16.94 77.72 16.91 78.34 16.85C78.72 16.54 78.93 16.3 79.18 15.97ZM84.68 19.7L84.54 19.1C82.48 19.52 80.92 19.73 78.72 20.03H80.88V21.5H82.31V19.7H84.68ZM82.38 16.54L84.23 16.27C84.13 15.88 84.06 15.55 83.88 15.19C83.36 15.7 82.94 16.09 82.38 16.54ZM88.59 16.45C87.41 15.4 86.46 14.59 85.38 13.8C85 14.16 84.47 14.64 84.06 15L86.19 14.46C86.61 15.51 86.92 16.29 87.17 17.13L87.76 17.07C88.06 16.87 88.34 16.66 88.59 16.45ZM96.95 19.64L95 20.09L94.76 19.16C93.09 19.52 91.73 19.73 89.5 20H91.31V21.56H92.46V20.15H96.01V23.37C96.22 23.4 96.36 23.43 96.57 23.43C96.81 23.43 96.95 23.37 96.95 23.04V19.64ZM96.95 11.16H91.86L92.7 11.52C92.07 12.3 91.27 13.02 90.44 13.68C90.61 13.89 90.82 14.07 91 14.22C91.91 13.5 92.88 12.51 93.65 11.43L96.26 13.08C95.56 13.74 94.62 14.52 93.96 15.03L96.02 14.34C96.4 15.21 96.68 15.9 96.96 16.72V11.16H96.95ZM94.27 16.36C94.1 15.94 93.99 15.58 93.75 15.22L91.83 16.75C92.66 16.66 93.43 16.48 94.27 16.36ZM96.95 4.39996H92.73V5.14996H96.95V4.39996ZM96.95 7.09998H92.73V7.90997H96.95V7.09998Z" fill="#D9F24F"/>
<path d="M135.6 7.9201H122.81V9.90009H137.24V15.3701H123.33C128.1 17.0801 131.45 18.3801 135.77 20.3001L132.25 25.5901C129.22 23.7001 126.19 22.1901 123.22 20.8701V28.2601H116.01V15.3601H105.87V9.89011H115.73V0.600098H122.81V2.89011H135.6V7.9201Z" fill="#D9F24F"/>
<path d="M171.74 1.81009V28.2301H166.3V26.9401H160.17V28.2301H154.94V26.4601L151.59 27.2701C151.42 24.3801 151.03 22.6401 150.3 20.1201L153.75 19.4001C154.27 21.2301 154.59 22.2901 154.93 24.3301V18.4401L151.2 19.6401C151.1 19.0401 150.99 18.6501 150.89 18.2301C147.16 18.5901 145.66 18.6801 141.48 18.9201L140.43 14.0201C141.44 14.1101 141.89 14.1401 142.8 14.1701C143.57 13.4501 144.47 12.5801 145.41 11.5201C143.81 10.3801 141.96 9.3301 140.08 8.4201L142.87 4.4201C143.36 4.72011 143.6 4.84008 143.95 5.08008C144.96 4.00008 146.18 2.5201 147.23 0.600098L151.38 2.58008C149.88 4.68008 148.49 6.22011 147.3 7.39011C147.65 7.60011 148 7.78008 148.31 7.99008C149.25 6.97008 150.33 5.4901 151.03 4.3201L154.93 6.5401V1.7901H171.74V1.81009ZM141.77 19.1001L145.88 19.4601C145.81 22.6801 145.53 25.1401 144.8 27.9401L140.09 27.0101C141.04 24.4501 141.59 21.8001 141.77 19.1001ZM150.03 19.2501C150.41 22.2001 150.59 24.6901 150.38 27.5801L146.02 27.4301C146.47 24.6401 146.44 22.1101 146.16 19.4301L150.03 19.2501ZM150.03 14.3801C149.89 13.9001 149.68 13.4201 149.51 12.9401C148.85 13.6001 148.29 14.1101 147.94 14.4401C148.95 14.4401 149.26 14.4101 150.03 14.3801ZM154.94 15.9401V6.83008C153.41 8.87008 151.52 10.9501 150.06 12.3601L153.44 11.3701C154.11 13.2701 154.42 14.2301 154.94 15.9401ZM161.46 7.25009H160.17V11.9101H161.46V7.25009ZM161.46 16.4201H160.17V21.6501H161.46V16.4201ZM166.48 7.25009H165.12V11.9101H166.48V7.25009ZM166.48 16.4201H165.12V21.6501H166.48V16.4201Z" fill="#D9F24F"/>
<path d="M184.11 2.36008H191.46V5.0701C192.47 3.3901 192.96 2.3001 193.62 0.350098L199.02 1.55008C198.85 1.88008 198.78 1.97008 198.6 2.24008H206.96V6.93008H203C203.49 7.74008 203.49 7.74008 203.87 8.52008L200.56 9.33008H205.82V23.5801C205.82 24.6601 205.54 25.7701 204.98 26.2601C204.35 26.8601 202.75 27.1901 199.86 27.1901L198.36 22.3501V28.2701H192.78V26.7401L187.87 28.3601C187.59 27.4601 187.38 26.8901 187.1 26.2301C183.68 26.8301 180.72 27.3401 176.37 27.9401L175.08 23.0401C175.85 23.0401 176.4 23.0101 176.96 22.9801V9.33008H178.7L175.28 7.3801C177.13 4.8301 178.03 3.1101 179.08 0.410095L184.52 1.6701C184.36 2.0501 184.29 2.08008 184.11 2.36008ZM180.42 9.33008H183.31C183.1 8.28008 183 8.01011 182.68 6.9201H181.67C181.25 7.86011 180.97 8.46008 180.42 9.33008ZM182.54 12.5701V13.5901H186.27V12.5701H182.54ZM182.54 16.2101V17.3201H186.27V16.2101H182.54ZM185.89 22.1301C185.75 21.7701 185.54 21.3501 185.3 20.9301L186.97 20.4801H182.54V22.5201C183.97 22.4101 184.81 22.2801 185.89 22.1301ZM192.79 26.4001V9.36008L189.79 7.44009L190.31 6.93008H188.29C188.67 7.74008 188.85 8.01011 189.09 8.64011L185.54 9.33008H191.92V20.5101H190.39C191.4 22.8001 191.95 24.0901 192.79 26.4001ZM195.12 9.33008H198.08C197.87 8.52008 197.7 7.9501 197.35 6.9201H196.55C196.03 7.86011 195.72 8.49008 195.12 9.33008ZM199.76 21.9501C200.14 21.9501 200.32 21.8601 200.32 21.4401V14.2601H198.37V21.8701C198.89 21.9201 199.34 21.9501 199.76 21.9501Z" fill="#D9F24F"/>
</svg>
