<svg width="898" height="897" viewBox="0 0 898 897" fill="none" xmlns="http://www.w3.org/2000/svg">
<path d="M449 0.410034C201.53 0.410034 0.910034 201.03 0.910034 448.5C0.910034 695.97 201.53 896.59 449 896.59C696.47 896.59 897.09 695.97 897.09 448.5C897.09 201.03 696.47 0.410034 449 0.410034ZM449 550.97C392.5 550.97 346.53 505 346.53 448.5C346.53 392 392.5 346.03 449 346.03C505.5 346.03 551.47 392 551.47 448.5C551.47 505 505.5 550.97 449 550.97Z" fill="#D9F24F"/>
<path d="M449 363.03C401.87 363.03 363.53 401.37 363.53 448.5C363.53 495.63 401.87 533.97 449 533.97C496.13 533.97 534.47 495.63 534.47 448.5C534.47 401.37 496.13 363.03 449 363.03ZM449 527.65C405.29 527.65 369.85 492.21 369.85 448.5C369.85 404.79 405.29 369.35 449 369.35C492.71 369.35 528.15 404.79 528.15 448.5C528.15 492.21 492.71 527.65 449 527.65Z" fill="#D9F24F"/>
</svg>
