<svg width="55" height="263" viewBox="0 0 55 263" fill="none" xmlns="http://www.w3.org/2000/svg">
<path d="M0.399993 187.348L7.26399 187.348L7.26399 221.512L24.19 221.512L24.19 187.348L31.132 187.348L31.132 221.512L55 221.512L55 262.306L0.399996 262.306L0.399993 187.348ZM34.642 138.844C34.642 139.208 34.772 139.52 35.032 139.78C35.24 139.988 35.5 140.092 35.812 140.092L48.058 140.092L48.058 84.7116L55 84.7116L55 181.12L42.13 181.12C40.154 181.12 38.282 180.756 36.514 180.028C34.746 179.248 33.212 178.208 31.912 176.908C30.612 175.608 29.598 174.074 28.87 172.306C28.09 170.538 27.7 168.666 27.7 166.69L27.622 127.3C27.622 126.988 27.518 126.728 27.31 126.52C27.05 126.26 26.764 126.13 26.452 126.13L8.51199 126.13C8.19999 126.13 7.93999 126.26 7.73199 126.52C7.47199 126.728 7.34199 126.988 7.34199 127.3L7.34199 138.844C7.34199 139.208 7.47199 139.52 7.73199 139.78C7.93999 139.988 8.19999 140.092 8.51199 140.092L17.404 140.092L17.404 181.12C15.428 181.016 13.478 180.418 11.554 179.326C9.62999 178.182 7.93999 176.882 6.48399 175.426C3.57199 172.514 1.67399 169.004 0.789991 164.896C0.529992 163.44 0.399992 162.062 0.399992 160.762L0.399989 107.644C0.399989 104.472 0.84199 101.508 1.72599 98.7516C2.60999 95.9436 3.80599 93.4996 5.31399 91.4196C6.82199 89.3396 8.61599 87.7016 10.696 86.5056C12.776 85.3096 15.038 84.7116 17.482 84.7116C20.03 84.7116 22.37 85.3096 24.502 86.5056C26.582 87.7016 28.376 89.3396 29.884 91.4196C31.392 93.4996 32.562 95.9436 33.394 98.7516C34.226 101.508 34.642 104.472 34.642 107.644L34.642 138.844ZM0.399985 0.117528L7.26398 0.117528L7.26399 34.2815L24.19 34.2815L24.19 0.117527L31.132 0.117526L31.132 34.2815L48.136 34.2815L48.136 0.117526L55 0.117525L55 75.0755L0.399988 75.0755L0.399985 0.117528Z" fill="#D9F24F"/>
</svg>
