<svg width="130" height="29" viewBox="0 0 130 29" fill="none" xmlns="http://www.w3.org/2000/svg">
<path d="M129.31 0H0.709961V28.92H129.31V0Z" fill="#1F1F1F"/>
<path d="M25.4799 18.1102H23.1499L22.7199 21.5502H19.3399L19.7499 18.1102H18.3599L17.9499 21.5502H14.5499L14.9599 18.1102H12.9999V15.3102H15.3299L15.5599 13.0502H13.5699V10.2402H15.8999L16.3099 6.9502H19.6899L19.2999 10.2402H20.6899L21.0799 6.9502H24.4799L24.0899 10.2402H26.0499V13.0502H23.7199L23.4899 15.3102H25.4799V18.1102ZM20.3699 13.0502H18.9299L18.6799 15.3102H20.1199L20.3699 13.0502Z" fill="#F2E8DE"/>
<path d="M34.95 14.3701C35.75 15.0001 36.37 15.5301 37.19 16.2801V5.77011H48.1199V17.7801H45.81V20.2801C45.81 20.5001 45.81 20.6101 45.95 20.6101C46.11 20.6101 46.11 20.4301 46.13 20.2801C46.18 20.0201 46.15 19.4501 46.2 18.1701L48.7599 18.8001C48.6899 21.0101 48.4399 22.2401 47.8699 22.8001C47.5299 23.1301 46.89 23.3501 45.91 23.3501H44.24C43.1 23.3501 42.53 22.7801 42.53 22.0101V17.7801H42.05C41.8 20.5401 40.93 21.9901 38.99 23.7401L35.9299 21.4001C37.3699 20.3001 38.21 19.3501 38.42 17.8001H37.32L35.72 19.5901C35.17 18.8401 34.7599 18.2501 34.3999 17.8801V23.5101H30.75V18.7301C30.43 19.1201 30.2 19.4201 29.77 19.8301L27.5099 16.5001C29.1499 15.2201 30.1299 14.1601 31.1799 12.2901H27.92V8.91013H31.1199C30.6399 8.08013 30.34 7.65012 29.59 6.69012L32.8999 5.14014C33.7199 6.14014 34.43 7.13012 35.25 8.31012L34.06 8.92014H36.66V11.5001C36.12 12.6601 35.82 13.2101 34.95 14.3701ZM41 8.53012V9.34012H44.31V8.53012H41ZM41 11.2801V12.0301H44.31V11.2801H41ZM41 14.8201H44.31V14.0001H41V14.8201Z" fill="#F2E8DE"/>
<path d="M52.8899 23.4501L50.2899 20.36C52.1399 19.24 53.8099 17.5101 54.4199 16.1501H50.7199V13.2201H58.7999V12.7701H52.2499V10.3901H58.7999V9.94006H51.3099V7.14008H55.0299C54.8699 6.83008 54.6599 6.55006 54.4399 6.22006L58.7499 5.30005C59.0899 6.03005 59.2999 6.52005 59.5499 7.15005H62.6499C62.9699 6.48005 63.2199 5.87005 63.3999 5.30005L67.7099 6.03006C67.4999 6.46006 67.3199 6.76005 67.0899 7.15005H70.8599V9.95007H63.3999V10.4001H70.1599V12.7801H63.3999V13.2301H71.4599V16.1601H58.4699C58.3599 16.4201 58.2399 16.57 58.0799 16.83H70.3399V19.7201H65.1999V20.3701H71.1399V23.3H54.1999V22.2401C53.8299 22.6201 53.3899 23.0101 52.8899 23.4501ZM56.4099 19.7001L55.9099 20.3501H60.1599V19.7001H56.4099Z" fill="#F2E8DE"/>
<path d="M77.0899 11.2202L76.9499 11.0202C78.3899 10.6902 79.6199 10.2702 80.5299 9.7402H78.4499V8.26022L76.8099 10.4602C75.5299 9.57021 74.9399 9.20021 73.1099 8.28021L75.2799 5.54022C76.7199 6.19022 77.3799 6.4802 78.4499 7.0802V6.96021H83.4699C83.3599 6.61021 83.1999 6.29022 83.0099 5.82022L87.6199 5.23022C87.7799 5.94022 87.9199 6.31021 88.0299 6.96021H94.2399V9.7402H91.5899C92.4799 10.1902 93.4599 10.6102 94.5799 10.8402L92.8499 13.6502C92.5999 13.5302 92.4399 13.4302 92.1899 13.2802V16.0602L94.1099 17.9702C93.3299 18.5402 92.7199 18.8902 91.9599 19.2702C92.7799 19.7602 93.5599 20.1202 94.6099 20.3902L92.4899 23.4202C90.8899 22.6902 89.5899 21.8302 88.2699 20.4102L88.3599 22.2602C85.4799 22.7502 83.0599 23.0902 79.8199 23.4602L78.9999 20.3502C79.9099 20.3302 80.8299 20.2902 81.6699 20.2102V19.2302C80.7099 19.5802 79.7999 19.9602 78.6599 20.2502L78.1599 19.4202C77.7699 20.6802 77.3599 21.7802 76.7899 23.1002L73.1099 21.6002C74.2999 19.3802 74.8699 17.9002 75.6199 15.4602L78.9499 16.4202L78.7699 17.1302C79.9099 16.8702 80.8699 16.5802 81.5599 16.2602H79.4599V13.2302C79.1899 13.3902 79.0299 13.4902 78.7499 13.6002L78.4099 13.1302L76.7699 15.3502C75.5099 14.4302 74.8099 14.0102 73.1899 13.1302L75.3599 10.3702C76.0599 10.7302 76.5799 10.9702 77.0899 11.2202ZM83.3899 13.9802H88.2699V12.9802H83.3899V13.9802ZM83.5199 10.6702H87.6699C87.2999 10.3902 87.0099 10.1002 86.6899 9.7402H84.5899C84.2499 10.1002 83.9599 10.3602 83.5199 10.6702ZM85.8799 16.9902C85.7399 17.1302 85.5799 17.2502 85.4199 17.3602V19.8002C86.1099 19.7202 86.6299 19.6602 87.3199 19.5202C86.8099 18.8202 86.3099 17.8902 85.8799 16.9902ZM89.7599 17.2602C90.3299 16.9802 90.8099 16.7102 91.2699 16.2802H89.1199C89.2999 16.6302 89.4999 16.9502 89.7599 17.2602Z" fill="#F2E8DE"/>
<path d="M109.68 23.8001L108.33 22.8001V22.9801C104.65 23.2801 100.61 23.3701 96.9799 23.4701L96.4099 20.7101C97.9899 20.7901 99.33 20.8301 100.7 20.7901V20.3801H97.1399V18.0801H100.7V17.7101H96.8399V11.3701H100.7V11.0001H96.5199V8.50009H100.7V8.15009C99.6 8.21009 98.5099 8.25008 97.3399 8.27008L96.7699 5.93008C100.35 5.89008 103.85 5.7301 107.06 5.3801L108.04 7.84009C106.9 7.98009 105.69 8.0601 104.18 8.1301V8.50009H108.38V8.80008H109.27C109.29 7.76008 109.32 6.5901 109.25 5.3501L113.13 5.49008C113.11 6.51008 113.04 7.50008 112.95 8.86008H117.01L116.99 10.7501C116.88 18.2301 116.78 21.5201 115.53 22.6601C114.64 23.3101 113.66 23.5101 111.28 23.5101L110.85 21.4401C110.53 22.2601 110.14 23.0501 109.68 23.8001ZM99.7499 13.2701V13.9001H100.85V13.2701H99.7499ZM99.7499 15.7701H100.85V15.2001H99.7499V15.7701ZM105.18 13.2701H104.11V13.9001H105.18V13.2701ZM104.11 15.7701H105.18V15.2001H104.11V15.7701ZM107.58 11.3601V11.0001H104.2V11.3501H107.58V11.3601ZM109.25 12.2101H108.13V17.7001H104.2V18.0701H107.58V19.8201C108.79 17.4001 109.18 14.3501 109.25 12.2101ZM107.1 20.6901L107.28 20.3801H104.2V20.7501C105.16 20.7701 106.12 20.7501 107.1 20.6901ZM111.48 19.7601C111.89 19.8001 112.19 19.8001 112.32 19.8001C112.73 19.8001 112.89 19.6601 112.96 19.3901C113.26 18.2701 113.28 16.1001 113.37 12.2101H112.87C112.72 14.6701 112.28 17.3201 111.48 19.7601Z" fill="#F2E8DE"/>
</svg>
