<svg width="174" height="29" viewBox="0 0 174 29" fill="none" xmlns="http://www.w3.org/2000/svg">
<path d="M173.66 0H0.320007V28.92H173.66V0Z" fill="#1F1F1F"/>
<path d="M25.01 18.1099H22.68L22.25 21.5499H18.87L19.28 18.1099H17.89L17.48 21.5499H14.08L14.49 18.1099H12.53V15.3099H14.86L15.09 13.0499H13.1V10.2399H15.43L15.84 6.94995H19.22L18.83 10.2399H20.22L20.61 6.94995H24.01L23.62 10.2399H25.58V13.0499H23.25L23.02 15.3099H25.01V18.1099ZM19.9 13.0499H18.46L18.21 15.3099H19.65L19.9 13.0499Z" fill="#F2E8DE"/>
<path d="M26.47 20.1799L28.16 17.1899C29.05 17.9799 29.89 18.3099 30.49 18.2699C31.43 18.2699 31.61 17.9399 31.61 17.0099V6.94995H35.24V17.7C35.24 19.59 34.49 21.7199 30.65 21.7199C28.44 21.7099 27.23 20.9299 26.47 20.1799Z" fill="#F2E8DE"/>
<path d="M37.61 19.0699L40.01 16.6899C40.95 17.8099 41.93 18.64 43.66 18.64C45.33 18.64 45.69 18.0299 45.69 17.4599C45.69 16.6299 44.82 16.2999 44.14 15.9999C42.72 15.4499 41.31 15.1099 40.1 14.2699C39.14 13.5799 38.36 12.6 38.36 11.14C38.36 8.26995 40.76 6.68994 44.07 6.68994C47.17 6.68994 48.82 8.06994 49.75 9.12994L47.4 11.5499C46.44 10.5099 45.6 9.73993 44.23 9.73993C42.75 9.73993 42.18 10.4099 42.18 10.9599C42.18 11.8099 43.32 12.16 44.03 12.42C46.75 13.31 49.78 14.4099 49.78 17.2999C49.78 20.1199 47.06 21.8299 43.69 21.8299C40.58 21.8299 38.59 20.4099 37.61 19.0699Z" fill="#F2E8DE"/>
<path d="M62.38 21.7699C59.28 21.7699 57.36 19.5799 57.36 15.9799C57.36 12.3599 59.28 10.1699 62.38 10.1699C63.22 10.1699 63.89 10.3499 64.41 10.7799V5.85986H67.79V21.5699H64.53L64.3 20.8799C63.75 21.3799 63.29 21.7699 62.38 21.7699ZM60.78 15.9899C60.78 18.3899 61.69 18.7799 62.63 18.7799C63.57 18.7799 64.48 18.3899 64.48 15.9899C64.48 13.5899 63.57 13.1999 62.63 13.1999C61.69 13.1899 60.78 13.5799 60.78 15.9899Z" fill="#F2E8DE"/>
<path d="M71.35 10.8899H74.68V11.8899C75.16 11.6099 76.14 10.7299 77.83 10.7699V14.3499C75.02 14.3499 74.75 15.1399 74.75 16.2399V21.5499H71.35V10.8899Z" fill="#F2E8DE"/>
<path d="M86.98 21.12C86.23 21.59 85.43 21.77 84.47 21.77C81.94 21.77 79.88 20.39 79.88 18.03C79.88 15.83 81.82 14.62 84.56 14.62H85.98C85.98 13.91 85.64 13.4 84.77 13.4C83.99 13.4 83.26 13.64 82.01 14.62L79.91 12.32C82.33 10.82 83.49 10.71 84.82 10.71C86.62 10.71 89.2 11.32 89.2 14.29V18.64C89.2 18.95 89.61 19.11 90.48 19.37L88.9 22.01C88.1 21.79 87.51 21.52 86.98 21.12ZM83.19 18.15C83.19 18.66 83.71 19.17 84.63 19.17C85.27 19.17 85.79 18.89 85.98 18.7V16.99H84.77C83.56 16.99 83.19 17.66 83.19 18.15Z" fill="#F2E8DE"/>
<path d="M97.3 26.8299C95.5 26.8299 93.76 26.3799 91.96 24.6199L94.17 22.1199C95.08 23.0799 96.06 23.7299 97.21 23.7299C98.88 23.7299 99.26 23.1199 99.26 22.1899V21.4599C98.74 21.8899 98.07 22.0699 97.23 22.0699C94.13 22.0699 92.21 19.9799 92.21 16.3599C92.21 12.7399 94.13 10.6899 97.23 10.6899C98.05 10.6899 99.01 11.0599 99.38 11.3799V10.8699H102.67V22.42C102.66 25.67 100.13 26.8299 97.3 26.8299ZM95.61 16.3799C95.61 18.6799 96.52 19.0799 97.48 19.0799C98.44 19.0799 99.33 18.6899 99.33 16.3799C99.33 14.0599 98.44 13.64 97.48 13.64C96.52 13.64 95.61 14.0599 95.61 16.3799Z" fill="#F2E8DE"/>
<path d="M110.81 26.8299C109.01 26.8299 107.27 26.3799 105.47 24.6199L107.68 22.1199C108.59 23.0799 109.57 23.7299 110.72 23.7299C112.39 23.7299 112.77 23.1199 112.77 22.1899V21.4599C112.24 21.8899 111.58 22.0699 110.74 22.0699C107.64 22.0699 105.72 19.9799 105.72 16.3599C105.72 12.7399 107.64 10.6899 110.74 10.6899C111.56 10.6899 112.52 11.0599 112.89 11.3799V10.8699H116.18V22.42C116.18 25.67 113.64 26.8299 110.81 26.8299ZM109.12 16.3799C109.12 18.6799 110.03 19.0799 110.99 19.0799C111.95 19.0799 112.84 18.6899 112.84 16.3799C112.84 14.0599 111.95 13.64 110.99 13.64C110.04 13.64 109.12 14.0599 109.12 16.3799Z" fill="#F2E8DE"/>
<path d="M126.08 21.12C125.33 21.59 124.53 21.77 123.57 21.77C121.04 21.77 118.98 20.39 118.98 18.03C118.98 15.83 120.92 14.62 123.66 14.62H125.08C125.08 13.91 124.74 13.4 123.87 13.4C123.09 13.4 122.36 13.64 121.11 14.62L119.01 12.32C121.43 10.82 122.59 10.71 123.92 10.71C125.72 10.71 128.3 11.32 128.3 14.29V18.64C128.3 18.95 128.71 19.11 129.58 19.37L128 22.01C127.2 21.79 126.61 21.52 126.08 21.12ZM122.29 18.15C122.29 18.66 122.82 19.17 123.73 19.17C124.37 19.17 124.89 18.89 125.08 18.7V16.99H123.87C122.66 16.99 122.29 17.66 122.29 18.15Z" fill="#F2E8DE"/>
<path d="M134.53 20.7299L134.39 21.5799H131.72V5.86987H135.1V10.7899C135.63 10.3599 136.29 10.1799 137.13 10.1799C140.23 10.1799 142.15 12.3599 142.15 15.9899C142.15 19.5899 140.23 21.7799 137.13 21.7799C135.96 21.7699 135.12 21.2799 134.53 20.7299ZM135.03 15.9899C135.03 18.3899 135.94 18.7799 136.88 18.7799C137.82 18.7799 138.75 18.3899 138.75 15.9899C138.75 13.5899 137.81 13.1999 136.88 13.1999C135.94 13.1899 135.03 13.5799 135.03 15.9899Z" fill="#F2E8DE"/>
<path d="M148.18 17.6399C148.18 18.0099 148.55 18.1099 149.48 18.1099L149.46 21.7699C146.22 21.7699 144.55 21.1799 144.55 18.8999V5.86987H148.18V17.6399Z" fill="#F2E8DE"/>
<path d="M156.71 18.96C157.55 18.96 158.4 18.53 159.24 17.58L161.61 19.82C159.99 21.26 158.37 21.77 156.54 21.77C153.25 21.77 151.13 19.86 151.13 16.24C151.13 12.89 152.89 10.71 156.36 10.71C160.56 10.71 161.36 13.66 161.36 17.44H154.76C155.02 18.49 155.69 18.96 156.71 18.96ZM154.73 14.98H157.88C157.72 14.03 157.17 13.33 156.4 13.33C155.5 13.33 155 13.98 154.73 14.98Z" fill="#F2E8DE"/>
</svg>
