<svg width="118" height="29" viewBox="0 0 118 29" fill="none" xmlns="http://www.w3.org/2000/svg">
<path d="M117.43 0H0.570007V28.92H117.43V0Z" fill="#1F1F1F"/>
<path d="M27.93 18.1099H25.6L25.17 21.5499H21.79L22.2 18.1099H20.81L20.4 21.5499H17L17.41 18.1099H15.45V15.3099H17.78L18.01 13.0499H16.02V10.2399H18.35L18.76 6.94995H22.14L21.75 10.2399H23.14L23.53 6.94995H26.93L26.54 10.2399H28.5V13.0499H26.17L25.94 15.3099H27.93V18.1099ZM22.82 13.0499H21.38L21.13 15.3099H22.57L22.82 13.0499Z" fill="#F2E8DE"/>
<path d="M30.67 14.2499C30.67 9.54994 32.82 6.68994 37.47 6.68994C40.53 6.68994 42.01 7.86995 43.11 9.06995L40.71 11.4899C39.96 10.5099 39.04 9.83994 37.58 9.83994C35.64 9.83994 34.38 10.6099 34.38 14.2499C34.38 17.9099 35.59 18.6599 37.71 18.6599C39.26 18.6599 40.18 17.9499 40.91 17.0299L43.42 19.3699C42.28 20.6499 40.66 21.8099 37.6 21.8099C32.82 21.8099 30.67 18.9999 30.67 14.2499Z" fill="#F2E8DE"/>
<path d="M52.26 21.12C51.51 21.59 50.71 21.77 49.75 21.77C47.22 21.77 45.16 20.39 45.16 18.03C45.16 15.83 47.1 14.62 49.84 14.62H51.26C51.26 13.91 50.92 13.4 50.05 13.4C49.27 13.4 48.54 13.64 47.29 14.62L45.19 12.32C47.61 10.82 48.77 10.71 50.1 10.71C51.9 10.71 54.48 11.32 54.48 14.29V18.64C54.48 18.95 54.89 19.11 55.76 19.37L54.18 22.01C53.38 21.79 52.79 21.52 52.26 21.12ZM48.47 18.15C48.47 18.66 48.99 19.17 49.91 19.17C50.55 19.17 51.07 18.89 51.26 18.7V16.99H50.05C48.84 16.99 48.47 17.66 48.47 18.15Z" fill="#F2E8DE"/>
<path d="M63.01 13.5599C61.94 13.5599 61.34 14.2099 61.34 15.2299V21.5499H57.96V10.8799H61.25V11.45C61.75 10.96 62.48 10.7 63.35 10.7C65.56 10.7 67.64 11.7799 67.64 14.5799V21.5499H64.26V14.7799C64.27 13.9399 63.84 13.5599 63.01 13.5599Z" fill="#F2E8DE"/>
<path d="M72.97 10.9299L75.25 16.8699L77.53 10.9299H81.27L76.7 21.5599H73.76L69.19 10.9299H72.97Z" fill="#F2E8DE"/>
<path d="M89.26 21.12C88.51 21.59 87.71 21.77 86.75 21.77C84.22 21.77 82.16 20.39 82.16 18.03C82.16 15.83 84.1 14.62 86.84 14.62H88.26C88.26 13.91 87.92 13.4 87.05 13.4C86.27 13.4 85.54 13.64 84.29 14.62L82.19 12.32C84.61 10.82 85.77 10.71 87.1 10.71C88.9 10.71 91.48 11.32 91.48 14.29V18.64C91.48 18.95 91.89 19.11 92.76 19.37L91.18 22.01C90.38 21.79 89.79 21.52 89.26 21.12ZM85.47 18.15C85.47 18.66 86 19.17 86.91 19.17C87.55 19.17 88.07 18.89 88.26 18.7V16.99H87.05C85.84 16.99 85.47 17.66 85.47 18.15Z" fill="#F2E8DE"/>
<path d="M93.53 19.39L95.99 17.3599C96.83 18.3199 97.54 18.9299 98.34 18.9299C98.91 18.9299 99.18 18.6699 99.18 18.2799C99.18 17.7699 97.9 17.4299 97.56 17.2999C95.51 16.5299 94.32 15.88 94.32 13.89C94.32 12.08 96.08 10.7 98.59 10.7C100.76 10.7 102.15 12.0199 102.68 12.7099L100.67 14.8199C100.15 14.2299 99.57 13.3999 98.59 13.3999C97.88 13.3999 97.79 13.8499 97.79 14.0699C97.79 14.3999 99.14 14.8399 99.41 14.9399C101.08 15.5299 102.77 16.5099 102.77 18.3099C102.77 20.4799 100.81 21.7699 98.27 21.7699C95.95 21.7699 94.51 20.63 93.53 19.39Z" fill="#F2E8DE"/>
</svg>
