<svg width="974" height="305" viewBox="0 0 974 305" fill="none" xmlns="http://www.w3.org/2000/svg">
<path d="M930.29 144.844H554.08V280.814H930.29V144.844Z" fill="#4F26E9"/>
<path d="M617.73 200.254H617.64L603.16 211.984L597.33 197.734L617.74 180.974H638.15V242.154H617.74V200.254H617.73Z" fill="#F2E8DE"/>
<path d="M681.88 200.254H681.78L667.3 211.984L661.47 197.734L681.88 180.974H702.29V242.154H681.88V200.254Z" fill="#F2E8DE"/>
<path d="M772.56 180.974L738.54 245.514H722.02L756.04 180.974H772.56Z" fill="#F2E8DE"/>
<path d="M783.54 228.754C792.22 223.114 798.73 218.574 803.08 215.134C807.42 211.694 810.27 208.944 811.63 206.874C812.99 204.804 813.67 202.604 813.67 200.254C813.67 196.064 810.92 193.964 805.41 193.964C800.55 193.964 794.23 196.064 786.46 200.254L781.6 186.844C784.9 184.944 789.08 183.354 794.14 182.064C799.19 180.774 803.92 180.134 808.33 180.134C816.43 180.134 822.67 181.764 827.04 185.034C831.41 188.304 833.6 192.814 833.6 198.574C833.6 203.154 831.91 207.514 828.55 211.654C825.18 215.794 818.6 221.434 808.82 228.584V228.754H834.09V242.164H783.54V228.754Z" fill="#F2E8DE"/>
<path d="M893.95 238.224C888.83 241.414 881.67 243.004 872.47 243.004C863.27 243.004 856.11 241.414 850.99 238.224C845.87 235.044 843.31 230.764 843.31 225.404C843.31 222.504 844.28 219.944 846.23 217.734C848.17 215.524 851.54 213.394 856.34 211.324V211.154C848.95 207.184 845.26 202.154 845.26 196.064C845.26 191.484 847.67 187.684 852.5 184.664C857.33 181.644 863.98 180.134 872.47 180.134C880.96 180.134 887.62 181.644 892.44 184.664C897.27 187.684 899.68 191.484 899.68 196.064C899.68 201.034 895.66 205.394 887.63 209.134V209.304C896.96 212.884 901.63 218.244 901.63 225.394C901.63 230.764 899.07 235.034 893.95 238.224ZM870.24 216.094C867 217.544 864.86 218.884 863.82 220.114C862.78 221.344 862.26 222.824 862.26 224.554C862.26 226.514 863.25 228.184 865.22 229.584C867.2 230.984 869.61 231.684 872.46 231.684C875.31 231.684 877.72 230.984 879.7 229.584C881.68 228.184 882.66 226.514 882.66 224.554C882.66 222.714 881.95 221.244 880.52 220.154C879.11 219.074 875.68 217.714 870.24 216.094ZM873.44 205.114C876.48 203.884 878.54 202.734 879.61 201.674C880.68 200.614 881.21 199.304 881.21 197.734C881.21 195.944 880.4 194.454 878.78 193.254C877.16 192.054 875.05 191.454 872.46 191.454C869.87 191.454 867.76 192.054 866.14 193.254C864.52 194.454 863.71 195.954 863.71 197.734C863.71 199.304 864.37 200.624 865.7 201.714C867.05 202.814 869.62 203.944 873.44 205.114Z" fill="#F2E8DE"/>
<path d="M454.16 65.7944H77.9501V201.764H454.16V65.7944Z" fill="#4F26E9"/>
<path d="M141.6 121.214H141.5L127.02 132.944L121.19 118.694L141.6 101.934H162.01V163.114H141.6V121.214Z" fill="#F2E8DE"/>
<path d="M233.54 156.574C228.74 161.494 221.42 163.954 211.57 163.954C201.72 163.954 194.4 161.494 189.6 156.574C184.8 151.654 182.41 143.644 182.41 132.524C182.41 121.404 184.81 113.384 189.6 108.474C194.39 103.554 201.72 101.094 211.57 101.094C221.42 101.094 228.74 103.554 233.54 108.474C238.33 113.394 240.73 121.414 240.73 132.524C240.73 143.644 238.34 151.664 233.54 156.574ZM204.53 147.314C205.99 150.024 208.34 151.384 211.58 151.384C214.82 151.384 217.17 150.034 218.63 147.314C220.09 144.604 220.82 139.674 220.82 132.524C220.82 125.374 220.09 120.444 218.63 117.734C217.17 115.024 214.82 113.674 211.58 113.674C208.34 113.674 205.99 115.034 204.53 117.734C203.07 120.444 202.34 125.374 202.34 132.524C202.34 139.674 203.07 144.604 204.53 147.314Z" fill="#F2E8DE"/>
<path d="M296.43 101.934L262.41 166.474H245.89L279.91 101.934H296.43Z" fill="#F2E8DE"/>
<path d="M338.02 127.074H338.99C344.3 127.074 348.63 128.594 351.96 131.644C355.3 134.694 356.97 138.754 356.97 143.834C356.97 150.374 354.64 155.354 349.97 158.794C345.3 162.234 338.56 163.944 329.75 163.944C321.07 163.944 312.97 162.264 305.45 158.914L310.21 146.344C317.01 149.254 322.88 150.704 327.8 150.704C331.1 150.704 333.63 150.134 335.38 148.984C337.13 147.844 338 146.264 338 144.244C338 142.564 337.55 141.314 336.64 140.474C335.73 139.634 334.03 139.004 331.54 138.584C329.04 138.164 325.37 137.954 320.51 137.954H316.64V127.054L333.16 115.484V115.314H306.92V101.904H356V115.314L338.02 126.884V127.074Z" fill="#F2E8DE"/>
<path d="M390.51 121.214H390.41L375.93 132.944L370.1 118.694L390.51 101.934H410.92V163.114H390.51V121.214Z" fill="#F2E8DE"/>
<path d="M260.724 -9.8927e-05L0.315674 26.7004L7.94527 101.111L268.354 74.4109L260.724 -9.8927e-05Z" fill="#D9F24F"/>
<path d="M41.18 50.5144L51.18 49.4844C48.98 46.8544 46.86 43.1244 45.04 38.3344L55.17 35.5844C55.39 36.5944 55.74 37.6044 56.15 38.6544C57.36 37.5944 58.35 36.6144 59.5 34.9844L66.2 39.2744C63.75 41.7544 62.2 43.0544 59.85 44.8544C60.27 45.3844 60.67 45.8044 61.13 46.2244C62.95 44.5844 64.31 43.2044 66.38 40.4944L73.03 44.8944C71.15 47.0544 69.62 48.5644 67.79 50.1044C69.42 50.7144 71.26 51.0944 73.69 51.3144L70.13 60.6544C69.14 60.3944 68.33 60.1144 67.64 59.8244L68.83 71.4244L63.59 71.9644L63.06 73.8344L74.85 72.6244L75.67 80.5844L21.84 86.1044L21.02 78.1444L33.41 76.8744L32.75 75.1244L27.21 75.6944L26.11 64.9644C25.67 65.3744 25.23 65.7244 24.61 66.1544L17.94 59.1544C20.71 58.0444 22.65 56.9544 24.45 55.7344C22.11 54.0544 20.45 53.1344 18.47 52.0444L23.54 47.4744L19.67 47.8744L18.88 40.2244L43.3 37.7244L45.49 42.0144C44.24 45.7344 42.81 48.2644 41.18 50.5144ZM30.44 50.2044C31.46 49.0144 32.04 48.2244 32.95 46.5244L26.1 47.2244C27.77 48.3044 28.67 48.8844 30.44 50.2044ZM56.52 54.5944L56.68 56.1344L35.6 58.2944L35.46 56.9644C34.44 58.1644 33.07 59.4444 31.79 60.4544L60.91 57.4644C59.46 56.8344 57.96 55.7444 56.52 54.5944ZM37.75 68.1444L57.04 66.1644L56.86 64.3644L37.57 66.3444L37.75 68.1444ZM44.3 73.9544L44.96 75.7044L51.51 75.0344L52.16 73.1544L44.3 73.9544Z" fill="#1F1F1F"/>
<path d="M103.38 60.9444L107.57 55.4844C109.97 56.5844 111.93 57.5244 113.91 58.6244L113.51 54.7744L102.14 55.9444L101.37 48.3944L116.26 46.8644C116.46 46.4244 116.64 45.8944 116.71 45.4144L101.64 46.9644C103.18 42.0344 104.56 36.7044 105.8 31.1744L115.04 30.9044L114.64 32.2944L129.35 30.7844C128.26 36.0344 127.32 40.9044 126.14 45.8544L132.21 45.2344L132.98 52.7844L123.33 53.7744L123.67 57.0644C124.9 56.1044 126.67 54.6244 127.75 53.3744L133.83 58.0444C132.01 59.6344 129.87 61.0944 128.07 62.3144C129.95 63.6744 132.25 64.9444 134.63 65.8444L130.69 73.1544C128.56 71.7644 126.74 70.4444 124.87 68.6144L125.19 71.6944C125.54 75.1344 122.5 76.5344 118.69 76.9244L113.75 77.4344L111.19 71.2144C109.86 72.3344 108.53 73.4044 107.19 74.4244L103.65 70.4244L104.06 74.3744C96.89 76.6644 93.22 77.7744 83.25 80.3544L79.58 72.1644C80.71 71.9944 81.89 71.8244 83.01 71.6044C82.01 69.5244 80.29 66.7944 78.84 64.3544L84.43 61.3444C85.56 62.9444 86.12 63.7144 87.19 65.4244L86.69 60.5444L79.84 61.2444L79.03 53.3344L85.88 52.6344L85.7 50.8344L83.02 51.1044L82.91 50.0744L82.13 51.2944L76.51 44.5544C80.11 40.9144 82.26 37.8944 84.02 33.9244L94.14 32.8844C96.36 36.3444 99.97 38.0944 103.52 40.4844L99.78 45.0744L100.22 49.3344L94.5 49.9244L94.68 51.7244L101.11 51.0644L101.92 58.9744L95.49 59.6344L95.99 64.5144C96.94 62.6544 97.42 61.4644 98.01 59.5344L103.43 60.7944C103.37 60.8344 103.38 60.8844 103.38 60.9444ZM83.65 71.5244L87.72 70.6944L87.55 69.0544L83.65 71.5244ZM89.81 40.6944C89.16 41.9544 88.7 42.7744 88.01 43.6844L91.94 43.2844C91.07 42.3844 90.51 41.6644 89.81 40.6944ZM99.48 67.5144L96.18 66.4044L96.39 68.4044C97.32 68.1544 98.44 67.8844 99.48 67.5144ZM103.25 61.3744C102.74 63.4544 102.49 65.1344 101.82 66.8144C102.23 66.6644 102.81 66.5044 103.27 66.3044L103.43 67.8944C105.19 66.8844 107.28 65.5244 108.82 64.1244C107.15 63.0944 105.38 62.1844 103.25 61.3744ZM112.05 70.3744C112.84 70.3944 113.61 70.3144 114.14 70.2644C115.09 70.1644 115.07 69.9044 115.04 69.6044L114.83 67.5544C113.97 68.5244 113.05 69.4944 112.05 70.3744ZM112.38 40.0944L117.92 39.5244C118.14 38.7744 118.28 38.3444 118.4 37.7644L112.86 38.3344C112.74 38.9144 112.55 39.4544 112.38 40.0944Z" fill="#1F1F1F"/>
<path d="M153.18 37.8244L153.73 43.2144C157.37 37.6544 159.94 30.4344 160.74 24.7444L172.33 26.2544C172.14 27.3644 171.57 28.7744 171.19 29.7944L190.78 27.7844L191.72 36.9244L171.95 38.9544L172.29 42.2944L190.27 40.4544L191.18 49.2844L173.2 51.1244L173.52 54.2544L192.1 52.3444L193 61.1244L174.42 63.0344L175.27 71.3044L164.02 72.4544L161.58 48.6244C160.99 49.9344 160.49 50.9144 159.83 52.0744L154.2 47.6744L156.82 73.1944L146.28 74.2744L144.14 53.4244C143.65 54.5144 143.36 55.2144 142.74 56.2144L136.92 47.5744C141.24 40.4344 143.91 32.4344 144.98 26.4044L156.32 27.8844C155.4 31.8944 154.24 35.2244 153.18 37.8244Z" fill="#1F1F1F"/>
<path d="M216.45 65.0644L211.51 65.5744L211.7 67.4744L201.93 68.4744L199.44 44.1844L223.97 41.6644L226.46 65.9544L216.63 66.9644L216.45 65.0644ZM200.72 22.0044L244.78 17.4844L246.81 37.2544L202.75 41.7744L200.72 22.0044ZM209.98 51.8744L210.5 56.9044L215.74 56.3644L215.22 51.3344L209.98 51.8744ZM213.45 32.2644L234.41 30.1144L234.09 26.9844L213.13 29.1344L213.45 32.2644ZM242.77 62.3644L237.83 62.8744L238.02 64.7744L228.25 65.7744L225.76 41.4844L250.29 38.9644L252.78 63.2544L242.95 64.2644L242.77 62.3644ZM236.3 49.1744L236.82 54.2044L242.06 53.6644L241.54 48.6344L236.3 49.1744Z" fill="#1F1F1F"/>
<path d="M972.186 119.195L713.907 129.016L715.186 162.653L973.465 152.831L972.186 119.195Z" fill="#D9F24F"/>
<path d="M745.09 153.584L745.6 148.524L744.44 148.564C744.17 148.574 743.78 148.604 743.28 148.654C743.23 148.624 743.18 148.244 743.16 147.494C743.14 146.744 743.14 146.374 743.2 146.354C743.63 146.374 744.06 146.364 744.49 146.354L745.81 146.304L746.15 143.104L744.91 143.154C744.64 143.164 744.24 143.194 743.7 143.244C743.64 143.214 743.6 142.824 743.57 142.074C743.54 141.324 743.55 140.934 743.61 140.904C743.94 140.944 744.39 140.944 744.99 140.924L746.39 140.874L746.89 136.394L749.18 136.304L748.73 140.784L752.12 140.654L752.62 136.174L754.91 136.084L754.49 140.564L755.7 140.514C755.99 140.504 756.38 140.474 756.88 140.424C756.93 140.434 756.98 140.824 757 141.574C757.03 142.324 757.02 142.714 756.96 142.754C756.53 142.744 756.08 142.744 755.61 142.754L754.24 142.804L753.9 146.004L755.19 145.954C755.5 145.944 755.92 145.914 756.45 145.854C756.5 145.864 756.54 146.254 756.57 147.004C756.6 147.754 756.59 148.144 756.53 148.184C756.19 148.154 755.71 148.144 755.1 148.164L753.67 148.214L753.16 153.274L750.79 153.364L751.3 148.304L747.93 148.434L747.65 150.974L747.4 153.494L745.09 153.584ZM748.15 146.214L751.54 146.084L751.88 142.884L748.49 143.014L748.31 144.624L748.15 146.214Z" fill="#1F1F1F"/>
<path d="M764.09 154.925C763.09 154.965 762.54 154.945 762.44 154.875C762.52 154.125 762.53 153.115 762.48 151.825L762.36 148.785L762.13 142.705C761.46 143.535 760.81 144.255 760.19 144.845C759.64 143.735 759.06 142.795 758.44 142.025C759.6 140.955 760.71 139.635 761.75 138.065C762.8 136.495 763.65 134.865 764.3 133.205C765.06 133.395 765.78 133.625 766.46 133.915C767.15 134.215 767.47 134.435 767.4 134.575C767.35 134.685 767.26 134.785 767.11 134.865C766.88 134.965 766.71 135.155 766.59 135.445C766.52 135.575 766.42 135.765 766.29 136.035C766.11 136.445 765.96 136.755 765.84 136.955L772.84 136.685L772.77 134.895C772.75 134.365 772.69 133.755 772.59 133.045C773.34 132.985 774.12 132.965 774.93 132.975C775.92 132.995 776.42 133.085 776.42 133.225C776.08 133.765 775.92 134.325 775.94 134.895L776 136.565L779.45 136.435C780.6 136.395 781.74 136.305 782.86 136.165C782.92 136.225 782.96 136.695 782.99 137.565C783.02 138.435 783.01 138.905 782.96 138.975C782.09 138.935 781.05 138.935 779.83 138.975L776.71 139.095C777.12 140.905 777.57 142.435 778.04 143.675C779.35 142.605 780.43 141.585 781.29 140.625C781.94 141.115 782.49 141.645 782.94 142.215C783.41 142.805 783.55 143.165 783.36 143.315C783.22 143.425 783.04 143.495 782.83 143.525C782.49 143.555 782.13 143.715 781.74 144.005C780.73 144.755 779.83 145.395 779.06 145.925C780.47 148.585 782.3 150.445 784.53 151.505C783.78 152.135 783.07 152.955 782.39 153.955C780.32 152.805 778.59 151.085 777.21 148.785C776.02 146.785 775.02 144.215 774.22 141.065C773.45 142.055 772.71 142.885 772 143.565L772.27 150.575C773.68 150.275 775.33 149.905 777.21 149.455L777.63 151.925C774.96 152.595 771.55 153.415 767.4 154.385L766.44 151.795C766.65 151.755 767 151.685 767.48 151.595C768.27 151.445 768.87 151.315 769.3 151.225L769.1 146.025C768.37 146.565 767.63 147.055 766.89 147.505C766.42 146.935 765.85 146.315 765.17 145.645L765.34 150.215C765.41 152.045 765.54 153.555 765.73 154.755C765.68 154.825 765.11 154.885 764.09 154.925ZM765.19 145.025C767.99 143.525 770.23 141.605 771.93 139.285L765.87 139.515L765.78 137.075C765.75 137.135 765.69 137.245 765.6 137.385C765.33 137.925 765.11 138.325 764.94 138.595L765.06 141.825L765.19 145.025Z" fill="#1F1F1F"/>
<path d="M788.85 153.935C788.29 153.355 787.65 152.785 786.93 152.245C789.18 151.895 791.34 151.375 793.39 150.695L791.02 150.785L790.82 145.655C789.82 146.175 788.79 146.595 787.74 146.915C787.21 146.165 786.58 145.515 785.86 144.985C788.01 144.435 789.94 143.655 791.65 142.625L789.17 142.715C788.61 142.735 787.8 142.795 786.72 142.905C786.66 142.865 786.62 142.515 786.6 141.875C786.58 141.235 786.59 140.875 786.64 140.815C787.51 140.855 788.55 140.855 789.77 140.815L792.89 140.695L792.86 140.025L791.3 140.085C790.78 140.105 790.26 140.145 789.74 140.215C789.68 140.185 789.65 139.925 789.63 139.435C789.61 138.945 789.63 138.685 789.68 138.655C790.06 138.685 790.58 138.695 791.24 138.665L792.8 138.605L792.77 137.935L789.35 138.065L789.32 137.365L786.65 137.465L786.5 133.585L796.33 133.215L796.3 132.565C796.29 132.395 796.27 132.155 796.22 131.845C796.94 131.785 797.66 131.765 798.4 131.785C799.3 131.815 799.75 131.895 799.76 132.035C799.55 132.195 799.45 132.375 799.46 132.555L799.48 133.085L804.43 132.895L809.41 132.705L809.56 136.585L806.92 136.685L806.95 137.385L803.45 137.515L803.48 138.185L805.15 138.125C805.71 138.105 806.25 138.055 806.79 137.995C806.84 138.025 806.88 138.285 806.9 138.765C806.92 139.255 806.9 139.515 806.85 139.545C806.45 139.515 805.9 139.515 805.2 139.535L803.53 139.595L803.56 140.265L806.74 140.145C807.67 140.105 808.72 140.035 809.89 139.905C809.95 139.965 809.99 140.315 810.01 140.955C810.03 141.595 810.02 141.945 809.97 141.995C809.25 141.955 808.51 141.955 807.76 141.985L805.55 142.065C807.14 142.855 808.93 143.405 810.92 143.725C810.22 144.325 809.61 145.055 809.09 145.915C808.06 145.675 807.05 145.325 806.06 144.865L806.26 150.185L804.05 150.265C806.82 150.855 808.81 151.305 810.01 151.615L807.43 153.195C805.47 152.585 802.91 151.955 799.76 151.305L800.97 150.375L796.1 150.565L797.5 151.325C796.48 151.845 795.14 152.345 793.49 152.825C791.95 153.315 790.4 153.675 788.85 153.935ZM789.51 136.575L792.74 136.455L792.73 136.085C792.73 136.035 792.73 135.965 792.72 135.875C792.7 135.765 792.69 135.685 792.68 135.625C793.32 135.565 793.99 135.555 794.67 135.575C795.52 135.605 795.94 135.685 795.95 135.825C795.74 135.895 795.63 135.985 795.64 136.095L795.65 136.355L800.5 136.175L800.49 135.805C800.49 135.755 800.49 135.685 800.48 135.595C800.46 135.485 800.45 135.405 800.44 135.345C801.08 135.285 801.76 135.275 802.46 135.295C803.31 135.325 803.73 135.405 803.74 135.545C803.53 135.615 803.42 135.705 803.43 135.815L803.44 136.075L806.62 135.955L806.58 134.935L798.02 135.265L789.49 135.585L789.51 136.575ZM793.7 145.335L803.07 144.975L803.04 144.275L798.36 144.455L793.68 144.635L793.7 145.335ZM793.77 147.315L803.14 146.955L803.11 146.255L798.43 146.435L793.75 146.615L793.77 147.315ZM793.85 149.335L798.53 149.155L803.21 148.975L803.18 148.235L793.81 148.595L793.85 149.335ZM794.43 143.265L798.6 143.105L802.77 142.945C802.55 142.795 802.25 142.565 801.88 142.235L795.23 142.485C795.03 142.735 794.76 142.985 794.43 143.265ZM795.73 138.495L800.58 138.315L800.55 137.645L798.13 137.735L795.71 137.825L795.73 138.495ZM795.81 140.585L800.66 140.405L800.63 139.735L798.21 139.825L795.79 139.915L795.81 140.585Z" fill="#1F1F1F"/>
<path d="M818.9 152.885C817.86 152.925 817.28 152.905 817.17 152.835C817.27 151.745 817.29 150.355 817.23 148.675L817.07 144.495C816.23 146.475 815.33 148.045 814.36 149.205C814.08 148.475 813.57 147.615 812.83 146.635C814.19 145.115 815.41 142.985 816.5 140.265L814.8 140.335C814.23 140.355 813.67 140.405 813.13 140.465C813.08 140.435 813.03 139.985 813 139.105C812.97 138.225 812.98 137.775 813.03 137.745C813.5 137.775 814.13 137.775 814.92 137.745L816.8 137.675L816.7 135.005C815.75 135.195 814.69 135.385 813.51 135.565C813.26 134.785 812.94 134.085 812.54 133.465C816.04 132.835 818.8 132.095 820.81 131.245C821.35 131.765 821.82 132.305 822.22 132.865C822.62 133.425 822.75 133.725 822.6 133.775C822.49 133.815 822.37 133.805 822.22 133.765C822 133.695 821.74 133.715 821.44 133.815C821.07 133.935 820.49 134.105 819.71 134.325L819.83 137.555L821.26 137.505C821.74 137.485 822.21 137.445 822.66 137.385C822.71 137.415 822.76 137.865 822.79 138.735C822.82 139.605 822.81 140.065 822.76 140.095C822.42 140.065 821.95 140.055 821.36 140.075L819.93 140.125L819.96 140.795C820.29 141.015 820.9 141.495 821.79 142.235C822.61 142.935 823.16 143.425 823.44 143.705L821.74 145.935C821.47 145.465 820.91 144.705 820.06 143.655L820.23 148.185L820.32 150.455C820.35 151.215 820.41 151.965 820.51 152.705C820.48 152.785 819.94 152.845 818.9 152.885ZM822.86 152.275C822.8 152.215 822.76 151.775 822.73 150.945C822.7 150.115 822.71 149.675 822.76 149.605C823.57 149.655 824.57 149.655 825.75 149.605L828.76 149.495L828.68 147.355L826.34 147.445C825.82 147.465 825.04 147.525 824 147.625C823.94 147.585 823.9 147.165 823.87 146.375C823.84 145.585 823.85 145.165 823.9 145.115C824.66 145.145 825.44 145.155 826.25 145.115L828.59 145.025L828.52 143.145C827.14 143.305 825.6 143.445 823.9 143.555C823.77 142.945 823.5 142.255 823.09 141.495C828.34 141.035 832.24 140.445 834.8 139.745L836.76 141.765C835.34 142.125 833.62 142.455 831.62 142.755L831.7 144.915L834.04 144.825C834.56 144.805 835.34 144.745 836.38 144.645C836.44 144.685 836.48 145.105 836.51 145.895C836.54 146.685 836.53 147.105 836.48 147.155C835.72 147.125 834.94 147.125 834.13 147.155L831.79 147.245L831.87 149.385L834.72 149.275C835.58 149.245 836.53 149.165 837.57 149.055C837.63 149.115 837.67 149.555 837.7 150.385C837.73 151.215 837.72 151.655 837.67 151.725C836.75 151.665 835.51 151.665 833.95 151.725L830.23 151.865L826.52 152.005C825.31 152.035 824.08 152.135 822.86 152.275ZM836.13 139.655C834.46 139.565 832.42 139.565 830.01 139.655L823.87 139.885L823.72 135.895C823.66 134.395 823.55 133.065 823.38 131.905C823.38 131.825 823.44 131.785 823.56 131.785C824.41 131.825 825.42 131.835 826.61 131.785L829.68 131.665L835.82 131.435L835.97 135.425C836.03 136.925 836.14 138.255 836.31 139.415C836.31 139.575 836.26 139.655 836.13 139.655ZM826.69 137.455L829.81 137.335L832.96 137.215L832.83 133.875L826.56 134.115L826.69 137.455Z" fill="#1F1F1F"/>
<path d="M841.38 141.594C840.79 140.774 840.15 140.124 839.45 139.644C840.94 139.024 842.39 138.174 843.8 137.084C843.02 136.434 842.05 135.814 840.9 135.244L842.57 133.674C843.92 134.304 844.94 134.894 845.63 135.444C846.35 134.684 846.98 133.894 847.51 133.074L844.79 133.174C844.18 133.194 843.28 133.264 842.1 133.374C842.04 133.334 842 132.924 841.97 132.154C841.94 131.384 841.95 130.974 842 130.914C842.87 130.974 844.01 130.974 845.45 130.924L848.92 130.794L849.46 130.654L851.51 131.504C850.89 133.174 849.95 134.714 848.69 136.144L855.47 135.884C853.96 134.364 852.69 132.614 851.66 130.664L854.32 129.814C854.84 130.774 855.34 131.534 855.81 132.104C856.89 131.274 857.74 130.504 858.36 129.794C858.98 130.154 859.53 130.574 860 131.034C860.48 131.514 860.65 131.814 860.49 131.944C860.37 132.044 860.21 132.094 860.01 132.104C859.69 132.114 859.36 132.254 859.03 132.514C858.47 132.934 857.88 133.344 857.27 133.744C857.74 134.194 858.16 134.574 858.55 134.884C859.7 134.014 860.66 133.184 861.42 132.384C862.02 132.734 862.56 133.134 863.03 133.604C863.53 134.084 863.71 134.374 863.55 134.494C863.45 134.574 863.29 134.624 863.1 134.624C862.79 134.634 862.49 134.764 862.17 135.004C861.73 135.334 861.16 135.734 860.46 136.214C861.78 137.014 863.18 137.644 864.66 138.094C864 138.614 863.33 139.404 862.67 140.474C860.58 139.734 858.65 138.634 856.88 137.184L856.92 138.134L852.08 138.314L847.23 138.494L847.2 137.704C845.5 139.274 843.55 140.564 841.38 141.594ZM841.28 151.684C841.22 151.574 841.18 151.134 841.15 150.354C841.12 149.574 841.13 149.154 841.18 149.084C842.05 149.124 843.11 149.124 844.36 149.084L847.56 148.964C847.22 148.124 846.79 147.334 846.26 146.594L847.62 146.244L844.74 146.354L844.62 143.124C844.57 141.774 844.47 140.714 844.34 139.924C844.33 139.734 844.38 139.644 844.49 139.634C846.38 139.744 848.92 139.744 852.12 139.624L855.94 139.474C857.56 139.414 858.83 139.314 859.76 139.184C859.87 139.184 859.92 139.224 859.93 139.314C859.85 140.104 859.84 141.174 859.89 142.524L860.01 145.754L857.64 145.844L858.67 145.994C858.1 147.104 857.62 147.964 857.23 148.584L860.54 148.454C861.53 148.414 862.63 148.334 863.85 148.214C863.91 148.274 863.95 148.694 863.98 149.474C864.01 150.254 864 150.704 863.95 150.814C862.55 150.724 860.66 150.734 858.29 150.824L852.61 151.044L846.93 151.264C845.04 151.334 843.16 151.474 841.28 151.684ZM847.67 144.054L856.69 143.714L856.61 141.644L852.09 141.814L847.59 141.984L847.67 144.054ZM849.72 148.874L854.92 148.674L854.21 148.564C854.7 147.704 855.12 146.834 855.49 145.934L852.42 146.054L849.35 146.174C849.95 146.914 850.41 147.714 850.71 148.584L849.72 148.874Z" fill="#1F1F1F"/>
<path d="M881.77 150.404C881.64 149.684 881.33 148.914 880.85 148.094C881.32 148.094 881.91 148.074 882.63 148.054C882.86 148.044 882.97 147.934 882.97 147.714L882.91 146.114C881.49 147.114 879.89 148.184 878.1 149.314L877.39 148.364C875.06 148.904 871.94 149.584 868.03 150.414L867.34 147.934C868.22 147.794 869.5 147.564 871.2 147.254L870.97 141.194L869.17 141.264C868.58 141.284 867.99 141.334 867.4 141.404C867.35 141.374 867.3 140.964 867.27 140.174C867.24 139.384 867.25 138.974 867.3 138.944C867.73 138.974 868.33 138.974 869.08 138.944L870.88 138.874L870.82 137.184L868.51 137.274L868.47 136.234C868.42 136.284 868.33 136.354 868.22 136.454C868.11 136.554 868.02 136.624 867.97 136.674C867.76 136.404 867.47 136.084 867.1 135.734C866.69 135.374 866.34 135.114 866.05 134.964C868.02 133.374 869.46 131.444 870.38 129.174L872.96 129.074C875.08 130.464 876.61 131.724 877.55 132.854L875.92 134.704H875.97L876.06 137.004L873.53 137.104L873.59 138.794L875.23 138.734C875.78 138.714 876.33 138.664 876.87 138.604C876.92 138.634 876.97 139.044 877 139.834C877.03 140.624 877.02 141.034 876.97 141.064C876.57 141.034 876.02 141.034 875.33 141.054L873.69 141.114L873.9 146.754C875.36 146.454 876.47 146.224 877.22 146.074L877.33 146.884C878.02 146.504 879.19 145.814 880.86 144.824C881.4 144.494 881.82 144.244 882.1 144.084L882.89 145.704L882.65 139.504L879.93 139.604C879.32 139.624 878.43 139.694 877.24 139.794C877.18 139.754 877.14 139.344 877.11 138.594C877.08 137.834 877.09 137.444 877.15 137.404C877.64 137.434 878.31 137.434 879.17 137.394L881.21 137.314L885.27 137.164C885.3 136.964 885.34 136.634 885.39 136.184C885.42 135.964 885.44 135.804 885.45 135.694L881.09 135.864L880.93 136.614L877.96 136.494C878.6 133.914 879.08 131.354 879.39 128.814L882.36 128.914L882.14 130.274L886.31 130.114L886.82 129.974L889.03 130.094C888.9 131.864 888.65 134.184 888.27 137.054L889.72 137.004C890.22 136.984 890.7 136.944 891.14 136.884C891.19 136.914 891.24 137.304 891.27 138.064C891.3 138.824 891.29 139.234 891.24 139.294C890.47 139.244 889.53 139.244 888.44 139.284L885.64 139.354L885.67 140.054C886.01 141.034 886.43 141.924 886.93 142.724C887.5 142.024 888.13 141.004 888.84 139.674C889.5 139.924 890.09 140.244 890.63 140.624C891.18 141.024 891.4 141.304 891.28 141.464C891.19 141.594 891.05 141.674 890.86 141.714C890.56 141.804 890.28 142.004 890.02 142.324C889.52 142.914 889.11 143.394 888.78 143.744L887.16 143.034C888.38 144.874 890.01 146.114 892.05 146.754C891.3 147.414 890.71 148.164 890.27 148.984C888.52 148.264 887.05 147.074 885.88 145.434L885.96 147.614C885.98 148.214 885.94 148.674 885.82 148.994C885.69 149.354 885.43 149.634 885.04 149.834C884.42 150.154 883.33 150.344 881.77 150.404ZM868.66 146.674C868.62 146.194 868.51 145.544 868.32 144.714C868.11 143.934 867.9 143.244 867.7 142.644L869.67 142.124C870.21 143.544 870.56 144.864 870.74 146.084L868.66 146.674ZM869.75 134.914L872.55 134.804L875.35 134.694C874.43 133.564 873.37 132.544 872.19 131.634C871.44 132.824 870.63 133.914 869.75 134.914ZM876.05 145.924L874.15 145.534C874.5 144.434 874.76 143.174 874.92 141.734C875.55 141.854 876.13 141.984 876.63 142.134C877.18 142.314 877.44 142.454 877.43 142.544C877.41 142.624 877.35 142.684 877.25 142.734C877.07 142.814 876.96 142.954 876.9 143.134C876.84 143.314 876.76 143.594 876.65 143.964C876.63 144.044 876.62 144.104 876.6 144.154C876.58 144.214 876.55 144.314 876.5 144.464C876.31 145.154 876.16 145.644 876.05 145.924ZM879.87 144.294C879.66 143.834 879.31 143.334 878.84 142.794C878.41 142.234 877.92 141.724 877.38 141.244L879.46 140.074C880.67 141.064 881.54 142.024 882.08 142.954L879.87 144.294ZM881.54 133.764L883.61 133.684L885.71 133.604L885.87 132.114L881.83 132.264L881.54 133.764Z" fill="#1F1F1F"/>
<path d="M898.81 149.845C897.72 149.885 897.1 149.875 896.95 149.805C897.07 148.205 897.08 146.265 897 143.995L896.78 138.195C896.68 138.305 896.52 138.475 896.31 138.705C895.81 139.265 895.44 139.675 895.2 139.935C895.03 139.585 894.75 139.105 894.37 138.505C893.97 137.855 893.63 137.365 893.37 137.055C894.53 135.955 895.62 134.615 896.63 133.025C897.64 131.435 898.44 129.805 899.05 128.145C899.88 128.335 900.65 128.585 901.34 128.895C902.07 129.235 902.4 129.515 902.31 129.715C902.24 129.855 902.12 129.975 901.95 130.075C901.67 130.255 901.44 130.555 901.26 130.965C900.74 132.055 900.26 132.995 899.8 133.785L900.1 141.745L900.25 145.715C900.31 147.235 900.42 148.555 900.59 149.675C900.5 149.745 899.91 149.805 898.81 149.845ZM909.66 149.455C908.57 149.495 907.97 149.485 907.88 149.405C907.96 148.285 907.98 147.015 907.92 145.595L907.77 141.765L907.48 134.125L906.48 134.165C905.44 135.985 904.33 137.535 903.18 138.805C902.64 138.265 901.82 137.655 900.71 136.965C901.82 135.885 902.84 134.535 903.79 132.915C904.72 131.335 905.45 129.695 905.98 127.995C906.78 128.155 907.52 128.345 908.21 128.585C908.92 128.825 909.25 129.005 909.2 129.155C909.17 129.265 909.08 129.355 908.94 129.425C908.73 129.545 908.57 129.745 908.48 130.025C908.25 130.605 908.04 131.095 907.84 131.495L912.98 131.295C914.58 131.235 916.28 131.105 918.09 130.915C918.15 131.005 918.19 131.495 918.23 132.395C918.27 133.295 918.26 133.785 918.2 133.865C917.28 133.805 916.03 133.805 914.45 133.865L910.68 134.005L910.77 136.445L914.19 136.315C915.34 136.275 916.48 136.185 917.6 136.045C917.65 136.105 917.7 136.565 917.73 137.425C917.76 138.285 917.75 138.755 917.7 138.835C916.87 138.775 915.73 138.775 914.28 138.825L910.86 138.955L910.96 141.575L914.57 141.435C915.77 141.385 916.96 141.295 918.14 141.165C918.2 141.225 918.24 141.695 918.27 142.565C918.3 143.445 918.3 143.915 918.24 143.995C917.36 143.935 916.16 143.935 914.66 143.995L911.05 144.135L911.15 146.715C911.19 147.735 911.27 148.595 911.38 149.285C911.34 149.355 910.76 149.415 909.66 149.455Z" fill="#1F1F1F"/>
<path d="M923.53 148.935C922.52 148.975 921.99 148.955 921.91 148.885C921.97 148.155 921.98 147.285 921.95 146.275L921.85 143.655L921.75 141.035C921.71 140.025 921.63 139.165 921.52 138.445C921.52 138.325 921.56 138.255 921.65 138.255C922.98 138.325 924.65 138.325 926.66 138.255L931.69 138.065L931.89 143.245C931.97 145.395 932.12 147.115 932.33 148.385C932.21 148.465 931.62 148.525 930.56 148.565C929.48 148.605 928.94 148.585 928.91 148.515C928.91 148.485 928.91 148.415 928.9 148.305C928.91 148.165 928.92 148.065 928.92 148.005L928.9 147.475L924.97 147.625L924.99 148.205C924.99 148.285 925.01 148.395 925.03 148.555C925.03 148.665 925.04 148.745 925.04 148.785C925.01 148.835 924.51 148.895 923.53 148.935ZM940.67 136.055C938.76 135.945 936.18 135.945 932.93 136.075L925.2 136.365L925.04 132.165C924.98 130.475 924.85 129.075 924.66 127.975C924.66 127.885 924.73 127.835 924.87 127.825C925.82 127.885 927.11 127.875 928.72 127.815L932.6 127.665L940.33 127.375L940.49 131.575C940.55 133.265 940.68 134.655 940.86 135.765C940.88 135.945 940.81 136.045 940.67 136.055ZM924.86 144.955L928.79 144.805L928.71 142.805L928.63 140.805L924.7 140.955L924.86 144.955ZM928.15 133.625L932.75 133.455L937.38 133.275L937.26 130.145L928.03 130.495L928.15 133.625ZM935.83 148.465C934.81 148.505 934.26 148.485 934.18 148.415C934.24 147.685 934.25 146.815 934.22 145.815L934.12 143.195L934.02 140.575C933.98 139.565 933.9 138.705 933.79 137.985C933.79 137.865 933.83 137.795 933.92 137.795C935.31 137.865 937.03 137.865 939.1 137.785L941.71 137.685C942.57 137.655 943.43 137.585 944.29 137.495C944.38 137.495 944.43 137.525 944.43 137.585C944.37 138.285 944.35 139.145 944.39 140.165L944.49 142.765C944.57 144.945 944.72 146.665 944.93 147.935C944.81 148.015 944.22 148.075 943.16 148.115C942.08 148.155 941.53 148.135 941.51 148.065C941.51 148.035 941.51 147.975 941.5 147.875C941.51 147.715 941.52 147.605 941.51 147.525L941.49 146.995L937.29 147.155L937.31 147.735C937.31 147.815 937.33 147.925 937.35 148.085C937.35 148.195 937.36 148.275 937.36 148.315C937.34 148.365 936.83 148.425 935.83 148.465ZM937.19 144.485L941.39 144.325L941.24 140.335L937.04 140.495L937.12 142.495L937.19 144.485Z" fill="#1F1F1F"/>
<path d="M961.26 72.8466L655.314 84.4807L656.593 118.117L962.539 106.483L961.26 72.8466Z" fill="#D9F24F"/>
<path d="M670.1 109.594L670.62 104.374L669.43 104.414C669.15 104.424 668.76 104.454 668.24 104.504C668.18 104.474 668.14 104.074 668.11 103.314C668.08 102.544 668.09 102.154 668.15 102.134C668.6 102.144 669.04 102.144 669.48 102.134L670.84 102.084L671.19 98.7842L669.91 98.8342C669.63 98.8442 669.22 98.8742 668.66 98.9342C668.6 98.9042 668.56 98.5042 668.53 97.7242C668.5 96.9542 668.51 96.5442 668.57 96.5142C668.9 96.5542 669.38 96.5542 669.99 96.5342L671.43 96.4742L671.95 91.8542L674.31 91.7642L673.85 96.3842L677.35 96.2542L677.87 91.6342L680.23 91.5442L679.79 96.1642L681.04 96.1142C681.34 96.1042 681.74 96.0742 682.26 96.0142C682.32 96.0242 682.36 96.4242 682.39 97.1942C682.42 97.9642 682.41 98.3742 682.35 98.4042C681.91 98.3942 681.44 98.3942 680.96 98.4142L679.54 98.4642L679.19 101.764L680.52 101.714C680.83 101.704 681.27 101.674 681.82 101.614C681.88 101.624 681.92 102.024 681.95 102.794C681.98 103.564 681.97 103.974 681.91 104.004C681.56 103.974 681.06 103.964 680.44 103.984L678.97 104.044L678.45 109.264L676.01 109.354L676.54 104.134L673.07 104.264L672.78 106.884L672.52 109.484L670.1 109.594ZM673.25 101.994L676.75 101.864L677.1 98.5642L673.6 98.6942L673.41 100.354L673.25 101.994Z" fill="#1F1F1F"/>
<path d="M690.97 108.794L690.44 94.8341L686.84 96.6541L685.12 94.4441L691.33 91.0241L694.33 90.9141L694.67 99.7941L695.01 108.654L690.97 108.794Z" fill="#1F1F1F"/>
<path d="M707.32 108.174L706.79 94.2142L703.19 96.0342L701.47 93.8242L707.68 90.4042L710.68 90.2942L711.02 99.1742L711.36 108.034L707.32 108.174Z" fill="#1F1F1F"/>
<path d="M716.95 112.164L722.94 88.2741L725.66 88.1741L722.67 100.134L719.68 112.064L716.95 112.164Z" fill="#1F1F1F"/>
<path d="M732.33 107.224C732.39 104.024 732.76 101.364 733.45 99.2443C734.16 96.9343 735.42 94.5943 737.24 92.2443L732.6 92.4243C731.31 92.4743 729.77 92.5843 728 92.7643C727.94 92.6843 727.89 92.1443 727.86 91.1443C727.83 90.1443 727.83 89.6043 727.88 89.5343C728.81 89.5743 729.95 89.5743 731.3 89.5243L734.72 89.3943L741.55 89.1343L741.63 91.2643C739.48 93.7143 738.06 96.1243 737.37 98.5043C736.81 100.414 736.51 103.264 736.47 107.074L732.33 107.224Z" fill="#1F1F1F"/>
<path d="M756.5 111.144C755.1 109.314 754 107.414 753.23 105.464C752.43 103.364 751.98 101.184 751.9 98.8943C751.73 94.5343 752.95 90.3543 755.56 86.3643L758.15 87.2043C756.02 90.6743 755.04 94.5343 755.2 98.7743C755.36 103.034 756.64 106.814 759.02 110.114L756.5 111.144Z" fill="#1F1F1F"/>
<path d="M761.41 98.5441C761.35 98.4341 761.3 97.8442 761.26 96.7742C761.22 95.7042 761.22 95.0941 761.27 94.9541C763.37 95.0641 766.15 95.0541 769.61 94.9241L777.99 94.6041C780.77 94.4941 783.54 94.2941 786.31 93.9941C786.37 94.1341 786.42 94.7441 786.46 95.8141C786.5 96.8841 786.5 97.4742 786.44 97.5842C784.88 97.5042 782.79 97.5041 780.19 97.6041L773.92 97.8441L767.65 98.0842C765.57 98.1642 763.5 98.3141 761.41 98.5441Z" fill="#1F1F1F"/>
<path d="M792.22 109.784L789.66 108.944C791.79 105.474 792.77 101.614 792.61 97.3542C792.45 93.1042 791.17 89.3342 788.79 86.0442L791.28 85.0142C794.2 88.7842 795.75 92.8542 795.92 97.2342C796.01 99.5142 795.73 101.734 795.09 103.884C794.45 105.914 793.5 107.884 792.22 109.784Z" fill="#1F1F1F"/>
<path d="M805.92 90.5841C805.86 90.4741 805.81 89.9741 805.78 89.0941C805.75 88.2141 805.76 87.7341 805.81 87.6641C806.59 87.7141 807.54 87.7141 808.65 87.6741L811.51 87.5641C810.86 86.5941 810.15 85.7641 809.38 85.0541L812.43 84.0041C813.71 85.1041 814.6 86.1141 815.07 87.0241L813.81 87.4841L822.05 87.1741L820.96 86.8841C822.02 85.5841 822.8 84.4341 823.3 83.4441C824.22 83.6541 825.05 83.9141 825.8 84.2341C826.59 84.5741 826.92 84.8141 826.8 84.9641C826.71 85.0641 826.59 85.1341 826.45 85.1941C826.17 85.2741 825.91 85.4541 825.66 85.7541C825.13 86.3841 824.74 86.8241 824.49 87.0941L827.46 86.9841C828.35 86.9541 829.33 86.8741 830.4 86.7541C830.46 86.8141 830.5 87.2941 830.54 88.1741C830.57 89.0641 830.57 89.5641 830.51 89.6741C828.99 89.5841 826.94 89.5941 824.37 89.6941L818.21 89.9241L812.05 90.1541C809.99 90.2141 807.95 90.3641 805.92 90.5841ZM809.75 106.454C808.7 106.494 808.12 106.474 808.02 106.404C808.11 105.364 808.13 104.154 808.08 102.784L807.94 99.1741L807.8 95.5541C807.75 94.1841 807.64 92.9841 807.47 91.9441C807.47 91.8141 807.53 91.7541 807.66 91.7441C809 91.8241 810.68 91.8241 812.72 91.7441L817.77 91.5541L818.22 103.354C818.24 103.974 818.18 104.464 818.03 104.804C817.88 105.174 817.58 105.464 817.15 105.674C816.5 106.004 815.23 106.204 813.36 106.274C813.15 105.514 812.77 104.724 812.24 103.894C813.35 103.904 814.17 103.874 814.68 103.824C814.98 103.814 815.12 103.684 815.11 103.424L815.02 100.934L813.96 102.224C813.21 101.634 812.26 101.094 811.09 100.634L811.2 103.454C811.24 104.574 811.32 105.514 811.45 106.274C811.36 106.354 810.8 106.414 809.75 106.454ZM814.84 96.3141L814.76 94.0641L812.79 94.1441L810.85 94.2141L810.93 96.3641L811.94 95.1541C813.03 95.4641 814 95.8541 814.84 96.3141ZM814.98 100.194L814.87 97.2241L813.94 98.3841C813.23 97.8541 812.23 97.3541 810.94 96.8941L811.05 99.7641L811.85 98.8241C812.32 98.9541 812.87 99.1541 813.52 99.4341C814.02 99.6541 814.51 99.9041 814.98 100.194ZM821.79 101.514C820.73 101.554 820.17 101.544 820.09 101.484C820.16 100.814 820.17 99.9941 820.14 99.0341L820.05 96.5941L819.96 94.1541C819.92 93.2341 819.85 92.3841 819.72 91.6241C820.48 91.5641 821.27 91.5441 822.11 91.5541C823.11 91.5841 823.61 91.6641 823.62 91.8041C823.2 92.5841 823.01 93.3641 823.04 94.1241L823.18 97.7341C823.23 99.1041 823.34 100.314 823.51 101.344C823.42 101.424 822.85 101.474 821.79 101.514ZM823.46 105.884C823.24 105.034 822.82 104.144 822.19 103.224C823.58 103.254 824.67 103.224 825.44 103.144C825.83 103.114 826.02 102.964 826.01 102.694L825.78 96.7541C825.69 94.4741 825.52 92.4741 825.27 90.7541C826.12 90.6941 826.97 90.6641 827.82 90.6841C828.86 90.7041 829.38 90.7941 829.39 90.9341C828.97 91.7141 828.78 92.4941 828.81 93.2541L828.94 96.6541L829.17 102.594C829.2 103.324 829.13 103.884 828.96 104.254C828.77 104.644 828.42 104.964 827.91 105.204C827.11 105.584 825.62 105.804 823.46 105.884Z" fill="#1F1F1F"/>
<path d="M834.29 102.764L833.46 99.9941C834.53 99.8141 836.44 99.4041 839.2 98.7741L838.22 98.5941C838.45 97.4841 838.66 96.1641 838.85 94.6441C839.07 93.0541 839.19 91.6541 839.22 90.4341C840.02 90.5441 840.77 90.7241 841.46 90.9741C842.21 91.2541 842.57 91.4941 842.54 91.7041C842.51 91.8841 842.42 92.0341 842.28 92.1641C842.03 92.3941 841.87 92.7441 841.79 93.1941C841.38 95.4941 841.02 97.2441 840.71 98.4341L842.97 97.8941L843.4 100.394C841.73 100.854 839.26 101.514 836 102.354C835.21 102.534 834.64 102.674 834.29 102.764ZM833.68 90.2541C833.62 90.2141 833.58 89.7541 833.55 88.8941C833.52 88.0341 833.53 87.5841 833.58 87.5541C833.95 87.5841 834.44 87.5941 835.05 87.5741L836.52 87.5141L836.44 85.4041C836.42 84.7641 836.35 84.0341 836.25 83.2041C836.97 83.1441 837.72 83.1241 838.5 83.1441C839.46 83.1741 839.95 83.2541 839.96 83.4041C839.54 84.0641 839.34 84.7341 839.37 85.4141L839.45 87.4041L840.84 87.3541C841.15 87.3441 841.61 87.3141 842.2 87.2541C842.26 87.2641 842.3 87.7041 842.33 88.5641C842.36 89.4241 842.35 89.8841 842.3 89.9341C841.59 89.8941 840.88 89.8941 840.16 89.9241L837.99 90.0041L835.82 90.0841C835.31 90.0941 834.6 90.1541 833.68 90.2541ZM835.09 98.2241C835.05 96.1941 834.69 93.8441 834.01 91.1741L836.38 90.6741C836.7 91.6741 836.97 92.8941 837.21 94.3341C837.43 95.8241 837.56 96.9541 837.59 97.7241L835.09 98.2241ZM845.19 105.054C844.19 105.094 843.63 105.074 843.49 104.994C843.61 103.794 843.63 102.184 843.56 100.174L843.38 95.3441L848.4 95.1541C848.41 95.0241 848.45 94.8341 848.52 94.5741C848.6 94.1041 848.66 93.7641 848.7 93.5341L845.73 93.6441C844.82 93.6841 843.83 93.7541 842.76 93.8741C842.7 93.8141 842.66 93.3541 842.62 92.4941C842.59 91.6341 842.6 91.1641 842.65 91.1041C843.65 91.1641 844.99 91.1541 846.65 91.0941L850.65 90.9441L854.67 90.7941C856 90.7441 857.33 90.6441 858.66 90.4941C858.72 90.5541 858.76 91.0141 858.8 91.8841C858.83 92.7441 858.82 93.2141 858.77 93.2741C857.88 93.2341 856.8 93.2341 855.55 93.2741L852.33 93.3941L851.67 95.0241L855.03 94.8941C856.33 94.8441 857.43 94.7641 858.36 94.6441C858.49 94.6441 858.56 94.6741 858.56 94.7541C858.47 95.7941 858.45 97.0041 858.5 98.3741L858.64 102.014C858.66 102.584 858.62 103.024 858.52 103.314C858.4 103.654 858.18 103.914 857.85 104.104C857.32 104.414 856.4 104.594 855.09 104.644C854.93 103.914 854.67 103.214 854.29 102.544L854.33 103.454C854.34 103.774 854.37 104.074 854.42 104.364C854.41 104.444 853.98 104.504 853.15 104.534C852.32 104.564 851.85 104.544 851.76 104.464C851.84 103.594 851.85 102.424 851.79 100.934L851.66 97.3941L850.19 97.4541L850.32 100.994C850.38 102.474 850.48 103.644 850.62 104.504C850.55 104.584 850.09 104.644 849.24 104.674C848.41 104.704 847.94 104.684 847.85 104.604C847.93 103.734 847.94 102.564 847.88 101.074L847.75 97.5341L846.36 97.5841L846.5 101.224C846.55 102.594 846.66 103.804 846.83 104.854C846.74 104.964 846.19 105.024 845.19 105.054ZM843.56 89.9441L843.44 86.8841C843.39 85.6241 843.3 84.5841 843.15 83.7541C843.89 83.6941 844.65 83.6741 845.43 83.6941C846.38 83.7241 846.85 83.8041 846.86 83.9541C846.51 84.5141 846.35 85.0841 846.37 85.6741L846.44 87.3941L848.88 87.3041L848.79 84.9341C848.76 84.1841 848.69 83.3641 848.59 82.4741C849.35 82.4141 850.13 82.3941 850.95 82.4041C851.97 82.4241 852.48 82.5141 852.49 82.6541C852.07 83.4041 851.88 84.1641 851.91 84.9241L852 87.1741L854.64 87.0741L854.57 85.2341C854.55 84.6941 854.49 84.0541 854.39 83.3241C855.13 83.2641 855.91 83.2441 856.72 83.2541C857.72 83.2841 858.23 83.3641 858.23 83.5041C857.82 84.2841 857.62 85.0641 857.65 85.8241L857.79 89.3941L850.68 89.6641L843.56 89.9441ZM855.49 102.394C855.69 102.384 855.79 102.294 855.79 102.114L855.6 97.2541L854.1 97.3141L854.2 99.8741L854.3 102.414C854.65 102.414 855.04 102.404 855.49 102.394Z" fill="#1F1F1F"/>
<path d="M867.24 104.314C866.26 104.354 865.7 104.334 865.57 104.254C865.69 103.054 865.71 101.444 865.64 99.4341L865.46 94.604L861.44 94.994L861.07 92.5141L863.09 92.3641C863.45 91.9541 863.84 91.4441 864.28 90.8341C863.46 89.8241 862.33 88.7741 860.88 87.6841L862.33 85.6641C862.56 85.8141 862.79 85.9741 863.02 86.1441C863.83 84.5941 864.44 83.1841 864.83 81.9041C865.6 82.1141 866.29 82.3941 866.92 82.7341C867.58 83.1141 867.86 83.3941 867.76 83.5941C867.67 83.7441 867.54 83.8641 867.36 83.9741C867.03 84.1441 866.76 84.4341 866.53 84.8441C865.98 85.8541 865.42 86.7841 864.86 87.6441C865.19 87.9341 865.51 88.2541 865.84 88.6141C866.7 87.3341 867.48 85.9941 868.19 84.5941C868.92 84.8341 869.59 85.1441 870.2 85.5041C870.83 85.9141 871.08 86.204 870.96 86.384C870.87 86.514 870.73 86.6141 870.53 86.6841C870.2 86.8241 869.91 87.0841 869.64 87.4641C868.23 89.4341 867.03 91.0041 866.04 92.1741L868.79 91.9741C868.43 91.3641 868.09 90.8241 867.75 90.3641L870.02 89.3941C871.41 91.3041 872.31 92.964 872.71 94.354L870.31 95.4541C870.22 95.1341 870.08 94.7141 869.87 94.1741L868.32 94.3341L868.51 99.2641L868.6 101.734C868.64 102.694 868.71 103.504 868.83 104.174C868.74 104.214 868.22 104.274 867.24 104.314ZM863.64 102.534C862.85 102.144 862.01 101.834 861.13 101.594C861.77 100.304 862.18 98.4341 862.36 95.9841C863.1 96.0641 863.78 96.204 864.38 96.384C865.05 96.564 865.38 96.7341 865.37 96.8941C865.36 97.0041 865.29 97.114 865.16 97.2141C864.98 97.3941 864.87 97.654 864.83 97.994C864.79 98.364 864.69 98.9141 864.53 99.6641C864.28 100.844 863.98 101.804 863.64 102.534ZM870.22 100.844C870.08 100.174 869.84 99.4441 869.5 98.6441C869.13 97.7041 868.78 96.9141 868.44 96.2841L870.8 95.5241C871.61 96.9141 872.26 98.3941 872.75 99.9541L870.22 100.844ZM871.19 103.664C871.13 103.524 871.08 103.004 871.05 102.124C871.02 101.234 871.03 100.784 871.08 100.764C871.49 100.784 871.91 100.784 872.33 100.764L873.58 100.714L873.17 89.9441C873.06 86.9441 872.85 84.5541 872.56 82.7741C872.55 82.6341 872.66 82.5541 872.89 82.5441C874.34 82.6341 876.27 82.6341 878.7 82.5441L881.61 82.4341C882.74 82.3941 883.7 82.3141 884.49 82.2041C884.64 82.1941 884.71 82.2341 884.72 82.3141C884.62 83.5041 884.6 84.9941 884.67 86.8041L884.84 91.3041L885.18 100.284L886.1 100.244C886.3 100.234 886.61 100.204 887.02 100.164C887.08 100.174 887.12 100.624 887.15 101.504C887.18 102.384 887.17 102.854 887.12 102.924C886.15 102.864 884.83 102.864 883.14 102.934L879.14 103.084C876.48 103.174 873.83 103.374 871.19 103.664ZM876.25 88.5341L878.83 88.4341L881.44 88.3341L881.31 85.0041L876.12 85.2041L876.25 88.5341ZM876.48 94.494L879.06 94.3941L881.67 94.2941L881.54 90.8741L876.35 91.0741L876.48 94.494ZM876.71 100.604L881.9 100.404L881.77 96.8641L879.16 96.9641L876.58 97.0641L876.71 100.604Z" fill="#1F1F1F"/>
<path d="M892.27 103.334C891.18 103.374 890.57 103.364 890.43 103.284C890.54 101.934 890.56 100.144 890.48 97.9142L890.28 92.5542L890.08 87.1942C890 84.9642 889.84 83.1742 889.63 81.8442C889.63 81.7142 889.71 81.6542 889.87 81.6442C891.26 81.7242 893.01 81.7142 895.12 81.6342L900.37 81.4342L900.53 85.6742C900.59 87.3842 900.72 88.7942 900.91 89.9042C900.91 90.0042 900.84 90.0542 900.69 90.0542C899.78 89.9942 898.56 89.9942 897.02 90.0542L893.36 90.1942L893.61 96.6842C893.71 99.3342 893.89 101.494 894.16 103.154C894.01 103.234 893.38 103.294 892.27 103.334ZM893.16 84.9642L895.3 84.8842L897.44 84.8042L897.39 83.5842L893.11 83.7442L893.16 84.9642ZM893.28 88.1242L897.56 87.9642L897.51 86.6442L895.37 86.7242L893.23 86.8042L893.28 88.1242ZM897.18 103.004C896.62 102.454 895.91 101.934 895.04 101.454C896.47 100.604 897.35 99.3242 897.67 97.6142L896.28 97.6642C895.96 97.6742 895.51 97.7042 894.92 97.7642C894.86 97.7342 894.82 97.3242 894.79 96.5442C894.76 95.7642 894.77 95.3542 894.83 95.3242C895.16 95.3642 895.64 95.3642 896.25 95.3442L897.69 95.2942L897.62 93.4942L896.37 93.5442C896.07 93.5542 895.67 93.5842 895.15 93.6342C895.09 93.6042 895.05 93.2142 895.02 92.4542C894.99 91.6942 895 91.2842 895.06 91.2142C895.95 91.2642 897.05 91.2542 898.34 91.2142L901.62 91.0942L904.92 90.9642C905.9 90.9242 906.99 90.8442 908.19 90.7142C908.25 90.7742 908.29 91.1842 908.32 91.9442C908.35 92.7042 908.34 93.0942 908.28 93.1342C907.87 93.1142 907.44 93.1142 907 93.1342L905.72 93.1842L905.79 94.9842L907.29 94.9242C907.79 94.9042 908.29 94.8642 908.79 94.7942C908.85 94.8242 908.89 95.2342 908.92 96.0242C908.95 96.8142 908.94 97.2242 908.88 97.2642C908.53 97.2242 908.03 97.2242 907.38 97.2442L905.88 97.3042L905.97 99.7742C906.01 100.744 906.08 101.564 906.2 102.234C906.13 102.314 905.61 102.374 904.65 102.414C903.69 102.454 903.17 102.434 903.09 102.354C903.16 101.684 903.17 100.854 903.13 99.8842L903.04 97.4142L900.43 97.5142C900.3 98.5242 900.01 99.4642 899.56 100.324C898.99 101.454 898.19 102.344 897.18 103.004ZM900.44 95.1942L902.97 95.0942L902.9 93.2942L901.62 93.3442L900.37 93.3942L900.44 95.1942ZM907.9 102.554C907.83 102.164 907.69 101.684 907.47 101.134C907.25 100.584 907.03 100.124 906.79 99.7642C908.18 99.7642 909.17 99.7342 909.76 99.6742C910.15 99.6542 910.34 99.4942 910.32 99.1742L909.96 89.5942L902.47 89.8842L902.31 85.6242C902.24 83.9042 902.12 82.4842 901.93 81.3742C901.93 81.2442 902 81.1842 902.14 81.1742C903.57 81.2442 905.35 81.2442 907.48 81.1642L910.17 81.0642C911.06 81.0342 911.95 80.9642 912.83 80.8642C912.98 80.8542 913.05 80.8842 913.06 80.9542C912.96 82.1542 912.94 83.6642 913.01 85.4842L913.18 90.0342L913.52 99.0842C913.55 99.8342 913.48 100.414 913.31 100.814C913.12 101.254 912.79 101.594 912.32 101.834C911.88 102.074 911.29 102.254 910.53 102.354C909.92 102.444 909.04 102.504 907.9 102.554ZM905.35 84.5042L907.54 84.4242L909.76 84.3442L909.71 83.1242L905.3 83.2942L905.35 84.5042ZM905.47 87.7142L909.88 87.5442L909.83 86.1842L907.61 86.2642L905.42 86.3442L905.47 87.7142Z" fill="#1F1F1F"/>
<path d="M919.67 102.174C919.09 101.574 918.43 100.994 917.69 100.424C920.01 100.064 922.23 99.5341 924.36 98.8242L921.92 98.9142L921.72 93.6242C920.68 94.1542 919.63 94.5942 918.54 94.9142C917.99 94.1342 917.35 93.4742 916.6 92.9242C918.82 92.3642 920.81 91.5441 922.57 90.4941L920.02 90.5942C919.45 90.6142 918.6 90.6842 917.5 90.7842C917.44 90.7342 917.4 90.3842 917.38 89.7242C917.36 89.0642 917.37 88.6941 917.42 88.6341C918.31 88.6841 919.38 88.6741 920.64 88.6341L923.86 88.5142L923.83 87.8242L922.22 87.8841C921.68 87.9041 921.15 87.9442 920.61 88.0142C920.55 87.9842 920.52 87.7241 920.5 87.2141C920.48 86.7141 920.5 86.4442 920.55 86.4042C920.94 86.4342 921.48 86.4442 922.16 86.4142L923.77 86.3541L923.74 85.6642L920.21 85.7942L920.18 85.0742L917.43 85.1742L917.28 81.1742L927.41 80.7942L927.38 80.1242C927.37 79.9542 927.34 79.7041 927.3 79.3841C928.04 79.3241 928.79 79.3042 929.55 79.3242C930.48 79.3542 930.94 79.4442 930.95 79.5842C930.73 79.7542 930.63 79.9342 930.64 80.1242L930.66 80.6742L935.77 80.4842L940.9 80.2842L941.05 84.2842L938.33 84.3841L938.36 85.1041L934.75 85.2441L934.78 85.9442L936.5 85.8742C937.07 85.8542 937.64 85.8042 938.19 85.7342C938.25 85.7642 938.28 86.0342 938.3 86.5342C938.32 87.0342 938.3 87.3042 938.25 87.3342C937.84 87.3042 937.28 87.3042 936.55 87.3242L934.83 87.3942L934.86 88.0842L938.14 87.9642C939.1 87.9242 940.18 87.8442 941.38 87.7242C941.44 87.7842 941.48 88.1442 941.5 88.8142C941.52 89.4842 941.51 89.8341 941.46 89.8841C940.72 89.8441 939.96 89.8442 939.18 89.8742L936.9 89.9642C938.54 90.7842 940.39 91.3542 942.44 91.6742C941.72 92.2942 941.09 93.0442 940.55 93.9242C939.48 93.6742 938.44 93.3142 937.42 92.8442L937.63 98.3242L935.35 98.4142C938.21 99.0242 940.26 99.4942 941.49 99.8142L938.83 101.444C936.8 100.814 934.17 100.164 930.92 99.4941L932.16 98.5342L927.14 98.7242L928.59 99.5042C927.54 100.044 926.16 100.554 924.45 101.054C922.87 101.534 921.27 101.904 919.67 102.174ZM920.35 84.2642L923.68 84.1341L923.67 83.7542C923.67 83.7042 923.67 83.6342 923.66 83.5342C923.64 83.4242 923.62 83.3342 923.62 83.2742C924.29 83.2142 924.97 83.1942 925.68 83.2242C926.55 83.2542 926.99 83.3442 927 83.4842C926.78 83.5542 926.67 83.6442 926.68 83.7642L926.69 84.0242L931.69 83.8342L931.68 83.4542C931.68 83.4042 931.68 83.3342 931.67 83.2342C931.65 83.1242 931.63 83.0342 931.63 82.9742C932.3 82.9142 932.99 82.8942 933.71 82.9242C934.58 82.9542 935.02 83.0442 935.03 83.1842C934.81 83.2542 934.7 83.3442 934.71 83.4641L934.72 83.7242L938 83.6041L937.96 82.5542L929.13 82.8942L920.33 83.2242L920.35 84.2642ZM924.67 93.3042L934.33 92.9342L934.3 92.2142L929.47 92.3942L924.64 92.5742L924.67 93.3042ZM924.75 95.3442L934.41 94.9742L934.38 94.2542L929.55 94.4342L924.72 94.6142L924.75 95.3442ZM924.82 97.4242L929.65 97.2441L934.48 97.0642L934.45 96.2942L924.79 96.6642L924.82 97.4242ZM925.42 91.1742L929.72 91.0142L934.02 90.8541C933.79 90.7042 933.49 90.4642 933.1 90.1242L926.24 90.3841C926.04 90.6241 925.76 90.8842 925.42 91.1742ZM926.76 86.2542L931.76 86.0642L931.73 85.3742L929.23 85.4742L926.73 85.5642L926.76 86.2542ZM926.84 88.4042L931.84 88.2142L931.81 87.5242L929.31 87.6242L926.81 87.7142L926.84 88.4042Z" fill="#1F1F1F"/>
<path d="M946.477 25.8814L574.098 40.0417L575.377 73.6782L947.756 59.5179L946.477 25.8814Z" fill="#D9F24F"/>
<path d="M588.88 65.1445L589.4 59.9245L588.21 59.9645C587.93 59.9745 587.54 60.0045 587.02 60.0545C586.96 60.0245 586.92 59.6245 586.89 58.8645C586.86 58.0945 586.87 57.7045 586.93 57.6845C587.38 57.6945 587.82 57.6945 588.26 57.6845L589.62 57.6345L589.97 54.3345L588.69 54.3845C588.41 54.3945 588 54.4245 587.44 54.4845C587.38 54.4545 587.34 54.0545 587.31 53.2745C587.28 52.5045 587.29 52.0945 587.35 52.0645C587.68 52.1045 588.16 52.1045 588.77 52.0845L590.21 52.0245L590.73 47.4045L593.09 47.3145L592.63 51.9345L596.13 51.8045L596.65 47.1845L599.01 47.0945L598.57 51.7145L599.82 51.6645C600.12 51.6545 600.52 51.6245 601.04 51.5645C601.1 51.5745 601.14 51.9745 601.17 52.7445C601.2 53.5145 601.19 53.9245 601.13 53.9545C600.69 53.9445 600.22 53.9445 599.74 53.9645L598.32 54.0145L597.97 57.3145L599.3 57.2645C599.61 57.2545 600.05 57.2245 600.6 57.1645C600.66 57.1745 600.7 57.5745 600.73 58.3445C600.76 59.1145 600.75 59.5245 600.69 59.5545C600.34 59.5245 599.84 59.5145 599.22 59.5345L597.75 59.5945L597.23 64.8145L594.79 64.9045L595.32 59.6845L591.85 59.8145L591.56 62.4345L591.3 65.0345L588.88 65.1445ZM592.03 57.5445L595.53 57.4145L595.88 54.1145L592.38 54.2445L592.19 55.9045L592.03 57.5445Z" fill="#1F1F1F"/>
<path d="M609.75 64.3544L609.22 50.3944L605.62 52.2144L603.9 50.0044L610.11 46.5844L613.11 46.4744L613.45 55.3544L613.79 64.2144L609.75 64.3544Z" fill="#1F1F1F"/>
<path d="M627.03 64.0344C624.88 64.1144 623.17 63.3944 621.89 61.8844C620.55 60.3044 619.83 58.0244 619.71 55.0444C619.6 52.0644 620.15 49.7444 621.36 48.1044C622.51 46.5544 624.16 45.7444 626.33 45.6644C628.48 45.5844 630.18 46.2744 631.44 47.7444C632.78 49.2744 633.5 51.5344 633.61 54.5144C633.72 57.4944 633.17 59.8244 631.96 61.5044C630.82 63.1044 629.17 63.9544 627.03 64.0344ZM626.92 61.2744C628.97 61.1944 629.92 58.9844 629.75 54.6444C629.59 50.3844 628.48 48.2944 626.42 48.3644C624.35 48.4444 623.39 50.6144 623.56 54.8744C623.65 57.2144 624.01 58.9144 624.64 59.9644C625.2 60.8844 625.96 61.3144 626.92 61.2744Z" fill="#1F1F1F"/>
<path d="M635.73 67.7244L641.72 43.8344L644.44 43.7344L641.45 55.6944L638.46 67.6244L635.73 67.7244Z" fill="#1F1F1F"/>
<path d="M653.56 63.0245C650.65 63.1345 648.33 62.4045 646.58 60.8245L648.41 58.5245C649.9 59.6845 651.45 60.2345 653.06 60.1645C654.11 60.1245 654.95 59.8745 655.56 59.4245C656.19 58.9645 656.49 58.3545 656.46 57.5645C656.42 56.6245 656.01 55.9545 655.22 55.5545C654.31 55.0745 652.8 54.8845 650.69 54.9645L650.59 52.4245C653.92 52.2945 655.55 51.3345 655.48 49.5245C655.45 48.8245 655.19 48.2845 654.7 47.9245C654.2 47.5645 653.52 47.3845 652.65 47.4045C651.37 47.4645 650.1 48.0445 648.82 49.1345L646.66 47.0545C648.53 45.5245 650.56 44.7245 652.74 44.6445C654.76 44.5645 656.38 44.9145 657.62 45.6845C658.87 46.4645 659.53 47.6145 659.58 49.1145C659.65 51.0345 658.56 52.4245 656.29 53.2945V53.4145C657.52 53.6545 658.52 54.1245 659.29 54.8145C660.1 55.5645 660.52 56.5045 660.56 57.6145C660.62 59.1945 659.96 60.4845 658.57 61.4745C657.3 62.4245 655.62 62.9445 653.56 63.0245Z" fill="#1F1F1F"/>
<path d="M669.57 62.0743L669.04 48.1143L665.44 49.9343L663.72 47.7243L669.93 44.3043L672.93 44.1943L673.27 53.0743L673.61 61.9343L669.57 62.0743Z" fill="#1F1F1F"/>
<path d="M691.63 66.0844C690.23 64.2544 689.13 62.3544 688.36 60.4044C687.56 58.3044 687.11 56.1244 687.03 53.8344C686.86 49.4744 688.08 45.2944 690.69 41.3044L693.28 42.1444C691.15 45.6144 690.17 49.4744 690.33 53.7144C690.49 57.9744 691.77 61.7544 694.15 65.0544L691.63 66.0844Z" fill="#1F1F1F"/>
<path d="M696.54 53.4743C696.48 53.3643 696.43 52.7743 696.39 51.7043C696.35 50.6343 696.35 50.0243 696.4 49.8843C698.5 49.9943 701.28 49.9843 704.74 49.8543L713.12 49.5343C715.9 49.4243 718.67 49.2243 721.44 48.9243C721.5 49.0643 721.55 49.6743 721.59 50.7443C721.63 51.8143 721.63 52.4043 721.57 52.5143C720.01 52.4343 717.92 52.4343 715.32 52.5343L709.05 52.7743L702.78 53.0143C700.7 53.1043 698.63 53.2543 696.54 53.4743Z" fill="#1F1F1F"/>
<path d="M727.35 64.7243L724.79 63.8843C726.92 60.4143 727.9 56.5543 727.74 52.2943C727.58 48.0443 726.3 44.2743 723.92 40.9843L726.41 39.9543C729.33 43.7243 730.88 47.7943 731.05 52.1743C731.14 54.4543 730.86 56.6743 730.22 58.8243C729.58 60.8443 728.63 62.8144 727.35 64.7243Z" fill="#1F1F1F"/>
<path d="M750.41 59.3344C745.08 59.5344 742.31 56.8744 742.1 51.3344L741.73 41.5944L745.84 41.4344L746.22 51.4844C746.29 53.2544 746.68 54.5244 747.39 55.2944C748.05 55.9844 749.01 56.3144 750.29 56.2644C751.58 56.2144 752.54 55.8144 753.16 55.0744C753.85 54.2344 754.16 52.9344 754.1 51.1844L753.91 46.1544L753.72 41.1244L757.66 40.9744L758.03 50.7144C758.25 56.2644 755.71 59.1344 750.41 59.3344Z" fill="#1F1F1F"/>
<path d="M763.28 58.5143L762.61 40.8043L766.72 40.6443L767.06 49.5043L767.4 58.3643L763.28 58.5143Z" fill="#1F1F1F"/>
<path d="M785.15 52.5744C783.28 50.7444 781.23 49.0644 778.98 47.5344L781.78 45.2444C782.75 45.8744 783.86 46.7044 785.13 47.7044C786.3 48.6544 787.26 49.5044 788.04 50.2544L786.58 51.4144L785.15 52.5744Z" fill="#1F1F1F"/>
<path d="M801.7 59.2745C800.7 59.3145 800.14 59.2945 800 59.2245C800.12 57.8745 800.13 56.0745 800.04 53.8245L799.83 48.4145L799.62 43.0045C799.53 40.7545 799.38 38.9645 799.16 37.6245C799.15 37.4345 799.23 37.3345 799.4 37.3245C801.5 37.4345 804.28 37.4245 807.74 37.2945L815.01 37.0145C817.95 36.9045 820.36 36.7245 822.25 36.4745C822.47 36.4645 822.59 36.5445 822.59 36.7245C822.44 38.5245 822.42 40.9145 822.53 43.9145L822.8 51.0945C822.91 54.0745 823.11 56.4645 823.41 58.2645C823.25 58.3545 822.64 58.4145 821.58 58.4545C820.53 58.4945 819.99 58.4745 819.97 58.3945C819.97 58.3645 819.97 58.2945 819.96 58.2045C819.97 58.0445 819.98 57.9245 819.97 57.8445L819.95 57.2745L803.1 57.9145L803.12 58.5145C803.12 58.5745 803.14 58.6845 803.16 58.8445C803.16 58.9545 803.17 59.0345 803.17 59.0845C803.18 59.1845 802.68 59.2445 801.7 59.2745ZM803.04 55.7745L819.89 55.1345L819.28 39.0245L802.43 39.6645L802.74 47.7345L803.04 55.7745ZM811.47 55.1645C811.37 54.8345 811.13 54.3745 810.78 53.7745C811.72 53.7745 812.35 53.7445 812.67 53.7045C812.93 53.6945 813.05 53.5945 813.05 53.4045L813 51.9645L808.17 52.1445C809.01 52.8045 809.65 53.4245 810.08 54.0145L807.98 55.0245C807.51 54.3345 806.85 53.6445 806.01 52.9445L807.7 52.1645L805.59 52.2445C805.11 52.2645 804.41 52.3245 803.48 52.4245C803.42 52.3745 803.38 52.0945 803.36 51.5645C803.34 51.0345 803.36 50.7545 803.41 50.7045C804.19 50.7445 804.98 50.7445 805.77 50.7145L808.16 50.6245L812.93 50.4445L812.92 50.0845C812.92 50.0345 812.91 49.9645 812.9 49.8845C812.89 49.7945 812.88 49.7245 812.88 49.6545C813.49 49.5945 814.11 49.5845 814.74 49.6045C815.52 49.6345 815.91 49.7245 815.92 49.8745C815.7 49.9445 815.59 50.0245 815.59 50.1045L815.6 50.3445L817.04 50.2945C816.91 50.1445 816.62 49.8745 816.21 49.5145C811.16 49.8645 807.07 50.1245 803.92 50.2945L803.78 48.7945C805.8 48.7145 807.81 48.6445 809.83 48.5645L809.8 47.7745L804.42 47.9845L804.33 45.5445C804.29 44.5845 804.22 43.7745 804.1 43.1045C804.1 43.0445 804.14 43.0045 804.24 43.0045C805.13 43.0345 806.03 43.0345 806.94 42.9945L809.63 42.8945L809.6 42.1745L806.52 42.2945C805.59 42.3345 804.58 42.4045 803.47 42.5345C803.41 42.4745 803.37 42.1745 803.35 41.6545C803.33 41.1245 803.35 40.8345 803.4 40.7645C804.23 40.8145 805.26 40.8145 806.46 40.7645L809.54 40.6445L809.52 40.1845C809.52 40.1345 809.52 40.0645 809.51 39.9645C809.49 39.8245 809.47 39.7145 809.47 39.6545C810.06 39.6045 810.67 39.5845 811.3 39.6145C812.08 39.6445 812.47 39.7345 812.48 39.8745C812.26 39.9845 812.15 40.0845 812.16 40.1945L812.17 40.5345L815.28 40.4145C816.21 40.3745 817.24 40.3045 818.38 40.1745C818.44 40.2345 818.48 40.5345 818.5 41.0545C818.52 41.5845 818.5 41.8745 818.45 41.9445C817.58 41.8945 816.54 41.8945 815.34 41.9445L812.23 42.0645L812.26 42.7845L815.01 42.6845C815.94 42.6445 816.84 42.5845 817.73 42.4845C817.82 42.4845 817.87 42.5145 817.87 42.5745C817.8 43.2445 817.79 44.0645 817.82 45.0245L817.91 47.4645L816.55 47.5145C817.58 48.1745 818.35 48.7745 818.87 49.2945L817.46 50.2845L818.29 50.2545C818.49 50.2445 818.76 50.2245 819.09 50.1745C819.15 50.1845 819.18 50.4545 819.21 50.9845C819.23 51.5145 819.21 51.7945 819.16 51.8245C818.75 51.7945 818.17 51.7845 817.41 51.8145L815.66 51.8845L815.72 53.4145C815.74 53.8645 815.68 54.1845 815.55 54.3945C815.42 54.5945 815.17 54.7545 814.8 54.8645C814.3 54.9945 813.19 55.1045 811.47 55.1645ZM806.74 44.8445L809.68 44.7345L809.65 44.0345L808.18 44.0945L806.71 44.1545L806.74 44.8445ZM806.81 46.6645L809.75 46.5545L809.72 45.8645L808.25 45.9245L806.78 45.9845L806.81 46.6645ZM812.32 44.6345L813.76 44.5845L815.2 44.5345L815.17 43.8345L812.28 43.9445L812.32 44.6345ZM812.39 46.4545L813.83 46.4045L815.27 46.3545L815.24 45.6645L812.35 45.7745L812.39 46.4545ZM812.46 48.4145L814.65 48.3345L814.34 48.1345L815.23 47.5445L813.81 47.5945L812.42 47.6445L812.46 48.4145Z" fill="#1F1F1F"/>
<path d="M830.12 58.1743C829.19 58.2143 828.66 58.1943 828.51 58.1143C828.64 56.5943 828.66 54.7443 828.58 52.5743L828.37 47.0243L826.76 47.0843L826.62 43.3443L828.17 43.2843L828.04 39.8843C827.99 38.4443 827.89 37.3143 827.74 36.4943C827.74 36.3843 827.79 36.3243 827.9 36.3243C829.14 36.3943 830.57 36.3943 832.18 36.3343L836.45 36.1743L836.71 42.9743L838.32 42.9143L838.42 45.6243L844.92 45.3743C846.86 45.3043 849.01 45.1443 851.38 44.8943C851.44 45.0043 851.48 45.3943 851.51 46.0543C851.54 46.7143 851.52 47.0843 851.47 47.1443C850.58 47.0943 849.49 47.1043 848.22 47.1443L844.97 47.2643L838.47 47.5143L838.44 46.6543L836.75 46.7143L837.08 55.4043C837.1 55.9443 837.06 56.3643 836.96 56.6543C836.82 56.9843 836.58 57.2343 836.24 57.4243C835.93 57.6143 835.53 57.7443 835.03 57.8343C834.68 57.8843 834.12 57.9143 833.34 57.9443C833.22 57.2943 832.95 56.5843 832.54 55.8143C832.97 55.8143 833.47 55.8043 834.04 55.7843C834.24 55.7643 834.34 55.6643 834.33 55.4843L834.27 53.8343L831.35 53.9443L831.43 55.9843C831.46 56.6743 831.52 57.3443 831.62 58.0143C831.57 58.0743 831.07 58.1343 830.12 58.1743ZM829.03 46.1543L832.53 46.0243L836.03 45.8943L835.99 44.9343L828.99 45.2043L829.03 46.1543ZM830.47 43.2043L831.41 43.1643L831.27 39.3543L834.13 39.2443L834.09 38.2643L830.29 38.4143L830.38 40.8043L830.47 43.2043ZM831.17 49.0443L832.61 48.9943L834.08 48.9343L834.04 47.8843L831.12 47.9943L831.17 49.0443ZM831.28 52.0143L834.2 51.9043L834.16 50.8043L832.69 50.8643L831.25 50.9143L831.28 52.0143ZM833.14 43.0943L834.28 43.0543L834.2 40.8543L833.06 40.8943L833.1 41.9943L833.14 43.0943ZM838.3 57.5743C838.24 57.5143 838.2 57.1343 838.17 56.4543C838.14 55.7643 838.16 55.4143 838.21 55.3743C838.64 55.4043 839.21 55.4043 839.93 55.3843L841.68 55.3143C841.33 54.4943 840.98 53.8543 840.61 53.3943L842.26 52.8043L839.65 52.9043L839.56 50.5543C839.53 49.7743 839.46 49.0043 839.36 48.2343C839.36 48.1043 839.39 48.0443 839.46 48.0443C840.95 48.1143 842.8 48.1043 845.02 48.0243L847.82 47.9143C848.75 47.8743 849.67 47.8143 850.59 47.7143C850.66 47.7143 850.7 47.7443 850.71 47.8043C850.67 48.5743 850.66 49.3443 850.69 50.1343L850.78 52.4843L848.2 52.5843L849.85 52.8543C849.5 53.4743 849.06 54.2143 848.52 55.0643L850.3 54.9943C850.91 54.9743 851.5 54.9243 852.07 54.8543C852.13 54.8843 852.17 55.2443 852.19 55.9243C852.22 56.6143 852.2 56.9843 852.15 57.0543C851.18 57.0143 850.03 57.0143 848.67 57.0643L845.2 57.1943L841.73 57.3243C840.7 57.3643 839.56 57.4443 838.3 57.5743ZM838.96 44.8943C838.83 44.8943 838.76 44.8643 838.76 44.7843C838.89 44.2843 838.92 43.2843 838.84 41.7843C838.83 41.4643 838.82 41.2243 838.81 41.0643L838.67 37.3543L841.7 37.2343L841.66 36.2343C841.65 35.9643 841.62 35.6043 841.56 35.1543C842.1 35.1043 842.65 35.0943 843.23 35.1143C843.96 35.1543 844.32 35.2443 844.33 35.3843C844.04 35.6843 843.91 35.9743 843.92 36.2643L843.95 37.1443L845.12 37.1043L845.08 36.1043C845.07 35.8343 845.04 35.4743 844.98 35.0243C845.52 34.9743 846.08 34.9543 846.67 34.9843C847.41 35.0243 847.79 35.1043 847.79 35.2543C847.5 35.5543 847.37 35.8443 847.38 36.1343L847.41 37.0143L850.55 36.8943L850.69 40.6043C850.74 42.0043 850.86 43.2443 851.03 44.3043C851.03 44.3843 850.97 44.4243 850.84 44.4343C850.04 44.3843 849.05 44.3843 847.87 44.4243L844.9 44.5343L841.93 44.6443C840.74 44.7043 839.75 44.7843 838.96 44.8943ZM841.14 40.0843L842.31 40.0443L842.29 39.5443L842.27 39.0143L841.1 39.0543L841.14 40.0843ZM841.24 42.8643L842.41 42.8243L842.39 42.2943L842.37 41.7643L841.2 41.8043L841.24 42.8643ZM842.2 51.1243L848 50.9043L847.95 49.5843L845.04 49.6943L842.15 49.8043L842.2 51.1243ZM844.24 55.2143L846.1 55.1443C846.55 54.2143 846.88 53.3743 847.09 52.6143L845.01 52.6943L842.93 52.7743C843.59 53.6243 844.03 54.4443 844.24 55.2143ZM844.05 39.9743L845.22 39.9343L845.18 38.9043L844.01 38.9443L844.03 39.4743L844.05 39.9743ZM844.16 42.7543L845.33 42.7143L845.31 42.1843L845.29 41.6543L844.12 41.6943L844.16 42.7543ZM846.97 39.8643L847.55 39.8443L848.16 39.8243L848.12 38.7943L846.93 38.8443L846.97 39.8643ZM847.07 42.6443L848.26 42.5943L848.22 41.5443L847.03 41.5943L847.05 42.1243L847.07 42.6443Z" fill="#1F1F1F"/>
<path d="M860.05 57.0543C859.07 57.0943 858.51 57.0743 858.38 56.9943C858.5 55.7943 858.52 54.1843 858.45 52.1743L858.27 47.3443L854.25 47.7343L853.88 45.2543L855.9 45.1043C856.26 44.6943 856.65 44.1843 857.09 43.5743C856.27 42.5643 855.14 41.5143 853.69 40.4243L855.14 38.4043C855.37 38.5543 855.6 38.7143 855.83 38.8843C856.64 37.3343 857.25 35.9243 857.64 34.6443C858.41 34.8543 859.1 35.1343 859.73 35.4743C860.39 35.8443 860.67 36.1343 860.57 36.3343C860.48 36.4843 860.35 36.6043 860.17 36.7143C859.84 36.8843 859.57 37.1743 859.34 37.5843C858.78 38.5943 858.23 39.5243 857.67 40.3843C858 40.6743 858.32 40.9943 858.65 41.3543C859.51 40.0743 860.29 38.7343 861 37.3343C861.73 37.5743 862.4 37.8843 863.01 38.2443C863.64 38.6543 863.89 38.9443 863.77 39.1243C863.68 39.2543 863.54 39.3543 863.34 39.4243C863.01 39.5643 862.72 39.8243 862.45 40.2043C861.04 42.1743 859.84 43.7443 858.85 44.9143L861.6 44.7143C861.24 44.1043 860.9 43.5643 860.56 43.1043L862.83 42.1343C864.22 44.0443 865.12 45.7043 865.52 47.0943L863.12 48.1943C863.03 47.8743 862.89 47.4543 862.68 46.9143L861.13 47.0743L861.32 52.0043L861.41 54.4743C861.45 55.4343 861.52 56.2443 861.64 56.9143C861.56 56.9543 861.03 57.0243 860.05 57.0543ZM856.45 55.2743C855.66 54.8843 854.82 54.5743 853.94 54.3343C854.58 53.0443 854.99 51.1743 855.17 48.7243C855.91 48.8043 856.59 48.9443 857.19 49.1243C857.86 49.3043 858.19 49.4743 858.18 49.6343C858.17 49.7443 858.1 49.8543 857.97 49.9543C857.79 50.1343 857.68 50.3943 857.64 50.7343C857.6 51.1043 857.5 51.6543 857.34 52.4043C857.09 53.5943 856.79 54.5443 856.45 55.2743ZM863.03 53.5843C862.89 52.9143 862.65 52.1843 862.31 51.3843C861.94 50.4443 861.59 49.6543 861.25 49.0243L863.61 48.2643C864.42 49.6543 865.07 51.1343 865.56 52.6943L863.03 53.5843ZM864 56.4043C863.94 56.2643 863.89 55.7543 863.86 54.8643C863.83 53.9743 863.84 53.5243 863.89 53.5043C864.3 53.5243 864.72 53.5243 865.14 53.5043L866.39 53.4543L865.98 42.6843C865.87 39.6843 865.66 37.2943 865.37 35.5143C865.36 35.3743 865.47 35.2943 865.7 35.2843C867.15 35.3743 869.08 35.3743 871.51 35.2843L874.42 35.1743C875.55 35.1343 876.51 35.0543 877.3 34.9443C877.45 34.9343 877.52 34.9743 877.53 35.0543C877.43 36.2443 877.41 37.7343 877.48 39.5443L877.65 44.0443L877.99 53.0243L878.91 52.9843C879.11 52.9743 879.42 52.9443 879.82 52.9043C879.88 52.9143 879.92 53.3643 879.95 54.2443C879.98 55.1243 879.97 55.5943 879.92 55.6643C878.95 55.6043 877.63 55.6043 875.94 55.6743L871.94 55.8243C869.29 55.9143 866.64 56.1143 864 56.4043ZM869.07 41.2743L871.65 41.1743L874.26 41.0743L874.13 37.7443L868.94 37.9443L869.07 41.2743ZM869.29 47.2343L871.87 47.1343L874.48 47.0343L874.35 43.6143L869.16 43.8143L869.29 47.2343ZM869.53 53.3443L874.72 53.1443L874.59 49.6043L871.98 49.7043L869.4 49.8043L869.53 53.3443Z" fill="#1F1F1F"/>
<path d="M885.09 56.0845C884 56.1245 883.39 56.1145 883.26 56.0345C883.37 54.6845 883.39 52.8945 883.3 50.6645L883.1 45.3045L882.9 39.9445C882.82 37.7145 882.66 35.9245 882.45 34.5945C882.45 34.4645 882.53 34.4045 882.69 34.3945C884.08 34.4745 885.83 34.4645 887.94 34.3845L893.19 34.1845L893.35 38.4245C893.41 40.1345 893.54 41.5445 893.73 42.6545C893.73 42.7545 893.66 42.8045 893.51 42.8045C892.6 42.7445 891.38 42.7445 889.84 42.8045L886.18 42.9445L886.43 49.4345C886.53 52.0845 886.71 54.2445 886.98 55.9045C886.82 55.9745 886.2 56.0345 885.09 56.0845ZM885.97 37.7045L888.11 37.6245L890.25 37.5445L890.2 36.3245L885.92 36.4845L885.97 37.7045ZM886.09 40.8645L890.37 40.7045L890.32 39.3845L888.18 39.4645L886.04 39.5445L886.09 40.8645ZM889.99 55.7545C889.43 55.2045 888.72 54.6845 887.84 54.2045C889.27 53.3545 890.15 52.0745 890.47 50.3645L889.08 50.4145C888.76 50.4245 888.31 50.4545 887.72 50.5145C887.66 50.4845 887.62 50.0745 887.59 49.2945C887.56 48.5145 887.57 48.1045 887.63 48.0745C887.96 48.1145 888.44 48.1145 889.05 48.0945L890.49 48.0445L890.42 46.2445L889.17 46.2945C888.87 46.3045 888.47 46.3345 887.95 46.3845C887.89 46.3545 887.85 45.9645 887.82 45.2045C887.79 44.4445 887.8 44.0345 887.86 43.9645C888.75 44.0145 889.84 44.0045 891.14 43.9645L894.42 43.8445L897.72 43.7145C898.7 43.6745 899.79 43.5945 900.99 43.4645C901.05 43.5245 901.09 43.9345 901.12 44.6945C901.15 45.4545 901.14 45.8445 901.08 45.8845C900.67 45.8645 900.25 45.8645 899.8 45.8845L898.52 45.9345L898.59 47.7345L900.09 47.6745C900.59 47.6545 901.09 47.6145 901.59 47.5445C901.65 47.5745 901.69 47.9845 901.72 48.7745C901.75 49.5645 901.74 49.9745 901.68 50.0145C901.33 49.9745 900.83 49.9745 900.18 49.9945L898.68 50.0545L898.77 52.5245C898.81 53.4945 898.88 54.3145 899 54.9845C898.93 55.0645 898.41 55.1245 897.45 55.1645C896.49 55.2045 895.97 55.1845 895.89 55.1045C895.96 54.4345 895.97 53.6045 895.93 52.6345L895.84 50.1645L893.23 50.2645C893.1 51.2745 892.81 52.2145 892.36 53.0745C891.81 54.1945 891.01 55.0845 889.99 55.7545ZM893.25 47.9345L895.78 47.8345L895.71 46.0345L894.43 46.0845L893.18 46.1345L893.25 47.9345ZM900.71 55.2945C900.64 54.9045 900.5 54.4245 900.28 53.8745C900.06 53.3245 899.84 52.8645 899.6 52.5045C900.99 52.5045 901.98 52.4745 902.57 52.4145C902.96 52.3945 903.15 52.2345 903.14 51.9145L902.78 42.3345L895.28 42.6245L895.12 38.3645C895.05 36.6445 894.93 35.2245 894.74 34.1145C894.74 33.9845 894.81 33.9245 894.95 33.9145C896.38 33.9845 898.16 33.9845 900.29 33.9045L902.98 33.8045C903.87 33.7745 904.76 33.7045 905.64 33.6045C905.79 33.6045 905.86 33.6245 905.87 33.6945C905.77 34.8945 905.75 36.4045 905.82 38.2245L905.99 42.7745L906.33 51.8245C906.36 52.5745 906.29 53.1545 906.12 53.5645C905.93 54.0045 905.6 54.3445 905.13 54.5845C904.7 54.8245 904.1 55.0045 903.34 55.1045C902.73 55.1845 901.85 55.2545 900.71 55.2945ZM898.16 37.2445L900.35 37.1645L902.57 37.0845L902.52 35.8645L898.11 36.0345L898.16 37.2445ZM898.28 40.4545L902.69 40.2845L902.64 38.9245L900.42 39.0045L898.23 39.0845L898.28 40.4545Z" fill="#1F1F1F"/>
<path d="M912.48 54.9144C911.9 54.3144 911.24 53.7344 910.5 53.1644C912.82 52.8044 915.04 52.2744 917.17 51.5644L914.73 51.6544L914.53 46.3644C913.49 46.8944 912.44 47.3344 911.36 47.6544C910.81 46.8744 910.16 46.2144 909.42 45.6644C911.64 45.1044 913.63 44.2844 915.39 43.2344L912.84 43.3344C912.27 43.3544 911.42 43.4244 910.32 43.5244C910.26 43.4744 910.22 43.1244 910.2 42.4644C910.18 41.8044 910.19 41.4344 910.24 41.3744C911.13 41.4244 912.21 41.4144 913.46 41.3744L916.68 41.2544L916.65 40.5644L915.04 40.6244C914.5 40.6444 913.97 40.6844 913.43 40.7544C913.37 40.7244 913.34 40.4644 913.32 39.9544C913.3 39.4544 913.32 39.1844 913.37 39.1444C913.76 39.1744 914.3 39.1844 914.98 39.1544L916.59 39.0944L916.56 38.4044L913.03 38.5344L913 37.8144L910.25 37.9144L910.1 33.9144L920.23 33.5344L920.2 32.8644C920.19 32.6944 920.17 32.4444 920.12 32.1244C920.86 32.0644 921.61 32.0444 922.37 32.0644C923.3 32.0944 923.76 32.1844 923.77 32.3244C923.55 32.4944 923.45 32.6744 923.46 32.8644L923.48 33.4144L928.59 33.2244L933.72 33.0244L933.87 37.0244L931.15 37.1244L931.18 37.8444L927.57 37.9844L927.6 38.6744L929.32 38.6044C929.89 38.5844 930.46 38.5344 931.01 38.4644C931.07 38.4944 931.1 38.7644 931.12 39.2644C931.14 39.7644 931.12 40.0344 931.07 40.0644C930.66 40.0344 930.1 40.0344 929.37 40.0544L927.65 40.1244L927.68 40.8144L930.96 40.6944C931.92 40.6544 933 40.5744 934.2 40.4544C934.26 40.5144 934.3 40.8744 934.32 41.5444C934.34 42.2144 934.33 42.5644 934.28 42.6144C933.54 42.5744 932.78 42.5744 932 42.6044L929.72 42.6944C931.36 43.5144 933.21 44.0844 935.26 44.4044C934.54 45.0244 933.91 45.7744 933.37 46.6544C932.3 46.4044 931.26 46.0444 930.25 45.5744L930.46 51.0544L928.18 51.1444C931.04 51.7544 933.09 52.2244 934.32 52.5444L931.66 54.1744C929.63 53.5444 927 52.8944 923.75 52.2244L924.99 51.2644L919.96 51.4544L921.41 52.2344C920.36 52.7744 918.98 53.2844 917.27 53.7844C915.68 54.2744 914.08 54.6544 912.48 54.9144ZM913.16 37.0144L916.49 36.8844L916.48 36.5044C916.48 36.4544 916.48 36.3844 916.47 36.2844C916.45 36.1744 916.43 36.0844 916.43 36.0244C917.1 35.9644 917.78 35.9444 918.48 35.9744C919.35 36.0044 919.79 36.0944 919.8 36.2344C919.58 36.3044 919.47 36.3944 919.48 36.5144L919.49 36.7744L924.49 36.5844L924.48 36.2044C924.48 36.1544 924.48 36.0844 924.47 35.9844C924.45 35.8744 924.43 35.7844 924.43 35.7244C925.1 35.6644 925.79 35.6444 926.51 35.6744C927.38 35.7044 927.82 35.7944 927.83 35.9344C927.61 36.0044 927.5 36.0944 927.51 36.2144L927.52 36.4744L930.8 36.3544L930.76 35.3044L921.93 35.6444L913.13 35.9744L913.16 37.0144ZM917.48 46.0544L927.14 45.6844L927.11 44.9644L922.28 45.1444L917.45 45.3244L917.48 46.0544ZM917.56 48.0844L927.22 47.7144L927.19 46.9944L922.36 47.1744L917.53 47.3544L917.56 48.0844ZM917.64 50.1644L922.47 49.9844L927.3 49.8044L927.27 49.0344L917.61 49.4044L917.64 50.1644ZM918.23 43.9144L922.53 43.7544L926.83 43.5944C926.6 43.4444 926.3 43.2044 925.91 42.8644L919.05 43.1244C918.85 43.3644 918.57 43.6244 918.23 43.9144ZM919.57 38.9944L924.57 38.8044L924.54 38.1144L922.04 38.2144L919.54 38.3044L919.57 38.9944ZM919.66 41.1444L924.66 40.9544L924.63 40.2644L922.13 40.3644L919.63 40.4544L919.66 41.1444Z" fill="#1F1F1F"/>
<path d="M439.62 133.784C554.09 91.0443 439.62 272.024 580.07 215.324" stroke="#F2E8DE" stroke-width="2" stroke-miterlimit="10"/>
<path d="M565.93 211.994L582.64 214.424L569.85 227.094L565.93 211.994Z" fill="#F2E8DE"/>
<path d="M439.62 139.904C443 139.904 445.74 137.164 445.74 133.784C445.74 130.404 443 127.664 439.62 127.664C436.24 127.664 433.5 130.404 433.5 133.784C433.5 137.164 436.24 139.904 439.62 139.904Z" fill="#F2E8DE"/>
<path d="M153.34 271.464H0V304.014H153.34V271.464Z" fill="#F2E8DE"/>
<path d="M52.86 298.414C52.48 298.014 51.97 297.544 51.32 297.024V297.154H45.8V297.584C45.8 297.644 45.81 297.734 45.83 297.854C45.83 297.934 45.83 297.984 45.83 298.014C45.81 298.094 45.28 298.124 44.24 298.124C43.2 298.124 42.63 298.084 42.55 298.014C42.65 297.324 42.71 296.384 42.71 295.184V292.334L42.55 292.374C42.38 292.034 42.1 291.624 41.73 291.164C41.36 290.704 41.01 290.324 40.7 290.044C42.24 289.594 43.67 288.944 44.97 288.084L43.69 287.324C43.53 287.444 43.28 287.604 42.93 287.814C42.23 287.084 41.47 286.444 40.64 285.904C41.66 285.394 42.59 284.744 43.43 283.944C44.28 283.154 44.92 282.294 45.36 281.384C46.11 281.554 46.82 281.734 47.5 281.934C48.18 282.134 48.51 282.254 48.49 282.294C48.47 282.334 48.43 282.354 48.36 282.354C48.24 282.364 48.16 282.414 48.13 282.484C48.08 282.584 48 282.734 47.9 282.914H49.75L50.27 282.804L52.38 283.634C51.79 285.114 50.95 286.484 49.85 287.724C51.1 288.424 52.18 289.084 53.11 289.704L51.34 291.664V296.094C53.01 295.424 54.34 294.674 55.33 293.844H53.4V287.844V281.824H56.53C56.63 281.344 56.7 280.954 56.74 280.654H52.81V281.714C52.81 282.074 52.83 282.414 52.86 282.744C52.84 282.804 52.32 282.834 51.3 282.834C50.27 282.834 49.75 282.804 49.71 282.744C49.75 282.534 49.76 282.314 49.76 282.074V281.374H44.24V282.074C44.24 282.314 44.26 282.534 44.29 282.744C44.27 282.804 43.76 282.834 42.75 282.834C41.76 282.834 41.24 282.804 41.19 282.744C41.26 282.114 41.29 281.474 41.29 280.814V278.884H45.28V278.034C45.28 277.814 45.26 277.504 45.23 277.114C46.01 277.084 46.81 277.094 47.63 277.134C48.64 277.194 49.14 277.294 49.14 277.424C48.86 277.664 48.72 277.904 48.72 278.144V278.884H52.73V277.894H58.77C60.58 277.894 62.59 277.814 64.81 277.674C64.86 277.774 64.89 278.304 64.89 279.254C64.89 280.204 64.86 280.704 64.81 280.744C64.11 280.684 63.42 280.654 62.73 280.654H60.65C60.61 280.734 60.56 280.844 60.49 280.994C60.32 281.374 60.2 281.644 60.13 281.824H64.35V287.844C64.35 290.284 64.44 292.284 64.64 293.844C64.64 293.954 64.54 294.004 64.35 294.004C63.1 293.904 61.67 293.844 60.05 293.844H55.72L58.4 295.394C57.72 295.964 56.87 296.524 55.85 297.094C54.81 297.644 53.81 298.084 52.86 298.414ZM45.8 294.714H47H48.2V293.274H45.8V294.714ZM47.23 286.244C47.44 286.024 47.6 285.824 47.73 285.664C47.85 285.534 48.02 285.324 48.23 285.054H46.28C46.19 285.164 46.06 285.304 45.89 285.484L47.23 286.244ZM45.93 290.824H49.34C49.17 290.704 48.89 290.524 48.51 290.284C48.47 290.254 48.41 290.214 48.33 290.174C48 289.964 47.76 289.814 47.6 289.724C47.04 290.124 46.49 290.494 45.93 290.824ZM56.69 285.144H58.75H60.83V284.204H56.69V285.144ZM56.69 288.284H58.75H60.83V287.344H56.69V288.284ZM56.69 291.454H58.75H60.83V290.514H56.69V291.454ZM62.81 298.444C62.34 297.964 61.76 297.454 61.06 296.914C60.17 296.214 59.46 295.674 58.92 295.324L61.6 293.844C63.6 295.144 64.95 296.134 65.66 296.814L62.81 298.444Z" fill="#1F1F1F"/>
<path d="M84.85 298.504C83.53 298.504 82.81 298.464 82.69 298.394C82.85 297.224 82.92 295.664 82.92 293.694V288.994C81.98 288.064 81.06 286.994 80.16 285.784C78.25 291.734 75 295.874 70.42 298.204C70.09 297.834 69.63 297.394 69.04 296.904C68.42 296.384 67.88 295.994 67.45 295.754C70.12 294.544 72.32 292.744 74.04 290.364C73.26 289.724 72.19 288.984 70.84 288.164C70.35 288.674 69.98 289.044 69.72 289.264C69.39 288.984 68.9 288.614 68.26 288.174C67.62 287.734 67.08 287.394 66.64 287.154C68.01 286.074 69.22 284.624 70.26 282.794C71.25 281.074 72.02 279.164 72.58 277.064C73.55 277.244 74.46 277.454 75.29 277.694C76.16 277.944 76.58 278.134 76.54 278.254C76.5 278.344 76.43 278.424 76.3 278.504C76.09 278.604 75.95 278.784 75.88 279.024C75.84 279.114 75.8 279.234 75.75 279.384C75.61 279.784 75.5 280.084 75.41 280.284H78.28L78.9 280.174L81.35 280.894C81.26 281.354 81.13 282.044 80.96 282.934L81.92 282.624C82.23 283.164 82.56 283.644 82.91 284.064V280.604C82.91 279.344 82.85 278.174 82.73 277.074C83.69 277.044 84.67 277.054 85.67 277.094C86.9 277.154 87.52 277.254 87.52 277.384C87.28 277.774 87.11 278.084 87.02 278.324C86.86 278.724 86.79 279.194 86.79 279.714V282.454V287.754C88.39 288.924 90.05 289.834 91.79 290.494C91.37 290.804 90.89 291.264 90.33 291.864C89.83 292.404 89.41 292.904 89.08 293.364C88.12 292.904 87.36 292.484 86.79 292.104V295.254C86.79 296.574 86.84 297.614 86.95 298.374C86.89 298.474 86.19 298.504 84.85 298.504ZM75.73 287.454C76.03 286.824 76.29 286.174 76.51 285.504C76.74 284.844 76.94 284.134 77.13 283.374H74.03C73.54 284.334 73.1 285.094 72.7 285.664C73.96 286.334 74.97 286.934 75.73 287.454Z" fill="#1F1F1F"/>
<path d="M94.7 298.464C94.51 298.094 94.21 297.664 93.8 297.174C93.39 296.684 93.01 296.314 92.67 296.064C93.69 295.604 94.4301 294.954 94.8801 294.134C95.2101 293.524 95.43 292.674 95.53 291.594H94.36V288.534C94.36 287.264 94.31 286.244 94.2 285.484C94.2 285.364 94.25 285.304 94.36 285.304C95.66 285.424 97.3 285.484 99.28 285.484H104.2V291.594H102.74V294.084L104.59 293.524L105.03 295.304C105.72 294.914 106.21 294.404 106.49 293.774C106.72 293.284 106.86 292.554 106.93 291.594H106.02V285.484H111.1H116.21V291.594H114.02V294.854C114.02 294.944 114.04 295.034 114.07 295.124C114.12 295.214 114.22 295.254 114.36 295.254H114.62C114.72 295.254 114.8 295.214 114.85 295.144C114.9 295.104 114.94 295.014 114.98 294.874C115 294.844 115.01 294.824 115.01 294.804C115.08 294.344 115.1 293.714 115.09 292.914C115.38 293.154 115.8 293.404 116.34 293.664C116.88 293.924 117.36 294.114 117.77 294.234C117.72 295.354 117.58 296.204 117.35 296.774C117.18 297.264 116.85 297.644 116.39 297.894C116.04 298.134 115.53 298.254 114.85 298.254H113.34C112.47 298.254 111.82 298.044 111.39 297.624C111.15 297.384 110.99 297.114 110.92 296.814C110.83 296.514 110.79 295.994 110.79 295.264V291.584H110.11C109.99 293.414 109.64 294.794 109.07 295.714C108.32 296.894 107.01 297.784 105.14 298.384C104.86 297.814 104.45 297.224 103.92 296.614C103.23 296.864 102.2 297.224 100.85 297.674C100.33 297.844 99.95 297.964 99.7 298.054L98.81 295.204L99.51 295.024V291.584H98.62C98.46 293.234 98.15 294.534 97.68 295.494C97.07 296.754 96.07 297.744 94.7 298.464ZM93.32 284.934C93.27 284.874 93.2401 284.424 93.2401 283.574C93.2401 282.724 93.27 282.294 93.32 282.284C93.67 282.314 94.01 282.324 94.36 282.324H95.4C95.24 281.684 95.11 281.204 94.98 280.904H94.3501C94.2601 280.904 94.15 280.914 94.01 280.924C93.89 280.924 93.8 280.924 93.75 280.924C93.7 280.914 93.67 280.494 93.67 279.684C93.67 278.874 93.7 278.454 93.75 278.424C94.22 278.464 94.86 278.494 95.68 278.494H97.61V277.794C97.61 277.614 97.59 277.364 97.56 277.034C98.31 277.004 99.06 277.014 99.83 277.054C100.77 277.114 101.24 277.214 101.24 277.344C101.03 277.524 100.93 277.714 100.93 277.904V278.484H102.81C103.43 278.484 104.06 278.464 104.69 278.414C104.74 278.444 104.77 278.864 104.77 279.674C104.77 280.484 104.74 280.894 104.69 280.914C104.65 280.914 104.59 280.914 104.51 280.914C104.37 280.904 104.27 280.894 104.2 280.894H103.68C103.54 281.164 103.38 281.524 103.18 281.974C103.11 282.124 103.06 282.234 103.02 282.314H103.93C104.16 282.314 104.46 282.304 104.84 282.274C104.89 282.284 104.92 282.724 104.92 283.564C104.92 284.414 104.89 284.864 104.84 284.924C104.06 284.854 103.1 284.814 101.97 284.814H99.08H96.19C95.32 284.824 94.36 284.864 93.32 284.934ZM97.51 289.204H100.82V287.834H99.15H97.51V289.204ZM98.37 282.334H100.06L99.93 282.314C99.95 282.274 99.97 282.204 100.01 282.114C100.08 281.904 100.14 281.744 100.19 281.644C100.29 281.314 100.37 281.074 100.42 280.924H97.97C98.14 281.324 98.27 281.794 98.37 282.334ZM105.3 284.934C105.25 284.874 105.22 284.424 105.22 283.574C105.22 282.724 105.25 282.294 105.3 282.284C105.58 282.314 105.88 282.324 106.21 282.324H107.15C107.05 281.864 106.91 281.384 106.73 280.904H106.13C106.04 280.904 105.93 280.914 105.79 280.924C105.67 280.924 105.58 280.924 105.53 280.924C105.48 280.914 105.45 280.494 105.45 279.684C105.45 278.874 105.48 278.454 105.53 278.424C105.98 278.464 106.59 278.494 107.35 278.494H109.17V277.794C109.17 277.614 109.15 277.364 109.12 277.034C109.9 277.004 110.69 277.014 111.49 277.054C112.46 277.114 112.95 277.214 112.95 277.344C112.74 277.524 112.64 277.714 112.64 277.904V278.484H114.78C115.27 278.484 115.98 278.454 116.92 278.394C116.97 278.434 117 278.864 117 279.674C117 280.484 116.97 280.894 116.92 280.914C116.89 280.914 116.81 280.914 116.69 280.914C116.53 280.904 116.42 280.894 116.35 280.894H115.78L114.97 282.314H116.06C116.3 282.314 116.67 282.304 117.15 282.274C117.2 282.284 117.23 282.724 117.23 283.564C117.23 284.414 117.2 284.864 117.15 284.924C116.33 284.854 115.34 284.814 114.18 284.814H111.21H108.24C107.36 284.824 106.38 284.864 105.3 284.934ZM109.37 289.204H112.68V287.834H111.01H109.37V289.204ZM110.12 282.334H112L111.87 282.314C111.96 282.104 112.04 281.884 112.1 281.644C112.2 281.404 112.28 281.164 112.33 280.924H109.8C109.97 281.334 110.11 281.794 110.22 282.314L110.12 282.334Z" fill="#1F1F1F"/>
<path d="M122.03 298.444C121.51 297.834 120.8 297.154 119.89 296.404C121.7 296.224 123.53 295.914 125.39 295.464H123.75V290.834C122.88 291.194 122 291.504 121.09 291.754C120.52 290.874 119.81 290.084 118.98 289.394C120.93 289.034 122.64 288.494 124.11 287.774H122.05C121.6 287.774 120.92 287.804 120.02 287.864C119.97 287.824 119.94 287.424 119.94 286.684C119.94 285.944 119.97 285.544 120.02 285.484C120.84 285.554 121.83 285.594 122.99 285.594H125.96V285.144H124.5C124.01 285.144 123.54 285.164 123.07 285.214C123.02 285.184 122.99 284.904 122.99 284.364C122.99 283.824 123.02 283.544 123.07 283.514C123.42 283.554 123.9 283.584 124.5 283.584H125.96V283.114H122.86V282.234H120.07V278.284H129.4V277.674C129.4 277.524 129.38 277.304 129.35 277.004C130.2 276.974 131.05 276.984 131.9 277.024C132.94 277.084 133.46 277.184 133.46 277.314C133.25 277.464 133.15 277.624 133.15 277.784V278.274H137.84H142.53V282.224H139.87V283.104H136.64V283.574H138.2C138.74 283.574 139.25 283.554 139.74 283.504C139.79 283.534 139.82 283.814 139.82 284.354C139.82 284.894 139.79 285.174 139.74 285.204C139.38 285.164 138.86 285.134 138.2 285.134H136.64V285.584H139.66C140.56 285.584 141.56 285.544 142.66 285.474C142.71 285.534 142.74 285.934 142.74 286.674C142.74 287.414 142.71 287.804 142.66 287.834C142.24 287.794 141.69 287.764 140.99 287.764H139.32C140.62 288.314 142.06 288.754 143.62 289.064C143.26 289.354 142.85 289.734 142.4 290.234C141.97 290.724 141.62 291.174 141.36 291.564C140.42 291.284 139.61 290.984 138.94 290.664V295.454H137.51C139.68 295.974 141.3 296.394 142.36 296.714L139.29 298.444C137.17 297.714 134.75 297.024 132.02 296.404L133.32 295.464H129.2L130.66 296.364C129.62 296.824 128.28 297.254 126.65 297.644C125.08 297.994 123.54 298.264 122.03 298.444ZM123.44 281.414H125.97V281.124C125.97 281.094 125.97 281.054 125.97 280.994C125.95 280.904 125.94 280.834 125.94 280.774C126.69 280.744 127.46 280.754 128.26 280.794C129.22 280.854 129.69 280.954 129.69 281.084C129.48 281.114 129.38 281.164 129.38 281.244V281.424H133.21V281.134C133.21 281.104 133.21 281.064 133.21 281.004C133.19 280.914 133.18 280.844 133.18 280.784C133.94 280.754 134.72 280.764 135.5 280.804C136.47 280.864 136.96 280.964 136.96 281.094C136.75 281.124 136.65 281.174 136.65 281.254V281.434H139.02V280.694H131.23H123.44V281.414ZM127.11 290.174H135.39V289.724H131.25H127.11V290.174ZM127.11 292.034H135.39V291.604H131.25H127.11V292.034ZM127.11 293.944H131.25H135.39V293.474H127.11V293.944ZM128.07 288.214H131.56H135.08C134.91 288.064 134.73 287.914 134.56 287.764H128.57C128.52 287.804 128.44 287.884 128.32 287.974C128.21 288.084 128.13 288.154 128.07 288.214ZM129.38 283.564H133.21V283.094H131.28H129.38V283.564ZM129.38 285.594H133.21V285.144H131.28H129.38V285.594Z" fill="#1F1F1F"/>
<path d="M30.21 278.194C30.14 278.124 30.04 278.074 29.94 278.074L26.65 278.034C26.66 278.024 26.68 278.004 26.69 277.984C26.78 277.814 26.95 276.774 26.52 276.384C26.09 275.994 22.48 275.274 19.84 275.274C17.2 275.274 13.92 275.864 13.49 276.294C13.06 276.724 13.14 276.944 13.14 277.424C13.14 277.734 13.35 277.924 13.49 278.004C13.49 278.014 13.49 278.024 13.49 278.034L10.11 278.074C10.01 278.074 9.90998 278.114 9.83998 278.194C9.76998 278.264 9.72998 278.364 9.72998 278.474C9.72998 278.604 9.79998 281.614 11.95 283.444C13.6 284.854 14.74 285.374 15.16 285.534C15.16 285.544 15.17 285.544 15.17 285.554C15.21 285.614 15.25 285.674 15.29 285.734C15.3 285.744 15.3 285.754 15.31 285.764C15.35 285.824 15.39 285.884 15.43 285.944C15.44 285.954 15.44 285.964 15.45 285.964C15.49 286.024 15.53 286.084 15.57 286.134C15.57 286.144 15.58 286.144 15.58 286.154C15.62 286.214 15.66 286.274 15.71 286.324L15.72 286.334C15.76 286.394 15.81 286.454 15.85 286.514C16.89 287.884 18.02 288.914 18.32 289.174C18.19 289.224 18.09 289.354 18.09 289.504C18.09 289.664 18.19 289.794 18.34 289.834C18.32 289.874 18.3 289.924 18.3 289.974C18.3 290.144 18.44 290.284 18.61 290.284H19.1C19.13 290.634 19.18 291.604 18.87 292.404C18.56 293.204 17.64 293.554 17.28 293.664C16.7 293.714 16.7 294.094 16.7 294.094C16.7 294.094 15.9 293.924 15.5 295.044H15.37C15.05 295.044 14.79 295.304 14.79 295.624V299.614C14.79 299.934 15.05 300.194 15.37 300.194H15.82H17.42H18.98H19.77H24.81C25.13 300.194 25.39 299.934 25.39 299.614V295.624C25.39 295.304 25.13 295.044 24.81 295.044H24.38C23.98 293.924 23.18 294.094 23.18 294.094C23.18 294.094 23.18 293.714 22.6 293.664C22.24 293.554 21.32 293.204 21.01 292.404C20.7 291.604 20.75 290.634 20.78 290.284H21.31C21.48 290.284 21.62 290.144 21.62 289.974C21.62 289.924 21.61 289.874 21.58 289.834C21.72 289.794 21.83 289.664 21.83 289.504C21.83 289.344 21.72 289.204 21.57 289.164C21.95 288.824 23.54 287.364 24.7 285.554L24.71 285.594C24.76 285.574 26.03 285.204 28.1 283.434C30.24 281.604 30.31 278.594 30.32 278.464C30.32 278.374 30.28 278.274 30.21 278.194ZM10.52 278.854L13.51 278.814C13.58 280.154 13.79 282.614 14.51 284.344C13.99 284.044 13.29 283.564 12.43 282.844C10.98 281.614 10.61 279.674 10.52 278.854ZM27.6 282.844C26.62 283.684 25.83 284.184 25.3 284.474C26.06 282.744 26.29 280.184 26.36 278.804L29.52 278.844C29.41 279.674 29.05 281.614 27.6 282.844Z" fill="#1F1F1F"/>
<path d="M157.12 255.344L152.68 263.554" stroke="#F2E8DE" stroke-width="2" stroke-miterlimit="10"/>
<path d="M158.08 267.184L165.55 260.134" stroke="#F2E8DE" stroke-width="2" stroke-miterlimit="10"/>
<path d="M160.43 272.554L169.32 270.534" stroke="#F2E8DE" stroke-width="2" stroke-miterlimit="10"/>
</svg>
