<svg width="989" height="245" viewBox="0 0 989 245" fill="none" xmlns="http://www.w3.org/2000/svg">
<path d="M469.59 147.31C469.59 134.94 475.38 128.76 486.97 128.76C493.26 128.76 503.13 131.43 516.59 136.75C529.5 141.89 538.93 144.46 544.89 144.46C554.27 144.46 558.96 139.7 558.96 130.19H562.27C562.27 141.61 556.48 147.32 544.89 147.32C538.6 147.32 528.72 144.66 515.26 139.33C502.35 134.19 492.92 131.62 486.96 131.62C482.1 131.62 478.54 132.88 476.28 135.4C474.02 137.92 472.89 141.89 472.89 147.32H469.59V147.31Z" fill="#F2E8DE"/>
<path d="M506.71 67.9202H81.05V208.14H481.01L506.71 67.9202Z" fill="#4F26E9"/>
<path d="M160.27 125.07H160.17L145.24 137.17L139.23 122.48L160.28 105.19H181.33V168.28H160.28V125.07H160.27Z" fill="#F2E8DE"/>
<path d="M255.09 161.54C250.14 166.61 242.59 169.15 232.44 169.15C222.28 169.15 214.73 166.61 209.79 161.54C204.84 156.47 202.37 148.2 202.37 136.73C202.37 125.27 204.84 117 209.79 111.92C214.73 106.85 222.28 104.31 232.44 104.31C242.6 104.31 250.15 106.85 255.09 111.92C260.03 116.99 262.51 125.26 262.51 136.73C262.51 148.2 260.03 156.47 255.09 161.54ZM225.17 151.99C226.67 154.78 229.09 156.18 232.44 156.18C235.78 156.18 238.2 154.78 239.71 151.99C241.22 149.2 241.96 144.11 241.96 136.73C241.96 129.35 241.21 124.27 239.71 121.48C238.21 118.69 235.78 117.29 232.44 117.29C229.1 117.29 226.68 118.69 225.17 121.48C223.67 124.28 222.92 129.36 222.92 136.73C222.92 144.11 223.67 149.19 225.17 151.99Z" fill="#F2E8DE"/>
<path d="M319.94 105.19L284.86 171.74H267.82L302.9 105.19H319.94Z" fill="#F2E8DE"/>
<path d="M350.81 125.07H350.71L335.78 137.17L329.77 122.48L350.82 105.19H371.87V168.28H350.82V125.07H350.81Z" fill="#F2E8DE"/>
<path d="M428.99 131.12H429.99C435.47 131.12 439.93 132.69 443.37 135.83C446.81 138.97 448.53 143.16 448.53 148.41C448.53 155.15 446.12 160.29 441.31 163.84C436.5 167.39 429.55 169.16 420.46 169.16C411.5 169.16 403.15 167.43 395.4 163.97L400.31 151.01C407.33 154.01 413.37 155.5 418.45 155.5C421.86 155.5 424.46 154.91 426.27 153.73C428.07 152.55 428.98 150.92 428.98 148.85C428.98 147.12 428.51 145.83 427.58 144.96C426.64 144.1 424.89 143.45 422.32 143.02C419.75 142.59 415.96 142.37 410.94 142.37H406.93V131.13L423.97 119.2V119.03H396.91V105.2H447.53V119.03L428.99 130.96V131.12Z" fill="#F2E8DE"/>
<path d="M550.99 67.9202L525.29 208.14H950.82V67.9202H550.99Z" fill="#4F26E9"/>
<path d="M602.2 125.07H602.1L587.17 137.17L581.16 122.48L602.21 105.19H623.26V168.28H602.2V125.07Z" fill="#F2E8DE"/>
<path d="M697.01 161.54C692.06 166.61 684.51 169.15 674.36 169.15C664.2 169.15 656.65 166.61 651.71 161.54C646.76 156.47 644.29 148.2 644.29 136.73C644.29 125.27 646.76 117 651.71 111.92C656.65 106.85 664.2 104.31 674.36 104.31C684.52 104.31 692.07 106.85 697.01 111.92C701.95 116.99 704.43 125.26 704.43 136.73C704.43 148.2 701.96 156.47 697.01 161.54ZM667.1 151.99C668.6 154.78 671.02 156.18 674.37 156.18C677.71 156.18 680.13 154.78 681.64 151.99C683.14 149.2 683.89 144.11 683.89 136.73C683.89 129.35 683.14 124.27 681.64 121.48C680.14 118.69 677.71 117.29 674.37 117.29C671.03 117.29 668.61 118.69 667.1 121.48C665.6 124.28 664.84 129.36 664.84 136.73C664.84 144.11 665.59 149.19 667.1 151.99Z" fill="#F2E8DE"/>
<path d="M761.86 105.19L726.78 171.74H709.74L744.82 105.19H761.86Z" fill="#F2E8DE"/>
<path d="M804.76 131.12H805.76C811.24 131.12 815.7 132.69 819.14 135.83C822.58 138.97 824.3 143.16 824.3 148.41C824.3 155.15 821.89 160.29 817.08 163.84C812.27 167.38 805.32 169.16 796.23 169.16C787.27 169.16 778.92 167.43 771.17 163.97L776.08 151.01C783.1 154.01 789.14 155.5 794.22 155.5C797.63 155.5 800.23 154.91 802.04 153.73C803.84 152.55 804.75 150.92 804.75 148.85C804.75 147.12 804.28 145.83 803.35 144.96C802.41 144.1 800.66 143.45 798.09 143.02C795.52 142.59 791.72 142.37 786.71 142.37H782.7V131.13L799.74 119.2V119.03H772.68V105.2H823.3V119.03L804.76 130.96V131.12Z" fill="#F2E8DE"/>
<path d="M887.55 161.54C882.6 166.61 875.05 169.15 864.9 169.15C854.74 169.15 847.19 166.61 842.25 161.54C837.3 156.47 834.83 148.2 834.83 136.73C834.83 125.27 837.3 117 842.25 111.92C847.19 106.85 854.74 104.31 864.9 104.31C875.06 104.31 882.61 106.85 887.55 111.92C892.49 116.99 894.97 125.26 894.97 136.73C894.97 148.2 892.49 156.47 887.55 161.54ZM857.63 151.99C859.13 154.78 861.55 156.18 864.9 156.18C868.24 156.18 870.66 154.78 872.17 151.99C873.67 149.2 874.42 144.11 874.42 136.73C874.42 129.35 873.67 124.27 872.17 121.48C870.67 118.69 868.24 117.29 864.9 117.29C861.56 117.29 859.14 118.69 857.63 121.48C856.13 124.28 855.37 129.36 855.37 136.73C855.38 144.11 856.13 149.19 857.63 151.99Z" fill="#F2E8DE"/>
<path d="M269.533 0.0654411L0.986511 27.6003L8.85377 104.329L277.4 76.7944L269.533 0.0654411Z" fill="#D9F24F"/>
<path d="M37.72 42.9099L44.97 42.1699L45.73 49.5299L38.48 50.2699L38.69 52.3399L46.61 51.5299L47.4 59.2599L45.37 59.4699L44.96 63.3099L46.86 63.1099L47.64 70.6799L40.88 71.3699L41.1 73.4899L49.08 72.6699L49.86 80.2999L41.88 81.1199L42.56 87.7899L32.18 88.8599L31.5 82.1899L22.23 83.1399L21.45 75.5199L30.72 74.5699L30.5 72.4499L22.7 73.2499L21.92 65.6799L24.01 65.4699L22.89 61.7899L20.8 61.9999L20.01 54.2699L28.85 53.3599L28.64 51.2899L20.96 52.0799L20.21 44.7199L27.83 43.9399L27.45 40.2299L37.34 39.2199L37.72 42.9099ZM31.85 60.6899L33.07 64.6899L35.9 64.3999L36.34 60.2299L31.85 60.6899ZM71.13 52.8099C68.75 53.8599 65.05 54.0699 60.02 54.5899L57.39 47.6899C60.73 47.6099 62.96 47.4899 64.37 47.3499C65.05 47.2799 65.31 46.8299 65.27 46.3999L65.16 45.3399L56.01 46.2799L56.99 55.8099L74.99 53.9599L75.72 61.1099C75.62 66.1999 74.84 69.4999 73.74 73.2499C75.26 74.1599 76.95 74.8499 79 75.5499L73.57 84.3499C71.8 83.4099 69.97 81.9399 68.33 80.4499C66.78 82.3199 65.03 83.9999 62.83 85.5599L59.67 82.0299L60.09 86.1099L51.12 87.0299L46.19 38.9399L73.4 36.1499L74.55 47.3799C74.76 49.4899 73.98 51.5499 71.13 52.8099ZM62.21 75.3399C61.24 74.3699 59.51 72.6199 58.6 71.5899L59.21 77.5199C60.15 77.0499 61.53 75.9999 62.21 75.3399ZM66.25 68.1899C66.8 66.2599 66.92 64.4299 66.88 62.1799L61.78 62.6999C63.19 64.9699 64.62 66.8499 66.25 68.1899Z" fill="#1F1F1F"/>
<path d="M100.3 55.33C98.91 53.92 97.18 52.71 95.32 51.56C93.74 53.06 91.37 54.8 88.98 56.33L80.97 49.02C89.8 43.73 95.03 38.48 99.89 31.99L113.57 32.89L112.19 34.58L131.41 32.61L132.3 41.24C129.11 45.85 124.9 50.13 120.28 54.14L136.06 52.52L138.67 77.94L126.88 79.15L126.67 77.14L108.98 78.95L109.19 81.02L97.28 82.24L95.81 67.94C93.27 69.22 90.77 70.28 87.84 71.33L81.87 62.1C88.06 60.6 94.68 58.04 100.3 55.33ZM116.98 43.66L102.98 45.1C104.96 46.24 106.88 47.38 108.74 48.63L102.77 53.95C108.94 50.64 114.27 46.94 116.98 43.66ZM107.28 64.67L107.82 69.91L125.88 68.06L125.34 62.82L107.28 64.67Z" fill="#1F1F1F"/>
<path d="M158.51 72.26L158.26 69.82L155.13 70.14L155.49 73.69L146.59 74.6L142.05 30.33L162.93 28.19L167.36 71.35L158.51 72.26ZM151.95 39.17L152.56 45.1L155.69 44.78L155.08 38.85L151.95 39.17ZM153.42 53.57L154.13 60.51L157.26 60.19L156.55 53.25L153.42 53.57ZM184.71 24.03L185.11 27.95L194.88 26.95L195.75 35.48L185.99 36.48L186.17 38.28L198.21 37.05L199.06 45.37L193.35 45.96L193.55 47.87L198.53 47.36L199.4 55.83L194.42 56.34L195.34 65.29C195.8 69.74 192.73 71.87 187.88 72.48C185.06 72.82 181.58 73.34 178.67 73.43L176.17 68.39L173.32 70.82C171.38 67.6 169.38 65.07 166.86 62.28L172.87 58.56L167.89 59.07L167.02 50.6L182.01 49.06L181.81 47.15L165.66 48.81L164.81 40.49L175.19 39.43L175.01 37.63L166.29 38.52L165.41 29.99L174.07 29.1L173.67 25.18L184.71 24.03ZM180.51 63.48C181.13 63.52 181.58 63.58 182.37 63.5C183.11 63.42 183.5 63.01 183.42 62.27L182.93 57.5L175.87 58.22C177.75 60.18 179 61.55 180.51 63.48Z" fill="#1F1F1F"/>
<path d="M216.02 43.14L218.76 69.83L207.89 70.95L202.97 23.02L228.83 20.37L231.01 41.61L216.02 43.14ZM213.96 28.52L214.12 30.11L220.02 29.51L219.86 27.92L213.96 28.52ZM214.66 35.3L214.83 37L220.73 36.4L220.56 34.7L214.66 35.3ZM245.59 66.97L243.81 63.57L221.82 65.82L219.59 44.11L245.2 41.48L246.74 56.47C247.61 56.49 248.9 56.35 249.33 56.31C250.01 56.24 250.1 55.96 250.06 55.54L248.45 39.81L233.28 41.37L231.11 20.19L257.4 17.49L261.69 59.28C262.13 63.72 260.33 65.46 245.59 66.97ZM229.12 49.82L229.3 51.62L237.35 50.79L237.17 48.99L229.12 49.82ZM229.98 58.19L238.03 57.36L237.82 55.35L229.77 56.18L229.98 58.19ZM241.59 25.64L241.75 27.23L247.71 26.62L247.55 25.03L241.59 25.64ZM242.47 34.16L248.43 33.55L248.25 31.8L242.29 32.41L242.47 34.16Z" fill="#1F1F1F"/>
<path d="M986.196 187.581L669.049 209.612L671.454 244.239L988.601 222.208L986.196 187.581Z" fill="#D9F24F"/>
<path d="M686 234.92L686.36 229.68L685.17 229.76C684.89 229.78 684.5 229.82 683.98 229.89C683.92 229.86 683.87 229.47 683.81 228.7C683.76 227.94 683.76 227.54 683.81 227.52C684.26 227.52 684.7 227.51 685.14 227.48L686.5 227.39L686.74 224.08L685.47 224.17C685.19 224.19 684.78 224.24 684.23 224.3C684.17 224.27 684.12 223.87 684.06 223.1C684.01 222.33 684.01 221.92 684.06 221.89C684.4 221.91 684.87 221.91 685.48 221.86L686.92 221.76L687.29 217.12L689.65 216.96L689.33 221.59L692.82 221.35L693.19 216.71L695.55 216.55L695.26 221.18L696.51 221.09C696.81 221.07 697.21 221.02 697.73 220.96C697.79 220.97 697.84 221.37 697.9 222.14C697.95 222.91 697.95 223.32 697.9 223.35C697.45 223.35 696.99 223.37 696.51 223.4L695.1 223.5L694.86 226.81L696.19 226.72C696.5 226.7 696.94 226.65 697.49 226.58C697.55 226.59 697.6 226.98 697.66 227.76C697.71 228.53 697.71 228.94 697.66 228.97C697.31 228.95 696.81 228.96 696.19 229L694.72 229.1L694.36 234.34L691.92 234.51L692.28 229.27L688.82 229.51L688.61 232.14L688.43 234.75L686 234.92ZM688.92 227.23L692.41 226.99L692.65 223.68L689.16 223.92L689.03 225.59L688.92 227.23Z" fill="#1F1F1F"/>
<path d="M715.05 235.02C714.8 234.69 714.4 234.28 713.85 233.81L705.9 234.36L705.93 234.86C705.93 234.92 705.95 235.02 705.98 235.14C705.99 235.25 705.99 235.32 705.99 235.36C705.98 235.44 705.51 235.51 704.59 235.58C703.67 235.65 703.17 235.64 703.11 235.56C703.14 234.95 703.14 234.33 703.09 233.69L702.96 231.83L702.7 228.08L702.39 228.39C701.65 227.83 700.87 227.34 700.06 226.89C700.81 226.22 701.51 225.41 702.16 224.46C702.81 223.52 703.31 222.56 703.67 221.57L702.01 221.69C701.46 221.73 700.9 221.79 700.35 221.88C700.29 221.85 700.23 221.41 700.18 220.56C700.12 219.71 700.12 219.26 700.17 219.2C701.1 219.2 702.02 219.17 702.95 219.1L705.75 218.91L705.64 217.33L703.42 217.48C702.92 217.52 702.19 217.6 701.24 217.73C701.18 217.69 701.12 217.27 701.07 216.48C701.02 215.69 701.01 215.27 701.07 215.22C701.78 215.23 702.51 215.22 703.27 215.16L705.49 215.01L705.43 214.13C705.41 213.89 705.37 213.57 705.31 213.15C706.01 213.07 706.74 213.03 707.5 213.02C708.43 213.02 708.9 213.09 708.91 213.23C708.63 213.51 708.5 213.77 708.52 214.03L708.57 214.79L710.73 214.64C711.23 214.6 711.94 214.52 712.86 214.4C712.92 214.44 712.98 214.86 713.03 215.65C713.08 216.44 713.09 216.86 713.03 216.91C712.32 216.9 711.61 216.91 710.89 216.96L708.73 217.11L708.84 218.69L714.3 218.31C714.06 216.47 713.88 214.59 713.74 212.68L716.98 212.45C717.06 214.4 717.22 216.28 717.46 218.08L721.12 217.83C722.34 217.75 723.56 217.61 724.77 217.43C724.83 217.49 724.89 217.95 724.95 218.81C725.01 219.67 725.01 220.14 724.96 220.23C724.07 220.2 722.87 220.23 721.38 220.33L717.8 220.58C718.13 222.67 718.56 224.56 719.09 226.25C719.96 224.68 720.66 222.94 721.18 221.01C722.01 221.16 722.76 221.37 723.42 221.65C724.17 221.97 724.5 222.23 724.42 222.44C724.38 222.62 724.27 222.77 724.09 222.9C723.81 223.11 723.59 223.45 723.44 223.91C722.61 226.1 721.61 228.03 720.45 229.71C721.16 231.07 721.9 231.72 722.67 231.67C723.22 231.63 723.47 230.3 723.4 227.68C724.17 228.3 725.07 228.74 726.11 229C726.03 231.06 725.72 232.47 725.18 233.24C724.69 233.96 723.83 234.37 722.59 234.45C721 234.56 719.59 233.8 718.37 232.17C717.32 233.26 716.22 234.2 715.05 235.02ZM714.12 231.94C715.12 231.18 716.02 230.34 716.81 229.42C715.9 227.23 715.17 224.36 714.62 220.81L709.52 221.16L704.42 221.51L706.53 221.87C706.33 222.41 706.09 222.96 705.81 223.5L707.97 223.35C708.3 222.46 708.51 221.78 708.61 221.29C709.34 221.37 710.05 221.49 710.74 221.65C711.43 221.81 711.76 221.93 711.73 222.01C711.7 222.06 711.63 222.1 711.52 222.12C711.35 222.15 711.23 222.24 711.15 222.39C711.1 222.47 711.03 222.6 710.94 222.78C710.85 222.95 710.78 223.08 710.73 223.17L712.12 223.07C712.45 223.05 712.91 223 713.5 222.93C713.56 222.94 713.61 223.31 713.66 224.02C713.71 224.73 713.71 225.11 713.66 225.15C713.25 225.13 712.68 225.15 711.94 225.2L710.19 225.32L710.26 226.3L711.78 226.19C712.28 226.16 712.78 226.1 713.27 226.01C713.33 226.04 713.38 226.34 713.42 226.91C713.46 227.48 713.45 227.79 713.4 227.82C713.05 227.8 712.54 227.81 711.9 227.85L710.38 227.96L710.45 229.01L711.97 228.9C712.47 228.87 712.97 228.81 713.46 228.73C713.52 228.76 713.57 229.06 713.61 229.63C713.65 230.2 713.64 230.51 713.59 230.54C713.24 230.52 712.73 230.53 712.09 230.57L710.57 230.68L710.65 231.78L714.11 231.54L714.12 231.94ZM705.37 226.64L707.64 226.48L707.57 225.5L706.43 225.58L705.29 225.66L705.37 226.64ZM705.55 229.36L707.82 229.2L707.75 228.15L706.61 228.23L705.47 228.31L705.55 229.36ZM705.75 232.14L708.02 231.98L707.94 230.88L706.8 230.96L705.66 231.04L705.75 232.14ZM721.99 217.46C721.62 216.97 721.06 216.41 720.31 215.75C719.56 215.13 718.82 214.58 718.08 214.1L720.22 212.49C721.07 212.99 721.84 213.51 722.53 214.06C723.33 214.66 723.93 215.2 724.31 215.69L721.99 217.46Z" fill="#1F1F1F"/>
<path d="M728.81 233.05C728.75 232.94 728.68 232.4 728.61 231.43C728.54 230.46 728.53 229.96 728.59 229.92C729.02 229.94 729.59 229.92 730.31 229.87L732.06 229.75L731.6 223.06C731.41 220.3 731.14 218.05 730.8 216.3C731.72 216.2 732.64 216.15 733.55 216.13C734.64 216.12 735.2 216.18 735.21 216.33C734.82 217.13 734.65 217.91 734.7 218.67L735.45 229.52L740.38 229.18L739.61 218.07C739.4 215.11 739.12 212.69 738.77 210.83C739.71 210.73 740.63 210.68 741.54 210.66C742.67 210.65 743.24 210.71 743.25 210.85C742.86 211.65 742.69 212.43 742.74 213.19L743.08 218.11L747.13 217.83C748.5 217.73 749.84 217.59 751.17 217.41C751.23 217.47 751.29 217.99 751.36 218.97C751.43 219.95 751.44 220.48 751.39 220.56C750.39 220.53 749.03 220.58 747.33 220.7L743.28 220.98L743.83 228.94L748.62 228.61C749.95 228.52 751.54 228.35 753.37 228.11C753.43 228.19 753.5 228.71 753.56 229.69C753.63 230.67 753.64 231.22 753.59 231.33C752.03 231.3 749.95 231.37 747.37 231.55L741.16 231.98L734.95 232.41C732.91 232.55 730.85 232.77 728.81 233.05Z" fill="#1F1F1F"/>
<path d="M755.63 216.23C755.57 216.12 755.51 215.63 755.44 214.74C755.38 213.86 755.37 213.38 755.42 213.31C756.2 213.34 757.15 213.31 758.25 213.23L761.1 213.03C760.42 212.09 759.69 211.27 758.9 210.59L761.91 209.45C763.23 210.51 764.14 211.49 764.65 212.38L763.4 212.88L771.63 212.31L770.53 212.05C771.55 210.72 772.3 209.54 772.76 208.53C773.68 208.71 774.52 208.94 775.29 209.24C776.09 209.55 776.43 209.78 776.31 209.94C776.22 210.04 776.11 210.12 775.96 210.18C775.69 210.26 775.43 210.46 775.19 210.76C774.68 211.4 774.3 211.86 774.06 212.14L777.02 211.93C777.91 211.87 778.88 211.76 779.95 211.61C780.01 211.67 780.07 212.14 780.13 213.03C780.19 213.91 780.2 214.41 780.15 214.53C778.63 214.49 776.58 214.56 774.01 214.74L767.86 215.17L761.71 215.6C759.69 215.73 757.65 215.95 755.63 216.23ZM759.95 231.97C758.9 232.04 758.32 232.04 758.22 231.97C758.28 230.93 758.26 229.72 758.16 228.35L757.91 224.74L757.66 221.13C757.57 219.76 757.42 218.56 757.22 217.54C757.21 217.41 757.27 217.34 757.4 217.33C758.74 217.37 760.42 217.31 762.46 217.17L767.5 216.82L768.32 228.6C768.36 229.22 768.31 229.7 768.17 230.05C768.03 230.43 767.74 230.73 767.31 230.95C766.67 231.3 765.41 231.54 763.54 231.67C763.3 230.92 762.9 230.14 762.35 229.33C763.46 229.3 764.27 229.25 764.79 229.18C765.09 229.16 765.22 229.02 765.21 228.77L765.04 226.28L764.02 227.6C763.26 227.03 762.28 226.53 761.1 226.1L761.3 228.92C761.38 230.04 761.49 230.97 761.63 231.73C761.57 231.82 761 231.9 759.95 231.97ZM764.72 221.67L764.56 219.42L762.59 219.56L760.65 219.69L760.8 221.84L761.77 220.6C762.89 220.88 763.87 221.24 764.72 221.67ZM764.99 225.55L764.78 222.59L763.89 223.78C763.17 223.27 762.15 222.81 760.84 222.38L761.04 225.25L761.81 224.28C762.28 224.39 762.84 224.58 763.49 224.84C764.01 225.04 764.51 225.28 764.99 225.55ZM771.83 226.65C770.78 226.72 770.21 226.73 770.13 226.67C770.18 225.99 770.17 225.18 770.1 224.22L769.93 221.78L769.76 219.34C769.7 218.42 769.59 217.57 769.45 216.82C770.21 216.74 771 216.69 771.83 216.68C772.83 216.67 773.34 216.74 773.35 216.89C772.96 217.69 772.79 218.47 772.84 219.23L773.09 222.84C773.19 224.21 773.33 225.41 773.54 226.43C773.46 226.51 772.89 226.58 771.83 226.65ZM773.64 230.97C773.39 230.12 772.94 229.25 772.29 228.35C773.68 228.33 774.76 228.27 775.54 228.17C775.93 228.13 776.11 227.97 776.09 227.7L775.68 221.77C775.52 219.49 775.29 217.5 774.99 215.79C775.84 215.7 776.69 215.65 777.54 215.64C778.58 215.63 779.1 215.7 779.11 215.84C778.72 216.63 778.55 217.42 778.6 218.18L778.84 221.57L779.25 227.5C779.3 228.23 779.25 228.79 779.09 229.17C778.91 229.57 778.57 229.89 778.07 230.15C777.27 230.55 775.8 230.82 773.64 230.97Z" fill="#1F1F1F"/>
<path d="M797.99 229.18C797.87 228.77 797.65 228.27 797.34 227.69C797.03 227.1 796.73 226.63 796.45 226.26C797.58 226.23 799.12 226.15 801.06 226.01C801.23 226 801.34 225.99 801.39 225.99C801.7 225.97 801.93 225.9 802.06 225.8C802.19 225.69 802.25 225.51 802.23 225.26L801.24 211.06L791.6 211.73C788.83 211.92 786.06 212.21 783.31 212.59C783.25 212.45 783.18 211.88 783.11 210.89C783.04 209.89 783.03 209.34 783.08 209.22C784.62 209.26 786.66 209.19 789.19 209.01L795.31 208.59L801.43 208.16C803.5 208.02 805.54 207.8 807.54 207.52C807.6 207.63 807.67 208.17 807.74 209.15C807.81 210.13 807.82 210.64 807.76 210.67C807.37 210.65 806.85 210.66 806.2 210.71L804.62 210.82L805.61 225.06C805.67 225.92 805.59 226.59 805.36 227.07C805.13 227.55 804.71 227.93 804.1 228.21C803.49 228.48 802.65 228.69 801.58 228.84C800.8 228.96 799.6 229.07 797.99 229.18ZM788.32 225.87C787.25 225.94 786.67 225.95 786.6 225.89C786.64 225.14 786.62 224.22 786.55 223.13L786.36 220.36L786.17 217.59C786.09 216.51 785.98 215.59 785.84 214.83C785.83 214.69 785.87 214.61 785.96 214.61C787.41 214.65 789.34 214.59 791.74 214.42L794.62 214.22C795.75 214.14 796.7 214.04 797.49 213.9C797.56 213.9 797.6 213.93 797.61 214.01C797.59 214.78 797.61 215.56 797.66 216.34L797.82 218.66C797.95 220.51 798.13 222.04 798.36 223.26C798.37 223.37 798.3 223.43 798.15 223.44C796.94 223.41 795.54 223.45 793.95 223.56L789.77 223.85L789.83 224.76C789.85 225.08 789.89 225.38 789.95 225.66C789.93 225.73 789.39 225.8 788.32 225.87ZM789.58 221.12L792.16 220.94L794.74 220.76L794.47 216.94L789.32 217.3L789.58 221.12Z" fill="#1F1F1F"/>
<path d="M815.99 228.08C814.94 228.15 814.33 228.16 814.18 228.09C814.25 226.43 814.21 224.44 814.04 222.1L813.62 216.13C813.13 216.9 812.62 217.61 812.07 218.25C811.44 216.98 810.86 216 810.31 215.3C811.3 214.11 812.22 212.66 813.07 210.95C813.92 209.24 814.57 207.49 815.04 205.7C815.87 205.87 816.62 206.09 817.29 206.36C818.02 206.66 818.35 206.92 818.29 207.13C818.25 207.29 818.13 207.43 817.96 207.54C817.68 207.75 817.47 208.06 817.33 208.47C816.96 209.49 816.63 210.31 816.36 210.94L816.95 219.4L817.24 223.63C817.36 225.34 817.53 226.74 817.76 227.84C817.65 227.92 817.06 228 815.99 228.08ZM820.2 223.78C819.22 223.85 818.68 223.85 818.59 223.8C818.64 222.68 818.62 221.4 818.52 219.96L818.25 216.14L817.98 212.32C817.88 210.94 817.73 209.63 817.51 208.41C818.23 208.33 818.94 208.29 819.65 208.29C820.52 208.29 820.96 208.37 820.97 208.51C820.7 208.91 820.58 209.3 820.61 209.69L820.69 210.84C822.41 209.2 823.64 207.25 824.38 204.99C825.13 205.1 825.85 205.24 826.54 205.42C827.23 205.6 827.56 205.72 827.53 205.8C827.5 205.87 827.44 205.93 827.35 205.97C827.19 206.05 827.07 206.17 826.98 206.33C826.87 206.63 826.73 206.93 826.57 207.25L831 206.94C832.22 206.86 833.68 206.7 835.39 206.47C835.45 206.55 835.51 206.97 835.56 207.75C835.61 208.53 835.62 208.94 835.56 208.97C835.23 208.96 834.88 208.97 834.53 208.99L833.5 209.06C832.87 210.38 831.95 211.62 830.75 212.78C832.59 213.42 834.6 213.82 836.76 213.97C836.12 214.65 835.6 215.45 835.2 216.36C832.8 216.08 830.59 215.47 828.56 214.54C826.89 215.68 824.89 216.64 822.55 217.43C822.22 216.96 821.71 216.42 821.02 215.81L821.29 219.7C821.39 221.18 821.55 222.48 821.75 223.58C821.68 223.64 821.16 223.71 820.2 223.78ZM821 215.24C821.89 214.97 822.78 214.65 823.68 214.29C824.57 213.92 825.37 213.53 826.06 213.12C825.2 212.52 824.49 211.96 823.94 211.42C823.56 211.88 823.07 212.39 822.46 212.96C822.15 212.72 821.58 212.38 820.77 211.92L821 215.24ZM823.79 227.34C823.35 226.57 822.76 225.86 822.03 225.21C827.87 224.1 831.79 222.44 833.77 220.24C834.51 220.44 835.17 220.73 835.76 221.09C836.35 221.45 836.56 221.72 836.39 221.89C836.27 222.01 836.1 222.09 835.88 222.14C835.53 222.21 835.19 222.4 834.86 222.72C833.89 223.49 832.7 224.21 831.28 224.89C829.22 225.85 826.73 226.67 823.79 227.34ZM824.57 220.21C824.11 219.67 823.49 219.16 822.74 218.7C823.94 218.34 825.08 217.9 826.16 217.38C827.33 216.8 828.21 216.24 828.8 215.68C829.41 215.86 829.97 216.1 830.48 216.4C830.99 216.7 831.19 216.9 831.06 217.01C830.97 217.1 830.85 217.15 830.68 217.16C830.4 217.18 830.13 217.3 829.87 217.53C829.43 217.85 828.89 218.19 828.24 218.56C827.19 219.16 825.97 219.71 824.57 220.21ZM824.84 223.33C824.29 222.65 823.72 222.09 823.14 221.67C824.93 221.21 826.55 220.65 828.01 219.99C829.61 219.25 830.81 218.48 831.61 217.68C832.22 217.86 832.77 218.12 833.27 218.47C833.77 218.81 833.93 219.05 833.75 219.19C833.63 219.29 833.46 219.36 833.26 219.39C832.91 219.43 832.57 219.6 832.24 219.89C831.64 220.33 830.9 220.79 830.02 221.27C828.55 222.04 826.83 222.73 824.84 223.33ZM828.12 211.63C828.91 210.97 829.59 210.18 830.16 209.28L827.75 209.45L825.37 209.62C826.2 210.41 827.12 211.09 828.12 211.63Z" fill="#1F1F1F"/>
<path d="M850.43 225.69C850.24 225.4 849.93 225 849.48 224.48C849.04 223.98 848.65 223.58 848.31 223.29C851.22 222.14 853.46 220.63 855.04 218.74C854 217.32 853.03 215.5 852.15 213.27C851.87 213.77 851.5 214.29 851.03 214.84C850.79 214.65 850.25 214.33 849.4 213.87L849.43 214.3C849.43 214.35 849.45 214.44 849.48 214.56C849.48 214.64 849.49 214.7 849.49 214.73C849.48 214.8 848.95 214.86 847.92 214.94C846.88 215.01 846.36 215.02 846.33 214.95C846.33 214.92 846.32 214.87 846.32 214.81C846.33 214.7 846.33 214.62 846.33 214.57L846.3 214.16L842.56 214.42L842.89 219.13C842.92 219.54 843.01 219.8 843.15 219.9C843.3 220 843.62 220.04 844.12 220L846.89 219.81C847.3 219.78 847.55 219.62 847.66 219.31C847.77 219.01 847.81 218.31 847.79 217.23C848.12 217.41 848.59 217.6 849.19 217.78C849.76 217.95 850.28 218.06 850.74 218.1C850.67 219.72 850.39 220.83 849.91 221.42C849.43 222.01 848.57 222.35 847.33 222.44L843.81 222.68C842.31 222.78 841.29 222.61 840.72 222.15C840.16 221.69 839.83 220.76 839.73 219.36L839.48 215.7C839.38 214.31 839.23 213.1 839.03 212.06C839.03 211.98 839.09 211.94 839.22 211.93C840.19 211.94 841.34 211.9 842.67 211.81L846.11 211.57L845.86 207.94L842.42 208.18C841.4 208.25 840.27 208.37 839.02 208.54C838.96 208.48 838.9 208 838.84 207.11C838.78 206.22 838.77 205.75 838.83 205.69C839.65 205.7 840.47 205.67 841.3 205.61L843.79 205.44L848.78 205.09L849.24 211.66C850.74 209.43 851.74 206.56 852.26 203.05C853.16 203.13 854 203.27 854.79 203.45C855.64 203.66 856.05 203.86 856.03 204.04C856 204.17 855.92 204.29 855.78 204.42C855.53 204.6 855.37 204.86 855.31 205.22C855.11 206.03 854.94 206.65 854.83 207.05L859.21 206.75C860.43 206.67 861.88 206.51 863.55 206.28C863.61 206.36 863.67 206.85 863.74 207.76C863.8 208.67 863.81 209.14 863.75 209.18C863.42 209.17 863.08 209.18 862.75 209.2L861.72 209.27C861.3 212.9 860.38 215.97 858.96 218.47C860.67 220.16 862.7 221.33 865.05 221.98C864.7 222.29 864.33 222.71 863.93 223.23C863.53 223.75 863.22 224.23 863.01 224.66C860.71 223.87 858.71 222.68 857.02 221.07C855.41 222.9 853.2 224.44 850.43 225.69ZM856.82 215.83C857.62 214.04 858.15 211.93 858.41 209.5L856.25 209.65L854.09 209.8C854.81 212.12 855.72 214.13 856.82 215.83Z" fill="#1F1F1F"/>
<path d="M873.51 224.03C872.51 224.1 871.99 224.1 871.95 224.02C871.96 223.67 871.96 223.31 871.93 222.94L871.85 221.84L871.7 219.67L869.68 219.81C869 219.86 868.32 219.93 867.66 220.02C867.6 219.99 867.54 219.57 867.49 218.76C867.43 217.95 867.43 217.52 867.49 217.49C867.99 217.5 868.67 217.48 869.52 217.42L871.54 217.28L871.41 215.44L869.28 215.59C868.78 215.62 868.07 215.71 867.15 215.83C867.09 215.79 867.03 215.36 866.98 214.54C866.93 213.72 866.92 213.31 866.98 213.29C867.31 213.3 867.65 213.29 867.98 213.27L869.01 213.2C868.81 212.41 868.45 211.58 867.95 210.71L868.91 210.43L867.55 210.52C867.26 210.54 866.81 210.59 866.22 210.66C866.16 210.63 866.11 210.22 866.05 209.41C865.99 208.61 865.99 208.18 866.04 208.13C866.82 208.14 867.63 208.12 868.46 208.06L870.9 207.89L870.79 206.24L868.85 206.37C868.2 206.41 867.56 206.48 866.92 206.58C866.86 206.55 866.81 206.14 866.75 205.34C866.69 204.54 866.69 204.13 866.75 204.09C867.23 204.1 867.88 204.08 868.69 204.03L870.63 203.9L870.56 202.85C870.54 202.55 870.49 202.18 870.43 201.73C871.11 201.65 871.82 201.61 872.57 201.61C873.48 201.61 873.94 201.68 873.95 201.83C873.67 202.14 873.55 202.45 873.57 202.77L873.63 203.7L875.4 203.58C875.99 203.54 876.57 203.47 877.14 203.39C877.2 203.42 877.25 203.83 877.31 204.63C877.37 205.43 877.37 205.84 877.31 205.88C876.9 205.86 876.32 205.88 875.56 205.93L873.79 206.05L873.9 207.7L876.17 207.54C876.67 207.51 877.42 207.42 878.41 207.29C878.47 207.33 878.53 207.76 878.58 208.56C878.64 209.36 878.64 209.79 878.58 209.82C878.21 209.81 877.84 209.82 877.47 209.85L876.33 209.93L877.4 210.1C877.25 210.42 877.07 210.89 876.83 211.51C876.61 212.07 876.44 212.47 876.33 212.72L877.36 212.65C877.6 212.63 877.94 212.59 878.38 212.53C878.44 212.54 878.49 212.95 878.55 213.77C878.61 214.58 878.61 215.01 878.55 215.04C878.05 215.03 877.36 215.05 876.49 215.11L874.41 215.25L874.54 217.09L876.45 216.96C877.1 216.92 877.73 216.85 878.36 216.76C878.42 216.79 878.48 217.21 878.53 218.02C878.59 218.83 878.59 219.26 878.53 219.29C878.07 219.27 877.43 219.29 876.61 219.35L874.7 219.48L874.85 221.65C874.9 222.4 874.99 223.12 875.11 223.82C875.06 223.89 874.53 223.96 873.51 224.03ZM870.75 213.08L874.71 212.8L873.84 212.65C874.15 211.73 874.4 210.86 874.6 210.03L872.52 210.17L870.47 210.31C871.05 211.23 871.44 212.06 871.62 212.8L870.75 213.08ZM881.47 223.53C880.47 223.6 879.91 223.6 879.77 223.53C879.85 222.21 879.81 220.44 879.65 218.21L879.28 212.88L878.91 207.55C878.75 205.3 878.55 203.53 878.29 202.24C878.28 202.1 878.36 202.02 878.52 202.01C879.95 202.05 881.84 202 884.19 201.83L889.87 201.44L890.18 205.93C890.22 206.57 890.17 207.06 890 207.41C889.82 207.79 889.48 208.09 888.98 208.32C888.51 208.53 887.88 208.69 887.09 208.79C886.56 208.88 885.7 208.96 884.52 209.04C884.34 208.35 883.98 207.56 883.44 206.67C884.33 206.64 885.4 206.58 886.66 206.49C887.03 206.45 887.2 206.32 887.19 206.09L887.05 204.13L881.65 204.51L882.05 210.22L888.59 209.77L889.14 209.61L891.09 210.07C890.75 213.12 889.97 215.79 888.78 218.08C890.04 219.16 891.36 219.94 892.73 220.42C891.98 221.08 891.34 221.88 890.81 222.81C889.59 222.27 888.39 221.5 887.23 220.51C886.41 221.59 885.49 222.51 884.47 223.27C884.11 222.85 883.57 222.39 882.87 221.89L882.92 222.61C882.94 222.85 882.97 223.08 883.02 223.3C883 223.38 882.48 223.46 881.47 223.53ZM882.8 221.03C883.7 220.29 884.51 219.42 885.24 218.41C884.06 216.92 883.07 215.26 882.28 213.43L882.54 217.23L882.8 221.03ZM886.67 215.87C887.22 214.65 887.61 213.38 887.85 212.07L884.47 212.3C884.8 213.01 885.13 213.63 885.46 214.15C885.84 214.75 886.24 215.32 886.67 215.87Z" fill="#1F1F1F"/>
<path d="M902.12 222.12C901.01 222.2 900.41 222.2 900.31 222.12C900.37 221.06 900.34 219.82 900.25 218.4L899.99 214.7C898.92 215.11 897.61 215.54 896.04 215.98C895.86 215.59 895.59 215.16 895.22 214.67C894.85 214.17 894.51 213.77 894.19 213.47C897.55 212.65 900.63 211.49 903.45 210.02C902.29 209.16 900.81 208.18 898.99 207.09C898.05 207.7 897.25 208.16 896.61 208.48C896.35 208.15 895.98 207.76 895.5 207.33C895.03 206.9 894.6 206.58 894.24 206.36C896.29 205.4 898.08 204.28 899.6 203.01C900.99 201.86 902.07 200.65 902.86 199.4C903.76 199.5 904.62 199.65 905.45 199.86C906.28 200.07 906.66 200.21 906.59 200.3C906.54 200.37 906.46 200.41 906.35 200.44C906.15 200.47 905.98 200.58 905.84 200.76C905.65 201.03 905.42 201.35 905.13 201.72L913.05 201.17L913.59 200.99L915.89 202.01C914.33 205.42 911.61 208.37 907.73 210.86L912.14 210.55C913.8 210.43 915.26 210.28 916.51 210.08C916.6 210.07 916.65 210.13 916.66 210.24C916.62 211 916.64 211.89 916.71 212.93L916.9 215.61L917.09 218.29C917.16 219.33 917.27 220.21 917.41 220.96C917.34 221.04 916.74 221.13 915.62 221.21C914.49 221.29 913.92 221.29 913.89 221.21C913.89 221.18 913.88 221.11 913.87 220.99C913.88 220.85 913.88 220.74 913.88 220.68L913.84 220.16L903.67 220.87L903.71 221.39C903.71 221.45 903.73 221.56 903.76 221.7C903.77 221.81 903.77 221.88 903.78 221.92C903.76 221.96 903.21 222.04 902.12 222.12ZM906.33 208.28C908.3 206.98 909.9 205.51 911.12 203.89L906.77 204.19L902.45 204.49C902.22 204.68 901.9 204.95 901.48 205.3C903.62 206.49 905.24 207.48 906.33 208.28ZM903.49 218.28L913.66 217.57L913.35 213.05L908.25 213.4L903.18 213.75L903.49 218.28Z" fill="#1F1F1F"/>
<path d="M928.19 220.33C927.21 220.4 926.65 220.4 926.52 220.33C926.6 219.12 926.57 217.52 926.44 215.51L926.1 210.68L922.1 211.2L921.65 208.73L923.67 208.52C924.01 208.1 924.39 207.57 924.81 206.95C923.96 205.97 922.8 204.95 921.31 203.9L922.7 201.83C922.93 201.98 923.17 202.13 923.4 202.29C924.16 200.72 924.72 199.28 925.08 198C925.85 198.19 926.56 198.44 927.19 198.77C927.86 199.12 928.15 199.4 928.06 199.6C927.98 199.75 927.85 199.88 927.67 199.99C927.35 200.17 927.08 200.47 926.87 200.89C926.35 201.92 925.82 202.87 925.29 203.74C925.62 204.02 925.96 204.33 926.3 204.68C927.12 203.37 927.86 202.01 928.52 200.59C929.26 200.81 929.94 201.09 930.56 201.43C931.2 201.82 931.46 202.1 931.34 202.29C931.26 202.42 931.12 202.53 930.92 202.61C930.6 202.76 930.31 203.03 930.06 203.41C928.71 205.42 927.56 207.03 926.61 208.24L929.35 207.95C928.97 207.35 928.61 206.82 928.27 206.37L930.51 205.33C931.96 207.2 932.91 208.82 933.35 210.2L930.98 211.37C930.88 211.06 930.72 210.64 930.5 210.11L928.96 210.31L929.3 215.23L929.47 217.69C929.54 218.65 929.64 219.46 929.78 220.12C929.7 220.19 929.17 220.26 928.19 220.33ZM924.54 218.66C923.74 218.3 922.89 218.01 922 217.8C922.6 216.49 922.95 214.61 923.05 212.16C923.8 212.22 924.47 212.33 925.08 212.5C925.76 212.66 926.1 212.82 926.09 212.98C926.08 213.09 926.01 213.2 925.89 213.31C925.72 213.5 925.62 213.76 925.58 214.1C925.55 214.47 925.47 215.03 925.33 215.77C925.13 216.96 924.86 217.92 924.54 218.66ZM931.06 216.77C930.9 216.11 930.64 215.38 930.27 214.59C929.87 213.66 929.49 212.88 929.13 212.27L931.47 211.44C932.33 212.81 933.02 214.26 933.56 215.81L931.06 216.77ZM932.12 219.55C932.05 219.41 931.99 218.9 931.93 218.01C931.87 217.13 931.87 216.67 931.92 216.65C932.33 216.65 932.75 216.64 933.17 216.61L934.42 216.52L933.67 205.77C933.46 202.78 933.18 200.39 932.84 198.62C932.83 198.48 932.94 198.4 933.16 198.38C934.61 198.42 936.55 198.36 938.97 198.19L941.88 197.99C943.01 197.91 943.96 197.81 944.75 197.67C944.9 197.66 944.97 197.69 944.98 197.77C944.91 198.96 944.94 200.45 945.07 202.25L945.38 206.74L946 215.7L946.92 215.64C947.12 215.63 947.43 215.59 947.83 215.53C947.89 215.54 947.95 215.99 948.01 216.86C948.07 217.74 948.08 218.21 948.02 218.28C947.05 218.25 945.73 218.3 944.05 218.41L940.06 218.69C937.39 218.9 934.75 219.18 932.12 219.55ZM936.71 204.27L939.29 204.09L941.9 203.91L941.67 200.59L936.49 200.95L936.71 204.27ZM937.13 210.22L939.71 210.04L942.31 209.86L942.07 206.44L936.89 206.8L937.13 210.22ZM937.55 216.32L942.73 215.96L942.48 212.42L939.88 212.6L937.3 212.78L937.55 216.32Z" fill="#1F1F1F"/>
<path d="M952.29 218.54C951.68 217.73 950.91 217.09 949.98 216.61C951.51 215.34 952.53 213.62 953.05 211.47C953.41 209.99 953.58 207.98 953.55 205.46L950.83 205.65L950.54 201.49C950.43 199.91 950.27 198.53 950.06 197.34C950.06 197.28 950.12 197.24 950.25 197.23C951.18 197.23 952.1 197.2 953.03 197.13L955.83 196.93L958.63 196.74C959.72 196.66 960.65 196.56 961.42 196.43C961.55 196.42 961.62 196.46 961.62 196.54C961.57 197.74 961.61 199.13 961.71 200.71L962 204.87L956.71 205.24C956.71 205.45 956.7 205.77 956.69 206.21C956.68 206.65 956.68 206.98 956.68 207.21L962.39 206.81C962.41 207.14 962.43 207.49 962.43 207.84C962.49 210.81 962.48 212.92 962.39 214.16C962.3 215.49 962.08 216.37 961.74 216.8C961.29 217.33 960.63 217.67 959.75 217.83C959 217.98 957.91 218.08 956.48 218.13C956.38 217.25 956.05 216.45 955.48 215.73C956.22 215.76 957.11 215.74 958.15 215.67C958.56 215.64 958.85 215.52 959.04 215.29C959.4 214.87 959.54 212.94 959.47 209.52L956.45 209.73C956.03 213.58 954.64 216.51 952.29 218.54ZM953.6 202.91L958.7 202.56L958.47 199.29L955.92 199.47L953.37 199.65L953.6 202.91ZM966.13 211.64C965.06 211.71 964.47 211.72 964.38 211.67C964.43 210.82 964.41 209.7 964.31 208.31L964.08 204.94L963.85 201.57C963.75 200.18 963.62 199.03 963.44 198.12C964.21 198.03 965.03 197.99 965.88 197.97C966.9 197.96 967.42 198.03 967.42 198.17C967.03 198.97 966.86 199.75 966.91 200.51L967.29 205.98C967.44 208.1 967.66 209.91 967.95 211.41C967.83 211.49 967.22 211.57 966.13 211.64ZM967.65 217.47C967.41 216.44 966.96 215.49 966.31 214.61C967.49 214.56 968.85 214.48 970.39 214.38C970.89 214.35 971.12 214.14 971.1 213.75L970.46 204.55L970.14 199.94C970.02 198.14 969.83 196.58 969.59 195.27C970.42 195.18 971.26 195.13 972.11 195.12C973.17 195.11 973.7 195.18 973.71 195.32C973.32 196.11 973.15 196.9 973.21 197.66L974.31 213.53C974.37 214.37 974.3 215.02 974.11 215.48C973.92 215.93 973.55 216.29 973.02 216.55C972.11 216.97 970.33 217.28 967.65 217.47Z" fill="#1F1F1F"/>
</svg>
