<svg width="254" height="79" viewBox="0 0 254 79" fill="none" xmlns="http://www.w3.org/2000/svg">
<path d="M8.77998 8.6001H0.549988V2.6001H24.05V8.6001H15.82V29.9001H8.77998V8.6001Z" fill="#1F1F1F"/>
<path d="M37.74 14.2301C35.74 14.2301 34.93 15.8501 34.93 17.8701V29.9001H28.62V0.580078H34.93V9.2601C35.91 8.8901 37.15 8.64011 38.68 8.64011C42.86 8.64011 46.78 10.3701 46.78 15.8101V29.9001H40.38V16.5801C40.38 14.9301 39.27 14.2301 37.74 14.2301Z" fill="#1F1F1F"/>
<path d="M62.39 25.0501C63.97 25.0501 65.55 24.2401 67.12 22.4701L71.56 26.6601C68.53 29.3501 65.5 30.3001 62.09 30.3001C55.95 30.3001 51.98 26.7301 51.98 19.9601C51.98 13.7101 55.26 9.62012 61.75 9.62012C69.6 9.62012 71.09 15.1401 71.09 22.2001H58.76C59.24 24.1601 60.47 25.0501 62.39 25.0501ZM58.68 17.6201H64.57C64.27 15.8501 63.25 14.5301 61.8 14.5301C60.13 14.5301 59.19 15.7401 58.68 17.6201Z" fill="#1F1F1F"/>
<path d="M104.92 18.7901H94.04V29.9001H87.39V2.6001H107.14V8.4501H94.05V12.9801H104.93V18.7901H104.92Z" fill="#1F1F1F"/>
<path d="M112.3 29.9001V25.3401C121.85 18.2001 125.86 14.2701 125.86 11.1401C125.86 9.19011 124.71 7.83008 121.94 7.83008C119.72 7.83008 118.23 9.2601 115.71 11.8801L111.15 7.28009C114.73 4.26009 117.5 2.09009 122.32 2.09009C128.93 2.09009 132.68 5.9901 132.68 10.8501C132.68 15.8201 128.97 19.7501 123.38 24.2001H132.59V29.9001H112.3Z" fill="#1F1F1F"/>
<path d="M160.33 8.46011H146.43V12.9901H158.12V18.8001H146.43V24.0601H160.33V29.9101H139.73V2.61011H160.33V8.46011Z" fill="#1F1F1F"/>
<path d="M7.74998 77.4602L0.799988 74.0402C3.60999 69.9902 4.84999 67.5702 6.68999 63.2202L13.13 65.8002C11.25 70.9902 9.96999 73.7802 7.74998 77.4602ZM11.85 56.6402V54.0602H21.74V52.0702C19.18 52.2502 16.96 52.4402 13.85 52.5802L12.66 48.2002L8.64999 53.5702C6.04999 51.9502 4.42998 50.9902 1.13998 49.2702L5.27998 43.9702C7.91998 45.1502 9.75998 46.0302 12.49 47.4302L12.19 46.2902C21.79 45.8102 27.5 45.2202 35.65 44.1902L38.59 50.6602C35.52 51.1002 32.62 51.3602 29.55 51.6202V54.0502H39.83V60.1902H29.55V61.9902H38.12V77.7002H30.44V76.6302H21.01V77.7002H13.42V61.9902H21.74V60.1902H11.85V59.1602L8.85999 63.2102C6.25999 61.5202 4.33998 60.4502 1.05998 58.7202L5.19998 53.4202C7.57998 54.5102 9.49998 55.4302 11.85 56.6402ZM20.85 68.2702V70.4002H30.66V68.2702H20.85Z" fill="#1F1F1F"/>
<path d="M68.75 78.24L66.2299 76.36V76.69C59.36 77.24 51.81 77.43 45.03 77.61L43.96 72.46C46.9 72.61 49.42 72.68 51.9799 72.61V71.84H45.33V67.54H51.9799V66.84H44.77V54.99H51.9799V54.33H44.1799V49.66H51.9799V49C49.9299 49.11 47.89 49.18 45.71 49.22L44.64 44.84C51.34 44.77 57.8599 44.47 63.8699 43.81L65.7 48.41C63.57 48.67 61.31 48.81 58.49 48.96V49.66H66.34V50.21H68C68.04 48.26 68.09 46.09 67.96 43.77L75.21 44.03C75.17 45.94 75.0399 47.78 74.8699 50.32H82.46L82.42 53.85C82.21 67.83 82.04 73.97 79.69 76.11C78.03 77.32 76.1899 77.69 71.7599 77.69L70.95 73.83C70.33 75.37 69.6 76.84 68.75 78.24ZM50.2 58.55V59.73H52.25V58.55H50.2ZM50.2 63.23H52.25V62.16H50.2V63.23ZM60.35 58.55H58.35V59.73H60.35V58.55ZM58.34 63.23H60.34V62.16H58.34V63.23ZM64.82 54.99V54.33H58.5099V54.99H64.82ZM67.94 56.57H65.85V66.83H58.5099V67.53H64.82V70.8C67.08 66.28 67.81 60.58 67.94 56.57ZM63.9299 72.42L64.27 71.83H58.5099V72.53C60.2999 72.57 62.0999 72.53 63.9299 72.42ZM72.1199 70.7C72.8899 70.77 73.44 70.77 73.7 70.77C74.47 70.77 74.77 70.51 74.89 70C75.44 67.9 75.49 63.86 75.66 56.57H74.72C74.42 61.17 73.6099 66.13 72.1199 70.7Z" fill="#1F1F1F"/>
<path d="M97.16 66.9801L100.91 66.5401C101.38 69.3701 101.59 71.3201 101.81 74.2701V65.6601L97.29 66.5401C97.21 65.8401 97.12 65.2501 96.99 64.7001C93.66 65.1801 91.36 65.4001 87.27 65.8001L86.08 60.3901C87.06 60.4601 88.13 60.4601 89.07 60.4301C89.88 59.5101 90.9 58.1901 91.71 56.8601C89.96 55.6501 88.17 54.5801 85.65 53.1801L88.34 49.1301L89.36 49.7901C90.51 47.9501 91.41 46.4401 92.22 44.1201L97.55 46.1801C96.14 48.7901 94.78 50.9301 93.58 52.4701C93.79 52.5801 94.13 52.8001 94.3 52.9501C95.37 51.5501 96.26 50.0401 97.2 48.2001L101.81 50.5901V44.8101H124.67V73.7301C124.67 76.3101 122.79 77.6301 115.71 77.6301L114.17 72.0701C115.58 72.2501 116.69 72.3301 117.71 72.3301C118.26 72.3301 118.56 72.1801 118.56 71.7801V66.0001H115.19V66.5901C115.19 67.3301 115.53 67.2501 116.43 67.2901H118.01V71.3401H112C110.34 71.3401 109.53 70.5701 109.53 69.2101V66.0101H108.21V77.6701H101.81V75.0001L97.72 75.4401C97.71 72.1301 97.67 70.1101 97.16 66.9801ZM91.27 77.2801L86.15 76.7301C86.79 73.1201 87.05 69.8101 87.13 66.0601L91.78 66.2401C91.7 70.8401 91.74 73.7801 91.27 77.2801ZM97.03 76.6901H92.25C92.51 73.0501 92.59 69.9201 92.42 66.2801L96.73 66.1301C96.99 70.7301 96.99 73.3101 97.03 76.6901ZM95.07 60.3901L96.22 60.2401L96.01 59.2501C95.71 59.6601 95.37 60.0301 95.07 60.3901ZM96.69 58.3301L100.27 57.6301C100.87 59.7301 101.34 61.4601 101.81 63.7401V51.1201C100.02 53.8801 98.39 56.1601 96.69 58.3301ZM107.99 50.3901H107.52V53.9201H108.54C108.42 52.7001 108.2 51.5301 107.99 50.3901ZM107.95 58.8901V60.5101H110.17V58.8901H107.95ZM113.07 53.9201H113.92C114.13 52.9601 114.35 51.6001 114.39 50.3901H112.6C112.81 51.6701 112.94 52.6301 113.07 53.9201ZM118.57 58.8901H116.31V60.5101H118.57V58.8901ZM118.01 53.9201H118.99V50.3901H118.48C118.31 51.7501 118.18 52.9601 118.01 53.9201Z" fill="#1F1F1F"/>
<path d="M142.71 68.5601C143.9 68.3801 144.54 68.2701 145.61 67.9701V74.3C140.07 75.26 135.93 75.9601 130.77 76.6901L128.94 70.0701C131.46 69.9601 133.76 69.7401 136.06 69.4501C136.4 68.5701 136.53 67.8701 136.7 66.9901L131.62 68.4201C130.9 64.8101 130.21 61.76 128.98 57.2701L134.44 56.0201C135.63 59.74 136.19 61.8301 137.04 65.0701C137.55 61.7201 137.85 59.1501 137.98 55.1401L145.06 56.2401C144.33 61.2401 143.69 64.6601 142.71 68.5601ZM141.99 48.36H146.81V54.7201H129.15V48.36H134.23C133.89 47.18 133.42 46.0801 132.82 44.9801L140.75 43.55C141.26 45.27 141.56 46.49 141.99 48.36ZM159.09 48.1801H167.75V54.5101H159.09V58.1501H167.19V77.6901H159.64V76.4001H153.54V77.6901H146.03V58.1501H151.32V43.9901H159.08V48.1801H159.09ZM153.46 64.4801V70.0701H159.77V64.4801H153.46Z" fill="#1F1F1F"/>
<path d="M190.02 44.46H204.09V51.04C204.09 51.44 204.13 52.4 204.69 52.36C205.33 52.32 205.29 51.66 205.29 51L205.25 48.13L211.01 49.38C210.93 53.21 210.5 55.19 209.56 56.48C208.71 57.69 206.57 57.84 205.29 57.84H202.18C199.28 57.84 198 57.03 198 55.41V50.48H196.46C196.16 53.79 195.52 56.29 193.39 58.76H208.7V64.39C207.76 66.82 206.4 68.66 205.12 70.06C207 70.5 208.96 70.8 211.13 70.91L207.33 77.83C204.22 77.17 201.53 76.21 198.84 74.85C196.54 76.03 193.77 77.13 190.65 77.98L187.07 73.23V77.65H181.1V77.02H178.67V77.65H172.44V65.8H187.07V71.8C188.69 71.62 190.48 71.21 192.1 70.62C190.52 69.52 189.11 68.41 187.84 67.12L192.23 64.47H188.35V58.73H192.02L187.33 55.75V59.8H172.32V55.27H187.12C187.38 54.98 187.63 54.76 187.85 54.46H171.6V49.05H176.46C176.12 47.62 175.73 46.81 175.05 45.33L182.51 43.49C183.24 45.11 183.62 46.03 184.34 47.98L180.63 49.05H188.26V53.83C189.89 51.27 190.02 48.7 190.02 44.46ZM172.27 60.58H187.28V65.11H172.27V60.58ZM178.8 70.25V72.09H181.1V70.25H178.8ZM198.59 67.49C199.49 66.75 200.42 65.54 201.02 64.47H195.22C196.07 65.54 197.44 66.76 198.59 67.49Z" fill="#1F1F1F"/>
<path d="M239.54 53.29V44.06H247.73V53.29H253.49V60.35H247.73V77.68H239.54V60.35H233.36V54.76H214.47V49.13H220.87C220.44 47.66 219.97 46.52 219.29 45.05L226.54 43.28C227.44 45.27 227.95 46.52 228.71 48.47L226.11 49.13H233.96V53.29H239.54ZM215.44 60.32V55.65H232.63V60.32H215.44ZM215.44 65.73V61.06H232.63V65.73H215.44ZM225.97 76.91H222.9V77.72H215.95V66.65H232.28V77.65H225.97V76.91ZM222.78 70.99V72.42H226.06V70.99H222.78Z" fill="#1F1F1F"/>
</svg>
