<svg width="254" height="80" viewBox="0 0 254 80" fill="none" xmlns="http://www.w3.org/2000/svg">
<path d="M20.53 7.29022C16.48 10.7102 10.64 14.1302 5.22 16.1202L0.48999 8.43021C6.41999 7.03021 12.09 4.20021 15.67 0.960205H24.84C28.34 4.09021 34.69 6.85022 40.62 8.13022L36.06 16.1102C30.04 14.0502 24.46 10.7802 20.53 7.29022ZM27.27 14.1302L23.99 17.0002H37.42V23.8102C31.32 29.0002 23.52 32.8202 15.37 35.1002L10.04 28.0002C15.63 26.8602 19.47 25.7902 22.37 24.0602H3.85999V17.0002H18.57C17.25 15.8602 15.84 14.7602 14.09 13.6202L19.85 8.84021C22.75 10.6302 24.88 12.1402 27.27 14.1302Z" fill="#1F1F1F"/>
<path d="M51.8 30.7901H50.39V33.1101H44.25V2.06012H57.81V5.85013C60.2 4.23013 62.46 2.36012 63.99 0.370117L71.45 2.06012C71.15 2.35012 70.9 2.61011 70.64 2.80011H79.77V7.84012C79.17 8.72012 78.62 9.35012 78.02 9.97012H81.47V22.9201H75.54V27.5201C75.54 27.9301 75.58 28.4401 76.27 28.4401C76.74 28.4401 76.87 28.1801 76.91 27.5201C76.95 27.1201 76.95 25.8601 76.91 24.1001L82.88 25.5301C82.75 29.5001 82.28 31.6701 80.83 32.9201C79.85 33.7701 78.27 34.1001 76.1 34.1001H73.63C70.43 34.1001 68.98 33.2501 68.98 30.7901V22.9201H67.83C67.74 27.1101 66.55 31.1601 61.73 34.9501L57.76 31.5301V32.3801H51.79V30.7901H51.8ZM50.39 8.83011V13.3601H51.8V8.83011H50.39ZM50.39 18.9101V24.0601H51.8V18.9101H50.39ZM61.18 22.9201H58.62V12.0701L57.81 11.0801V29.3301C60.08 27.5201 61.14 25.3901 61.18 22.9201ZM70.99 8.17014H65.7C65.06 8.76014 64.29 9.35012 63.4 9.97012H69.41C70.01 9.35012 70.52 8.83014 70.99 8.17014ZM65.19 17.4801H66.9V15.4601H65.19V17.4801ZM73.08 17.4801H74.91V15.4601H73.08V17.4801Z" fill="#1F1F1F"/>
<path d="M103.07 19.2C102.22 18.61 101.28 17.32 101.28 16.18C101.28 14.12 103.07 12.5 105.46 12.5C108.15 12.5 109.77 14.49 109.77 16.66C109.77 21 105.21 23.91 103.2 25.16L99.66 21.81C101.07 20.97 102.73 19.79 103.07 19.2Z" fill="#1F1F1F"/>
<path d="M16.4 51.7202V54.2603H22.2C21.9 51.5703 21.52 48.2602 21.26 44.9902L28.94 45.3203C28.94 45.7303 28.9 48.1903 28.94 48.6703L33.46 45.5802C35.76 47.4902 37.81 49.5503 39.69 51.7603L35.6 54.2603H39.99V60.4402H33.98L39.01 64.2702C36.88 66.4402 34.4 68.7603 32.4 70.2303C32.83 70.9703 33.38 71.3702 34.28 71.3702C35.01 71.3702 36.54 69.9402 38.25 67.9102L40.25 75.2303C37.65 77.6203 35.47 78.6102 33.26 78.6102C30.06 78.6102 27.42 76.7702 26.01 74.3402C24.3 75.4102 22.38 76.6603 20.59 77.5403L16.41 72.6502V74.6403C16.41 78.3503 10.7 78.5003 4.42999 78.5403L2.60001 71.8802C4.82001 72.1002 6.48 72.2102 7.59 72.2102C8.4 72.2102 8.78 71.9203 8.78 71.2903V69.1202C6.86 69.2702 4.64001 69.4102 2.04001 69.5602L0.929993 63.0502C3.61999 63.1202 6.13 63.1202 8.78 63.0502V60.4402H1.23001V54.2603H8.78V52.6003C7.16 52.7803 5.53999 53.0102 3.57999 53.1202L2.09 47.3102C7.89 47.0502 13.14 46.2403 18.21 45.1403L20.98 50.9503C19.43 51.2803 18.23 51.4602 16.4 51.7202ZM23.73 68.2003C23.3 66.1003 22.92 63.3802 22.71 60.4402H16.4V62.8702C18.53 62.7602 20.24 62.6102 21.9 62.4302V68.2402C20.11 68.4202 18.4 68.5702 16.4 68.7202V71.7003C18.87 71.0003 21.56 69.7803 23.73 68.2003ZM28.98 49.9503C29.06 51.1303 29.24 52.7802 29.41 54.2502H32.69C31.75 52.8602 30.43 51.3503 28.98 49.9503ZM33.07 60.4402H30.08C30.12 61.5802 30.25 62.4602 30.42 63.3802C31.37 62.6502 32.43 61.3602 33.07 60.4402Z" fill="#1F1F1F"/>
<path d="M60.5 63.5601C59.52 62.6401 58.45 61.3501 57.6 60.2901V66.6201H50.26V62.2101C49.36 63.2401 48.47 64.2001 47.45 64.9301L43.44 59.4101C46.21 58.1601 48.22 56.2801 49.75 54.4101H44.21V48.3001H50.44V44.8801H58.16V48.3001H62.89V54.4101H59.27C60.21 55.6201 62 57.1001 63.62 58.0501V45.5001H81.58V66.6501H79.66C81.07 69.7801 82.3 72.7601 83.28 75.7401L76.41 77.7301C76.2 76.5901 75.73 75.0401 75.39 74.0501C74.2 76.6301 71.55 78.1001 68.31 78.1701C64.47 78.2101 61.19 78.2101 57.35 78.1701C54.36 78.1301 53.17 76.6601 53.17 75.1201V67.0601H59.23C59.14 66.9901 59.02 66.9101 58.93 66.8001L63.28 63.4901L63.62 63.7501V59.7401L60.5 63.5601ZM50.18 78.2401L43.57 76.1101C45.02 72.8701 46 69.8201 46.56 66.4701L52.91 67.7601C52.27 71.6601 51.42 74.7801 50.18 78.2401ZM69.33 68.6001L64.43 72.4601C62.98 70.7301 61.87 69.4101 60.21 67.9001V71.5401C60.21 72.2001 60.85 72.5301 62.21 72.5301C63.62 72.5701 64.47 72.6001 65.92 72.5301C66.94 72.4901 67.63 72.3801 68.09 72.0201C68.6 71.6201 68.9 70.4001 68.94 69.4401L74.31 71.2801C73.97 69.9601 73.5 69.0001 72.82 67.6801L76.27 66.6501H67.19C67.84 67.2401 68.52 67.8301 69.33 68.6001ZM70.31 50.1001V51.4601H74.87V50.1001H70.31ZM70.31 55.2501V56.5401H74.87V55.2501H70.31ZM70.31 61.8401H74.87V60.3301H70.31V61.8401Z" fill="#1F1F1F"/>
<path d="M109.72 47.4101H124.43V53.9201H114.75L121.06 55.7601C120.63 56.7901 120.08 57.7101 119.61 58.5201C121.49 59.5901 123.75 60.7601 125.88 62.2001L121.74 67.9401C120.16 66.3601 118.24 65.1101 116.2 63.7501C115.65 64.5601 115.3 65.0701 114.66 65.7001C117.52 67.8701 121.27 69.9301 125.79 71.6601L121.01 78.1001C116.96 75.8601 113.08 73.1301 109.71 70.3001V78.7201H101.01L101.05 71.5801C97.94 73.9001 94.31 76.4701 90.94 78.2001L86.25 71.8001C91.92 69.7001 97.59 66.4701 101.05 62.7101V53.9201H92.09L97.85 55.3601C97.55 56.2801 97.04 57.1601 96.7 57.8601C97.98 58.7801 99.47 59.9601 100.75 61.1701L96.44 66.1401C95.63 65.0401 95.03 64.3001 94.18 63.4901C93.2 65.2601 92.39 66.5401 91.07 68.1601L85.82 63.3401C88.29 60.8001 90.17 57.3801 90.94 53.9201H87.4V47.4101H100.96V44.8701H109.66L109.72 47.4101ZM114.07 53.9301H109.72V61.6601C111.73 59.5501 113.31 56.6501 114.07 53.9301Z" fill="#1F1F1F"/>
<path d="M130.97 71.8802L135.45 72.4702C135.41 72.4302 135.41 72.4301 135.41 72.4001L139.55 71.8802C140.06 74.3802 140.32 76.0402 140.53 78.3502L135.92 78.9402C135.84 76.4402 135.66 75.0802 135.45 72.9802C135.11 75.3302 134.77 76.9902 134.08 79.0102L128.92 77.8001C129.86 75.9201 130.54 74.0902 130.88 71.8802C130.45 71.8802 130.07 71.9202 129.64 71.9202L128.91 66.6602C131.3 66.6602 134.16 66.6601 136.8 66.5901V65.6302H130.06V61.4702H136.8V60.5901H129.98V45.5002H150.28V60.5801H143.37V61.4601H149.98V65.6201H143.37V66.4702C145.76 66.4002 148.27 66.2902 150.49 66.1402V70.7401C144.45 71.1801 137.79 71.5102 130.97 71.8802ZM135.66 50.6902C136.13 51.1302 136.73 51.7201 137.2 52.2701V50.0602H134.73V51.5302L135.66 50.6902ZM134.72 54.1101V56.0602H137.19V54.1501L135.74 55.6201C135.4 54.9601 135.06 54.4401 134.72 54.1101ZM145.68 78.0602L141.63 78.8301C141.29 76.2501 141.03 74.5602 140.52 72.1302L144.36 71.5002C145 74.1602 145.34 75.7801 145.68 78.0602ZM143.98 50.7302L145.52 51.3202V50.0702H143.05V52.7202C143.34 52.2702 143.68 51.6102 143.98 50.7302ZM144.62 55.7302L143.04 54.7701V56.0602H145.51V53.8202C145.21 54.5102 145.04 54.9902 144.62 55.7302ZM150.59 77.7302L146.45 78.5801C146.11 76.2201 145.81 74.1302 145.3 71.9202L149.05 71.2202C149.73 73.6802 150.16 75.4802 150.59 77.7302ZM167.35 55.3601H161.34V59.3001H167.22V78.5402H160.61V77.0002H157.5V78.5402H150.8V59.3001H154.47V44.9202H161.34V49.2202H167.35V55.3601ZM157.33 65.6201V70.8802H160.7V65.6201H157.33Z" fill="#1F1F1F"/>
<path d="M173.62 71.8802L178.1 72.4702C178.06 72.4302 178.06 72.4301 178.06 72.4001L182.2 71.8802C182.71 74.3802 182.97 76.0402 183.18 78.3502L178.57 78.9402C178.48 76.4402 178.31 75.0802 178.1 72.9802C177.76 75.3302 177.42 76.9902 176.74 79.0102L171.58 77.8001C172.52 75.9201 173.2 74.0902 173.54 71.8802C173.11 71.8802 172.73 71.9202 172.3 71.9202L171.58 66.6602C173.97 66.6602 176.83 66.6601 179.47 66.5901V65.6302H172.73V61.4702H179.47V60.5901H172.65V45.5002H192.95V60.5801H186.04V61.4601H192.65V65.6201H186.04V66.4702C188.43 66.4002 190.95 66.2902 193.16 66.1402V70.7401C187.1 71.1801 180.45 71.5102 173.62 71.8802ZM178.32 50.6902C178.79 51.1302 179.39 51.7201 179.86 52.2701V50.0602H177.39V51.5302L178.32 50.6902ZM177.38 54.1101V56.0602H179.85V54.1501L178.4 55.6201C178.06 54.9601 177.72 54.4401 177.38 54.1101ZM188.34 78.0602L184.29 78.8301C183.95 76.2501 183.69 74.5602 183.18 72.1302L187.02 71.5002C187.66 74.1602 188 75.7801 188.34 78.0602ZM186.63 50.7302L188.17 51.3202V50.0702H185.7V52.7202C185.99 52.2702 186.33 51.6102 186.63 50.7302ZM187.27 55.7302L185.69 54.7701V56.0602H188.16V53.8202C187.87 54.5102 187.7 54.9902 187.27 55.7302ZM193.24 77.7302L189.1 78.5801C188.76 76.2201 188.46 74.1302 187.95 71.9202L191.7 71.2202C192.39 73.6802 192.82 75.4802 193.24 77.7302ZM210 55.3601H203.99V59.3001H209.88V78.5402H203.27V77.0002H200.16V78.5402H193.46V59.3001H197.13V44.9202H204V49.2202H210V55.3601ZM199.98 65.6201V70.8802H203.35V65.6201H199.98Z" fill="#1F1F1F"/>
<path d="M228.43 53.0802L223.78 54.4002C223.05 53.1502 222.59 52.4502 221.73 51.4202H221.39C220.92 52.8202 220.37 53.9202 219.34 55.1702L213.84 52.0102C215.97 49.7702 217.76 46.7902 218.79 44.5102L225.1 45.9502C224.93 46.2402 224.76 46.5002 224.59 46.7202H233.8V49.1502C234.82 47.9002 235.68 46.1002 236.4 44.4402L242.58 45.9102C242.37 46.2402 242.2 46.5302 242.03 46.7202H252.91V51.4302H248.26C248.73 52.0202 249.2 52.6802 249.63 53.4902L243.02 54.8502C246.18 55.7702 249.33 56.3602 253.77 56.8002L250.87 62.7202C249.16 62.3902 248.1 62.0602 246.99 61.6202V63.1602H220.8V61.3902C219.56 61.9002 218.45 62.2702 216.88 62.6402L213.98 57.0102C219.82 56.2402 224.08 55.0302 228.43 53.0802ZM234.23 74.3402C236.06 73.6802 237.43 72.9102 238.58 71.8402H234.32V63.7502H251.76V71.9202H247.71C249.46 72.9102 251.12 73.5002 253.64 74.0202L249.97 79.1302C247.45 78.1702 245.32 76.9202 243.02 75.3402C241.44 76.8902 239.99 78.0302 237.77 79.0602L234.02 75.6002L230.82 79.1302C228.86 77.6202 227.2 76.6302 225.15 75.5202C223.49 76.8802 221.87 77.9102 219.78 78.9802L214.66 74.3802C217.3 73.6102 219.05 72.8002 220.59 71.7302H216.15V63.7502H232.95V71.7302H229.03C231.08 72.6102 232.4 73.2402 234.23 74.3402ZM222.97 68.5302H226.13V67.1002H222.97V68.5302ZM229.71 52.4502C229.79 52.3802 229.92 52.3402 230.05 52.2702H233.42L232.35 51.4202H228.81L229.71 52.4502ZM233.59 57.1602C232.23 57.9302 230.95 58.4902 229.03 59.1502H237.9C235.9 58.4902 234.66 57.8602 233.59 57.1602ZM242.42 54.6602C242.04 53.4502 241.57 52.3802 240.97 51.4202H239.43C239.17 51.9302 238.92 52.3802 238.41 52.9302C239.61 53.5902 240.84 54.1502 242.42 54.6602ZM241.19 68.5302H244.9V67.1002H241.19V68.5302Z" fill="#1F1F1F"/>
</svg>
