<svg width="266" height="35" viewBox="0 0 266 35" fill="none" xmlns="http://www.w3.org/2000/svg">
<path d="M0.76001 25.9598L5.23999 21.5098C6.98999 23.6098 8.82 25.1498 12.06 25.1498C15.17 25.1498 15.85 24.0098 15.85 22.9398C15.85 21.3998 14.23 20.7698 12.95 20.2198C10.31 19.1898 7.66002 18.5598 5.40002 16.9798C3.61002 15.6898 2.15997 13.8498 2.15997 11.1298C2.15997 5.75982 6.64001 2.81982 12.82 2.81982C18.62 2.81982 21.69 5.39982 23.44 7.37982L19.05 11.9098C17.26 9.95982 15.68 8.52982 13.12 8.52982C10.35 8.52982 9.28003 9.77981 9.28003 10.8098C9.28003 12.3898 11.41 13.0498 12.73 13.5298C17.81 15.1898 23.48 17.2498 23.48 22.6498C23.48 27.9098 18.4 31.1098 12.09 31.1098C6.30003 31.1098 2.59001 28.4698 0.76001 25.9598Z" fill="#1F1F1F"/>
<path d="M26.99 20.5899C26.99 14.2599 30.57 10.1099 37.48 10.1099C41.28 10.1099 43.54 11.5099 45.84 13.6799L41.83 18.2099C40.55 16.6999 39.23 15.8599 37.65 15.8599C35.69 15.8599 34.03 16.3699 34.03 20.5699C34.03 24.5099 35.86 25.2399 37.74 25.2399C39.19 25.2399 40.6 24.4299 42.09 22.7399L46.23 27.2999C44.23 29.3999 41.75 31.0099 37.49 31.0099C30.36 30.9999 26.99 26.8099 26.99 20.5899Z" fill="#1F1F1F"/>
<path d="M50.79 10.6599H57.02V12.5399C57.92 12.0299 59.75 10.3699 62.91 10.4399V17.1399C57.66 17.1399 57.15 18.6099 57.15 20.6699V30.5999H50.8V10.6599H50.79Z" fill="#1F1F1F"/>
<path d="M76.13 30.64C71.99 30.64 68.11 28.62 68.11 23.39V10.73H74.29V22.61C74.29 24.19 75.1 24.89 76.64 24.89C78.77 24.89 80.01 23.68 80.01 21.76V10.72H86.19V30.62H80.05V29.07C79.11 30.01 77.75 30.64 76.13 30.64Z" fill="#1F1F1F"/>
<path d="M115.88 15.6599C113.58 15.6599 112.43 16.7998 112.43 18.6798V30.5999H105.69V17.9398C105.69 16.3598 104.92 15.6599 103.13 15.6599C100.87 15.6599 99.63 16.8699 99.63 18.7899V30.5999H93.15V10.6599H99.46V11.7599C100.4 11.1399 101.98 10.3298 103.77 10.3298C106.71 10.3298 108.76 11.2498 110.04 12.2098C111.41 11.2898 113.32 10.3298 116.52 10.3298C121.04 10.3298 125.18 11.9898 125.18 17.5798V30.5999H118.48V17.9398C118.48 16.3598 117.67 15.6599 115.88 15.6599Z" fill="#1F1F1F"/>
<path d="M160.88 27.8399L157.85 31.5899C156.95 30.5199 156.1 29.5299 155.21 28.8999V34.3099H147.88V29.4899C147.03 30.4799 146.05 31.4399 144.94 32.3999L140.33 27.3599C142.29 26.2599 144.13 24.9699 145.19 23.6099H141.4V18.0199H147.88V16.5899H141.14V10.7H144.76C144.5 9.88995 144.21 9.22993 143.86 8.48993H141.9V2.93994H147.83C147.7 2.30994 147.53 1.68994 147.23 1.02994L155.5 0.179932C155.67 1.09993 155.84 1.97994 155.93 2.93994H161.86V8.52994H160.28C160.02 9.37994 159.85 9.88995 159.56 10.7H162.03V16.5899H155.21V18.0199H161.69V23.6099H157.94C159.31 24.4899 160.46 25.1899 161.56 25.9999C162.33 23.4999 162.5 20.7799 162.5 16.8799V2.04993C167.75 1.89993 172.05 1.41994 177.04 0.689941L180.15 7.23993C176.61 7.64993 173.16 7.97994 169.36 8.08994V11.4399H179.85V17.9099H177.63V34.2799H170.89V17.9099H169.35C169.35 25.7799 168.97 29.2799 165.9 34.6499L159.5 30.2C160.07 29.39 160.5 28.6499 160.88 27.8399ZM151.33 10.7H152.99C153.29 9.95995 153.5 9.33993 153.72 8.45993H150.65C150.9 9.22993 151.11 9.84995 151.33 10.7Z" fill="#1F1F1F"/>
<path d="M207.88 8.15994V10.3299H220.67V16.2899H207.88V18.0599H222.51V24.4599H207.88V29.9399C207.88 33.1799 204.77 34.2399 194.83 34.2799L192.36 27.2199C194.71 27.4399 195.94 27.5499 198.16 27.5499C198.93 27.5499 199.27 27.2899 199.27 26.7799V24.4599H183.53V18.0599H199.27V16.2899H185.71V10.3299H199.27V8.41995C195.39 8.59995 191.42 8.74993 186.6 8.89993L185.02 2.56995C195.72 2.49995 207.28 1.82994 216.75 0.689941L219.48 7.34995C216.29 7.67994 212.28 7.96994 207.88 8.15994Z" fill="#1F1F1F"/>
<path d="M239.83 22.14V34.32H232.37V24.94C231.69 26.26 230.71 27.81 229.81 28.95L225.5 22C227.89 19.28 229.94 16.19 231.17 12.8H226.35V6.13998H232.36V0.469971H239.82V6.13998H244.94V12.8H239.82V12.98C241.23 14.19 242.72 15.19 243.96 16L248.31 13.79C250.27 16.44 251.98 18.98 253.51 21.41V12.65H245.66V5.98996H253.51V0.469971H261.57V5.90997H265.19V12.64H261.57V29.67C261.57 32.76 258.58 34.23 255.22 34.23H247.88L246.3 26.61C248.52 26.9 250.27 27.16 252.31 27.16C253.12 27.16 253.5 26.79 253.5 26.31V22.15L247.23 25.65C246.33 23.59 245.35 21.79 244.16 20.17L241.73 24.22C240.94 23.43 240.43 22.91 239.83 22.14Z" fill="#1F1F1F"/>
</svg>
