<svg width="700" height="449" viewBox="0 0 700 449" fill="none" xmlns="http://www.w3.org/2000/svg">
<path d="M235.7 261.89L210.01 402.11H635.54V261.89H235.7Z" fill="#4F26E9"/>
<path d="M506.4 68.6101H80.7401V208.83H480.7L506.4 68.6101Z" fill="#4F26E9"/>
<path d="M159.96 125.76H159.86L144.93 137.86L138.92 123.17L159.97 105.88H181.02V168.97H159.97V125.76H159.96Z" fill="#F2E8DE"/>
<path d="M254.78 162.24C249.83 167.31 242.28 169.85 232.13 169.85C221.97 169.85 214.42 167.31 209.48 162.24C204.53 157.17 202.06 148.9 202.06 137.43C202.06 125.97 204.53 117.7 209.48 112.62C214.42 107.55 221.97 105.01 232.13 105.01C242.29 105.01 249.84 107.55 254.78 112.62C259.72 117.69 262.2 125.96 262.2 137.43C262.2 148.9 259.73 157.17 254.78 162.24ZM224.86 152.69C226.36 155.48 228.78 156.88 232.13 156.88C235.47 156.88 237.89 155.48 239.4 152.69C240.9 149.9 241.65 144.81 241.65 137.43C241.65 130.05 240.9 124.97 239.4 122.18C237.9 119.39 235.47 117.99 232.13 117.99C228.79 117.99 226.37 119.39 224.86 122.18C223.36 124.98 222.61 130.06 222.61 137.43C222.61 144.81 223.36 149.89 224.86 152.69Z" fill="#F2E8DE"/>
<path d="M319.63 105.88L284.55 172.43H267.51L302.59 105.88H319.63Z" fill="#F2E8DE"/>
<path d="M350.5 125.76H350.4L335.47 137.86L329.46 123.17L350.51 105.88H371.56V168.97H350.5V125.76Z" fill="#F2E8DE"/>
<path d="M428.68 131.81H429.68C435.16 131.81 439.62 133.38 443.06 136.52C446.5 139.66 448.22 143.85 448.22 149.1C448.22 155.84 445.81 160.98 441 164.53C436.19 168.07 429.24 169.85 420.15 169.85C411.19 169.85 402.84 168.12 395.09 164.66L400 151.7C407.02 154.7 413.06 156.19 418.14 156.19C421.55 156.19 424.15 155.6 425.96 154.42C427.76 153.24 428.67 151.61 428.67 149.54C428.67 147.81 428.2 146.52 427.27 145.65C426.33 144.79 424.58 144.14 422.01 143.71C419.44 143.28 415.65 143.06 410.63 143.06H406.62V131.82L423.66 119.89V119.72H396.6V105.89H447.22V119.72L428.68 131.65V131.81Z" fill="#F2E8DE"/>
<path d="M296.91 319.04H296.81L281.88 331.14L275.87 316.45L296.92 299.16H317.97V362.25H296.92V319.04H296.91Z" fill="#F2E8DE"/>
<path d="M391.73 355.51C386.78 360.58 379.23 363.12 369.08 363.12C358.92 363.12 351.37 360.58 346.43 355.51C341.48 350.44 339.01 342.17 339.01 330.7C339.01 319.24 341.48 310.97 346.43 305.89C351.37 300.82 358.92 298.28 369.08 298.28C379.24 298.28 386.79 300.82 391.73 305.89C396.67 310.96 399.15 319.23 399.15 330.7C399.15 342.18 396.67 350.44 391.73 355.51ZM361.81 345.96C363.31 348.75 365.73 350.15 369.08 350.15C372.42 350.15 374.84 348.75 376.35 345.96C377.85 343.17 378.6 338.08 378.6 330.7C378.6 323.32 377.85 318.24 376.35 315.45C374.85 312.66 372.42 311.26 369.08 311.26C365.74 311.26 363.32 312.66 361.81 315.45C360.31 318.25 359.55 323.33 359.55 330.7C359.56 338.08 360.31 343.17 361.81 345.96Z" fill="#F2E8DE"/>
<path d="M456.58 299.16L421.5 365.71H404.46L439.54 299.16H456.58Z" fill="#F2E8DE"/>
<path d="M499.48 325.09H500.48C505.96 325.09 510.42 326.66 513.86 329.8C517.3 332.94 519.02 337.13 519.02 342.38C519.02 349.12 516.61 354.26 511.8 357.81C506.99 361.35 500.04 363.13 490.95 363.13C481.99 363.13 473.64 361.4 465.89 357.94L470.8 344.98C477.82 347.98 483.86 349.47 488.94 349.47C492.35 349.47 494.95 348.88 496.76 347.7C498.56 346.52 499.47 344.89 499.47 342.82C499.47 341.09 499 339.8 498.07 338.93C497.13 338.07 495.38 337.42 492.81 336.99C490.24 336.56 486.44 336.34 481.43 336.34H477.42V325.1L494.46 313.17V313H467.4V299.17H518.02V313L499.48 324.93V325.09Z" fill="#F2E8DE"/>
<path d="M582.26 355.51C577.31 360.58 569.76 363.12 559.61 363.12C549.45 363.12 541.9 360.58 536.96 355.51C532.01 350.44 529.54 342.17 529.54 330.7C529.54 319.24 532.01 310.97 536.96 305.89C541.9 300.82 549.45 298.28 559.61 298.28C569.77 298.28 577.32 300.82 582.26 305.89C587.2 310.96 589.68 319.23 589.68 330.7C589.68 342.18 587.21 350.44 582.26 355.51ZM552.35 345.96C553.85 348.75 556.27 350.15 559.62 350.15C562.96 350.15 565.38 348.75 566.89 345.96C568.39 343.17 569.14 338.08 569.14 330.7C569.14 323.32 568.39 318.24 566.89 315.45C565.39 312.66 562.96 311.26 559.62 311.26C556.28 311.26 553.86 312.66 552.35 315.45C550.85 318.25 550.09 323.33 550.09 330.7C550.09 338.08 550.84 343.17 552.35 345.96Z" fill="#F2E8DE"/>
<path d="M327.11 191.24C339.48 191.24 345.66 197.03 345.66 208.62C345.66 214.91 342.99 224.78 337.67 238.24C332.53 251.15 329.96 260.58 329.96 266.54C329.96 275.92 334.72 280.61 344.23 280.61V283.92C332.81 283.92 327.1 278.13 327.1 266.54C327.1 260.25 329.76 250.37 335.09 236.91C340.23 224 342.8 214.57 342.8 208.61C342.8 203.75 341.54 200.19 339.02 197.93C336.5 195.67 332.53 194.54 327.1 194.54V191.24H327.11Z" fill="#F2E8DE"/>
<path d="M269.097 0.822768L0.550537 28.3577L8.41779 105.086L276.964 77.5516L269.097 0.822768Z" fill="#D9F24F"/>
<path d="M37.41 43.6001L44.66 42.8601L45.42 50.22L38.17 50.96L38.38 53.03L46.3 52.22L47.09 59.95L45.06 60.1599L44.65 64L46.55 63.8L47.33 71.3701L40.57 72.0601L40.79 74.1799L48.77 73.3601L49.55 80.99L41.57 81.8101L42.25 88.48L31.87 89.55L31.19 82.8799L21.92 83.8301L21.14 76.21L30.41 75.26L30.19 73.1399L22.39 73.9399L21.61 66.3701L23.7 66.1599L22.58 62.48L20.49 62.6899L19.7 54.96L28.54 54.05L28.33 51.98L20.65 52.77L19.9 45.4099L27.52 44.6299L27.14 40.9199L37.03 39.9099L37.41 43.6001ZM31.54 61.3899L32.76 65.3899L35.59 65.1001L36.03 60.9299L31.54 61.3899ZM70.82 53.5C68.44 54.55 64.74 54.76 59.71 55.28L57.08 48.3799C60.42 48.2999 62.65 48.18 64.06 48.04C64.74 47.97 65 47.5201 64.96 47.0901L64.85 46.03L55.7 46.97L56.68 56.5L74.68 54.6499L75.41 61.8C75.31 66.89 74.53 70.1899 73.43 73.9399C74.95 74.8499 76.64 75.54 78.69 76.24L73.26 85.04C71.49 84.1 69.66 82.6299 68.02 81.1399C66.47 83.0099 64.72 84.69 62.52 86.25L59.36 82.72L59.78 86.8L50.81 87.72L45.88 39.6299L73.09 36.8401L74.24 48.0701C74.45 50.1901 73.67 52.25 70.82 53.5ZM61.9 76.04C60.93 75.07 59.2 73.32 58.29 72.29L58.9 78.22C59.84 77.75 61.22 76.7 61.9 76.04ZM65.94 68.8799C66.49 66.9499 66.61 65.1201 66.57 62.8701L61.47 63.3899C62.88 65.6599 64.32 67.5499 65.94 68.8799Z" fill="#1F1F1F"/>
<path d="M99.99 56.02C98.6 54.61 96.87 53.4 95.01 52.25C93.43 53.75 91.06 55.49 88.67 57.02L80.66 49.71C89.49 44.42 94.72 39.1699 99.58 32.6799L113.26 33.5801L111.88 35.27L131.1 33.3L131.99 41.9299C128.8 46.5399 124.59 50.8201 119.97 54.8301L135.75 53.21L138.36 78.6299L126.57 79.8401L126.36 77.8301L108.67 79.6399L108.88 81.71L96.97 82.9299L95.5 68.6299C92.96 69.9099 90.46 70.97 87.53 72.02L81.56 62.79C87.75 61.29 94.38 58.74 99.99 56.02ZM116.67 44.3601L102.67 45.8C104.65 46.94 106.57 48.0801 108.43 49.3301L102.46 54.6499C108.63 51.3399 113.96 47.6301 116.67 44.3601ZM106.97 65.3701L107.51 70.6101L125.57 68.76L125.03 63.52L106.97 65.3701Z" fill="#1F1F1F"/>
<path d="M158.2 72.96L157.95 70.52L154.82 70.8401L155.18 74.3899L146.28 75.3L141.74 31.03L162.62 28.8899L167.05 72.05L158.2 72.96ZM151.64 39.8601L152.25 45.79L155.38 45.47L154.77 39.54L151.64 39.8601ZM153.12 54.27L153.83 61.21L156.96 60.8899L156.25 53.95L153.12 54.27ZM184.41 24.73L184.81 28.6499L194.58 27.6499L195.45 36.1799L185.69 37.1799L185.87 38.98L197.91 37.75L198.76 46.0701L193.05 46.6599L193.25 48.5701L198.23 48.0601L199.1 56.53L194.12 57.04L195.04 65.99C195.5 70.44 192.43 72.5699 187.58 73.1799C184.76 73.5199 181.28 74.0399 178.37 74.1299L175.87 69.0901L173.02 71.52C171.08 68.3 169.08 65.77 166.56 62.98L172.57 59.26L167.59 59.77L166.72 51.3L181.71 49.76L181.51 47.8501L165.36 49.51L164.51 41.1899L174.89 40.1299L174.71 38.3301L165.99 39.22L165.11 30.6899L173.77 29.8L173.37 25.8799L184.41 24.73ZM180.2 64.1699C180.82 64.2099 181.27 64.2699 182.06 64.1899C182.8 64.1099 183.19 63.7 183.11 62.96L182.62 58.1899L175.56 58.9099C177.44 60.8699 178.7 62.2399 180.2 64.1699Z" fill="#1F1F1F"/>
<path d="M215.71 43.8301L218.45 70.52L207.58 71.6399L202.66 23.71L228.52 21.0601L230.7 42.3L215.71 43.8301ZM213.66 29.22L213.82 30.8101L219.72 30.21L219.56 28.6201L213.66 29.22ZM214.35 36L214.52 37.7L220.42 37.1001L220.25 35.3999L214.35 36ZM245.28 67.6699L243.5 64.27L221.51 66.52L219.28 44.8101L244.89 42.1799L246.43 57.1699C247.3 57.1899 248.59 57.05 249.02 57.01C249.7 56.94 249.79 56.66 249.75 56.24L248.14 40.51L232.97 42.0701L230.8 20.8899L257.09 18.1899L261.38 59.98C261.83 64.42 260.02 66.1499 245.28 67.6699ZM228.81 50.52L228.99 52.3201L237.04 51.49L236.86 49.6899L228.81 50.52ZM229.67 58.8899L237.72 58.0601L237.51 56.05L229.47 56.8799L229.67 58.8899ZM241.29 26.3301L241.45 27.9199L247.41 27.3101L247.25 25.72L241.29 26.3301ZM242.16 34.8601L248.12 34.25L247.94 32.5L241.98 33.1101L242.16 34.8601Z" fill="#1F1F1F"/>
<path d="M695.828 371.489L265.812 401.36L269.073 448.307L699.089 418.436L695.828 371.489Z" fill="#D9F24F"/>
<path d="M291.77 435.51L292.25 428.52L290.66 428.63C290.29 428.66 289.76 428.71 289.07 428.8C288.99 428.76 288.92 428.23 288.85 427.21C288.78 426.19 288.78 425.66 288.85 425.64C289.44 425.64 290.04 425.62 290.63 425.58L292.44 425.45L292.77 421.03L291.07 421.15C290.7 421.18 290.15 421.24 289.41 421.33C289.33 421.29 289.26 420.76 289.19 419.73C289.12 418.7 289.12 418.16 289.19 418.11C289.64 418.14 290.27 418.13 291.08 418.07L293 417.94L293.5 411.75L296.65 411.53L296.22 417.72L300.89 417.4L301.39 411.21L304.54 410.99L304.15 417.18L305.82 417.06C306.21 417.03 306.76 416.97 307.44 416.88C307.52 416.9 307.59 417.42 307.66 418.45C307.73 419.48 307.73 420.02 307.66 420.07C307.06 420.07 306.45 420.09 305.8 420.13L303.91 420.26L303.58 424.68L305.36 424.56C305.78 424.53 306.36 424.47 307.1 424.37C307.18 424.39 307.25 424.91 307.32 425.94C307.39 426.97 307.39 427.51 307.32 427.56C306.85 427.53 306.19 427.54 305.35 427.6L303.39 427.74L302.91 434.73L299.65 434.96L300.13 427.97L295.5 428.29L295.22 431.81L294.98 435.29L291.77 435.51ZM295.67 425.23L300.33 424.91L300.66 420.49L296 420.81L295.82 423.04L295.67 425.23Z" fill="#1F1F1F"/>
<path d="M330.57 435.64C330.24 435.19 329.71 434.65 328.97 434.02L318.35 434.76L318.4 435.43C318.41 435.52 318.43 435.64 318.46 435.81C318.47 435.96 318.48 436.06 318.48 436.1C318.46 436.21 317.84 436.3 316.6 436.39C315.37 436.48 314.71 436.47 314.63 436.37C314.67 435.55 314.66 434.72 314.61 433.87L314.44 431.38L314.09 426.37L313.67 426.78C312.68 426.04 311.64 425.37 310.56 424.78C311.56 423.88 312.5 422.8 313.37 421.54C314.24 420.28 314.91 419 315.39 417.68L313.17 417.83C312.43 417.88 311.69 417.96 310.96 418.08C310.88 418.04 310.8 417.45 310.73 416.32C310.66 415.19 310.65 414.58 310.72 414.51C311.96 414.51 313.2 414.47 314.43 414.38L318.17 414.12L318.02 412.01L315.06 412.22C314.39 412.27 313.42 412.38 312.14 412.55C312.06 412.49 311.99 411.93 311.91 410.88C311.83 409.83 311.83 409.27 311.91 409.2C312.85 409.22 313.83 409.19 314.84 409.12L317.8 408.91L317.72 407.73C317.7 407.41 317.64 406.98 317.55 406.43C318.48 406.32 319.46 406.26 320.48 406.26C321.72 406.26 322.35 406.35 322.36 406.55C321.99 406.92 321.81 407.27 321.84 407.61L321.91 408.63L324.8 408.43C325.47 408.38 326.41 408.28 327.64 408.1C327.72 408.16 327.8 408.71 327.87 409.77C327.94 410.83 327.94 411.38 327.87 411.45C326.93 411.43 325.97 411.45 325.01 411.52L322.12 411.72L322.27 413.83L329.56 413.32C329.24 410.86 328.99 408.35 328.81 405.8L333.14 405.5C333.25 408.1 333.46 410.61 333.77 413.03L338.66 412.69C340.29 412.58 341.91 412.4 343.53 412.16C343.61 412.24 343.69 412.85 343.77 414C343.85 415.15 343.86 415.78 343.79 415.89C342.6 415.84 341 415.89 339 416.03L334.22 416.36C334.66 419.15 335.23 421.68 335.94 423.94C337.11 421.85 338.04 419.52 338.73 416.95C339.84 417.15 340.83 417.44 341.73 417.8C342.73 418.22 343.17 418.58 343.07 418.86C343.01 419.1 342.86 419.3 342.63 419.47C342.25 419.75 341.96 420.2 341.76 420.81C340.65 423.73 339.31 426.32 337.76 428.56C338.71 430.38 339.7 431.25 340.73 431.18C341.47 431.13 341.79 429.35 341.7 425.85C342.73 426.68 343.93 427.27 345.32 427.62C345.21 430.37 344.8 432.25 344.08 433.29C343.43 434.25 342.28 434.79 340.62 434.91C338.5 435.06 336.62 434.04 334.98 431.87C333.6 433.29 332.13 434.55 330.57 435.64ZM329.32 431.52C330.66 430.51 331.86 429.39 332.92 428.16C331.7 425.23 330.73 421.39 330 416.65L323.19 417.12L316.38 417.59L319.2 418.07C318.93 418.79 318.61 419.52 318.24 420.25L321.13 420.05C321.57 418.86 321.85 417.95 321.98 417.3C322.95 417.4 323.9 417.56 324.82 417.78C325.74 417.99 326.18 418.16 326.14 418.27C326.1 418.34 326 418.39 325.85 418.42C325.63 418.46 325.46 418.57 325.35 418.77C325.28 418.88 325.19 419.05 325.07 419.29C324.95 419.52 324.86 419.7 324.79 419.81L326.64 419.68C327.08 419.65 327.7 419.59 328.49 419.49C328.57 419.51 328.64 419.99 328.7 420.95C328.77 421.91 328.76 422.41 328.69 422.46C328.14 422.43 327.38 422.46 326.39 422.52L324.06 422.68L324.15 423.99L326.19 423.85C326.86 423.8 327.52 423.73 328.18 423.62C328.26 423.66 328.32 424.06 328.38 424.83C328.43 425.6 328.42 426 328.35 426.05C327.88 426.02 327.21 426.03 326.34 426.09L324.3 426.23L324.4 427.63L326.44 427.49C327.11 427.44 327.77 427.37 328.43 427.26C328.51 427.3 328.57 427.7 328.63 428.47C328.68 429.24 328.67 429.64 328.6 429.69C328.13 429.66 327.46 429.67 326.59 429.73L324.55 429.87L324.65 431.34L329.28 431.02L329.32 431.52ZM317.63 424.44L320.67 424.23L320.58 422.92L319.06 423.03L317.54 423.14L317.63 424.44ZM317.88 428.08L320.92 427.87L320.82 426.47L319.3 426.58L317.78 426.69L317.88 428.08ZM318.14 431.79L321.18 431.58L321.08 430.11L319.56 430.22L318.04 430.33L318.14 431.79ZM339.84 412.19C339.35 411.54 338.6 410.78 337.6 409.91C336.6 409.08 335.61 408.35 334.62 407.71L337.48 405.55C338.62 406.22 339.65 406.92 340.56 407.65C341.63 408.45 342.43 409.18 342.94 409.83L339.84 412.19Z" fill="#1F1F1F"/>
<path d="M348.95 433.01C348.87 432.86 348.78 432.14 348.69 430.85C348.6 429.55 348.59 428.88 348.66 428.83C349.23 428.85 350 428.83 350.96 428.77L353.29 428.61L352.67 419.67C352.42 415.99 352.06 412.98 351.6 410.63C352.83 410.5 354.05 410.43 355.27 410.41C356.73 410.39 357.47 410.48 357.48 410.67C356.96 411.73 356.73 412.78 356.8 413.8L357.81 428.29L364.4 427.83L363.37 412.99C363.09 409.03 362.72 405.81 362.25 403.32C363.51 403.19 364.74 403.11 365.96 403.09C367.47 403.07 368.23 403.16 368.25 403.35C367.73 404.41 367.5 405.46 367.58 406.48L368.04 413.06L373.44 412.68C375.27 412.55 377.06 412.36 378.83 412.11C378.91 412.19 379 412.88 379.09 414.19C379.18 415.5 379.19 416.21 379.13 416.32C377.79 416.28 375.98 416.35 373.71 416.5L368.3 416.88L369.04 427.51L375.44 427.06C377.22 426.94 379.33 426.71 381.79 426.39C381.87 426.49 381.96 427.2 382.05 428.51C382.14 429.82 382.15 430.55 382.09 430.7C380 430.65 377.23 430.75 373.78 430.99L365.49 431.57L357.2 432.15C354.42 432.34 351.68 432.63 348.95 433.01Z" fill="#1F1F1F"/>
<path d="M384.78 410.54C384.7 410.4 384.61 409.73 384.53 408.55C384.45 407.37 384.44 406.73 384.51 406.64C385.55 406.67 386.82 406.64 388.3 406.54L392.11 406.27C391.2 405.01 390.22 403.92 389.17 403.01L393.19 401.48C394.95 402.9 396.17 404.2 396.85 405.4L395.18 406.06L406.18 405.3L404.71 404.95C406.07 403.17 407.07 401.6 407.69 400.25C408.92 400.49 410.05 400.8 411.07 401.2C412.14 401.62 412.6 401.93 412.44 402.13C412.32 402.27 412.17 402.37 411.98 402.45C411.62 402.56 411.27 402.82 410.95 403.23C410.27 404.09 409.76 404.7 409.44 405.07L413.4 404.79C414.58 404.71 415.89 404.56 417.31 404.36C417.39 404.44 417.47 405.07 417.55 406.25C417.63 407.43 417.64 408.1 417.58 408.25C415.54 408.2 412.81 408.29 409.38 408.53L401.16 409.1L392.94 409.67C390.2 409.88 387.48 410.16 384.78 410.54ZM390.55 431.57C389.14 431.67 388.37 431.67 388.24 431.57C388.32 430.17 388.29 428.56 388.16 426.73L387.83 421.91L387.5 417.09C387.37 415.26 387.17 413.66 386.91 412.29C386.9 412.12 386.98 412.03 387.15 412.02C388.94 412.07 391.19 412 393.9 411.81L400.64 411.34L401.73 427.08C401.79 427.91 401.72 428.56 401.53 429.02C401.34 429.52 400.96 429.93 400.39 430.22C399.53 430.69 397.85 431.01 395.36 431.18C395.04 430.18 394.51 429.13 393.77 428.05C395.25 428.01 396.34 427.95 397.03 427.86C397.42 427.83 397.61 427.65 397.59 427.31L397.36 423.99L395.99 425.75C394.97 424.99 393.67 424.32 392.09 423.74L392.35 427.51C392.45 429 392.6 430.25 392.8 431.26C392.71 431.36 391.96 431.47 390.55 431.57ZM396.92 417.81L396.71 414.81L394.08 414.99L391.49 415.17L391.69 418.04L392.99 416.38C394.48 416.75 395.79 417.23 396.92 417.81ZM397.28 422.98L397 419.02L395.81 420.61C394.85 419.93 393.49 419.31 391.74 418.74L392.01 422.57L393.04 421.28C393.67 421.43 394.42 421.68 395.29 422.02C395.97 422.3 396.64 422.62 397.28 422.98ZM406.43 424.47C405.02 424.57 404.27 424.58 404.16 424.5C404.22 423.6 404.21 422.51 404.12 421.23L403.89 417.97L403.66 414.71C403.57 413.48 403.43 412.35 403.24 411.34C404.25 411.23 405.31 411.16 406.43 411.15C407.77 411.14 408.44 411.23 408.46 411.43C407.94 412.49 407.71 413.53 407.78 414.56L408.11 419.38C408.24 421.21 408.44 422.81 408.7 424.18C408.59 424.27 407.83 424.37 406.43 424.47ZM408.83 430.23C408.5 429.1 407.9 427.93 407.02 426.73C408.88 426.71 410.32 426.63 411.36 426.49C411.88 426.43 412.12 426.22 412.1 425.86L411.55 417.94C411.34 414.9 411.03 412.23 410.62 409.95C411.75 409.83 412.89 409.76 414.03 409.74C415.42 409.73 416.12 409.82 416.13 410.01C415.61 411.07 415.38 412.11 415.45 413.14L415.77 417.67L416.32 425.59C416.39 426.57 416.32 427.31 416.1 427.82C415.86 428.35 415.41 428.79 414.74 429.13C413.69 429.67 411.72 430.03 408.83 430.23Z" fill="#1F1F1F"/>
<path d="M441.37 427.84C441.21 427.29 440.92 426.63 440.51 425.85C440.1 425.07 439.7 424.43 439.32 423.94C440.83 423.9 442.88 423.79 445.47 423.61C445.69 423.59 445.84 423.58 445.91 423.58C446.33 423.55 446.63 423.47 446.8 423.33C446.98 423.19 447.05 422.95 447.03 422.61L445.71 403.65L432.83 404.55C429.13 404.81 425.43 405.19 421.75 405.71C421.66 405.52 421.57 404.77 421.48 403.44C421.39 402.11 421.37 401.37 421.44 401.21C423.5 401.26 426.22 401.17 429.61 400.93L437.79 400.36L445.97 399.79C448.73 399.6 451.45 399.31 454.13 398.93C454.21 399.07 454.3 399.8 454.39 401.11C454.48 402.42 454.49 403.1 454.42 403.14C453.9 403.11 453.2 403.13 452.34 403.19L450.23 403.34L451.55 422.37C451.63 423.52 451.52 424.41 451.22 425.06C450.92 425.7 450.36 426.21 449.54 426.59C448.72 426.95 447.6 427.23 446.18 427.43C445.11 427.55 443.51 427.69 441.37 427.84ZM428.45 423.42C427.02 423.52 426.25 423.53 426.15 423.45C426.2 422.44 426.18 421.21 426.08 419.77L425.82 416.07L425.56 412.37C425.46 410.92 425.31 409.69 425.12 408.68C425.11 408.49 425.16 408.39 425.29 408.38C427.23 408.44 429.8 408.36 433.01 408.13L436.86 407.86C438.36 407.76 439.64 407.61 440.7 407.43C440.8 407.42 440.85 407.47 440.86 407.58C440.83 408.61 440.85 409.64 440.93 410.69L441.15 413.79C441.32 416.26 441.56 418.31 441.87 419.93C441.88 420.08 441.79 420.16 441.59 420.17C439.97 420.13 438.11 420.19 435.98 420.34L430.39 420.73L430.47 421.94C430.5 422.37 430.55 422.77 430.63 423.15C430.61 423.22 429.88 423.32 428.45 423.42ZM430.13 417.08L433.57 416.84L437.01 416.6L436.65 411.49L429.77 411.97L430.13 417.08Z" fill="#1F1F1F"/>
<path d="M465.41 426.37C464 426.47 463.2 426.47 462.99 426.38C463.08 424.17 463.02 421.5 462.81 418.37L462.26 410.39C461.61 411.42 460.92 412.37 460.19 413.23C459.35 411.53 458.57 410.22 457.83 409.29C459.16 407.7 460.39 405.77 461.52 403.48C462.65 401.2 463.53 398.86 464.16 396.46C465.27 396.68 466.27 396.98 467.16 397.34C468.13 397.74 468.58 398.09 468.5 398.37C468.44 398.59 468.29 398.77 468.05 398.91C467.67 399.19 467.39 399.61 467.21 400.16C466.71 401.52 466.28 402.62 465.91 403.46L466.7 414.76L467.09 420.41C467.25 422.69 467.48 424.56 467.78 426.04C467.62 426.16 466.84 426.27 465.41 426.37ZM471.03 420.62C469.72 420.71 469 420.72 468.87 420.64C468.94 419.14 468.91 417.43 468.77 415.51L468.42 410.4L468.06 405.29C467.93 403.44 467.72 401.7 467.44 400.07C468.4 399.96 469.35 399.9 470.29 399.9C471.46 399.9 472.04 400 472.06 400.19C471.7 400.73 471.54 401.25 471.57 401.76L471.68 403.29C473.98 401.1 475.62 398.49 476.6 395.47C477.6 395.61 478.56 395.8 479.48 396.04C480.4 396.28 480.84 396.44 480.8 396.54C480.76 396.64 480.68 396.72 480.56 396.77C480.34 396.87 480.18 397.03 480.07 397.25C479.92 397.65 479.74 398.05 479.52 398.48L485.44 398.07C487.07 397.96 489.03 397.75 491.31 397.44C491.39 397.54 491.47 398.11 491.54 399.16C491.61 400.2 491.61 400.75 491.54 400.8C491.09 400.79 490.63 400.8 490.17 400.83L488.8 400.93C487.96 402.7 486.73 404.36 485.13 405.9C487.59 406.75 490.27 407.29 493.16 407.49C492.31 408.4 491.61 409.47 491.08 410.68C487.88 410.3 484.92 409.49 482.21 408.25C479.98 409.77 477.31 411.06 474.18 412.11C473.74 411.48 473.06 410.76 472.13 409.94L472.49 415.14C472.63 417.12 472.83 418.85 473.11 420.33C473.02 420.44 472.31 420.53 471.03 420.62ZM472.1 409.22C473.29 408.86 474.48 408.43 475.68 407.95C476.87 407.46 477.93 406.94 478.86 406.38C477.71 405.58 476.77 404.83 476.02 404.11C475.52 404.72 474.86 405.41 474.04 406.17C473.62 405.86 472.87 405.4 471.79 404.79L472.1 409.22ZM475.83 425.39C475.24 424.36 474.45 423.41 473.48 422.54C481.29 421.06 486.52 418.84 489.16 415.9C490.15 416.17 491.03 416.55 491.82 417.03C492.61 417.51 492.89 417.87 492.66 418.09C492.5 418.25 492.27 418.36 491.98 418.43C491.52 418.53 491.06 418.78 490.62 419.2C489.33 420.23 487.73 421.2 485.84 422.1C483.09 423.39 479.76 424.49 475.83 425.39ZM476.88 415.85C476.26 415.12 475.44 414.45 474.43 413.84C476.03 413.37 477.56 412.78 478.99 412.08C480.55 411.31 481.72 410.55 482.52 409.81C483.33 410.05 484.08 410.38 484.76 410.78C485.44 411.18 485.71 411.45 485.54 411.59C485.42 411.71 485.26 411.77 485.03 411.79C484.66 411.82 484.3 411.98 483.95 412.28C483.36 412.71 482.64 413.16 481.78 413.65C480.37 414.45 478.74 415.19 476.88 415.85ZM477.24 420.03C476.51 419.12 475.75 418.38 474.97 417.81C477.36 417.19 479.52 416.45 481.47 415.56C483.61 414.58 485.21 413.55 486.28 412.47C487.09 412.71 487.83 413.06 488.49 413.52C489.15 413.98 489.37 414.3 489.13 414.49C488.97 414.63 488.75 414.72 488.48 414.76C488.01 414.81 487.56 415.04 487.11 415.43C486.31 416.02 485.32 416.63 484.15 417.27C482.19 418.3 479.89 419.22 477.24 420.03ZM481.62 404.39C482.67 403.5 483.58 402.46 484.34 401.25L481.12 401.47L477.94 401.69C479.05 402.77 480.28 403.67 481.62 404.39Z" fill="#1F1F1F"/>
<path d="M511.42 423.17C511.17 422.78 510.75 422.24 510.16 421.56C509.57 420.9 509.05 420.37 508.6 419.97C512.48 418.44 515.48 416.41 517.59 413.89C516.19 412 514.91 409.56 513.73 406.59C513.35 407.26 512.86 407.96 512.24 408.68C511.92 408.42 511.2 407.99 510.07 407.39L510.11 407.97C510.11 408.03 510.14 408.15 510.17 408.32C510.18 408.43 510.18 408.5 510.19 408.54C510.17 408.63 509.47 408.72 508.09 408.81C506.71 408.91 506 408.91 505.97 408.83C505.97 408.79 505.96 408.72 505.96 408.64C505.97 408.49 505.98 408.38 505.97 408.32L505.93 407.78L500.93 408.13L501.37 414.42C501.41 414.97 501.53 415.32 501.72 415.45C501.92 415.59 502.35 415.63 503.01 415.58L506.71 415.32C507.25 415.28 507.6 415.06 507.74 414.65C507.88 414.24 507.95 413.32 507.92 411.86C508.36 412.11 508.98 412.35 509.79 412.6C510.55 412.83 511.24 412.97 511.87 413.03C511.77 415.2 511.4 416.68 510.76 417.47C510.12 418.26 508.97 418.72 507.32 418.83L502.62 419.16C500.62 419.3 499.25 419.06 498.5 418.45C497.75 417.84 497.31 416.6 497.18 414.72L496.84 409.84C496.71 407.99 496.51 406.37 496.24 404.97C496.23 404.86 496.32 404.8 496.49 404.79C497.78 404.81 499.32 404.75 501.09 404.63L505.68 404.31L505.34 399.46L500.75 399.78C499.39 399.87 497.88 400.03 496.21 400.26C496.13 400.18 496.05 399.55 495.96 398.35C495.88 397.16 495.87 396.53 495.94 396.46C497.03 396.47 498.13 396.44 499.24 396.36L502.57 396.13L509.23 395.67L509.84 404.45C511.84 401.47 513.18 397.63 513.88 392.94C515.08 393.05 516.21 393.23 517.26 393.47C518.4 393.76 518.95 394.02 518.91 394.25C518.87 394.42 518.76 394.59 518.57 394.75C518.24 394.99 518.03 395.34 517.94 395.82C517.67 396.91 517.45 397.73 517.29 398.27L523.14 397.86C524.77 397.75 526.7 397.54 528.94 397.23C529.02 397.33 529.11 397.99 529.19 399.2C529.27 400.41 529.28 401.04 529.21 401.09C528.76 401.08 528.32 401.09 527.87 401.12L526.5 401.22C525.94 406.07 524.72 410.17 522.82 413.51C525.11 415.77 527.82 417.33 530.96 418.2C530.49 418.62 529.99 419.18 529.46 419.88C528.93 420.58 528.52 421.22 528.24 421.79C525.17 420.74 522.5 419.14 520.24 416.99C518.07 419.45 515.12 421.5 511.42 423.17ZM519.95 410C521.02 407.62 521.73 404.8 522.08 401.54L519.19 401.74L516.3 401.94C517.27 405.05 518.48 407.73 519.95 410Z" fill="#1F1F1F"/>
<path d="M542.25 420.96C540.92 421.05 540.22 421.05 540.17 420.94C540.19 420.47 540.18 419.99 540.14 419.5L540.04 418.03L539.84 415.12L537.14 415.31C536.23 415.37 535.33 415.47 534.44 415.59C534.36 415.55 534.29 414.99 534.21 413.91C534.13 412.82 534.13 412.26 534.2 412.21C534.87 412.23 535.77 412.2 536.91 412.12L539.61 411.93L539.44 409.47L536.59 409.67C535.92 409.72 534.98 409.83 533.75 410C533.67 409.94 533.59 409.37 533.52 408.28C533.44 407.19 533.44 406.64 533.52 406.61C533.97 406.62 534.41 406.61 534.86 406.58L536.23 406.48C535.96 405.43 535.48 404.32 534.81 403.15L536.09 402.77L534.28 402.9C533.88 402.93 533.29 402.99 532.51 403.09C532.43 403.05 532.36 402.5 532.28 401.42C532.21 400.35 532.2 399.77 532.27 399.7C533.31 399.71 534.39 399.68 535.5 399.6L538.76 399.37L538.61 397.17L536.02 397.35C535.16 397.41 534.29 397.5 533.44 397.63C533.36 397.59 533.29 397.04 533.21 395.98C533.14 394.92 533.13 394.36 533.21 394.31C533.86 394.33 534.72 394.3 535.81 394.23L538.4 394.05L538.3 392.65C538.27 392.25 538.21 391.75 538.12 391.15C539.03 391.04 539.98 390.99 540.97 390.98C542.18 390.98 542.8 391.08 542.81 391.27C542.44 391.68 542.27 392.1 542.3 392.52L542.39 393.77L544.76 393.61C545.55 393.56 546.32 393.47 547.09 393.35C547.17 393.39 547.24 393.94 547.32 395C547.39 396.06 547.4 396.62 547.32 396.67C546.77 396.64 545.99 396.67 544.98 396.74L542.61 396.9L542.76 399.1L545.8 398.89C546.47 398.84 547.46 398.73 548.79 398.55C548.87 398.61 548.94 399.18 549.02 400.25C549.09 401.33 549.1 401.89 549.03 401.93C548.53 401.92 548.04 401.93 547.54 401.97L546.02 402.08L547.45 402.3C547.26 402.72 547 403.35 546.69 404.18C546.39 404.93 546.17 405.47 546.02 405.8L547.39 405.7C547.71 405.68 548.17 405.63 548.76 405.54C548.84 405.56 548.91 406.11 548.99 407.19C549.07 408.27 549.07 408.84 549 408.89C548.33 408.87 547.41 408.9 546.25 408.98L543.47 409.17L543.64 411.63L546.19 411.45C547.05 411.39 547.9 411.3 548.74 411.18C548.82 411.22 548.89 411.78 548.97 412.87C549.05 413.96 549.05 414.52 548.98 414.57C548.36 414.55 547.51 414.58 546.42 414.65L543.87 414.83L544.07 417.74C544.14 418.74 544.26 419.7 544.42 420.64C544.32 420.77 543.61 420.87 542.25 420.96ZM538.56 406.34L543.85 405.97L542.68 405.76C543.09 404.53 543.43 403.37 543.7 402.26L540.92 402.45L538.18 402.64C538.96 403.87 539.47 404.98 539.71 405.97L538.56 406.34ZM552.88 420.29C551.55 420.38 550.79 420.38 550.61 420.29C550.71 418.53 550.66 416.16 550.45 413.18L549.96 406.06L549.46 398.94C549.25 395.94 548.98 393.57 548.63 391.84C548.62 391.65 548.72 391.55 548.94 391.53C550.85 391.59 553.38 391.51 556.51 391.29L564.1 390.76L564.52 396.76C564.58 397.61 564.5 398.27 564.28 398.73C564.04 399.24 563.59 399.64 562.91 399.95C562.29 400.23 561.44 400.44 560.39 400.57C559.68 400.68 558.53 400.8 556.95 400.9C556.71 399.98 556.23 398.92 555.5 397.73C556.69 397.69 558.12 397.61 559.8 397.5C560.29 397.44 560.53 397.27 560.51 396.97L560.33 394.35L553.11 394.85L553.64 402.48L562.38 401.87L563.11 401.66L565.72 402.28C565.26 406.35 564.23 409.92 562.63 412.98C564.32 414.42 566.08 415.47 567.91 416.11C566.91 416.99 566.05 418.06 565.34 419.3C563.7 418.58 562.11 417.56 560.55 416.23C559.46 417.67 558.23 418.9 556.86 419.92C556.37 419.35 555.66 418.74 554.72 418.08L554.79 419.04C554.81 419.36 554.86 419.67 554.93 419.96C554.93 420.09 554.24 420.19 552.88 420.29ZM554.66 416.96C555.86 415.98 556.94 414.81 557.91 413.46C556.33 411.47 555.01 409.26 553.95 406.81L554.3 411.89L554.66 416.96ZM559.83 410.05C560.56 408.42 561.09 406.72 561.41 404.97L556.89 405.28C557.33 406.23 557.77 407.06 558.22 407.75C558.73 408.56 559.26 409.32 559.83 410.05Z" fill="#1F1F1F"/>
<path d="M580.47 418.4C578.99 418.5 578.18 418.51 578.05 418.41C578.13 416.99 578.1 415.34 577.97 413.44L577.63 408.49C576.2 409.04 574.45 409.61 572.35 410.2C572.12 409.68 571.75 409.1 571.26 408.45C570.77 407.78 570.31 407.24 569.88 406.85C574.37 405.75 578.49 404.21 582.24 402.24C580.7 401.09 578.71 399.78 576.28 398.32C575.02 399.13 573.96 399.75 573.1 400.18C572.75 399.73 572.25 399.22 571.62 398.65C570.98 398.07 570.42 397.64 569.93 397.36C572.67 396.08 575.06 394.59 577.1 392.88C578.95 391.34 580.4 389.73 581.45 388.05C582.65 388.18 583.8 388.38 584.91 388.66C586.02 388.94 586.53 389.13 586.44 389.24C586.37 389.33 586.26 389.39 586.12 389.42C585.85 389.46 585.62 389.6 585.44 389.85C585.19 390.21 584.87 390.64 584.49 391.14L595.08 390.4L595.81 390.16L598.88 391.52C596.79 396.07 593.16 400.01 587.98 403.34L593.87 402.93C596.09 402.78 598.04 402.57 599.7 402.3C599.82 402.29 599.89 402.36 599.9 402.51C599.85 403.52 599.87 404.71 599.96 406.1L600.21 409.68L600.46 413.26C600.56 414.64 600.7 415.83 600.89 416.82C600.8 416.93 600 417.04 598.5 417.15C596.99 417.25 596.22 417.26 596.19 417.15C596.19 417.11 596.18 417.01 596.17 416.86C596.18 416.67 596.18 416.53 596.18 416.44L596.13 415.74L582.54 416.68L582.59 417.38C582.6 417.46 582.62 417.6 582.66 417.79C582.67 417.94 582.68 418.03 582.68 418.08C582.66 418.2 581.92 418.3 580.47 418.4ZM586.1 399.92C588.73 398.18 590.86 396.22 592.5 394.05L586.69 394.45L580.92 394.85C580.61 395.11 580.18 395.47 579.62 395.93C582.47 397.52 584.64 398.85 586.1 399.92ZM582.3 413.27L595.89 412.33L595.47 406.3L588.66 406.77L581.89 407.24L582.3 413.27Z" fill="#1F1F1F"/>
<path d="M615.3 416.02C613.99 416.11 613.25 416.11 613.07 416.01C613.18 414.4 613.14 412.25 612.96 409.57L612.51 403.12L607.16 403.81L606.56 400.52L609.26 400.24C609.72 399.67 610.23 398.97 610.79 398.14C609.66 396.83 608.1 395.47 606.12 394.07L607.97 391.31C608.28 391.5 608.59 391.71 608.9 391.92C609.92 389.82 610.67 387.9 611.14 386.18C612.17 386.43 613.12 386.77 613.96 387.2C614.86 387.67 615.25 388.04 615.12 388.31C615.01 388.51 614.84 388.68 614.6 388.83C614.17 389.07 613.81 389.47 613.53 390.03C612.83 391.4 612.13 392.67 611.41 393.83C611.86 394.21 612.31 394.62 612.76 395.08C613.85 393.34 614.84 391.51 615.73 389.61C616.72 389.91 617.62 390.28 618.45 390.74C619.3 391.26 619.65 391.64 619.5 391.89C619.39 392.07 619.2 392.21 618.93 392.31C618.5 392.51 618.11 392.87 617.78 393.38C615.98 396.07 614.45 398.22 613.17 399.83L616.83 399.45C616.33 398.65 615.84 397.95 615.38 397.34L618.37 395.95C620.3 398.45 621.57 400.61 622.17 402.45L619.01 404.02C618.88 403.6 618.67 403.04 618.37 402.33L616.31 402.6L616.77 409.18L617 412.47C617.09 413.75 617.23 414.83 617.41 415.71C617.31 415.82 616.61 415.93 615.3 416.02ZM610.42 413.79C609.35 413.31 608.21 412.93 607.03 412.65C607.83 410.91 608.3 408.39 608.44 405.11C609.44 405.19 610.34 405.34 611.15 405.56C612.06 405.78 612.51 405.99 612.5 406.2C612.49 406.35 612.4 406.5 612.23 406.64C612 406.89 611.86 407.24 611.82 407.69C611.78 408.19 611.67 408.93 611.49 409.93C611.21 411.51 610.85 412.8 610.42 413.79ZM619.14 411.26C618.93 410.38 618.58 409.41 618.08 408.35C617.55 407.1 617.04 406.07 616.56 405.25L619.68 404.13C620.82 405.95 621.75 407.9 622.47 409.97L619.14 411.26ZM620.55 414.98C620.46 414.79 620.38 414.11 620.3 412.93C620.22 411.75 620.21 411.14 620.29 411.12C620.83 411.12 621.39 411.11 621.96 411.07L623.63 410.95L622.63 396.58C622.35 392.58 621.98 389.4 621.52 387.03C621.51 386.84 621.65 386.73 621.94 386.71C623.88 386.77 626.46 386.68 629.7 386.46L633.59 386.19C635.09 386.09 636.38 385.94 637.43 385.76C637.63 385.75 637.73 385.79 637.74 385.9C637.65 387.49 637.69 389.49 637.86 391.89L638.28 397.89L639.11 409.86L640.33 409.78C640.6 409.76 641.01 409.71 641.55 409.63C641.63 409.65 641.7 410.24 641.79 411.41C641.87 412.58 641.88 413.21 641.81 413.3C640.52 413.26 638.75 413.32 636.5 413.48L631.17 413.85C627.59 414.1 624.06 414.48 620.55 414.98ZM626.68 394.57L630.12 394.33L633.6 394.09L633.29 389.65L626.37 390.13L626.68 394.57ZM627.23 402.52L630.67 402.28L634.15 402.04L633.83 397.48L626.91 397.96L627.23 402.52ZM627.8 410.66L634.72 410.18L634.39 405.46L630.91 405.7L627.47 405.94L627.8 410.66Z" fill="#1F1F1F"/>
<path d="M647.5 413.62C646.68 412.54 645.65 411.68 644.42 411.04C646.46 409.34 647.83 407.05 648.52 404.18C649 402.2 649.23 399.52 649.19 396.15L645.56 396.4L645.17 390.85C645.02 388.74 644.81 386.9 644.53 385.31C644.52 385.23 644.61 385.18 644.78 385.16C646.02 385.16 647.26 385.12 648.49 385.03L652.23 384.77L655.97 384.51C657.43 384.41 658.67 384.27 659.7 384.09C659.87 384.08 659.96 384.13 659.97 384.23C659.91 385.84 659.95 387.7 660.1 389.8L660.49 395.35L653.42 395.84C653.42 396.12 653.41 396.55 653.4 397.14C653.39 397.73 653.39 398.17 653.38 398.47L661 397.94C661.03 398.39 661.05 398.85 661.06 399.32C661.14 403.29 661.12 406.11 661.01 407.76C660.89 409.54 660.59 410.72 660.14 411.28C659.54 411.98 658.66 412.44 657.48 412.65C656.48 412.85 655.02 412.98 653.12 413.05C652.99 411.88 652.54 410.81 651.78 409.84C652.77 409.88 653.96 409.85 655.35 409.75C655.89 409.71 656.29 409.55 656.54 409.25C657.02 408.68 657.21 406.11 657.12 401.54L653.08 401.82C652.49 407 650.63 410.92 647.5 413.62ZM649.25 392.74L656.06 392.27L655.76 387.9L652.35 388.14L648.94 388.38L649.25 392.74ZM665.98 404.41C664.55 404.51 663.77 404.52 663.64 404.44C663.71 403.3 663.68 401.81 663.55 399.96L663.24 395.46L662.93 390.96C662.8 389.11 662.62 387.57 662.39 386.35C663.42 386.24 664.51 386.17 665.65 386.15C667.01 386.14 667.7 386.23 667.71 386.42C667.19 387.48 666.96 388.52 667.04 389.55L667.55 396.86C667.75 399.69 668.04 402.11 668.43 404.11C668.25 404.21 667.44 404.31 665.98 404.41ZM668.01 412.19C667.69 410.82 667.09 409.55 666.22 408.37C667.8 408.3 669.62 408.2 671.67 408.06C672.34 408.01 672.65 407.74 672.62 407.22L671.77 394.93L671.34 388.77C671.17 386.37 670.93 384.29 670.61 382.53C671.72 382.41 672.84 382.34 673.98 382.33C675.39 382.32 676.1 382.41 676.12 382.6C675.6 383.66 675.37 384.7 675.44 385.73L676.91 406.93C676.99 408.06 676.9 408.92 676.64 409.53C676.39 410.14 675.9 410.61 675.18 410.96C673.98 411.53 671.59 411.95 668.01 412.19Z" fill="#1F1F1F"/>
</svg>
