<svg width="701" height="567" viewBox="0 0 701 567" fill="none" xmlns="http://www.w3.org/2000/svg">
<path d="M700.28 384.28H299.09L331.08 248.31H700.28V384.28Z" fill="#4F26E9"/>
<path d="M372.74 303.73H372.64L358.16 315.46L352.33 301.21L372.74 284.45H393.15V345.63H372.74V303.73Z" fill="#F2E8DE"/>
<path d="M436.88 303.73H436.78L422.3 315.46L416.47 301.21L436.88 284.45H457.29V345.63H436.88V303.73Z" fill="#F2E8DE"/>
<path d="M527.56 284.45L493.54 348.99H477.02L511.04 284.45H527.56Z" fill="#F2E8DE"/>
<path d="M538.55 332.22C547.23 326.58 553.74 322.04 558.09 318.6C562.43 315.16 565.28 312.41 566.64 310.34C568 308.27 568.68 306.07 568.68 303.72C568.68 299.53 565.93 297.43 560.42 297.43C555.56 297.43 549.24 299.53 541.47 303.72L536.61 290.31C539.91 288.41 544.09 286.82 549.15 285.53C554.2 284.24 558.93 283.6 563.34 283.6C571.44 283.6 577.68 285.23 582.05 288.5C586.42 291.77 588.61 296.28 588.61 302.04C588.61 306.62 586.92 310.98 583.56 315.12C580.19 319.26 573.61 324.9 563.83 332.05V332.22H589.1V345.63H538.56V332.22H538.55Z" fill="#F2E8DE"/>
<path d="M648.96 341.69C643.84 344.88 636.68 346.47 627.48 346.47C618.28 346.47 611.12 344.88 606 341.69C600.88 338.51 598.32 334.23 598.32 328.87C598.32 325.97 599.29 323.41 601.24 321.2C603.18 318.99 606.55 316.86 611.35 314.79V314.62C603.96 310.65 600.27 305.62 600.27 299.53C600.27 294.95 602.68 291.15 607.51 288.13C612.34 285.11 618.99 283.6 627.48 283.6C635.97 283.6 642.63 285.11 647.45 288.13C652.28 291.15 654.69 294.95 654.69 299.53C654.69 304.5 650.67 308.86 642.64 312.6V312.77C651.97 316.35 656.64 321.71 656.64 328.86C656.64 334.23 654.08 338.51 648.96 341.69ZM625.24 319.57C622 321.02 619.86 322.36 618.82 323.59C617.78 324.82 617.26 326.3 617.26 328.03C617.26 329.99 618.25 331.66 620.22 333.06C622.2 334.46 624.61 335.16 627.46 335.16C630.31 335.16 632.72 334.46 634.7 333.06C636.68 331.66 637.66 329.99 637.66 328.03C637.66 326.19 636.95 324.72 635.52 323.63C634.12 322.54 630.69 321.19 625.24 319.57ZM628.45 308.59C631.49 307.36 633.55 306.21 634.62 305.15C635.69 304.09 636.22 302.78 636.22 301.21C636.22 299.42 635.41 297.93 633.79 296.73C632.17 295.53 630.06 294.93 627.47 294.93C624.88 294.93 622.77 295.53 621.15 296.73C619.53 297.93 618.72 299.43 618.72 301.21C618.72 302.78 619.38 304.1 620.71 305.19C622.05 306.28 624.63 307.41 628.45 308.59Z" fill="#F2E8DE"/>
<path d="M454.93 202.39H78.72V66.4099H484.93L454.93 202.39Z" fill="#4F26E9"/>
<path d="M142.37 121.83H142.27L127.79 133.56L121.96 119.31L142.37 102.55H162.78V163.73H142.37V121.83Z" fill="#F2E8DE"/>
<path d="M234.31 157.2C229.51 162.12 222.19 164.58 212.34 164.58C202.49 164.58 195.17 162.12 190.37 157.2C185.57 152.28 183.18 144.27 183.18 133.15C183.18 122.03 185.58 114.01 190.37 109.1C195.16 104.18 202.49 101.72 212.34 101.72C222.19 101.72 229.51 104.18 234.31 109.1C239.1 114.02 241.5 122.04 241.5 133.15C241.5 144.26 239.1 152.28 234.31 157.2ZM205.3 147.93C206.76 150.64 209.11 152 212.35 152C215.59 152 217.94 150.65 219.4 147.93C220.86 145.22 221.59 140.29 221.59 133.14C221.59 125.99 220.86 121.06 219.4 118.35C217.94 115.64 215.59 114.29 212.35 114.29C209.11 114.29 206.76 115.65 205.3 118.35C203.84 121.06 203.11 125.99 203.11 133.14C203.11 140.29 203.84 145.23 205.3 147.93Z" fill="#F2E8DE"/>
<path d="M297.19 102.55L263.17 167.09H246.65L280.67 102.55H297.19Z" fill="#F2E8DE"/>
<path d="M338.79 127.69H339.76C345.07 127.69 349.4 129.21 352.73 132.26C356.07 135.31 357.74 139.37 357.74 144.45C357.74 150.99 355.41 155.97 350.74 159.41C346.07 162.85 339.33 164.56 330.52 164.56C321.84 164.56 313.74 162.88 306.22 159.53L310.98 146.96C317.78 149.87 323.65 151.32 328.57 151.32C331.87 151.32 334.4 150.75 336.15 149.6C337.9 148.46 338.77 146.88 338.77 144.86C338.77 143.18 338.32 141.93 337.41 141.09C336.5 140.25 334.8 139.62 332.31 139.2C329.81 138.78 326.14 138.57 321.28 138.57H317.39V127.67L333.91 116.1V115.93H307.67V102.52H356.75V115.93L338.77 127.5V127.69H338.79Z" fill="#F2E8DE"/>
<path d="M391.27 121.83H391.17L376.69 133.56L370.86 119.31L391.27 102.55H411.68V163.73H391.27V121.83Z" fill="#F2E8DE"/>
<path d="M261.351 0.691551L0.941772 27.3921L8.5714 101.803L268.98 75.1029L261.351 0.691551Z" fill="#D9F24F"/>
<path d="M41.94 51.1294L51.94 50.0996C49.74 47.4696 47.62 43.7397 45.8 38.9497L55.93 36.1997C56.15 37.2097 56.5 38.2195 56.91 39.2695C58.12 38.2095 59.11 37.2296 60.26 35.5996L66.96 39.8896C64.51 42.3696 62.96 43.6697 60.61 45.4697C61.03 45.9997 61.43 46.4194 61.89 46.8394C63.71 45.1994 65.07 43.8194 67.14 41.1094L73.79 45.5093C71.91 47.6693 70.38 49.1797 68.55 50.7197C70.18 51.3297 72.02 51.7097 74.45 51.9297L70.89 61.2695C69.9 61.0095 69.09 60.7295 68.4 60.4395L69.59 72.0396L64.35 72.5796L63.82 74.4497L75.61 73.2397L76.43 81.1997L22.6 86.7197L21.78 78.7593L34.17 77.4897L33.51 75.7397L27.97 76.3096L26.87 65.5796C26.43 65.9896 25.99 66.3395 25.37 66.7695L18.7 59.7695C21.47 58.6595 23.41 57.5696 25.21 56.3496C22.87 54.6696 21.21 53.7497 19.23 52.6597L24.3 48.0894L20.43 48.4897L19.64 40.8394L44.06 38.3394L46.25 42.6294C45 46.3494 43.58 48.8794 41.94 51.1294ZM31.2 50.8296C32.22 49.6396 32.8 48.8494 33.71 47.1494L26.86 47.8496C28.54 48.9196 29.44 49.4996 31.2 50.8296ZM57.29 55.2095L57.45 56.7495L36.37 58.9097L36.23 57.5796C35.21 58.7796 33.84 60.0593 32.56 61.0693L61.68 58.0796C60.22 57.4496 58.73 56.3595 57.29 55.2095ZM38.52 68.7593L57.81 66.7793L57.63 64.9795L38.34 66.9595L38.52 68.7593ZM45.07 74.5693L45.73 76.3193L52.28 75.6494L52.93 73.7695L45.07 74.5693Z" fill="#1F1F1F"/>
<path d="M104.15 61.5596L108.34 56.0996C110.74 57.1996 112.7 58.1397 114.68 59.2397L114.28 55.3896L102.91 56.5596L102.14 49.0093L117.03 47.4795C117.23 47.0395 117.41 46.5093 117.48 46.0293L102.41 47.5796C103.95 42.6496 105.33 37.3196 106.57 31.7896L115.81 31.5195L115.41 32.9097L130.12 31.3994C129.03 36.6494 128.09 41.5197 126.91 46.4697L132.98 45.8496L133.75 53.3994L124.1 54.3896L124.44 57.6797C125.67 56.7197 127.44 55.2397 128.52 53.9897L134.6 58.6597C132.78 60.2497 130.64 61.7097 128.84 62.9297C130.72 64.2897 133.02 65.5595 135.4 66.4595L131.46 73.7695C129.33 72.3795 127.51 71.0595 125.64 69.2295L125.96 72.3096C126.31 75.7496 123.27 77.1496 119.46 77.5396L114.52 78.0493L111.96 71.8296C110.63 72.9496 109.3 74.0196 107.96 75.0396L104.42 71.0396L104.83 74.9897C97.66 77.2797 93.99 78.3897 84.02 80.9697L80.35 72.7793C81.48 72.6093 82.66 72.4397 83.78 72.2197C82.78 70.1397 81.06 67.4097 79.61 64.9697L85.2 61.9595C86.33 63.5595 86.89 64.3296 87.96 66.0396L87.46 61.1597L80.61 61.8594L79.8 53.9497L86.65 53.2495L86.47 51.4497L83.79 51.7197L83.68 50.6895L82.9 51.9097L77.28 45.1694C80.88 41.5294 83.03 38.5096 84.79 34.5396L94.91 33.4995C97.13 36.9595 100.74 38.7096 104.29 41.0996L100.55 45.6895L100.99 49.9497L95.27 50.5396L95.45 52.3394L101.88 51.6797L102.69 59.5894L96.26 60.2495L96.76 65.1294C97.71 63.2694 98.19 62.0794 98.78 60.1494L104.2 61.4097C104.14 61.4597 104.15 61.5096 104.15 61.5596ZM84.42 72.1396L88.49 71.3096L88.32 69.6694L84.42 72.1396ZM90.58 41.3096C89.93 42.5696 89.47 43.3893 88.78 44.2993L92.71 43.8994C91.84 42.9994 91.28 42.2796 90.58 41.3096ZM100.25 68.1294L96.95 67.0195L97.16 69.0195C98.09 68.7695 99.21 68.4994 100.25 68.1294ZM104.01 61.9897C103.5 64.0697 103.25 65.7497 102.58 67.4297C102.99 67.2797 103.57 67.1194 104.03 66.9194L104.19 68.5093C105.95 67.4993 108.04 66.1397 109.58 64.7397C107.92 63.7097 106.15 62.8097 104.01 61.9897ZM112.82 70.9995C113.61 71.0195 114.38 70.9396 114.91 70.8896C115.86 70.7896 115.84 70.5295 115.81 70.2295L115.6 68.1797C114.74 69.1397 113.81 70.1095 112.82 70.9995ZM113.15 40.7095L118.69 40.1396C118.91 39.3896 119.05 38.9594 119.17 38.3794L113.63 38.9497C113.51 39.5297 113.32 40.0695 113.15 40.7095Z" fill="#1F1F1F"/>
<path d="M153.95 38.4395L154.5 43.8296C158.14 38.2696 160.71 31.0494 161.51 25.3594L173.1 26.8696C172.91 27.9796 172.34 29.3897 171.96 30.4097L191.55 28.3994L192.49 37.5396L172.72 39.5693L173.06 42.9097L191.04 41.0693L191.95 49.8994L173.97 51.7397L174.29 54.8696L192.87 52.9595L193.77 61.7397L175.19 63.6494L176.04 71.9194L164.79 73.0693L162.35 49.2397C161.76 50.5497 161.26 51.5295 160.6 52.6895L154.97 48.2896L157.59 73.8096L147.05 74.8896L144.91 54.0396C144.42 55.1296 144.13 55.8296 143.51 56.8296L137.69 48.1895C142.01 41.0495 144.68 33.0495 145.75 27.0195L157.09 28.4995C156.17 32.5095 155.01 35.8395 153.95 38.4395Z" fill="#1F1F1F"/>
<path d="M217.22 65.6797L212.28 66.1895L212.47 68.0894L202.7 69.0894L200.21 44.7993L224.74 42.2793L227.23 66.5693L217.4 67.5796L217.22 65.6797ZM201.49 22.6196L245.55 18.0996L247.58 37.8696L203.52 42.3896L201.49 22.6196ZM210.75 52.4897L211.27 57.5195L216.51 56.9795L215.99 51.9497L210.75 52.4897ZM214.22 32.8896L235.18 30.7397L234.86 27.6094L213.9 29.7593L214.22 32.8896ZM243.54 62.9795L238.6 63.4897L238.79 65.3896L229.02 66.3896L226.53 42.0996L251.06 39.5796L253.55 63.8696L243.72 64.8794L243.54 62.9795ZM237.07 49.7896L237.59 54.8193L242.83 54.2793L242.31 49.2495L237.07 49.7896Z" fill="#1F1F1F"/>
<path d="M357.12 521.649H9.23999V566.95H357.12V521.649Z" fill="#D9F24F"/>
<path d="M49.99 556.29L50.93 549.5H49.37C49.01 549.5 48.49 549.52 47.81 549.56C47.74 549.52 47.7 549 47.7 548C47.7 547 47.74 546.49 47.81 546.47C48.39 546.51 48.97 546.529 49.55 546.529H51.33L51.95 542.25H50.28C49.92 542.25 49.37 542.27 48.65 542.31C48.58 542.27 48.54 541.739 48.54 540.729C48.54 539.719 48.58 539.189 48.65 539.149C49.09 539.209 49.7 539.24 50.5 539.24H52.39L53.3 533.24H56.38L55.55 539.24H60.12L61.03 533.24H64.11L63.31 539.24H64.94C65.33 539.24 65.86 539.22 66.54 539.18C66.61 539.2 66.65 539.719 66.65 540.729C66.65 541.739 66.61 542.27 66.54 542.31C65.96 542.27 65.36 542.25 64.73 542.25H62.88L62.26 546.529H64C64.41 546.529 64.98 546.51 65.7 546.47C65.77 546.49 65.81 547.01 65.81 548.02C65.81 549.03 65.77 549.56 65.7 549.6C65.24 549.54 64.6 549.509 63.78 549.509H61.86L60.92 556.299H57.73L58.67 549.509H54.14L53.63 552.919L53.16 556.299H49.99V556.29ZM54.48 546.529H59.05L59.67 542.25H55.1L54.77 544.41L54.48 546.529Z" fill="#1F1F1F"/>
<path d="M75.47 559.069C74.12 559.069 73.38 559.02 73.26 558.91C73.41 557.91 73.48 556.54 73.48 554.81V550.709V542.52C72.54 543.6 71.63 544.529 70.76 545.299C70.08 543.779 69.35 542.489 68.55 541.419C70.17 540.039 71.72 538.329 73.21 536.259C74.7 534.199 75.92 532.06 76.89 529.85C77.91 530.14 78.86 530.5 79.75 530.91C80.67 531.35 81.08 531.66 80.98 531.85C80.91 532 80.77 532.119 80.58 532.229C80.27 532.349 80.02 532.609 79.85 532.979C79.75 533.149 79.61 533.409 79.41 533.759C79.14 534.299 78.93 534.709 78.76 534.979H88.19V532.569C88.19 531.859 88.14 531.029 88.04 530.069C89.06 530.029 90.11 530.04 91.19 530.1C92.52 530.18 93.18 530.319 93.18 530.509C92.7 531.219 92.45 531.959 92.45 532.729V534.979H97.09C98.64 534.979 100.17 534.92 101.69 534.79C101.76 534.87 101.8 535.5 101.8 536.68C101.8 537.86 101.76 538.489 101.69 538.569C100.53 538.469 99.13 538.41 97.48 538.41H93.27C93.73 540.87 94.25 542.939 94.83 544.629C96.64 543.249 98.15 541.939 99.36 540.689C100.21 541.379 100.92 542.12 101.5 542.91C102.1 543.72 102.27 544.22 102.01 544.41C101.82 544.56 101.57 544.64 101.28 544.66C100.82 544.68 100.32 544.88 99.79 545.25C98.39 546.21 97.16 547.019 96.09 547.689C97.85 551.339 100.21 553.929 103.16 555.479C102.12 556.289 101.12 557.359 100.15 558.669C97.42 557.019 95.18 554.62 93.44 551.45C91.94 548.7 90.73 545.19 89.81 540.91C88.72 542.2 87.68 543.29 86.69 544.16V553.6C88.6 553.27 90.84 552.85 93.4 552.35L93.84 555.7C90.21 556.47 85.59 557.399 79.95 558.479L78.79 554.95C79.08 554.91 79.55 554.839 80.2 554.729C81.26 554.559 82.09 554.429 82.67 554.319V547.319C81.65 548.009 80.64 548.63 79.62 549.2C79.02 548.41 78.28 547.539 77.41 546.609V552.77C77.41 555.23 77.51 557.269 77.7 558.899C77.61 559.019 76.85 559.069 75.47 559.069ZM77.47 545.81C81.31 543.93 84.43 541.47 86.82 538.43H78.66V535.149C78.61 535.229 78.53 535.37 78.41 535.56C78.02 536.27 77.71 536.799 77.47 537.149V541.5V545.81Z" fill="#1F1F1F"/>
<path d="M108.83 559.009C108.1 558.199 107.27 557.409 106.33 556.629C109.38 556.279 112.3 555.689 115.1 554.879H111.91V547.97C110.53 548.62 109.13 549.129 107.7 549.499C107.02 548.459 106.21 547.56 105.27 546.81C108.19 546.19 110.83 545.23 113.17 543.93H109.83C109.08 543.93 107.98 543.969 106.53 544.049C106.46 543.989 106.42 543.52 106.42 542.66C106.42 541.8 106.46 541.32 106.53 541.24C107.69 541.34 109.09 541.399 110.74 541.399H114.95V540.49H112.85C112.15 540.49 111.45 540.52 110.75 540.58C110.68 540.54 110.64 540.189 110.64 539.529C110.64 538.869 110.68 538.529 110.75 538.479C111.26 538.539 111.96 538.569 112.85 538.569H114.95V537.66H110.35V536.72H106.76V531.499H120V530.62C120 530.39 119.98 530.069 119.93 529.649C120.9 529.609 121.88 529.62 122.87 529.68C124.08 529.76 124.68 529.899 124.68 530.089C124.39 530.299 124.24 530.529 124.24 530.779V531.499H130.91H137.62V536.72H134.07V537.66H129.36V538.569H131.61C132.36 538.569 133.1 538.539 133.82 538.479C133.89 538.519 133.93 538.869 133.93 539.529C133.93 540.189 133.89 540.54 133.82 540.58C133.29 540.52 132.55 540.49 131.61 540.49H129.36V541.399H133.64C134.9 541.399 136.31 541.35 137.88 541.24C137.95 541.32 137.99 541.8 137.99 542.66C137.99 543.52 137.95 543.989 137.88 544.049C136.91 543.969 135.92 543.93 134.91 543.93H131.94C134.04 545.08 136.42 545.91 139.08 546.43C138.11 547.2 137.25 548.15 136.51 549.27C135.13 548.89 133.79 548.369 132.49 547.709V554.87H129.52C133.22 555.81 135.86 556.519 137.46 556.999L133.91 558.999C131.3 558.079 127.89 557.1 123.69 556.06L125.36 554.87H118.8L120.65 555.959C119.25 556.609 117.42 557.21 115.17 557.77C113.04 558.33 110.93 558.739 108.83 559.009ZM110.61 535.68H114.96V535.18C114.96 535.12 114.96 535.019 114.96 534.899C114.94 534.749 114.92 534.64 114.92 534.56C115.79 534.52 116.68 534.529 117.6 534.589C118.74 534.669 119.3 534.809 119.3 534.999C119.01 535.079 118.86 535.199 118.86 535.339V535.68H125.39V535.18C125.39 535.12 125.39 535.019 125.39 534.899C125.37 534.749 125.35 534.64 125.35 534.56C126.22 534.52 127.13 534.529 128.07 534.589C129.21 534.669 129.77 534.809 129.77 534.999C129.48 535.079 129.33 535.199 129.33 535.339V535.68H133.61V534.299H122.1H110.61V535.68ZM115.79 547.689H128.41V546.749H122.1H115.79V547.689ZM115.79 550.35H128.41V549.41H122.1H115.79V550.35ZM115.79 553.069H122.1H128.41V552.069H115.79V553.069ZM116.88 544.939H122.5H128.12C127.83 544.729 127.44 544.399 126.96 543.939H118C117.71 544.249 117.34 544.579 116.88 544.939ZM118.87 538.589H125.4V537.68H122.14H118.88V538.589H118.87ZM118.87 541.41H125.4V540.499H122.14H118.88V541.41H118.87Z" fill="#1F1F1F"/>
<path d="M149.29 559.129C147.89 559.129 147.11 559.08 146.97 558.97C147.16 557.51 147.26 555.65 147.26 553.37V547.74C146.03 550.37 144.73 552.43 143.38 553.93C143.04 552.93 142.4 551.749 141.46 550.399C143.37 548.419 145.12 545.63 146.72 542.02H144.44C143.67 542.02 142.92 542.049 142.19 542.109C142.12 542.069 142.08 541.459 142.08 540.279C142.08 539.099 142.12 538.49 142.19 538.45C142.82 538.51 143.66 538.54 144.73 538.54H147.27V534.939C145.99 535.149 144.55 535.349 142.96 535.529C142.67 534.469 142.27 533.509 141.76 532.649C146.5 531.979 150.24 531.129 153 530.089C153.7 530.819 154.31 531.569 154.81 532.339C155.32 533.109 155.47 533.529 155.28 533.589C155.13 533.629 154.97 533.62 154.77 533.56C154.48 533.46 154.13 533.469 153.72 533.589C153.21 533.739 152.43 533.93 151.36 534.18V538.529H153.28C153.93 538.529 154.56 538.499 155.17 538.439C155.24 538.479 155.28 539.09 155.28 540.27C155.28 541.45 155.24 542.06 155.17 542.1C154.71 542.04 154.08 542.009 153.28 542.009H151.36V542.919C151.8 543.229 152.59 543.91 153.75 544.95C154.81 545.93 155.53 546.619 155.89 547.009L153.5 549.919C153.16 549.269 152.45 548.219 151.36 546.759V552.859V555.919C151.36 556.939 151.41 557.95 151.51 558.95C151.43 559.08 150.7 559.129 149.29 559.129ZM154.66 558.509C154.59 558.429 154.55 557.829 154.55 556.709C154.55 555.599 154.59 555 154.66 554.91C155.75 555.01 157.09 555.069 158.68 555.069H162.74V552.189H159.59C158.89 552.189 157.84 552.23 156.44 552.31C156.37 552.25 156.33 551.69 156.33 550.62C156.33 549.55 156.37 548.99 156.44 548.93C157.46 549.01 158.51 549.049 159.59 549.049H162.74V546.52C160.88 546.67 158.8 546.77 156.5 546.83C156.35 546 156.03 545.06 155.52 544.02C162.6 543.67 167.88 543.08 171.36 542.27L173.9 545.08C171.97 545.5 169.65 545.85 166.94 546.14V549.049H170.09C170.79 549.049 171.84 549.01 173.24 548.93C173.31 548.99 173.35 549.55 173.35 550.62C173.35 551.69 173.31 552.25 173.24 552.31C172.23 552.23 171.17 552.189 170.09 552.189H166.94V555.069H170.78C171.94 555.069 173.22 555.02 174.62 554.91C174.69 554.99 174.73 555.589 174.73 556.709C174.73 557.829 174.69 558.419 174.62 558.509C173.39 558.389 171.72 558.319 169.62 558.319H164.62H159.62C157.96 558.319 156.3 558.379 154.66 558.509ZM173.15 542.22C170.9 542.01 168.16 541.91 164.92 541.91H156.65V536.529C156.65 534.509 156.57 532.719 156.4 531.149C156.4 531.049 156.48 530.99 156.65 530.99C157.79 531.09 159.15 531.149 160.75 531.149H164.88H173.15V536.529C173.15 538.549 173.23 540.34 173.4 541.91C173.41 542.11 173.32 542.22 173.15 542.22ZM160.57 538.779H164.78H169.02V534.279H160.57V538.779Z" fill="#1F1F1F"/>
<path d="M180.11 545.1C179.36 543.98 178.53 543.069 177.61 542.379C179.64 541.629 181.63 540.56 183.59 539.16C182.57 538.24 181.31 537.369 179.78 536.529L182.1 534.5C183.89 535.42 185.23 536.259 186.12 537.029C187.13 536.049 188.02 535.02 188.77 533.93H185.11C184.29 533.93 183.08 533.969 181.49 534.049C181.42 533.989 181.38 533.44 181.38 532.41C181.38 531.38 181.42 530.82 181.49 530.74C182.65 530.86 184.2 530.93 186.13 530.93H190.81L191.54 530.77L194.26 532.02C193.34 534.23 192 536.26 190.23 538.12H199.37C197.41 535.99 195.79 533.589 194.51 530.899L198.14 529.899C198.79 531.209 199.42 532.27 200.03 533.06C201.53 532 202.71 531.009 203.58 530.089C204.4 530.609 205.12 531.189 205.72 531.839C206.35 532.509 206.55 532.919 206.34 533.089C206.17 533.209 205.95 533.279 205.69 533.279C205.25 533.279 204.81 533.449 204.35 533.779C203.58 534.319 202.77 534.839 201.92 535.339C202.52 535.959 203.08 536.5 203.59 536.93C205.19 535.83 206.51 534.749 207.58 533.709C208.38 534.209 209.08 534.78 209.68 535.43C210.33 536.1 210.55 536.499 210.33 536.649C210.19 536.749 209.98 536.81 209.71 536.81C209.3 536.81 208.88 536.969 208.44 537.279C207.84 537.699 207.05 538.21 206.08 538.81C207.82 539.96 209.67 540.87 211.63 541.56C210.71 542.23 209.78 543.26 208.84 544.66C206.06 543.56 203.52 541.979 201.23 539.939V541.22H194.7H188.17V540.16C185.77 542.18 183.09 543.82 180.11 545.1ZM179.46 558.66C179.39 558.51 179.35 557.909 179.35 556.859C179.35 555.809 179.39 555.24 179.46 555.16C180.62 555.26 182.05 555.319 183.74 555.319H188.06C187.65 554.169 187.1 553.089 186.43 552.069L188.28 551.66H184.4V547.31C184.4 545.5 184.33 544.06 184.18 543C184.18 542.75 184.25 542.62 184.4 542.62C186.94 542.87 190.36 543 194.66 543H199.81C201.99 543 203.7 542.94 204.96 542.81C205.11 542.81 205.18 542.87 205.18 543C205.03 544.06 204.96 545.5 204.96 547.31V551.66H201.77L203.15 551.91C202.33 553.37 201.64 554.499 201.08 555.319H205.54C206.87 555.319 208.36 555.27 210 555.16C210.07 555.24 210.11 555.809 210.11 556.859C210.11 557.909 210.07 558.51 210 558.66C208.11 558.47 205.58 558.379 202.39 558.379H194.74H187.09C184.54 558.379 182 558.48 179.46 558.66ZM188.45 548.72H200.6V545.939H194.51H188.46V548.72H188.45ZM190.96 555.319H197.96L197.02 555.129C197.72 554.009 198.34 552.85 198.87 551.66H194.74H190.61C191.38 552.68 191.95 553.79 192.31 554.97L190.96 555.319Z" fill="#1F1F1F"/>
<path d="M233.99 559.009C233.84 558.029 233.47 556.98 232.87 555.85C233.5 555.87 234.3 555.879 235.26 555.879C235.57 555.879 235.73 555.729 235.73 555.439V553.279C233.77 554.549 231.56 555.91 229.09 557.35L228.18 556.04C225.01 556.64 220.78 557.409 215.49 558.319L214.69 554.939C215.87 554.789 217.61 554.56 219.91 554.22V546.06H217.48C216.68 546.06 215.88 546.089 215.09 546.149C215.02 546.109 214.98 545.56 214.98 544.49C214.98 543.43 215.02 542.87 215.09 542.83C215.67 542.89 216.47 542.919 217.48 542.919H219.91V540.64H216.79V539.229C216.72 539.289 216.6 539.389 216.45 539.509C216.3 539.629 216.18 539.73 216.11 539.79C215.84 539.41 215.47 538.979 214.99 538.479C214.46 537.979 214 537.61 213.61 537.39C216.34 535.35 218.38 532.829 219.74 529.819H223.22C226 531.799 227.99 533.57 229.2 535.14L226.92 537.549H227V540.649H223.59V542.93H225.8C226.55 542.93 227.29 542.899 228.01 542.839C228.08 542.879 228.12 543.43 228.12 544.5C228.12 545.56 228.08 546.12 228.01 546.16C227.48 546.1 226.74 546.069 225.8 546.069H223.59V553.669C225.57 553.339 227.07 553.089 228.09 552.919L228.2 554.009C229.14 553.529 230.76 552.67 233.06 551.41C233.81 550.99 234.38 550.68 234.76 550.47L235.74 552.689V544.339H232.08C231.26 544.339 230.05 544.379 228.45 544.459C228.38 544.399 228.34 543.86 228.34 542.83C228.34 541.8 228.38 541.28 228.45 541.24C229.1 541.3 230.01 541.33 231.17 541.33H233.93H239.41C239.46 541.06 239.53 540.62 239.63 540.02C239.68 539.73 239.71 539.509 239.74 539.359H233.87L233.62 540.359L229.63 540.049C230.62 536.609 231.39 533.189 231.95 529.799L235.94 530.08L235.58 531.89H241.2L241.89 531.729L244.86 532.009C244.59 534.389 244.13 537.49 243.48 541.33H245.44C246.12 541.33 246.76 541.3 247.36 541.24C247.43 541.28 247.47 541.81 247.47 542.83C247.47 543.85 247.43 544.4 247.36 544.49C246.32 544.39 245.06 544.33 243.59 544.33H239.78V545.27C240.19 546.6 240.71 547.82 241.34 548.93C242.14 548.01 243.04 546.68 244.06 544.93C244.93 545.31 245.72 545.76 246.42 546.31C247.15 546.87 247.42 547.26 247.25 547.47C247.13 547.64 246.94 547.739 246.67 547.779C246.26 547.879 245.87 548.14 245.51 548.56C244.81 549.33 244.23 549.949 243.77 550.399L241.63 549.37C243.18 551.91 245.3 553.66 248.01 554.62C246.97 555.48 246.14 556.439 245.51 557.529C243.19 556.469 241.28 554.799 239.78 552.529V555.47C239.78 556.28 239.7 556.9 239.53 557.31C239.34 557.79 238.97 558.149 238.44 558.399C237.57 558.809 236.1 559.009 233.99 559.009ZM216.55 553.319C216.53 552.669 216.41 551.79 216.19 550.66C215.95 549.6 215.71 548.66 215.46 547.85L218.14 547.259C218.79 549.199 219.2 550.99 219.37 552.64L216.55 553.319ZM218.62 537.56H222.39H226.16C224.98 536 223.61 534.569 222.06 533.279C221 534.839 219.85 536.27 218.62 537.56ZM226.52 552.689L223.98 552.069C224.51 550.609 224.92 548.92 225.21 547C226.06 547.19 226.82 547.4 227.49 547.62C228.21 547.89 228.57 548.089 228.54 548.209C228.52 548.309 228.43 548.399 228.29 548.459C228.05 548.559 227.88 548.739 227.8 548.979C227.72 549.219 227.59 549.589 227.42 550.089C227.4 550.189 227.37 550.279 227.35 550.339C227.33 550.419 227.28 550.56 227.21 550.75C226.92 551.67 226.69 552.319 226.52 552.689ZM231.75 550.689C231.48 550.069 231.05 549.379 230.44 548.629C229.88 547.859 229.26 547.14 228.56 546.47L231.42 545C232.99 546.4 234.11 547.73 234.79 549L231.75 550.689ZM234.54 536.62H237.33H240.16L240.45 534.62H235.01L234.54 536.62Z" fill="#1F1F1F"/>
<path d="M256.94 559.129C255.47 559.129 254.63 559.08 254.44 558.97C254.68 556.82 254.8 554.219 254.8 551.149V543.33C254.66 543.48 254.44 543.7 254.15 543.99C253.45 544.72 252.93 545.25 252.59 545.58C252.37 545.1 252.02 544.439 251.54 543.609C251.03 542.709 250.61 542.049 250.27 541.609C251.89 540.189 253.42 538.439 254.86 536.359C256.3 534.279 257.46 532.129 258.36 529.919C259.47 530.209 260.49 530.589 261.41 531.049C262.38 531.549 262.8 531.939 262.68 532.209C262.58 532.399 262.41 532.55 262.17 532.68C261.78 532.91 261.46 533.299 261.19 533.839C260.44 535.279 259.74 536.52 259.09 537.56V548.279V553.629C259.09 555.669 259.17 557.449 259.34 558.979C259.22 559.079 258.42 559.129 256.94 559.129ZM271.56 559.169C270.09 559.169 269.29 559.119 269.17 559.009C269.34 557.509 269.42 555.799 269.42 553.879V548.72V538.43H268.08C266.58 540.83 265.02 542.85 263.4 544.5C262.7 543.75 261.62 542.879 260.17 541.899C261.72 540.499 263.17 538.74 264.52 536.62C265.85 534.54 266.91 532.37 267.71 530.12C268.77 530.37 269.76 530.669 270.68 531.029C271.62 531.379 272.06 531.649 271.99 531.839C271.94 531.989 271.82 532.1 271.63 532.18C271.34 532.33 271.12 532.589 270.98 532.959C270.64 533.729 270.33 534.379 270.04 534.899H276.96C279.11 534.899 281.41 534.819 283.85 534.649C283.92 534.769 283.96 535.439 283.96 536.649C283.96 537.859 283.92 538.52 283.85 538.62C282.62 538.5 280.94 538.43 278.81 538.43H273.73V541.709H278.33C279.88 541.709 281.41 541.65 282.94 541.52C283.01 541.6 283.05 542.219 283.05 543.379C283.05 544.539 283.01 545.17 282.94 545.27C281.83 545.15 280.29 545.08 278.33 545.08H273.73V548.609H278.59C280.21 548.609 281.82 548.549 283.41 548.419C283.48 548.499 283.52 549.13 283.52 550.31C283.52 551.49 283.48 552.129 283.41 552.229C282.23 552.109 280.62 552.04 278.59 552.04H273.73V555.509C273.73 556.889 273.79 558.039 273.91 558.979C273.81 559.109 273.03 559.169 271.56 559.169Z" fill="#1F1F1F"/>
<path d="M290.23 559.169C288.88 559.169 288.15 559.119 288.06 559.009C288.18 558.029 288.24 556.859 288.24 555.509V551.979V548.45C288.24 547.1 288.18 545.93 288.06 544.95C288.06 544.78 288.12 544.7 288.24 544.7C290.03 544.87 292.28 544.95 294.98 544.95H301.76V551.919C301.76 554.819 301.87 557.129 302.09 558.859C301.92 558.959 301.12 559.02 299.7 559.02C298.25 559.02 297.51 558.969 297.49 558.859C297.49 558.819 297.49 558.72 297.49 558.58C297.51 558.39 297.53 558.259 297.53 558.169V557.45H292.24V558.229C292.24 558.329 292.25 558.49 292.28 558.7C292.28 558.85 292.28 558.949 292.28 559.009C292.23 559.109 291.56 559.169 290.23 559.169ZM292.22 553.879H297.51V551.189V548.5H292.22V553.879ZM313.94 542.72C311.38 542.47 307.91 542.339 303.53 542.339H293.12V536.68C293.12 534.41 293.02 532.52 292.83 531.02C292.83 530.89 292.93 530.83 293.12 530.83C294.4 530.95 296.13 531.02 298.3 531.02H303.52H313.93V536.68C313.93 538.95 314.03 540.839 314.22 542.339C314.23 542.589 314.13 542.72 313.94 542.72ZM297.23 538.81H303.43H309.67V534.589H297.23V538.81ZM306.8 559.169C305.42 559.169 304.68 559.119 304.59 559.009C304.71 558.029 304.77 556.859 304.77 555.509V551.979V548.45C304.77 547.1 304.71 545.93 304.59 544.95C304.59 544.78 304.65 544.7 304.77 544.7C306.63 544.87 308.95 544.95 311.73 544.95H315.25C316.41 544.95 317.57 544.91 318.73 544.83C318.85 544.83 318.91 544.87 318.91 544.95C318.79 545.89 318.73 547.039 318.73 548.419V551.919C318.73 554.859 318.84 557.18 319.06 558.89C318.89 558.99 318.09 559.049 316.67 559.049C315.22 559.049 314.48 559 314.46 558.89C314.46 558.85 314.46 558.77 314.46 558.64C314.48 558.43 314.5 558.279 314.5 558.169V557.45H308.84V558.229C308.84 558.329 308.85 558.49 308.88 558.7C308.88 558.85 308.88 558.949 308.88 559.009C308.84 559.109 308.15 559.169 306.8 559.169ZM308.83 553.879H314.49V548.5H308.83V551.189V553.879Z" fill="#1F1F1F"/>
<path d="M510.82 379.04H9.23999V424.34H510.82V379.04Z" fill="#D9F24F"/>
<path d="M27.79 413.64L28.75 406.7H27.15C26.78 406.7 26.25 406.72 25.55 406.76C25.48 406.72 25.44 406.18 25.44 405.16C25.44 404.14 25.48 403.61 25.55 403.59C26.14 403.63 26.74 403.65 27.33 403.65H29.15L29.78 399.27H28.07C27.7 399.27 27.14 399.29 26.4 399.33C26.33 399.29 26.29 398.75 26.29 397.71C26.29 396.68 26.33 396.14 26.4 396.09C26.85 396.15 27.48 396.19 28.29 396.19H30.22L31.15 390.05H34.3L33.45 396.19H38.13L39.06 390.05H42.21L41.39 396.19H43.06C43.46 396.19 44 396.17 44.69 396.13C44.76 396.15 44.8 396.68 44.8 397.71C44.8 398.75 44.76 399.28 44.69 399.33C44.1 399.29 43.48 399.27 42.83 399.27H40.94L40.31 403.65H42.09C42.51 403.65 43.09 403.63 43.83 403.59C43.9 403.61 43.94 404.14 43.94 405.17C43.94 406.2 43.9 406.74 43.83 406.79C43.36 406.73 42.7 406.69 41.86 406.69H39.89L38.93 413.63H35.66L36.62 406.69H31.98L31.46 410.18L30.98 413.64H27.79ZM32.39 403.66H37.07L37.7 399.28H33.02L32.69 401.49L32.39 403.66Z" fill="#1F1F1F"/>
<path d="M55.69 413.64V394.98L50.79 397.22L48.6 394.18L57.06 389.92H61.07V401.79V413.63H55.69V413.64Z" fill="#1F1F1F"/>
<path d="M78.77 414.09C75.9 414.09 73.65 413.04 72.02 410.95C70.31 408.77 69.46 405.69 69.46 401.7C69.46 397.71 70.31 394.65 72.02 392.52C73.63 390.52 75.88 389.51 78.77 389.51C81.64 389.51 83.88 390.52 85.49 392.55C87.2 394.66 88.05 397.71 88.05 401.7C88.05 405.69 87.2 408.77 85.49 410.95C83.88 413.05 81.64 414.09 78.77 414.09ZM78.77 410.41C81.52 410.41 82.89 407.51 82.89 401.71C82.89 396.01 81.52 393.17 78.77 393.17C76 393.17 74.61 396.02 74.61 401.71C74.61 404.85 75.01 407.13 75.8 408.56C76.5 409.79 77.49 410.41 78.77 410.41Z" fill="#1F1F1F"/>
<path d="M90.2 419.47L99.4 387.89H103.04L98.44 403.7L93.84 419.48H90.2V419.47Z" fill="#1F1F1F"/>
<path d="M114.25 414.09C110.37 414.09 107.3 412.99 105.05 410.79L107.61 407.81C109.54 409.43 111.58 410.24 113.73 410.24C115.14 410.24 116.27 409.95 117.11 409.38C117.98 408.8 118.41 407.99 118.41 406.95C118.41 405.69 117.89 404.77 116.85 404.2C115.66 403.52 113.66 403.18 110.84 403.18V399.79C115.29 399.79 117.52 398.58 117.52 396.17C117.52 395.23 117.2 394.51 116.56 393.99C115.92 393.48 115.01 393.21 113.85 393.19C112.14 393.21 110.41 393.92 108.65 395.3L105.87 392.42C108.44 390.48 111.19 389.51 114.11 389.51C116.81 389.51 118.96 390.05 120.57 391.14C122.2 392.25 123.02 393.81 123.02 395.81C123.02 398.37 121.49 400.17 118.42 401.22V401.38C120.05 401.76 121.36 402.44 122.35 403.4C123.39 404.45 123.91 405.72 123.91 407.21C123.91 409.32 122.96 411.01 121.05 412.27C119.26 413.48 117 414.09 114.25 414.09Z" fill="#1F1F1F"/>
<path d="M135.66 413.64V394.98L130.76 397.22L128.57 394.18L137.03 389.92H141.04V401.79V413.63H135.66V413.64Z" fill="#1F1F1F"/>
<path d="M164.9 420.11C163.12 417.59 161.76 415.01 160.82 412.37C159.86 409.53 159.37 406.59 159.37 403.54C159.37 397.72 161.21 392.2 164.9 387L168.31 388.25C165.29 392.77 163.78 397.87 163.78 403.55C163.78 409.25 165.29 414.35 168.31 418.88L164.9 420.11Z" fill="#1F1F1F"/>
<path d="M172.1 403.53C172.03 403.38 171.99 402.59 171.99 401.16C171.99 399.73 172.03 398.92 172.1 398.73C174.9 398.99 178.61 399.11 183.23 399.11H194.44C198.15 399.11 201.86 398.98 205.57 398.73C205.64 398.92 205.68 399.73 205.68 401.16C205.68 402.59 205.64 403.38 205.57 403.53C203.49 403.34 200.71 403.24 197.22 403.24H188.83H180.44C177.68 403.24 174.9 403.34 172.1 403.53Z" fill="#1F1F1F"/>
<path d="M212.66 420.11L209.28 418.86C212.3 414.34 213.81 409.23 213.81 403.53C213.81 397.86 212.3 392.76 209.28 388.23L212.66 386.98C216.37 392.16 218.23 397.68 218.23 403.52C218.23 406.57 217.75 409.51 216.78 412.35C215.84 415.05 214.47 417.63 212.66 420.11Z" fill="#1F1F1F"/>
<path d="M243.72 414.09C236.6 414.09 233.03 410.39 233.03 402.99V389.97H238.52V403.41C238.52 405.78 238.98 407.5 239.89 408.56C240.73 409.52 242.01 410 243.71 410C245.44 410 246.74 409.52 247.61 408.56C248.57 407.47 249.06 405.75 249.06 403.41V396.69V389.97H254.33V402.99C254.33 410.39 250.79 414.09 243.72 414.09Z" fill="#1F1F1F"/>
<path d="M260.94 413.64V389.96H266.43V401.8V413.64H260.94Z" fill="#1F1F1F"/>
<path d="M290.44 406.83C288.04 404.29 285.38 401.94 282.46 399.79L286.32 396.88C287.58 397.78 289.03 398.93 290.66 400.34C292.17 401.66 293.42 402.85 294.41 403.89L292.41 405.36L290.44 406.83Z" fill="#1F1F1F"/>
<path d="M312.18 416.62C310.84 416.62 310.09 416.57 309.92 416.46C310.14 414.67 310.25 412.27 310.25 409.26V402.03V394.8C310.25 391.79 310.14 389.39 309.92 387.6C309.92 387.34 310.03 387.22 310.25 387.22C313.05 387.48 316.76 387.6 321.38 387.6H331.1C335.03 387.6 338.26 387.48 340.79 387.25C341.09 387.25 341.24 387.37 341.24 387.6C340.94 389.99 340.79 393.19 340.79 397.2V406.8C340.79 410.79 340.94 413.99 341.24 416.4C341.02 416.51 340.2 416.56 338.79 416.56C337.38 416.56 336.66 416.51 336.64 416.4C336.64 416.36 336.64 416.27 336.64 416.14C336.66 415.93 336.68 415.77 336.68 415.66V414.89H314.15V415.69C314.15 415.77 314.16 415.92 314.19 416.14C314.19 416.29 314.19 416.4 314.19 416.46C314.16 416.56 313.5 416.62 312.18 416.62ZM314.15 412.01H336.68V390.47H314.15V401.25V412.01ZM325.43 411.63C325.31 411.18 325.02 410.55 324.58 409.74C325.84 409.78 326.68 409.78 327.1 409.74C327.45 409.74 327.62 409.61 327.62 409.36V407.44H321.16C322.25 408.36 323.06 409.22 323.61 410.03L320.75 411.28C320.16 410.34 319.32 409.38 318.23 408.4L320.53 407.44H317.71C317.07 407.44 316.13 407.48 314.89 407.57C314.82 407.51 314.78 407.12 314.78 406.42C314.78 405.72 314.82 405.33 314.89 405.27C315.93 405.36 316.98 405.4 318.04 405.4H321.23H327.61V404.92C327.61 404.86 327.6 404.77 327.59 404.65C327.58 404.53 327.57 404.43 327.57 404.35C328.39 404.31 329.21 404.32 330.06 404.38C331.1 404.47 331.62 404.6 331.62 404.8C331.32 404.89 331.17 404.98 331.17 405.09V405.41H333.1C332.93 405.2 332.57 404.83 332.02 404.32C325.27 404.53 319.79 404.67 315.58 404.74L315.47 402.72C318.17 402.72 320.86 402.72 323.56 402.72V401.66H316.36V398.4C316.36 397.12 316.3 396.03 316.17 395.14C316.17 395.06 316.23 395.01 316.36 395.01C317.55 395.1 318.75 395.14 319.96 395.14H323.56V394.18H319.44C318.2 394.18 316.84 394.23 315.36 394.34C315.29 394.26 315.25 393.86 315.25 393.16C315.25 392.46 315.29 392.06 315.36 391.98C316.47 392.09 317.83 392.14 319.44 392.14H323.56V391.53C323.56 391.47 323.56 391.37 323.56 391.24C323.53 391.05 323.52 390.91 323.52 390.82C324.31 390.78 325.13 390.79 325.97 390.85C327.01 390.94 327.53 391.07 327.53 391.27C327.23 391.4 327.08 391.54 327.08 391.69V392.14H331.24C332.48 392.14 333.86 392.09 335.4 391.98C335.47 392.07 335.51 392.46 335.51 393.16C335.51 393.86 335.47 394.26 335.4 394.34C334.24 394.23 332.85 394.18 331.24 394.18H327.08V395.14H330.75C331.99 395.14 333.2 395.1 334.39 395.01C334.51 395.01 334.58 395.05 334.58 395.14C334.46 396.04 334.39 397.12 334.39 398.4V401.66H332.57C333.91 402.6 334.91 403.43 335.58 404.16L333.65 405.41H334.76C335.03 405.41 335.39 405.39 335.84 405.35C335.91 405.37 335.95 405.73 335.95 406.44C335.95 407.15 335.91 407.52 335.84 407.56C335.3 407.5 334.52 407.46 333.5 407.46H331.16V409.51C331.16 410.11 331.07 410.54 330.88 410.81C330.69 411.08 330.35 411.27 329.86 411.4C329.22 411.54 327.73 411.63 325.43 411.63ZM319.64 397.61H323.57V396.68H321.6H319.63V397.61H319.64ZM319.64 400.04H323.57V399.11H321.6H319.63V400.04H319.64ZM327.1 397.61H329.03H330.96V396.68H327.1V397.61ZM327.1 400.04H329.03H330.96V399.11H327.1V400.04ZM327.1 402.67H330.03L329.62 402.38L330.84 401.64H328.95H327.09V402.67H327.1Z" fill="#1F1F1F"/>
<path d="M350.18 416.59C348.94 416.59 348.23 416.54 348.03 416.43C348.28 414.4 348.4 411.94 348.4 409.04V401.62H346.25V396.63H348.33V392.09C348.33 390.17 348.26 388.66 348.11 387.55C348.11 387.4 348.18 387.33 348.33 387.33C349.99 387.48 351.89 387.55 354.04 387.55H359.75V396.64H361.9V400.26H370.58C373.18 400.26 376.06 400.15 379.23 399.94C379.3 400.09 379.34 400.61 379.34 401.49C379.34 402.37 379.3 402.86 379.23 402.95C378.04 402.84 376.6 402.79 374.89 402.79H370.55H361.87V401.64H359.61V413.26C359.61 413.99 359.54 414.54 359.39 414.92C359.19 415.35 358.86 415.68 358.39 415.91C357.97 416.14 357.43 416.3 356.76 416.39C356.29 416.43 355.54 416.45 354.5 416.45C354.38 415.57 354.05 414.62 353.54 413.57C354.11 413.59 354.78 413.6 355.54 413.6C355.81 413.58 355.95 413.45 355.95 413.22V411.01H352.05V413.73C352.05 414.65 352.1 415.55 352.2 416.45C352.11 416.53 351.44 416.59 350.18 416.59ZM349.33 400.49H354.01H358.69V399.21H349.34V400.49H349.33ZM351.41 396.62H352.67V391.53H356.49V390.22H351.41V393.42V396.62ZM352.04 404.46H353.97H355.94V403.05H352.04V404.46ZM352.04 408.43H355.94V406.96H353.97H352.04V408.43ZM354.97 396.62H356.49V393.68H354.97V395.15V396.62ZM361.13 416.2C361.06 416.11 361.02 415.61 361.02 414.7C361.02 413.78 361.06 413.3 361.13 413.26C361.7 413.32 362.47 413.36 363.43 413.36H365.77C365.35 412.25 364.9 411.38 364.43 410.74L366.66 410.04H363.17V406.9C363.17 405.86 363.12 404.82 363.02 403.8C363.02 403.63 363.07 403.54 363.17 403.54C365.15 403.71 367.62 403.8 370.59 403.8H374.34C375.58 403.8 376.81 403.76 378.05 403.67C378.15 403.67 378.2 403.71 378.2 403.8C378.1 404.82 378.05 405.86 378.05 406.9V410.04H374.6L376.79 410.49C376.29 411.3 375.66 412.26 374.9 413.37H377.27C378.09 413.37 378.88 413.34 379.65 413.27C379.72 413.31 379.76 413.79 379.76 414.71C379.76 415.63 379.72 416.13 379.65 416.21C378.36 416.1 376.82 416.05 375.01 416.05H370.37H365.73C364.35 416.04 362.81 416.1 361.13 416.2ZM362.65 399.31C362.48 399.31 362.39 399.26 362.39 399.15C362.59 398.49 362.67 397.16 362.65 395.15C362.65 394.72 362.65 394.4 362.65 394.19V389.23H366.69V387.89C366.69 387.53 366.66 387.05 366.62 386.45C367.34 386.41 368.08 386.42 368.85 386.48C369.81 386.57 370.3 386.7 370.3 386.9C369.9 387.28 369.71 387.67 369.71 388.05V389.23H371.27V387.89C371.27 387.53 371.24 387.05 371.2 386.45C371.92 386.41 372.67 386.42 373.46 386.48C374.45 386.57 374.94 386.7 374.94 386.9C374.54 387.28 374.35 387.67 374.35 388.05V389.23H378.54V394.19C378.54 396.07 378.63 397.72 378.8 399.15C378.8 399.26 378.71 399.31 378.54 399.31C377.48 399.2 376.15 399.15 374.57 399.15H370.6H366.63C365.04 399.15 363.72 399.2 362.65 399.31ZM365.81 393H367.37V392.33V391.63H365.81V393ZM365.81 396.71H367.37V396.01V395.31H365.81V396.71ZM366.66 407.79H374.42V406.03H370.52H366.66V407.79ZM369.18 413.35H371.67C372.31 412.13 372.79 411.03 373.12 410.02H370.34H367.56C368.39 411.2 368.94 412.31 369.18 413.35ZM369.7 393H371.26V391.62H369.7V392.32V393ZM369.7 396.71H371.26V396.01V395.31H369.7V396.71ZM373.6 393H374.38H375.2V391.62H373.6V393ZM373.6 396.71H375.2V395.3H373.6V396V396.71Z" fill="#1F1F1F"/>
<path d="M385.47 414.06C384.43 413.51 383.33 413.05 382.17 412.68C383.09 410.99 383.73 408.52 384.1 405.26C385.09 405.41 385.98 405.62 386.77 405.9C387.66 406.18 388.09 406.42 388.07 406.64C388.04 406.79 387.95 406.93 387.77 407.06C387.52 407.29 387.36 407.64 387.29 408.08C387.22 408.57 387.05 409.31 386.81 410.29C386.41 411.84 385.97 413.1 385.47 414.06ZM390.19 416.62C388.88 416.62 388.14 416.57 387.96 416.46C388.18 414.86 388.29 412.72 388.29 410.03V403.57L382.91 403.89L382.54 400.56L385.25 400.46C385.74 399.93 386.3 399.27 386.92 398.48C385.88 397.09 384.42 395.63 382.54 394.1L384.58 391.48C384.88 391.69 385.17 391.92 385.47 392.15C386.63 390.12 387.51 388.27 388.1 386.58C389.11 386.9 390.03 387.31 390.85 387.8C391.72 388.33 392.07 388.73 391.93 388.98C391.81 389.17 391.62 389.33 391.37 389.46C390.92 389.67 390.54 390.05 390.22 390.58C389.43 391.9 388.64 393.12 387.84 394.23C388.26 394.64 388.68 395.08 389.1 395.57C390.31 393.91 391.43 392.16 392.44 390.32C393.4 390.68 394.28 391.12 395.07 391.63C395.89 392.21 396.21 392.61 396.03 392.85C395.91 393.02 395.71 393.15 395.44 393.23C394.99 393.4 394.59 393.73 394.22 394.22C392.24 396.78 390.56 398.82 389.17 400.33L392.84 400.2C392.39 399.37 391.96 398.63 391.54 397.99L394.62 396.81C396.38 399.43 397.49 401.69 397.96 403.56L394.69 404.9C394.59 404.47 394.42 403.9 394.17 403.17L392.09 403.3V409.89V413.19C392.09 414.47 392.15 415.56 392.28 416.45C392.2 416.56 391.5 416.62 390.19 416.62ZM394.34 412.14C394.19 411.24 393.91 410.25 393.49 409.16C393.04 407.88 392.61 406.81 392.19 405.96L395.38 405.06C396.39 406.96 397.19 408.96 397.76 411.08L394.34 412.14ZM395.49 415.95C395.42 415.76 395.38 415.07 395.38 413.89C395.38 412.71 395.42 412.1 395.49 412.08C396.03 412.12 396.59 412.14 397.16 412.14H398.83V397.74C398.83 393.73 398.68 390.53 398.38 388.14C398.38 387.95 398.53 387.85 398.83 387.85C400.76 388.04 403.34 388.14 406.59 388.14H410.49C412 388.14 413.28 388.09 414.35 387.98C414.55 387.98 414.65 388.03 414.65 388.14C414.45 389.72 414.35 391.71 414.35 394.12V400.14V412.14H415.57C415.84 412.14 416.25 412.12 416.79 412.08C416.86 412.1 416.9 412.7 416.9 413.87C416.9 415.04 416.86 415.67 416.79 415.76C415.5 415.63 413.73 415.57 411.48 415.57H406.14C402.58 415.56 399.03 415.69 395.49 415.95ZM403.03 396.01H406.48H409.97V391.56H403.03V396.01ZM403.03 403.98H406.48H409.97V399.4H403.03V403.98ZM403.03 412.14H409.97V407.4H406.48H403.03V412.14Z" fill="#1F1F1F"/>
<path d="M423.66 416.59C422.2 416.59 421.38 416.54 421.21 416.43C421.43 414.64 421.54 412.25 421.54 409.26V402.09V394.92C421.54 391.93 421.43 389.54 421.21 387.75C421.21 387.58 421.32 387.49 421.54 387.49C423.4 387.66 425.73 387.75 428.55 387.75H435.56V393.41C435.56 395.69 435.66 397.58 435.86 399.07C435.86 399.2 435.76 399.26 435.56 399.26C434.35 399.13 432.71 399.07 430.66 399.07H425.76V407.74C425.76 411.28 425.9 414.17 426.17 416.41C425.98 416.53 425.14 416.59 423.66 416.59ZM425.77 392.11H428.63H431.49V390.48H425.78V392.11H425.77ZM425.77 396.33H431.48V394.57H428.62H425.76V396.33H425.77ZM430.23 416.39C429.51 415.62 428.58 414.9 427.45 414.21C429.4 413.14 430.64 411.48 431.16 409.22H429.3C428.88 409.22 428.27 409.24 427.48 409.28C427.41 409.24 427.37 408.69 427.37 407.65C427.37 406.61 427.41 406.06 427.48 406.02C427.93 406.08 428.56 406.12 429.37 406.12H431.3V403.72H429.63C429.23 403.72 428.69 403.74 428 403.78C427.93 403.74 427.89 403.21 427.89 402.2C427.89 401.19 427.93 400.64 428 400.55C429.19 400.66 430.65 400.71 432.38 400.71H436.76H441.18C442.49 400.71 443.95 400.66 445.56 400.55C445.63 400.64 445.67 401.18 445.67 402.2C445.67 403.21 445.63 403.74 445.56 403.78C445.02 403.74 444.45 403.72 443.85 403.72H442.14V406.12H444.14C444.81 406.12 445.48 406.09 446.14 406.02C446.21 406.06 446.25 406.61 446.25 407.67C446.25 408.73 446.21 409.28 446.14 409.32C445.67 409.26 445 409.22 444.14 409.22H442.14V412.52C442.14 413.82 442.2 414.92 442.33 415.82C442.23 415.93 441.54 415.98 440.25 415.98C438.96 415.98 438.27 415.93 438.17 415.82C438.29 414.92 438.36 413.83 438.36 412.52V409.22H434.87C434.65 410.56 434.21 411.8 433.57 412.93C432.73 414.41 431.61 415.56 430.23 416.39ZM434.98 406.12H438.36V403.72H436.65H434.98V406.12ZM444.55 416.33C444.48 415.8 444.31 415.16 444.05 414.41C443.79 413.66 443.51 413.04 443.22 412.55C445.08 412.61 446.4 412.62 447.19 412.58C447.71 412.58 447.97 412.37 447.97 411.94V399.14H437.95V393.44C437.95 391.14 437.85 389.24 437.65 387.74C437.65 387.57 437.75 387.48 437.95 387.48C439.85 387.65 442.23 387.74 445.07 387.74H448.67C449.86 387.74 451.04 387.7 452.23 387.61C452.43 387.61 452.53 387.65 452.53 387.74C452.33 389.34 452.23 391.36 452.23 393.79V399.87V411.97C452.23 412.97 452.11 413.74 451.86 414.27C451.59 414.85 451.13 415.28 450.49 415.58C449.9 415.88 449.09 416.08 448.08 416.19C447.26 416.29 446.08 416.33 444.55 416.33ZM442.06 392.11H445H447.97V390.48H442.07V392.11H442.06ZM442.06 396.39H447.96V394.57H445H442.07V396.39H442.06Z" fill="#1F1F1F"/>
<path d="M460.28 416.43C459.54 415.6 458.68 414.79 457.72 414C460.84 413.64 463.83 413.04 466.7 412.21H463.43V405.14C462.02 405.8 460.58 406.32 459.13 406.71C458.44 405.64 457.61 404.73 456.64 403.96C459.63 403.32 462.33 402.34 464.73 401.02H461.32C460.55 401.02 459.43 401.06 457.94 401.15C457.87 401.09 457.83 400.61 457.83 399.73C457.83 398.85 457.87 398.36 457.94 398.27C459.13 398.38 460.56 398.43 462.24 398.43H466.54V397.5H464.39C463.67 397.5 462.95 397.53 462.24 397.6C462.17 397.56 462.13 397.2 462.13 396.53C462.13 395.86 462.17 395.5 462.24 395.46C462.76 395.52 463.48 395.56 464.39 395.56H466.54V394.63H461.83V393.67H458.16V388.33H471.7V387.43C471.7 387.2 471.67 386.87 471.63 386.44C472.62 386.4 473.62 386.41 474.64 386.47C475.88 386.56 476.5 386.69 476.5 386.89C476.2 387.1 476.05 387.34 476.05 387.59V388.33H482.88H489.74V393.67H486.1V394.63H481.28V395.56H483.58C484.35 395.56 485.1 395.53 485.84 395.46C485.91 395.5 485.95 395.86 485.95 396.53C485.95 397.2 485.91 397.56 485.84 397.6C485.3 397.54 484.54 397.5 483.58 397.5H481.28V398.43H485.66C486.95 398.43 488.39 398.38 490 398.27C490.07 398.36 490.11 398.84 490.11 399.73C490.11 400.62 490.07 401.09 490 401.15C489.01 401.07 488 401.02 486.96 401.02H483.92C486.07 402.19 488.51 403.05 491.23 403.58C490.24 404.37 489.36 405.34 488.6 406.49C487.19 406.11 485.82 405.57 484.48 404.89V412.22H481.44C485.23 413.18 487.93 413.91 489.57 414.4L485.93 416.45C483.26 415.51 479.77 414.51 475.47 413.44L477.18 412.22H470.46L472.35 413.34C470.91 414 469.05 414.62 466.75 415.2C464.59 415.73 462.44 416.15 460.28 416.43ZM462.1 392.55H466.55V392.04C466.55 391.98 466.55 391.88 466.55 391.75C466.52 391.6 466.51 391.48 466.51 391.4C467.4 391.36 468.32 391.37 469.26 391.43C470.42 391.52 471 391.65 471 391.85C470.7 391.94 470.55 392.05 470.55 392.2V392.55H477.23V392.04C477.23 391.98 477.23 391.88 477.23 391.75C477.2 391.6 477.19 391.48 477.19 391.4C478.08 391.36 479.01 391.37 479.97 391.43C481.13 391.52 481.71 391.65 481.71 391.85C481.41 391.94 481.26 392.05 481.26 392.2V392.55H485.64V391.14H473.84H462.1V392.55ZM467.41 404.84H480.32V403.88H473.86H467.4V404.84H467.41ZM467.41 407.56H480.32V406.6H473.86H467.4V407.56H467.41ZM467.41 410.35H473.87H480.33V409.33H467.42V410.35H467.41ZM468.52 402.03H474.27H480.02C479.72 401.82 479.33 401.479 478.83 401.009H469.66C469.38 401.319 468.99 401.66 468.52 402.03ZM470.56 395.53H477.24V394.6H473.9H470.56V395.53ZM470.56 398.41H477.24V397.48H473.9H470.56V398.41Z" fill="#1F1F1F"/>
<path d="M421.33 450.35H9.23999V495.649H421.33V450.35Z" fill="#D9F24F"/>
<path d="M27.79 484.95L28.75 478.009H27.15C26.78 478.009 26.25 478.029 25.55 478.069C25.48 478.029 25.44 477.49 25.44 476.47C25.44 475.45 25.48 474.919 25.55 474.899C26.14 474.939 26.74 474.959 27.33 474.959H29.15L29.78 470.58H28.07C27.7 470.58 27.14 470.6 26.4 470.64C26.33 470.6 26.29 470.06 26.29 469.02C26.29 467.99 26.33 467.449 26.4 467.399C26.85 467.459 27.48 467.5 28.29 467.5H30.22L31.15 461.359H34.3L33.45 467.5H38.13L39.06 461.359H42.21L41.39 467.5H43.06C43.46 467.5 44 467.479 44.69 467.439C44.76 467.459 44.8 467.99 44.8 469.02C44.8 470.06 44.76 470.59 44.69 470.64C44.1 470.6 43.48 470.58 42.83 470.58H40.94L40.31 474.959H42.09C42.51 474.959 43.09 474.939 43.83 474.899C43.9 474.919 43.94 475.449 43.94 476.479C43.94 477.509 43.9 478.05 43.83 478.1C43.36 478.04 42.7 478 41.86 478H39.89L38.93 484.939H35.66L36.62 478H31.98L31.46 481.49L30.98 484.95H27.79ZM32.39 474.959H37.07L37.7 470.58H33.02L32.69 472.79L32.39 474.959Z" fill="#1F1F1F"/>
<path d="M55.69 484.95V466.29L50.79 468.529L48.6 465.49L57.06 461.229H61.07V473.1V484.939H55.69V484.95Z" fill="#1F1F1F"/>
<path d="M77.55 484.95V466.29L72.65 468.529L70.46 465.49L78.92 461.229H82.93V473.1V484.939H77.55V484.95Z" fill="#1F1F1F"/>
<path d="M90.2 490.77L99.4 459.189H103.04L98.44 475L93.84 490.779H90.2V490.77Z" fill="#1F1F1F"/>
<path d="M110.98 484.95C111.23 480.68 111.86 477.149 112.87 474.359C113.93 471.309 115.74 468.259 118.29 465.209H112.09C110.36 465.209 108.3 465.29 105.93 465.43C105.86 465.32 105.82 464.6 105.82 463.25C105.82 461.91 105.86 461.189 105.93 461.109C107.17 461.219 108.69 461.27 110.49 461.27H115.05H124.18V464.12C121.19 467.28 119.17 470.42 118.13 473.56C117.29 476.08 116.74 479.87 116.5 484.95H110.98Z" fill="#1F1F1F"/>
<path d="M143.04 491.41C141.26 488.89 139.9 486.309 138.96 483.669C138 480.829 137.51 477.889 137.51 474.839C137.51 469.019 139.35 463.499 143.04 458.299L146.45 459.549C143.43 464.069 141.92 469.17 141.92 474.85C141.92 480.55 143.43 485.65 146.45 490.18L143.04 491.41Z" fill="#1F1F1F"/>
<path d="M150.24 474.83C150.17 474.68 150.13 473.889 150.13 472.459C150.13 471.029 150.17 470.219 150.24 470.029C153.04 470.289 156.75 470.41 161.37 470.41H172.58C176.29 470.41 180 470.279 183.71 470.029C183.78 470.219 183.82 471.029 183.82 472.459C183.82 473.889 183.78 474.68 183.71 474.83C181.63 474.64 178.85 474.54 175.36 474.54H166.97H158.58C155.82 474.55 153.04 474.64 150.24 474.83Z" fill="#1F1F1F"/>
<path d="M190.8 491.41L187.42 490.16C190.44 485.64 191.95 480.53 191.95 474.83C191.95 469.16 190.44 464.059 187.42 459.529L190.8 458.279C194.51 463.459 196.37 468.979 196.37 474.819C196.37 477.869 195.89 480.809 194.92 483.649C193.98 486.349 192.61 488.93 190.8 491.41Z" fill="#1F1F1F"/>
<path d="M210.06 466.479C209.99 466.329 209.95 465.659 209.95 464.479C209.95 463.299 209.99 462.66 210.06 462.58C211.1 462.69 212.36 462.74 213.85 462.74H217.67C216.85 461.42 215.95 460.269 214.96 459.279L219.08 458.029C220.74 459.569 221.86 460.949 222.46 462.189L220.75 462.729H231.77L230.32 462.279C231.8 460.589 232.9 459.099 233.62 457.799C234.83 458.119 235.93 458.519 236.92 458.979C237.96 459.469 238.39 459.81 238.22 460C238.1 460.13 237.93 460.22 237.74 460.29C237.37 460.38 237.01 460.61 236.66 460.99C235.92 461.8 235.37 462.38 235.03 462.72H239C240.19 462.72 241.5 462.67 242.93 462.56C243 462.65 243.04 463.279 243.04 464.459C243.04 465.639 243 466.309 242.93 466.459C240.9 466.269 238.17 466.169 234.73 466.169H226.49H218.25C215.52 466.189 212.78 466.289 210.06 466.479ZM214.37 487.859C212.96 487.859 212.19 487.81 212.07 487.7C212.24 486.31 212.33 484.7 212.33 482.87V478.04V473.209C212.33 471.379 212.24 469.769 212.07 468.379C212.07 468.209 212.16 468.12 212.33 468.12C214.11 468.29 216.36 468.379 219.08 468.379H225.83V484.16C225.83 484.99 225.72 485.63 225.5 486.08C225.28 486.57 224.87 486.94 224.28 487.2C223.39 487.6 221.69 487.81 219.2 487.81C218.95 486.79 218.49 485.71 217.83 484.58C219.31 484.64 220.4 484.649 221.1 484.609C221.5 484.609 221.69 484.44 221.69 484.1V480.77L220.21 482.43C219.25 481.6 218 480.84 216.46 480.16V483.939C216.46 485.429 216.52 486.69 216.65 487.72C216.53 487.8 215.78 487.859 214.37 487.859ZM221.68 474.58V471.569H219.05H216.45V474.45L217.86 472.879C219.31 473.349 220.59 473.92 221.68 474.58ZM221.68 479.759V475.79L220.38 477.29C219.46 476.54 218.15 475.829 216.45 475.149V478.99L217.56 477.77C218.18 477.96 218.91 478.259 219.75 478.669C220.42 478.989 221.06 479.359 221.68 479.759ZM230.69 481.87C229.28 481.87 228.52 481.83 228.43 481.74C228.55 480.84 228.62 479.759 228.62 478.479V475.22V471.959C228.62 470.719 228.56 469.589 228.43 468.569C229.44 468.529 230.51 468.54 231.62 468.6C232.96 468.69 233.62 468.82 233.62 469.02C233.03 470.04 232.73 471.069 232.73 472.089V476.919C232.73 478.759 232.82 480.37 232.99 481.75C232.87 481.83 232.1 481.87 230.69 481.87ZM232.7 487.79C232.45 486.64 231.93 485.429 231.14 484.169C233 484.279 234.44 484.299 235.48 484.229C236 484.209 236.26 484.019 236.26 483.649V475.709C236.26 472.659 236.14 469.98 235.89 467.68C237.03 467.64 238.17 467.649 239.3 467.709C240.68 467.799 241.38 467.929 241.38 468.129C240.79 469.149 240.49 470.18 240.49 471.2V475.74V483.68C240.49 484.66 240.37 485.4 240.12 485.89C239.85 486.4 239.37 486.809 238.67 487.109C237.58 487.569 235.59 487.79 232.7 487.79Z" fill="#1F1F1F"/>
<path d="M247.32 484.18L246.36 480.439C247.79 480.249 250.37 479.8 254.08 479.1L252.78 478.81C253.15 477.34 253.5 475.59 253.82 473.56C254.19 471.45 254.43 469.579 254.53 467.959C255.59 468.149 256.58 468.43 257.5 468.79C258.49 469.2 258.96 469.54 258.91 469.81C258.86 470.05 258.74 470.249 258.54 470.419C258.19 470.719 257.96 471.169 257.83 471.759C257.16 474.809 256.59 477.13 256.12 478.7L259.16 478.089L259.61 481.45C257.36 481.98 254.03 482.729 249.63 483.689C248.56 483.909 247.79 484.07 247.32 484.18ZM247.13 467.439C247.06 467.379 247.02 466.77 247.02 465.62C247.02 464.47 247.06 463.87 247.13 463.83C247.62 463.89 248.28 463.93 249.1 463.93H251.07V461.109C251.07 460.259 251.02 459.279 250.92 458.169C251.88 458.129 252.89 458.14 253.93 458.2C255.22 458.29 255.86 458.42 255.86 458.62C255.27 459.47 254.97 460.359 254.97 461.279V463.939H256.83C257.25 463.939 257.86 463.919 258.65 463.879C258.72 463.899 258.76 464.49 258.76 465.64C258.76 466.79 258.72 467.399 258.65 467.459C257.71 467.379 256.76 467.33 255.79 467.33H252.9H250.01C249.32 467.31 248.37 467.359 247.13 467.439ZM248.62 478.16C248.67 475.45 248.31 472.289 247.54 468.689L250.73 468.149C251.1 469.489 251.41 471.14 251.66 473.08C251.88 475.09 251.99 476.6 251.99 477.62L248.62 478.16ZM261.75 487.79C260.41 487.79 259.66 487.739 259.49 487.629C259.71 486.029 259.82 483.89 259.82 481.2V474.74H266.54C266.56 474.57 266.63 474.31 266.73 473.97C266.85 473.35 266.95 472.889 267.03 472.589H263.06C261.85 472.589 260.52 472.639 259.09 472.749C259.02 472.669 258.98 472.05 258.98 470.89C258.98 469.74 259.02 469.119 259.09 469.029C260.43 469.159 262.21 469.22 264.43 469.22H269.77H275.15C276.93 469.22 278.71 469.159 280.49 469.029C280.56 469.119 280.6 469.73 280.6 470.89C280.6 472.04 280.56 472.659 280.49 472.749C279.3 472.639 277.87 472.589 276.19 472.589H271.89L270.93 474.729H275.42C277.15 474.729 278.63 474.679 279.87 474.569C280.04 474.569 280.13 474.619 280.13 474.729C279.96 476.119 279.87 477.73 279.87 479.56V484.419C279.87 485.189 279.8 485.759 279.65 486.149C279.48 486.599 279.17 486.939 278.72 487.169C278 487.549 276.77 487.749 275.01 487.749C274.84 486.769 274.51 485.819 274.05 484.899V486.12C274.05 486.55 274.07 486.949 274.12 487.339C274.09 487.449 273.53 487.499 272.41 487.499C271.29 487.499 270.68 487.449 270.55 487.339C270.7 486.189 270.77 484.62 270.77 482.64V477.899H268.8V482.64C268.8 484.62 268.87 486.189 269.02 487.339C268.92 487.449 268.3 487.499 267.16 487.499C266.05 487.499 265.43 487.449 265.3 487.339C265.45 486.189 265.52 484.62 265.52 482.64V477.899H263.66V482.759C263.66 484.589 263.75 486.22 263.92 487.62C263.82 487.74 263.09 487.79 261.75 487.79ZM260.34 467.54V463.439C260.34 461.749 260.27 460.359 260.12 459.249C261.11 459.209 262.12 459.219 263.16 459.279C264.42 459.369 265.05 459.5 265.05 459.7C264.55 460.43 264.31 461.18 264.31 461.97V464.27H267.58V461.1C267.58 460.1 267.53 458.999 267.43 457.799C268.44 457.759 269.5 457.77 270.58 457.83C271.94 457.92 272.62 458.049 272.62 458.249C272.03 459.229 271.73 460.229 271.73 461.259V464.27H275.26V461.81C275.26 461.09 275.21 460.229 275.11 459.249C276.1 459.209 277.14 459.219 278.23 459.279C279.57 459.369 280.23 459.5 280.23 459.7C279.64 460.72 279.34 461.75 279.34 462.77V467.54H269.84H260.34ZM275.63 484.749C275.9 484.749 276.04 484.629 276.04 484.399V477.899H274.04V481.319V484.709C274.51 484.739 275.04 484.749 275.63 484.749Z" fill="#1F1F1F"/>
<path d="M286.51 485.359C285.47 484.809 284.37 484.349 283.21 483.979C284.13 482.289 284.77 479.82 285.14 476.56C286.13 476.71 287.02 476.92 287.81 477.2C288.7 477.48 289.13 477.719 289.11 477.939C289.08 478.089 288.99 478.229 288.81 478.359C288.56 478.589 288.4 478.939 288.33 479.379C288.26 479.869 288.09 480.609 287.85 481.589C287.45 483.139 287 484.399 286.51 485.359ZM291.22 487.919C289.91 487.919 289.17 487.869 288.99 487.759C289.21 486.159 289.32 484.02 289.32 481.33V474.87L283.94 475.189L283.57 471.859L286.28 471.759C286.77 471.229 287.33 470.569 287.95 469.779C286.91 468.389 285.45 466.929 283.57 465.399L285.61 462.779C285.91 462.989 286.2 463.22 286.5 463.45C287.66 461.42 288.54 459.569 289.13 457.879C290.14 458.199 291.06 458.61 291.88 459.1C292.75 459.63 293.1 460.029 292.96 460.279C292.84 460.469 292.65 460.629 292.4 460.759C291.95 460.969 291.57 461.349 291.25 461.879C290.46 463.199 289.67 464.419 288.87 465.529C289.29 465.939 289.71 466.38 290.13 466.87C291.34 465.21 292.46 463.46 293.47 461.62C294.43 461.98 295.31 462.42 296.1 462.93C296.92 463.51 297.24 463.909 297.06 464.149C296.94 464.319 296.74 464.449 296.47 464.529C296.02 464.699 295.62 465.03 295.25 465.52C293.27 468.08 291.59 470.119 290.2 471.629L293.87 471.5C293.42 470.67 292.99 469.93 292.57 469.29L295.65 468.109C297.41 470.729 298.52 472.989 298.99 474.859L295.72 476.2C295.62 475.77 295.45 475.2 295.2 474.47L293.12 474.6V481.189V484.49C293.12 485.77 293.18 486.86 293.31 487.75C293.23 487.87 292.53 487.919 291.22 487.919ZM295.38 483.439C295.23 482.539 294.95 481.549 294.53 480.459C294.08 479.179 293.65 478.109 293.23 477.259L296.42 476.359C297.43 478.259 298.23 480.259 298.8 482.379L295.38 483.439ZM296.53 487.25C296.46 487.06 296.42 486.369 296.42 485.189C296.42 484.009 296.46 483.399 296.53 483.379C297.07 483.419 297.63 483.439 298.2 483.439H299.87V469.04C299.87 465.03 299.72 461.829 299.42 459.439C299.42 459.249 299.57 459.149 299.87 459.149C301.8 459.339 304.38 459.439 307.63 459.439H311.53C313.04 459.439 314.32 459.389 315.39 459.279C315.59 459.279 315.69 459.329 315.69 459.439C315.49 461.019 315.39 463.009 315.39 465.419V471.439V483.439H316.61C316.88 483.439 317.29 483.419 317.83 483.379C317.9 483.399 317.94 483.999 317.94 485.169C317.94 486.339 317.9 486.97 317.83 487.06C316.54 486.93 314.77 486.87 312.52 486.87H307.18C303.61 486.87 300.06 486.99 296.53 487.25ZM304.06 467.31H307.51H311V462.859H304.06V467.31ZM304.06 475.279H307.51H311V470.7H304.06V475.279ZM304.06 483.439H311V478.7H307.51H304.06V483.439Z" fill="#1F1F1F"/>
<path d="M324.69 487.89C323.23 487.89 322.41 487.839 322.24 487.729C322.46 485.939 322.57 483.55 322.57 480.56V473.39V466.22C322.57 463.23 322.46 460.839 322.24 459.049C322.24 458.879 322.35 458.79 322.57 458.79C324.43 458.96 326.76 459.049 329.58 459.049H336.59V464.709C336.59 466.989 336.69 468.88 336.89 470.37C336.89 470.5 336.79 470.56 336.59 470.56C335.38 470.43 333.74 470.37 331.69 470.37H326.79V479.04C326.79 482.58 326.93 485.469 327.2 487.709C327.02 487.839 326.18 487.89 324.69 487.89ZM326.81 463.41H329.67H332.53V461.779H326.82V463.41H326.81ZM326.81 467.629H332.52V465.87H329.66H326.8V467.629H326.81ZM331.26 487.7C330.54 486.93 329.61 486.21 328.48 485.52C330.43 484.45 331.67 482.789 332.19 480.529H330.33C329.91 480.529 329.3 480.549 328.51 480.589C328.44 480.549 328.4 479.999 328.4 478.959C328.4 477.919 328.44 477.37 328.51 477.33C328.96 477.39 329.59 477.43 330.4 477.43H332.33V475.029H330.66C330.26 475.029 329.72 475.049 329.03 475.089C328.96 475.049 328.92 474.519 328.92 473.509C328.92 472.499 328.96 471.949 329.03 471.859C330.22 471.969 331.68 472.02 333.41 472.02H337.79H342.21C343.52 472.02 344.98 471.969 346.59 471.859C346.66 471.949 346.7 472.489 346.7 473.509C346.7 474.519 346.66 475.049 346.59 475.089C346.05 475.049 345.48 475.029 344.88 475.029H343.17V477.43H345.17C345.84 477.43 346.51 477.4 347.17 477.33C347.24 477.37 347.28 477.919 347.28 478.979C347.28 480.039 347.24 480.589 347.17 480.629C346.7 480.569 346.03 480.529 345.17 480.529H343.17V483.83C343.17 485.13 343.23 486.229 343.36 487.129C343.26 487.239 342.57 487.29 341.28 487.29C339.99 487.29 339.3 487.239 339.2 487.129C339.32 486.229 339.39 485.14 339.39 483.83V480.529H335.9C335.68 481.869 335.24 483.11 334.6 484.24C333.76 485.71 332.64 486.87 331.26 487.7ZM336.01 477.43H339.39V475.029H337.68H336.01V477.43ZM345.58 487.629C345.51 487.099 345.34 486.459 345.08 485.709C344.82 484.959 344.54 484.34 344.25 483.85C346.11 483.91 347.43 483.919 348.22 483.879C348.74 483.879 349 483.67 349 483.24V470.439H338.98V464.74C338.98 462.44 338.88 460.54 338.68 459.04C338.68 458.87 338.78 458.779 338.98 458.779C340.88 458.949 343.26 459.04 346.1 459.04H349.7C350.89 459.04 352.07 459 353.26 458.91C353.46 458.91 353.56 458.95 353.56 459.04C353.36 460.64 353.26 462.659 353.26 465.089V471.169V483.27C353.26 484.27 353.14 485.039 352.89 485.569C352.62 486.149 352.16 486.579 351.52 486.879C350.93 487.179 350.12 487.38 349.11 487.49C348.29 487.59 347.12 487.629 345.58 487.629ZM343.1 463.41H346.03H349V461.779H343.1V463.41ZM343.1 467.7H349V465.879H346.03H343.1V467.7Z" fill="#1F1F1F"/>
<path d="M361.32 487.73C360.58 486.9 359.72 486.089 358.76 485.299C361.88 484.939 364.87 484.339 367.74 483.509H364.47V476.44C363.06 477.1 361.62 477.619 360.17 478.009C359.48 476.939 358.65 476.029 357.68 475.259C360.67 474.619 363.37 473.639 365.77 472.319H362.36C361.59 472.319 360.47 472.36 358.98 472.45C358.91 472.39 358.87 471.909 358.87 471.029C358.87 470.149 358.91 469.659 358.98 469.569C360.17 469.679 361.6 469.73 363.28 469.73H367.58V468.799H365.43C364.71 468.799 363.99 468.83 363.28 468.9C363.21 468.86 363.17 468.5 363.17 467.83C363.17 467.16 363.21 466.799 363.28 466.759C363.8 466.819 364.52 466.86 365.43 466.86H367.58V465.93H362.87V464.97H359.2V459.63H372.74V458.73C372.74 458.5 372.71 458.17 372.67 457.74C373.66 457.7 374.66 457.71 375.68 457.77C376.92 457.86 377.54 457.99 377.54 458.19C377.24 458.4 377.09 458.64 377.09 458.89V459.63H383.92H390.78V464.97H387.14V465.93H382.32V466.86H384.62C385.39 466.86 386.14 466.829 386.88 466.759C386.95 466.799 386.99 467.16 386.99 467.83C386.99 468.5 386.95 468.86 386.88 468.9C386.34 468.84 385.58 468.799 384.62 468.799H382.32V469.73H386.7C387.99 469.73 389.43 469.679 391.04 469.569C391.11 469.659 391.15 470.139 391.15 471.029C391.15 471.919 391.11 472.39 391.04 472.45C390.05 472.37 389.04 472.319 388 472.319H384.96C387.11 473.489 389.55 474.35 392.27 474.88C391.28 475.67 390.4 476.64 389.64 477.79C388.23 477.41 386.86 476.87 385.52 476.19V483.52H382.48C386.27 484.48 388.97 485.21 390.61 485.7L386.97 487.75C384.3 486.81 380.81 485.81 376.51 484.74L378.22 483.52H371.5L373.39 484.64C371.95 485.3 370.09 485.92 367.79 486.5C365.62 487.04 363.47 487.45 361.32 487.73ZM363.14 463.86H367.59V463.35C367.59 463.29 367.59 463.19 367.59 463.06C367.56 462.91 367.55 462.79 367.55 462.71C368.44 462.67 369.36 462.68 370.3 462.74C371.46 462.83 372.04 462.96 372.04 463.16C371.74 463.25 371.59 463.359 371.59 463.509V463.86H378.27V463.35C378.27 463.29 378.27 463.19 378.27 463.06C378.24 462.91 378.23 462.79 378.23 462.71C379.12 462.67 380.05 462.68 381.01 462.74C382.17 462.83 382.75 462.96 382.75 463.16C382.45 463.25 382.3 463.359 382.3 463.509V463.86H386.68V462.45H374.88H363.12V463.86H363.14ZM368.44 476.15H381.35V475.19H374.89H368.43V476.15H368.44ZM368.44 478.87H381.35V477.91H374.89H368.43V478.87H368.44ZM368.44 481.65H374.9H381.36V480.63H368.45V481.65H368.44ZM369.56 473.33H375.31H381.06C380.76 473.12 380.37 472.78 379.87 472.31H370.7C370.41 472.63 370.02 472.97 369.56 473.33ZM371.6 466.83H378.28V465.9H374.94H371.6V466.83ZM371.6 469.71H378.28V468.779H374.94H371.6V469.71Z" fill="#1F1F1F"/>
<path d="M445.42 132.62C502.07 190.35 196.47 257.15 328.41 320.09" stroke="#F2E8DE" stroke-width="2" stroke-miterlimit="10"/>
<path d="M324.75 310.28L335.86 323L317.9 324.3L324.75 310.28Z" fill="#F2E8DE"/>
<path d="M445.42 138.74C448.8 138.74 451.54 136 451.54 132.62C451.54 129.24 448.8 126.5 445.42 126.5C442.04 126.5 439.3 129.24 439.3 132.62C439.3 136 442.04 138.74 445.42 138.74Z" fill="#F2E8DE"/>
</svg>
