<svg width="472" height="67" viewBox="0 0 472 67" fill="none" xmlns="http://www.w3.org/2000/svg">
<path d="M471.3 0.530029H0.710022V66.3H471.3V0.530029Z" fill="#4F26E9"/>
<path d="M75.37 18.4099H89.15V24.46C87.28 26.4 84.9 28.2701 82.43 29.8201C85.79 30.4801 89.41 30.96 93.96 31.25L91.07 38.1499C90.05 37.9999 89.07 37.7801 88.35 37.6001V50.26H80.31V49.4199H67.38V50.26H59.42V37.79C58.57 38.01 57.8 38.23 56.65 38.45L53.89 31.8501C58.1 31.7001 62.57 31.0799 66.35 29.9099C65.16 29.3599 64.18 28.7 63.33 28C62.05 28.84 60.78 29.5801 59.29 30.3101L54.23 24.5901C59.85 22.2401 64.14 19.2301 66.99 16.1201L76.26 17.6599C75.92 17.9699 75.71 18.1499 75.37 18.4099ZM67.28 41.6699V43.6499H80.43V41.6699H67.28ZM74.3 33.6001C72.81 34.3701 70.56 35.32 68.39 35.95H80.9C78.13 35.32 76.05 34.4401 74.3 33.6001ZM74.35 27.1399C75.58 26.5199 76.77 25.67 77.75 24.72H70.14C71.2 25.56 72.69 26.5199 74.35 27.1399Z" fill="#F2E8DE"/>
<path d="M118.51 16.1001L125.87 17.75C125.7 18.01 125.53 18.2601 125.27 18.5601H134.54V23.3999C133.14 25.5599 132.03 27.03 130.2 28.76C132.24 29.6 134.03 30.1899 136.37 30.6699L132.88 35.6201H134.2V50.26H127.18V49.3101H121.82V50.26H114.67V35.51H115.52L112.84 31C115.18 30.67 117.05 30.2301 119.52 29.3501C118.54 28.6501 117.99 28.36 117.39 27.77C117.01 28.32 116.71 28.58 116.24 29.05L114.11 27.1399V30.73H110.79V32.8899H113.68V38.8301H110.79V41.3601C112.15 41.1401 112.66 40.9599 113.94 40.6599L114.24 46.97C108.84 48.03 105.52 48.7301 98.37 49.8701L96.5 43.1201L98.07 43.05V32.3H103.3V42.5L104.28 42.3899V30.72H97.56V17.6201H114.11V22.3201C115.83 20.3901 117.19 18.4801 118.51 16.1001ZM104.13 25.45H107.58V22.8799H104.13V25.45ZM124.76 33.05C123.27 34.04 121.57 34.8801 119.78 35.6201H129.39C127.65 34.8801 126.25 34.04 124.76 33.05ZM124.46 25.6001C125.05 25.0501 125.48 24.4301 125.86 23.8401H121.61C122.42 24.5701 123.53 25.1201 124.46 25.6001ZM121.7 41.45V43.5H127.23V41.45H121.7Z" fill="#F2E8DE"/>
<path d="M165.44 18.48H178.16V23.76H167.74L172.8 24.46C172.59 25.41 172.29 26.2599 171.95 27.1399H178.54V32.46H177.65C177.35 36.13 176.46 39.3901 175.06 42.0701C176.04 43.3901 177.36 44.4199 179.02 45.1899L175.49 50.3601C173.66 49.2201 172.17 47.6499 171.24 45.9199C170.18 47.5699 168.69 49.1099 166.73 50.4299L164.43 47.6101C164.01 48.7101 162.77 50.1799 157.24 50.1799L156.77 47.8H153.11V36.5801H158.98V45.1599C159.45 45.1599 159.62 45.05 159.62 44.76V35.77H152.52V50.1899H147.5V31.1499H149.71C149.03 29.6099 148.14 28.2201 147.16 26.8601V33.6799C147.16 39.8399 146.99 45.79 144.61 50.77L139.25 46.55C141.33 42.55 141.29 36.39 141.29 31V18.49H155.75C155.54 17.98 155.41 17.61 155.15 17.24L164.76 16.0701C165.05 16.9401 165.22 17.71 165.44 18.48ZM166.29 23.77H147.15V26.1499L150.47 24.3899C151.41 25.4899 152.26 26.63 153.06 27.8V24.1299H159.02V28.2C159.83 27.06 160.51 25.7099 160.98 24.3899L164.98 25.6699C164.21 27.6899 163.23 29.6001 162.17 31.1001L159.02 29.74V31.1299H163.74C165.01 28.6799 165.86 26.22 166.29 23.77ZM153.06 31.1399V29.5601L149.87 31.1399H153.06ZM155.65 43.79H156.42V40.5601H155.65V43.79ZM167.9 41.5601C166.79 40.1301 165.9 38.37 165.18 35.98L164.63 35.5801V44.75C165.95 43.91 167.05 42.8801 167.9 41.5601ZM171.35 37.45C171.82 35.95 172.07 34.4399 172.16 32.4199H170.5L170.2 33.1201C170.29 34.6601 170.71 36.09 171.35 37.45Z" fill="#F2E8DE"/>
<path d="M220.49 24.6799H213.13L212.41 26.95H219.39V45.25C219.39 48.4 217.99 49.69 214.45 49.98C212.15 50.16 209.86 50.2 207.64 50.2L207.04 48.48H193.26V40.74L192.2 41.4399L191.01 39.6799V50.1699H183.65V26.95H190.16L189.56 24.6799H182.54V18.8501H197.05C196.75 18.0801 196.5 17.71 196.16 17.05L205.48 16.1299L205.99 18.8401H220.5V24.6799H220.49ZM194.03 32.5701H191.01V35.54C192.67 34.73 193.43 33.9301 194.03 32.5701ZM197.98 24.6799L198.53 26.95H203.93L204.7 24.6799H197.98ZM198.71 36.6399H202.96V32.5701H200.92C200.41 34.4401 199.6 35.5799 198.71 36.6399ZM199.52 43.5801H203.52V41.49H199.52V43.5801ZM210.92 35.1699H212.03V32.5701H209.52V34.1799C209.51 35.0299 209.68 35.1699 210.92 35.1699ZM211.17 43.9099C211.85 43.9099 212.02 43.73 212.02 43.29V40.21H209.77V43.8799C210.24 43.9099 210.75 43.9099 211.17 43.9099Z" fill="#F2E8DE"/>
<path d="M231.89 33.05H237.93C237.93 36.42 237.85 39.91 237.63 43.25C237.46 46 236.74 47.8001 235.59 48.6101C234.06 49.7101 232.66 50.1499 226.44 50.1499L224.61 43.4399C226.95 43.7299 228.14 43.77 228.82 43.77C229.67 43.77 230.22 43.3299 230.35 42.8899C230.69 41.7199 230.73 40.6901 230.82 38.8501H224.86C225.28 34.3401 225.58 30.01 225.71 25.5H230.9V23.3401H224.73V17.47H237.49V31.26H232L231.89 33.05ZM248.57 21.8999C250.27 21.9399 252.02 21.9001 253.72 21.8301C253.29 20.9101 252.83 20.3599 252.36 19.6299L258.53 17.28C260.53 20.36 262.1 23.15 263.59 26.27L257.46 28.73H261.67V41.1699H260.73C261.88 43.2599 263.15 45.83 264.01 48.25L258.01 50.52C257.84 49.82 257.54 49.0201 257.29 48.3201C251.63 48.8001 245.68 49.2399 239.21 49.6399L237.89 43.0701C240.87 43.1801 243.8 43.29 246.7 43.25V41.05L238.74 41.0901V28.73H246.7V27.4099C244.45 27.5899 241.47 27.6701 238.96 27.8101L237.94 21.79L241.13 21.97C242.24 20.03 242.75 18.2299 243.26 16.1699L250.75 17.6699C250.02 19.2899 249.29 20.6899 248.57 21.8999ZM244.95 35.95H246.91V33.8201H244.95V35.95ZM253.46 35.95H255.5V33.8201H253.46V35.95ZM255.85 26.7C255.13 26.77 254.4 26.8499 253.68 26.8799V28.71H256.74C256.48 28.06 256.19 27.36 255.85 26.7ZM254.82 41.78L257.41 41.05H253.67V43.21C255.07 43.14 254.56 43.2101 255.5 43.1001C255.38 42.7701 255.04 42.18 254.82 41.78Z" fill="#F2E8DE"/>
<path d="M274.44 33.05H280.48C280.48 36.42 280.4 39.91 280.18 43.25C280.01 46 279.29 47.8001 278.14 48.6101C276.61 49.7101 275.2 50.1499 268.99 50.1499L267.16 43.4399C269.5 43.7299 270.69 43.77 271.37 43.77C272.22 43.77 272.77 43.3299 272.9 42.8899C273.24 41.7199 273.28 40.6901 273.37 38.8501H267.41C267.83 34.3401 268.13 30.01 268.26 25.5H273.45V23.3401H267.28V17.47H280.04V31.26H274.55L274.44 33.05ZM291.12 21.8999C292.82 21.9399 294.57 21.9001 296.27 21.8301C295.84 20.9101 295.38 20.3599 294.91 19.6299L301.08 17.28C303.08 20.36 304.65 23.15 306.14 26.27L300.01 28.73H304.22V41.1699H303.28C304.43 43.2599 305.7 45.83 306.56 48.25L300.56 50.52C300.39 49.82 300.09 49.0201 299.84 48.3201C294.18 48.8001 288.23 49.2399 281.76 49.6399L280.44 43.0701C283.42 43.1801 286.35 43.29 289.25 43.25V41.05L281.29 41.0901V28.73H289.25V27.4099C287 27.5899 284.02 27.6701 281.51 27.8101L280.49 21.79L283.68 21.97C284.79 20.03 285.3 18.2299 285.81 16.1699L293.3 17.6699C292.56 19.2899 291.84 20.6899 291.12 21.8999ZM287.5 35.95H289.46V33.8201H287.5V35.95ZM296.01 35.95H298.05V33.8201H296.01V35.95ZM298.39 26.7C297.67 26.77 296.94 26.8499 296.22 26.8799V28.71H299.28C299.03 28.06 298.73 27.36 298.39 26.7ZM297.37 41.78L299.96 41.05H296.22V43.21C297.62 43.14 297.11 43.2101 298.05 43.1001C297.92 42.7701 297.58 42.18 297.37 41.78Z" fill="#F2E8DE"/>
<path d="M335.87 34.6201V34.1399L333.28 34.8401H335.58V39.3501C335.58 45.1101 333.79 48.2999 327.33 50.4299L323.54 46.21C326.09 45.81 327.67 45.1499 328.52 44.1899H324.35V34.8401H329.33V39.1699H330.52V34.8401H333.03C332.99 34.4701 332.86 34.1401 332.78 33.8501C329.84 34.2201 326.87 34.51 323.68 34.8L323.38 33.04V50.24H317.93V44.8101C315.76 45.4301 313.63 45.98 310.95 46.53L309.29 40.3301C309.93 40.2901 310.48 40.2599 310.95 40.1799V23.23H309.8V17.3601H324.26V19.8899C324.6 20.2199 324.9 20.5499 325.28 20.8799C326.77 19.2299 327.75 18.09 328.94 16.22L333.15 18.49C331.58 20.58 330.43 21.94 328.81 23.48L329.62 24.1799C330.94 22.8999 332 21.6899 333.32 19.6699L334.26 20.3701L335.11 19.1201C335.54 19.4501 335.88 19.7101 336.34 20.1101C337.79 18.6801 338.59 17.7299 339.66 16.1499L343.96 18.5701C342.56 20.2201 341.32 21.43 339.79 22.79C340.26 23.12 340.68 23.4501 341.15 23.8501C342.47 22.6001 343.66 21.2801 344.85 19.5601L348.81 22.6399C346.26 25.3499 343.96 27.48 341.24 29.72C342.18 29.65 343.07 29.61 344.01 29.54C343.84 28.84 343.71 28.4799 343.5 27.9299L347.07 27.1201C347.96 29.7601 348.3 31.0101 348.94 33.8301L344.52 34.75C344.44 34.27 344.35 33.9801 344.22 33.5801C341.62 33.9601 338.81 34.3301 335.87 34.6201ZM317.92 36.8301H315.62V39.54C316.39 39.43 316.94 39.3201 317.92 39.1001V36.8301ZM317.92 23.1799H316V25.3401H317.92V23.1799ZM317.92 30H316V31.9399H317.92V30ZM325.79 27.95C324.94 27.14 324.17 26.5199 323.37 25.8999V29.8601H323.84C324.64 29.2301 325.2 28.68 325.79 27.95ZM332.6 29.6699C332.52 29.0499 332.39 28.61 332.17 28.02C331.57 28.61 330.94 29.19 330.21 29.78C331.02 29.78 331.75 29.7499 332.6 29.6699ZM335.92 29.05C336.6 28.54 337.32 27.8 338.05 26.96C337.11 26.15 336.35 25.5701 335.24 24.8701C334.22 25.9701 333.32 26.9199 332.3 27.8799L335.45 27.22C335.66 27.88 335.79 28.39 335.92 29.05ZM342.94 34.8101H348V45.04H342.04V50.25H336.55V34.8101H341.91V39.6899H342.93V34.8101H342.94Z" fill="#F2E8DE"/>
<path d="M376.55 24.21V26.3701H389.31V32.3101H376.55V34.0701H391.14V40.45H376.55V45.9199C376.55 49.1499 373.44 50.21 363.53 50.25L361.06 43.21C363.4 43.43 364.63 43.54 366.85 43.54C367.62 43.54 367.96 43.28 367.96 42.77V40.46H352.26V34.0801H367.96V32.3201H354.43V26.3799H367.96V24.47C364.09 24.65 360.13 24.8 355.33 24.95L353.76 18.6399C364.44 18.5699 375.97 17.91 385.41 16.77L388.13 23.4099C384.93 23.7299 380.93 24.02 376.55 24.21Z" fill="#F2E8DE"/>
<path d="M411.44 34.9199C410.59 34.3299 409.65 33.0499 409.65 31.9099C409.65 29.8599 411.44 28.24 413.82 28.24C416.5 28.24 418.12 30.2199 418.12 32.3799C418.12 36.7099 413.57 39.6101 411.57 40.8501L408.04 37.51C409.44 36.68 411.1 35.4999 411.44 34.9199Z" fill="#F2E8DE"/>
</svg>
