<svg width="846" height="67" viewBox="0 0 846 67" fill="none" xmlns="http://www.w3.org/2000/svg">
<path d="M845.71 0.590088H0.109985V66.5301H845.71V0.590088Z" fill="#4F26E9"/>
<path d="M32.95 22.5699H43.09V27.0199C41.71 28.4499 39.96 29.8299 38.14 30.9599C40.61 31.4499 43.27 31.7999 46.62 32.0099L44.49 37.0899C43.74 36.9799 43.02 36.8199 42.49 36.6799V45.9999H36.57V45.3799H27.05V45.9999H21.2V36.8199C20.57 36.9799 20.01 37.1399 19.16 37.3099L17.12 32.4499C20.22 32.3399 23.51 31.8799 26.29 31.0199C25.41 30.6099 24.69 30.1299 24.07 29.6199C23.13 30.2399 22.19 30.7799 21.1 31.3199L17.37 27.1099C21.5 25.3799 24.67 23.1699 26.76 20.8699L33.59 21.9999C33.36 22.2499 33.2 22.3799 32.95 22.5699ZM27 39.6799V41.1399H36.68V39.6799H27ZM32.17 33.7399C31.07 34.3099 29.41 35.0099 27.82 35.4699H37.03C34.99 35.0099 33.45 34.3699 32.17 33.7399ZM32.2 28.9899C33.11 28.5299 33.98 27.9099 34.7 27.2099H29.1C29.88 27.8299 30.98 28.5399 32.2 28.9899Z" fill="#F2E8DE"/>
<path d="M64.7 20.8699L70.12 22.0799C70 22.2699 69.87 22.4599 69.68 22.6699H76.51V26.2299C75.48 27.8199 74.66 28.8999 73.32 30.1699C74.82 30.7899 76.14 31.2199 77.86 31.5699L75.29 35.2099H76.26V45.9999H71.09V45.2999H67.14V45.9999H61.88V35.1499H62.51L60.54 31.8299C62.26 31.5899 63.64 31.2599 65.46 30.6199C64.74 30.1099 64.33 29.8899 63.89 29.4599C63.61 29.8699 63.39 30.0499 63.04 30.4099L61.47 29.0099V31.6599H59.03V33.2499H61.16V37.6199H59.03V39.4799C60.03 39.3199 60.41 39.1799 61.35 38.9699L61.57 43.6099C57.59 44.3899 55.15 44.9099 49.89 45.7399L48.51 40.7699L49.67 40.7199V32.8099H53.52V40.3099L54.24 40.2299V31.6499H49.29V21.9999H61.47V25.4599C62.73 24.0299 63.73 22.6199 64.7 20.8699ZM54.12 27.7499H56.66V25.8599H54.12V27.7499ZM69.3 33.3399C68.2 34.0699 66.95 34.6899 65.64 35.2299H72.72C71.43 34.6899 70.4 34.0699 69.3 33.3399ZM69.08 27.8599C69.52 27.4499 69.83 26.9999 70.11 26.5599H66.98C67.58 27.1099 68.39 27.5099 69.08 27.8599ZM67.05 39.5199V41.0299H71.12V39.5199H67.05Z" fill="#F2E8DE"/>
<path d="M99.23 22.6201H108.59V26.5101H100.92L104.65 27.0201C104.49 27.7201 104.27 28.3401 104.02 28.9901H108.87V32.9001H108.21C107.99 35.6001 107.33 38.0001 106.3 39.9701C107.02 40.9401 107.99 41.7001 109.21 42.2601L106.61 46.0701C105.26 45.2301 104.17 44.0701 103.48 42.8001C102.7 44.0101 101.6 45.1501 100.16 46.1201L98.47 44.0401C98.16 44.8501 97.25 45.9301 93.18 45.9301L92.84 44.1801H90.15V35.9201H94.47V42.2401C94.81 42.2401 94.94 42.1601 94.94 41.9401V35.3301H89.71V45.9401H86.02V31.9301H87.65C87.15 30.8001 86.49 29.7701 85.77 28.7701V33.7901C85.77 38.3301 85.64 42.7001 83.89 46.3701L79.95 43.2701C81.48 40.3301 81.45 35.7901 81.45 31.8301V22.6201H92.1C91.94 22.2401 91.85 21.9701 91.66 21.7001L98.74 20.8401C98.95 21.4901 99.08 22.0601 99.23 22.6201ZM99.86 26.5101H85.77V28.2601L88.21 26.9601C88.9 27.7701 89.53 28.6101 90.12 29.4701V26.7701H94.5V29.7701C95.09 28.9301 95.6 27.9301 95.94 26.9601L98.88 27.9101C98.32 29.3901 97.6 30.8001 96.81 31.9101L94.49 30.9101V31.9401H97.97C98.92 30.1301 99.55 28.3201 99.86 26.5101ZM90.12 31.9401V30.7801L87.77 31.9401H90.12ZM92.03 41.2501H92.59V38.8701H92.03V41.2501ZM101.05 39.6001C100.24 38.5501 99.58 37.2501 99.05 35.5001L98.64 35.2001V41.9501C99.61 41.3301 100.42 40.5701 101.05 39.6001ZM103.59 36.5801C103.93 35.4701 104.12 34.3701 104.18 32.8801H102.96L102.74 33.3901C102.8 34.5301 103.12 35.5801 103.59 36.5801Z" fill="#F2E8DE"/>
<path d="M139.75 27.1899H134.33L133.8 28.8599H138.93V42.3299C138.93 44.6499 137.9 45.5999 135.3 45.8099C133.61 45.9399 131.92 45.9699 130.29 45.9699L129.85 44.6999H119.7V38.9999L118.92 39.5099L118.04 38.2199V45.9399H112.62V28.8499H117.41L116.97 27.1799H111.8V22.8899H122.48C122.26 22.3199 122.07 22.0499 121.82 21.5699L128.68 20.8999L129.06 22.8999H139.74V27.1899H139.75ZM120.28 32.9899H118.06V35.1799C119.27 34.5799 119.84 33.9899 120.28 32.9899ZM123.19 27.1899L123.6 28.8599H127.58L128.14 27.1899H123.19ZM123.72 35.9899H126.85V32.9899H125.35C124.97 34.3699 124.38 35.1999 123.72 35.9899ZM124.31 41.0899H127.25V39.5499H124.31V41.0899ZM132.71 34.9099H133.52V32.9899H131.67V34.1799C131.67 34.7999 131.8 34.9099 132.71 34.9099ZM132.89 41.3299C133.39 41.3299 133.52 41.1999 133.52 40.8699V38.5999H131.86V41.2999C132.2 41.3299 132.58 41.3299 132.89 41.3299Z" fill="#F2E8DE"/>
<path d="M148.14 33.3399H152.59C152.59 35.8199 152.53 38.3899 152.37 40.8399C152.24 42.8599 151.71 44.1899 150.87 44.7799C149.74 45.5899 148.71 45.9099 144.14 45.9099L142.79 40.9699C144.51 41.1899 145.39 41.2099 145.89 41.2099C146.52 41.2099 146.92 40.8899 147.02 40.5599C147.27 39.6999 147.3 38.9399 147.36 37.5899H142.98C143.29 34.2699 143.51 31.0799 143.61 27.7599H147.43V26.1699H142.89V21.8499H152.28V31.9999H148.24L148.14 33.3399ZM160.42 25.1299C161.67 25.1599 162.96 25.1299 164.21 25.0799C163.9 24.4099 163.55 23.9999 163.21 23.4599L167.75 21.7299C169.22 23.9999 170.38 26.0499 171.48 28.3399L166.97 30.1499H170.07V39.2999H169.38C170.23 40.8399 171.17 42.7299 171.79 44.5099L167.37 46.1799C167.25 45.6699 167.03 45.0699 166.84 44.5599C162.68 44.9099 158.29 45.2299 153.53 45.5299L152.56 40.6999C154.75 40.7799 156.91 40.8599 159.04 40.8399V39.2199L153.19 39.2499V30.1499H159.04V29.1799C157.38 29.3099 155.19 29.3699 153.34 29.4799L152.59 25.0499L154.94 25.1799C155.75 23.7499 156.13 22.4299 156.51 20.9199L162.02 22.0299C161.48 23.2199 160.95 24.2399 160.42 25.1299ZM157.75 35.4699H159.19V33.8999H157.75V35.4699ZM164.02 35.4699H165.52V33.8999H164.02V35.4699ZM165.77 28.6699C165.24 28.7199 164.71 28.7799 164.17 28.7999V30.1499H166.42C166.24 29.6699 166.02 29.1599 165.77 28.6699ZM165.02 39.7599L166.93 39.2199H164.17V40.8099C165.2 40.7599 164.83 40.8099 165.52 40.7299C165.43 40.4899 165.17 40.0599 165.02 39.7599Z" fill="#F2E8DE"/>
<path d="M179.45 33.3399H183.9C183.9 35.8199 183.84 38.3899 183.68 40.8399C183.55 42.8599 183.02 44.1899 182.18 44.7799C181.05 45.5899 180.02 45.9099 175.45 45.9099L174.1 40.9699C175.82 41.1899 176.7 41.2099 177.2 41.2099C177.83 41.2099 178.23 40.8899 178.33 40.5599C178.58 39.6999 178.61 38.9399 178.67 37.5899H174.29C174.6 34.2699 174.82 31.0799 174.92 27.7599H178.74V26.1699H174.2V21.8499H183.59V31.9999H179.55L179.45 33.3399ZM191.73 25.1299C192.98 25.1599 194.27 25.1299 195.52 25.0799C195.21 24.4099 194.86 23.9999 194.52 23.4599L199.06 21.7299C200.53 23.9999 201.69 26.0499 202.79 28.3399L198.28 30.1499H201.38V39.2999H200.69C201.54 40.8399 202.48 42.7299 203.1 44.5099L198.68 46.1799C198.56 45.6699 198.34 45.0699 198.15 44.5599C193.99 44.9099 189.6 45.2299 184.84 45.5299L183.87 40.6999C186.06 40.7799 188.22 40.8599 190.35 40.8399V39.2199L184.5 39.2499V30.1499H190.35V29.1799C188.69 29.3099 186.5 29.3699 184.65 29.4799L183.9 25.0499L186.25 25.1799C187.06 23.7499 187.44 22.4299 187.82 20.9199L193.33 22.0299C192.79 23.2199 192.26 24.2399 191.73 25.1299ZM189.06 35.4699H190.5V33.8999H189.06V35.4699ZM195.33 35.4699H196.83V33.8999H195.33V35.4699ZM197.08 28.6699C196.55 28.7199 196.02 28.7799 195.48 28.7999V30.1499H197.73C197.55 29.6699 197.33 29.1599 197.08 28.6699ZM196.33 39.7599L198.24 39.2199H195.48V40.8099C196.51 40.7599 196.14 40.8099 196.83 40.7299C196.74 40.4899 196.49 40.0599 196.33 39.7599Z" fill="#F2E8DE"/>
<path d="M224.66 34.4999V34.1499L222.75 34.6599H224.44V37.9799C224.44 42.2199 223.13 44.5699 218.37 46.1299L215.58 43.0299C217.46 42.7299 218.62 42.2499 219.24 41.5399H216.17V34.6599H219.83V37.8499H220.71V34.6599H222.56C222.53 34.3899 222.43 34.1499 222.37 33.9299C220.21 34.1999 218.02 34.4199 215.67 34.6299L215.45 33.3399V45.9999H211.44V41.9999C209.84 42.4599 208.28 42.8599 206.31 43.2699L205.09 38.7099C205.56 38.6799 205.97 38.6599 206.31 38.5999V26.1299H205.46V21.8099H216.11V23.6699C216.36 23.9099 216.58 24.1599 216.86 24.3999C217.96 23.1899 218.68 22.3499 219.55 20.9699L222.65 22.6399C221.49 24.1799 220.65 25.1799 219.46 26.3099L220.06 26.8199C221.03 25.8799 221.81 24.9899 222.78 23.4999L223.47 24.0099L224.1 23.0899C224.41 23.3299 224.66 23.5199 225.01 23.8199C226.07 22.7699 226.67 22.0699 227.45 20.8999L230.61 22.6799C229.58 23.8899 228.67 24.7899 227.54 25.7799C227.88 26.0199 228.2 26.2699 228.54 26.5599C229.51 25.6399 230.39 24.6699 231.26 23.3999L234.17 25.6699C232.29 27.6699 230.6 29.2299 228.6 30.8799C229.29 30.8299 229.95 30.7999 230.64 30.7499C230.52 30.2399 230.42 29.9699 230.26 29.5599L232.89 28.9699C233.55 30.9099 233.8 31.8299 234.27 33.9099L231.01 34.5799C230.95 34.2299 230.88 34.0099 230.79 33.7199C228.89 34.0199 226.83 34.2799 224.66 34.4999ZM211.45 36.1199H209.76V38.1199C210.32 38.0399 210.73 37.9599 211.45 37.7999V36.1199ZM211.45 26.0799H210.04V27.6699H211.45V26.0799ZM211.45 31.0999H210.04V32.5299H211.45V31.0999ZM217.24 29.5899C216.61 28.9999 216.05 28.5399 215.45 28.0799V30.9999H215.79C216.4 30.5299 216.81 30.1299 217.24 29.5899ZM222.25 30.8599C222.19 30.3999 222.09 30.0799 221.94 29.6499C221.5 30.0799 221.03 30.5099 220.5 30.9499C221.1 30.9399 221.63 30.9099 222.25 30.8599ZM224.7 30.3999C225.2 30.0199 225.73 29.4799 226.27 28.8599C225.58 28.2699 225.02 27.8299 224.2 27.3199C223.45 28.1299 222.79 28.8299 222.04 29.5299L224.36 29.0399C224.51 29.5299 224.6 29.9099 224.7 30.3999ZM229.86 34.6399H233.59V42.1699H229.21V45.9999H225.17V34.6399H229.12V38.2299H229.87V34.6399H229.86Z" fill="#F2E8DE"/>
<path d="M254.6 26.8301V28.4201H263.99V32.7901H254.6V34.0901H265.34V38.7901H254.6V42.8101C254.6 45.1901 252.31 45.9701 245.02 46.0001L243.2 40.8201C244.92 40.9801 245.83 41.0601 247.46 41.0601C248.02 41.0601 248.27 40.8701 248.27 40.4901V38.7901H236.72V34.0901H248.27V32.7901H238.31V28.4201H248.27V27.0201C245.42 27.1501 242.51 27.2601 238.97 27.3701L237.81 22.7301C245.67 22.6801 254.15 22.1901 261.11 21.3501L263.11 26.2401C260.77 26.4801 257.82 26.7001 254.6 26.8301Z" fill="#F2E8DE"/>
<path d="M280.27 34.7201C279.64 34.2901 278.96 33.3401 278.96 32.5101C278.96 31.0001 280.27 29.8101 282.03 29.8101C284 29.8101 285.19 31.2701 285.19 32.8601C285.19 36.0501 281.84 38.1801 280.37 39.1001L277.77 36.6401C278.8 36.0101 280.02 35.1501 280.27 34.7201Z" fill="#F2E8DE"/>
<path d="M311.36 21.1899V24.4599H315.84V21.2199H322.04V24.4599H326.77V29.6199H322.04V32.7199H327.77V38.2299H320.16C322.82 39.1199 325.36 39.9799 328.11 41.0599L325.26 46.1099C322.29 44.4599 319.72 43.1899 316.21 41.7899L318.65 38.2299H308.66L311.42 41.7899C308.1 43.6499 305.28 44.9799 302.31 46.1899L299.27 41.4399C301.99 40.6299 304.81 39.5499 307.41 38.2299H299.55V32.7199H305.25V29.6199H300.52V24.4599H305.25V21.1899H311.36ZM311.36 29.6199V32.7199H315.84V29.6199H311.36Z" fill="#F2E8DE"/>
<path d="M354.7 45.6799C352.98 45.7899 351.19 45.8199 349.57 45.8199L348.47 42.4499H338.7V32.3999H351.32V40.5199C351.44 40.5499 352.17 40.5499 352.26 40.5499C352.76 40.5499 352.79 40.4399 352.79 40.0599V26.2699H337.1V45.9499H331.37V21.6799H358.52V42.1699C358.52 44.5399 357.39 45.4899 354.7 45.6799ZM337.73 27.2899H352.13V31.2899H337.73V27.2899ZM343.61 38.6299H346.4V36.1699H343.61V38.6299Z" fill="#F2E8DE"/>
<path d="M375.39 21.5999H385.72V26.4299C385.72 26.7299 385.75 27.4299 386.16 27.3999C386.63 27.3699 386.6 26.8899 386.6 26.3999L386.57 24.2899L390.8 25.2099C390.74 28.0199 390.42 29.4699 389.74 30.4199C389.11 31.3099 387.55 31.4199 386.61 31.4199H384.32C382.19 31.4199 381.25 30.8299 381.25 29.6399V26.0199H380.12C379.9 28.4499 379.43 30.2799 377.87 32.0899H389.11V36.2199C388.42 37.9999 387.42 39.3499 386.48 40.3799C387.86 40.6999 389.3 40.9199 390.9 40.9999L388.11 46.0699C385.82 45.5799 383.85 44.8799 381.88 43.8799C380.19 44.7399 378.15 45.5499 375.87 46.1699L373.24 42.6899V45.9299H368.86V45.4699H367.08V45.9299H362.51V37.2399H373.25V41.6399C374.44 41.5099 375.75 41.2099 376.94 40.7799C375.78 39.9699 374.75 39.1599 373.81 38.2199L377.03 36.2799H374.18V32.0699H376.87L373.43 29.8799V32.8499H362.4V29.5299H373.27C373.46 29.3099 373.65 29.1499 373.8 28.9399H361.87V24.9699H365.44C365.19 23.9199 364.91 23.3199 364.41 22.2399L369.89 20.8899C370.42 22.0799 370.7 22.7499 371.24 24.1799L368.52 24.9599H374.12V28.4699C375.3 26.5899 375.39 24.6999 375.39 21.5999ZM362.37 33.4199H373.39V36.7399H362.37V33.4199ZM367.16 40.5199V41.8699H368.85V40.5199H367.16ZM381.69 38.4999C382.35 37.9599 383.04 37.0699 383.47 36.2899H379.21C379.84 37.0699 380.84 37.9599 381.69 38.4999Z" fill="#F2E8DE"/>
<path d="M411.75 28.08V21.3H417.76V28.08H421.99V33.26H417.76V45.97H411.75V33.26H407.21V29.16H393.34V25.03H398.04C397.73 23.95 397.38 23.11 396.88 22.03L402.2 20.73C402.86 22.19 403.23 23.11 403.8 24.54L401.89 25.03H407.65V28.08H411.75ZM394.05 33.23V29.8H406.67V33.23H394.05ZM394.05 37.2V33.77H406.67V37.2H394.05ZM401.79 45.41H399.54V46H394.44V37.88H406.43V45.95H401.8V45.41H401.79ZM399.44 41.06V42.11H401.85V41.06H399.44Z" fill="#F2E8DE"/>
<path d="M435.95 27.8299V21.1399H441.96V27.8299H445.72V22.1899H451.48V32.9099H441.96V39.4399H446.47V34.0699H452.45V45.9999H446.44V44.6499H431.35V45.9999H425.31V34.0699H431.29V39.4399H435.96V32.9099H426.44V22.2999H432.2V27.8299H435.95Z" fill="#F2E8DE"/>
<path d="M462.56 45.2199C461.93 45.6799 460.18 45.8399 456.74 45.8699L455.64 40.7099C456.52 40.8499 457.11 40.8699 457.55 40.8699C458.02 40.8699 458.27 40.8699 458.27 40.4399V37.9599C457.68 38.0899 457.27 38.2299 456.39 38.3699L455.51 33.3199C456.61 33.2699 457.48 33.1599 458.26 33.0799V30.0599H455.79V25.2599H458.26V21.2399H463.33V25.2399H465.15V30.0699H463.33V32.4199C463.92 32.3099 464.27 32.2599 465.02 32.0699V36.5999C464.39 36.7599 463.96 36.8699 463.33 37.0099V43.2999C463.34 44.1899 463.13 44.7799 462.56 45.2199ZM468.14 27.2099H465.92V23.0299H471.65C471.49 22.5399 471.34 22.1399 471.12 21.7099L477.26 20.9299C477.45 21.6599 477.57 22.3099 477.7 23.0399H483.65V27.2199H481.27C481.15 27.6799 481.02 28.1399 480.83 28.6199H484.24V32.9099H477.23L476.85 33.6399H484.58V37.8999H482.42C481.89 38.9499 481.26 39.8399 480.51 40.7099C481.89 41.1399 483.26 41.6299 484.92 42.2799L481.54 46.2699C480.04 45.3499 478.1 44.5699 476.47 43.8699C474.37 44.8699 470.93 45.7099 467.08 46.2999L464.39 41.9499C466.36 41.9199 468.68 41.8399 470.37 41.4599C468.77 40.9999 467.15 40.5399 465.58 40.2999C466.42 39.4899 467.21 38.6799 467.93 37.8999H465.21V33.6399H470.88C471.04 33.3999 471.19 33.1799 471.29 32.9099H465.43V28.6199H468.66C468.51 28.1599 468.32 27.6699 468.14 27.2099ZM474.12 28.6199H475.69C475.85 28.1899 475.97 27.7799 476.13 27.2199H473.63C473.83 27.7299 473.93 28.0199 474.12 28.6199ZM476.31 37.8999H474.34C474.15 38.1699 473.96 38.3899 473.75 38.6299L475.32 39.0899C475.68 38.7099 475.93 38.3899 476.31 37.8999Z" fill="#F2E8DE"/>
<path d="M494.78 21.52V27.51H496.69V28.54C496.97 28.51 497.29 28.46 497.57 28.4V22.87H502.61V27.35L503.64 27.11V21.25H508.71V25.89L514.97 24.08C514.94 27.83 514.94 31.37 514.81 34.99C514.81 35.91 514.53 36.85 514.03 37.31C513.59 37.71 512.43 37.93 510.59 37.96L516.07 39.34C515.79 41.8 515.07 43.39 514.22 44.31C513.34 45.23 511.18 45.69 509.81 45.69C506.8 45.74 504.11 45.77 501.1 45.69C499.03 45.64 497.56 44.5 497.56 42.83V33.68L496.15 34.09L495.93 32.5H494.77V37.09C495.77 36.82 496.18 36.63 497.02 36.28V41.22C494.42 42.25 492.17 43.03 488.75 44.05L486.71 38.81C488.03 38.62 488.71 38.49 489.59 38.24V32.49H487.12V27.52H489.59V21.53H494.78V21.52ZM504.14 41.25C505.58 41.33 507.05 41.3 508.56 41.25C509.06 41.22 509.88 41.03 510.06 40.6C510.22 40.3 510.31 39.33 510.31 37.98L509.21 38.06L508.71 34.79V40.08H503.64V32.12L502.61 32.39V40.3C502.61 41.03 503.27 41.25 504.14 41.25ZM509.9 32.75V30.56L508.71 30.86V33.21L509.4 33.24C509.75 33.23 509.9 33.18 509.9 32.75Z" fill="#F2E8DE"/>
<path d="M527.38 22.06H546.79V25.43H525.09C524.9 25.67 524.87 25.73 524.68 25.89H543.59V28.51H524.02V26.97C523.36 27.78 523.02 28.2701 522.17 28.9901L543.77 28.9601C543.61 32.4401 543.61 34.74 543.89 38.06C544.01 39.52 544.2 40.03 544.42 40.03C544.61 40.03 544.95 39.49 545.39 38.03L547.74 43.1301C546.3 45.1 544.67 46.0701 543.51 46.0701C542.07 46.0701 540.38 44.34 539.82 42.72C539.07 40.59 538.85 37.67 538.72 32.43H534.59L537.19 33.59C536.41 34.7 535.91 35.32 535.22 35.97H538.41V39.94H534.62C535.87 40.91 536.94 41.2901 539.13 41.9901L536.47 46.01C534.25 44.96 532.68 43.74 531.34 42.34V46H526.11V42.54C524.45 44.11 523.04 45.02 520.79 46L518.38 42.28C520.63 41.61 521.79 41.0901 523.17 39.9601H518.91V35.9901H521.95C521.32 35.2901 520.76 34.7801 519.79 34.0701L522.2 32.45H519.48V28.97H520.98L518.13 26.22C520.23 24.84 521.73 22.76 522.61 20.8L527.65 21.69L527.38 22.06ZM533.64 32.45H523.3C524.49 33.29 525.02 33.77 526.12 34.69V32.7701H531.35V34.8801C532.32 34.0701 532.82 33.56 533.64 32.45ZM526.12 34.8L524.55 35.9901H526.12V34.8ZM533.17 35.9901L531.35 34.9901V35.9901H533.17Z" fill="#F2E8DE"/>
<path d="M559.34 24.5699H563.04V28.3799C564.39 26.4099 565.45 23.7899 566.2 21.1199L571.3 22.4999C570.92 23.4399 570.67 24.0399 570.3 24.7399H577.81C577.78 25.9299 577.75 27.7899 577.47 36.3699C577.34 40.0999 576.84 42.6099 575.62 44.0099C574.56 45.1999 571.33 45.8399 566.13 45.7599L564.78 40.7699C566.97 41.0699 568.76 41.1199 569.98 41.0899C571.04 41.0599 571.29 40.6299 571.61 39.8999C571.95 39.0899 572.27 35.1499 572.33 28.9899H568.45C567.79 30.3099 567.35 31.1499 566.51 32.3699L568.86 31.6399C570.11 34.0399 570.8 35.7699 571.65 37.9799L567.14 39.4599C566.64 37.5399 566.08 35.8199 565.23 34.0599C565.01 34.4099 564.79 34.7599 564.54 35.1099L563.04 33.7899V45.0499H558.22V44.0999H555.81V45.6399H550.8V24.5599H553.93C554.37 23.4299 554.62 22.3499 554.84 20.9199L560.29 21.9999C559.94 23.1099 559.69 23.6999 559.34 24.5699ZM555.62 28.9699V31.8599H558.22V28.9699H555.62ZM555.62 36.3599V39.4399H558.22V36.3599H555.62Z" fill="#F2E8DE"/>
<path d="M589.03 38.1199L591.79 37.7999C592.13 39.8799 592.29 41.3099 592.45 43.4699V37.1499L589.13 37.7999C589.07 37.2899 589.01 36.8599 588.91 36.4499C586.47 36.7999 584.78 36.9599 581.77 37.2599L580.89 33.2899C581.61 33.3399 582.39 33.3399 583.08 33.3199C583.67 32.6499 584.43 31.6699 585.02 30.6999C583.74 29.8099 582.42 29.0299 580.57 27.9999L582.54 25.0299L583.29 25.5199C584.13 24.1699 584.79 23.0599 585.39 21.3599L589.3 22.8699C588.27 24.7899 587.26 26.3499 586.39 27.4899C586.55 27.5699 586.8 27.7299 586.92 27.8399C587.7 26.8099 588.36 25.7099 589.05 24.3599L592.43 26.1099V21.8699H609.21V43.0899C609.21 44.9799 607.83 45.9499 602.63 45.9499L601.5 41.8699C602.53 41.9999 603.35 42.0599 604.1 42.0599C604.51 42.0599 604.73 41.9499 604.73 41.6499V37.4099H602.26V37.8399C602.26 38.3799 602.51 38.3299 603.17 38.3499H604.33V41.3199H599.91C598.69 41.3199 598.09 40.7499 598.09 39.7499V37.3999H597.12V45.9599H592.42V43.9999L589.41 44.3199C589.43 41.8999 589.4 40.4099 589.03 38.1199ZM584.71 45.6799L580.95 45.2799C581.42 42.6299 581.61 40.1999 581.67 37.4499L585.08 37.5799C585.02 40.9499 585.05 43.1099 584.71 45.6799ZM588.93 45.2399H585.42C585.61 42.5699 585.67 40.2699 585.54 37.5999L588.7 37.4899C588.9 40.8699 588.9 42.7599 588.93 45.2399ZM587.49 33.2899L588.34 33.1799L588.18 32.4499C587.96 32.7499 587.71 33.0199 587.49 33.2899ZM588.68 31.7699L591.31 31.2599C591.75 32.7999 592.09 34.0699 592.44 35.7399V26.4799C591.12 28.5099 589.93 30.1799 588.68 31.7699ZM596.98 25.9399H596.64V28.5299H597.39C597.29 27.6399 597.13 26.7799 596.98 25.9399ZM596.95 32.1799V33.3699H598.58V32.1799H596.95ZM600.7 28.5399H601.33C601.49 27.8399 601.64 26.8399 601.67 25.9499H600.36C600.52 26.8899 600.61 27.5899 600.7 28.5399ZM604.74 32.1799H603.08V33.3699H604.74V32.1799ZM604.34 28.5399H605.06V25.9499H604.68C604.56 26.9399 604.46 27.8299 604.34 28.5399Z" fill="#F2E8DE"/>
<path d="M629.13 25.92L628.72 26.78H638.96V40.95H634.45C637.33 41.44 638.58 41.6 641.09 42.19L638.71 46.37C635.42 45.29 633.07 44.8 628.69 43.62L630.19 40.95H623.11L624.86 43.62C621.76 44.83 618.88 45.64 615.44 46.29L612.34 42.11C615.44 41.81 617.66 41.52 619.79 40.95H614.56V26.78H622.42L622.83 25.92H612.81V21.79H640.68V25.92H629.13ZM620.65 30.1001V30.8801H632.86V30.1001H620.65ZM620.65 33.48V34.2401H632.86V33.48H620.65ZM620.65 37.66H632.86V36.8201H620.65V37.66Z" fill="#F2E8DE"/>
<path d="M655.22 26.6999C655.16 27.1599 655.06 27.6399 654.97 28.1299H669.69C668.91 32.4799 668.12 36.3899 667.25 40.6799H672.23V45.4599H643.96V40.6799H660.55L661.02 38.9499H646.46C647.68 34.7399 648.56 30.9899 649.18 26.6999H644.58V21.9199H671.51V26.6999H655.22ZM653.84 34.3899H661.98L662.42 32.5799H654.25C654.15 33.2299 653.96 33.7399 653.84 34.3899Z" fill="#F2E8DE"/>
<path d="M693.42 46.3801L691.57 45.0001V45.2401C686.53 45.6501 680.99 45.7801 676.01 45.9101L675.23 42.1301C677.39 42.2401 679.24 42.2901 681.12 42.2401V41.6701H676.24V38.5101H681.12V38.0001H675.83V29.3101H681.12V28.8201H675.39V25.3901H681.12V24.9001C679.62 24.9801 678.11 25.0301 676.52 25.0601L675.74 21.8501C680.66 21.8001 685.45 21.5801 689.86 21.0901L691.21 24.4601C689.64 24.6501 687.98 24.7601 685.92 24.8701V25.3801H691.68V25.7901H692.9C692.93 24.3601 692.96 22.7701 692.87 21.0701L698.19 21.2601C698.16 22.6601 698.06 24.0101 697.94 25.8801H703.51L703.48 28.4701C703.32 38.7301 703.2 43.2401 701.48 44.8001C700.26 45.6901 698.91 45.9601 695.66 45.9601L695.07 43.1301C694.57 44.2701 694.04 45.3501 693.42 46.3801ZM679.79 31.9401V32.8001H681.29V31.9401H679.79ZM679.79 35.3701H681.29V34.5901H679.79V35.3701ZM687.25 31.9401H685.78V32.8001H687.25V31.9401ZM685.78 35.3701H687.25V34.5901H685.78V35.3701ZM690.53 29.3201V28.8301H685.9V29.3201H690.53ZM692.82 30.4801H691.29V38.0101H685.9V38.5201H690.53V40.9201C692.19 37.6101 692.73 33.4201 692.82 30.4801ZM689.88 42.1101L690.13 41.6801H685.9V42.1901C687.22 42.2201 688.53 42.1901 689.88 42.1101ZM695.89 40.8401C696.45 40.8901 696.86 40.8901 697.05 40.8901C697.61 40.8901 697.83 40.7001 697.93 40.3201C698.34 38.7801 698.37 35.8101 698.49 30.4701H697.8C697.58 33.8501 696.98 37.5001 695.89 40.8401Z" fill="#F2E8DE"/>
<path d="M718.93 37.1499L717.02 38.0899L716.02 35.5799V36.3099C715.39 36.4699 714.61 36.6299 713.95 36.7699V43.3799C713.95 44.2199 713.7 44.8099 713.07 45.2699C712.41 45.7299 710.75 45.9399 707.25 45.9699L706.12 40.8099C706.97 40.9699 707.4 40.9999 707.81 40.9999C708.37 40.9999 708.59 40.8899 708.59 40.5699V37.5499C708.06 37.6599 707.65 37.7399 706.87 37.8499L706.09 32.9099C707.15 32.8799 707.69 32.8299 708.59 32.7499V30.0499H706.37V25.2499H708.59V21.1699H713.94V25.2499H715.66V26.0599L717.57 23.8499C718.2 24.3099 718.73 24.6899 719.32 25.1499V21.3399H723.95V32.8099C723.95 39.0499 723.67 41.7199 718.34 46.0899L714.27 42.2799C716.74 40.9799 718.34 39.3599 718.93 37.1499ZM715.61 28.5099V30.0499H713.95V32.1599C714.51 32.0799 715.33 31.9699 715.89 31.8399V32.8099C716.89 32.4299 718.33 31.9199 719.33 31.3799V29.5999L718.23 30.9799C717.3 30.0699 716.62 29.2899 715.61 28.5099ZM731.14 23.3499L735.09 25.2099C733.9 27.4199 733.09 28.6899 731.77 30.3099L729.73 29.1799V32.2299L730.92 30.9399C732.8 32.1299 734.18 33.1299 735.62 34.2599L732.65 37.4199L735.12 37.8799C735.12 41.7399 735.06 43.4899 734.18 44.4899C733.37 45.4099 732.24 45.7599 730.11 45.7599H727.89C725.79 45.7599 724.73 44.9199 724.73 43.5699V21.2999H729.74V25.5099C730.17 25.0299 730.71 24.2999 731.14 23.3499ZM729.74 35.3699V39.8999C729.74 40.3599 729.9 40.6599 730.24 40.6599C730.74 40.6599 730.83 40.4699 730.83 39.9299C730.83 39.0699 730.77 38.0699 730.67 37.0399L731.83 37.2299C731.24 36.4999 730.36 35.8199 729.74 35.3699Z" fill="#F2E8DE"/>
<path d="M755.97 27.5601C755.78 25.4301 755.63 23.2901 755.53 21.0801L761.26 21.3501V22.4801L764.92 21.5601C765.51 23.0501 766.02 24.5001 766.42 26.0701L762.32 27.0701C762.07 25.6101 761.66 24.2101 761.25 22.8901C761.25 24.2901 761.25 25.9701 761.31 27.3401C762.97 27.2601 764.5 27.1001 766.16 26.9601V31.1701C764.5 31.3101 763.19 31.3901 761.49 31.4901C761.49 31.7101 761.52 32.6201 761.61 34.2201C761.99 33.5501 762.39 32.3301 762.61 31.5501L766.71 33.2201C765.55 35.7801 763.99 38.4801 762.61 40.2401C762.73 40.5601 762.89 40.7301 763.08 40.7301C763.93 40.7301 764.93 39.4301 765.46 38.8701L766.56 43.7801C764.9 45.2601 763.4 45.9701 762.24 45.9701C760.89 45.9701 759.61 44.5901 759.02 43.5401C757.99 44.4001 756.95 45.2101 755.89 45.8601L754.2 43.6501H748.28V46.0001H743.74V43.6501H737.6V39.8701H743.67V39.1701H738.1V29.0501H753.85L753.76 28.4001H746.31V21.6001H754.14V27.5101L755.97 27.5601ZM737.91 28.4001V21.6001H745.74V28.4001H737.91ZM741.13 25.6201H742.51V24.3801H741.13V25.6201ZM742.38 31.9101V32.8801H743.95V31.9101H742.38ZM742.38 36.4401H743.95V35.4401H742.38V36.4401ZM749.77 31.9101H748.17V32.8801H749.77V31.9101ZM748.18 36.4401H749.78V35.4401H748.18V36.4401ZM757.41 39.1201C756.66 35.9901 756.44 34.0401 756.25 31.7201L754.37 31.8501L754.03 29.8501V39.1601H748.36V39.8601H754.75V40.9701C755.75 40.4101 756.69 39.7401 757.41 39.1201ZM749.55 25.6201H750.93V24.3801H749.55V25.6201Z" fill="#F2E8DE"/>
<path d="M797.37 21.71V43.28C797.37 45.01 795.87 45.74 791.51 45.8699L790.73 43.06H787.29V45.35H783.56V39.0099L783.31 39.0399L783.06 38.0099L781.59 38.31H782.59V42.0399C782.59 43.2799 782.12 44.2799 781.09 44.9799C780.15 45.65 778.9 45.9 776.21 46.19L774.58 43.41C776.96 43.36 778.18 43.25 778.93 42.6H774.95V38.7899L774.39 37.31V45.97H769.38V21.7H782.75V30.53H780.25C779.56 31.31 778.87 31.99 778.09 32.61L778.59 32.96C779.31 32.23 779.81 31.58 780.37 30.8L782.66 32.2299L783.85 30.77C784.07 30.9 784.29 31.09 784.44 31.2C784.66 31.04 784.85 30.79 785.03 30.55H783.84V21.7H797.37V21.71ZM774.38 25.35H778.29V24.6799H774.38V25.35ZM774.38 27.67H778.29V27H774.38V27.67ZM774.38 31.8L775.23 30.75L775.89 31.21C776.14 31.02 776.36 30.7999 776.55 30.5399H774.39V31.8H774.38ZM776.51 34.96C775.76 34.31 775.07 33.88 774.38 33.53V35.8C774.72 35.83 775.19 35.8 775.76 35.75C776.11 35.47 776.29 35.26 776.51 34.96ZM781.46 38.31L781.34 37.77C779.49 38.15 778.08 38.34 776.11 38.61H778.05V39.9299H779.33V38.31H781.46ZM779.39 35.47L781.05 35.2299C780.96 34.8799 780.89 34.5799 780.74 34.2599C780.27 34.7199 779.89 35.07 779.39 35.47ZM784.97 35.39C783.91 34.45 783.06 33.7199 782.09 33.0099C781.75 33.3299 781.28 33.77 780.9 34.09L782.81 33.6C783.19 34.54 783.47 35.25 783.69 36L784.22 35.95C784.5 35.77 784.75 35.58 784.97 35.39ZM792.48 38.25L790.73 38.66L790.51 37.82C789.01 38.14 787.79 38.33 785.78 38.58H787.41V39.9799H788.44V38.71H791.63V41.6C791.82 41.63 791.94 41.6499 792.13 41.6499C792.35 41.6499 792.47 41.6 792.47 41.3V38.25H792.48ZM792.48 30.64H787.91L788.66 30.96C788.1 31.66 787.38 32.3099 786.62 32.8999C786.78 33.0899 786.96 33.25 787.12 33.39C787.93 32.74 788.81 31.85 789.5 30.88L791.85 32.3699C791.22 32.9599 790.38 33.6599 789.78 34.1199L791.63 33.5C791.97 34.28 792.22 34.9 792.47 35.63V30.64H792.48ZM790.07 35.31C789.91 34.93 789.82 34.61 789.6 34.28L787.88 35.66C788.63 35.58 789.32 35.42 790.07 35.31ZM792.48 24.57H788.69V25.24H792.48V24.57ZM792.48 27H788.69V27.7299H792.48V27Z" fill="#F2E8DE"/>
<path d="M827.21 27.7299H815.72V29.5099H828.68V34.4199H816.19C820.48 35.9599 823.49 37.1199 827.37 38.8499L824.21 43.5999C821.49 41.8999 818.76 40.5499 816.1 39.3599V45.9999H809.62V34.4199H800.51V29.5099H809.37V21.1699H815.73V23.2199H827.22V27.7299H827.21Z" fill="#F2E8DE"/>
</svg>
