<svg width="555" height="67" viewBox="0 0 555 67" fill="none" xmlns="http://www.w3.org/2000/svg">
<path d="M554.27 0.900024H0.269989V66.84H554.27V0.900024Z" fill="#4F26E9"/>
<path d="M53.78 51.23L51.26 49.35V49.68C44.39 50.23 36.84 50.42 30.06 50.6L28.99 45.45C31.93 45.6 34.45 45.67 37.01 45.6V44.83H30.36V40.53H37.01V39.83H29.8V27.98H37.01V27.32H29.21V22.65H37.01V21.99C34.96 22.1 32.92 22.17 30.74 22.21L29.67 17.83C36.37 17.76 42.89 17.46 48.9 16.8L50.73 21.4C48.6 21.66 46.34 21.8 43.52 21.95V22.65H51.37V23.2H53.03C53.07 21.25 53.12 19.08 52.99 16.76L60.24 17.02C60.2 18.93 60.07 20.77 59.9 23.31H67.49L67.45 26.84C67.24 40.82 67.07 46.96 64.72 49.1C63.06 50.31 61.22 50.68 56.79 50.68L55.98 46.82C55.36 48.36 54.63 49.84 53.78 51.23ZM35.23 31.55V32.73H37.28V31.55H35.23ZM35.23 36.22H37.28V35.15H35.23V36.22ZM45.38 31.55H43.38V32.73H45.38V31.55ZM43.38 36.22H45.38V35.15H43.38V36.22ZM49.86 27.98V27.32H43.55V27.98H49.86ZM52.97 29.57H50.88V39.83H43.54V40.53H49.85V43.8C52.12 39.28 52.84 33.58 52.97 29.57ZM48.96 45.42L49.3 44.83H43.54V45.53C45.34 45.57 47.13 45.53 48.96 45.42ZM57.15 43.69C57.92 43.76 58.47 43.76 58.73 43.76C59.5 43.76 59.8 43.5 59.92 42.99C60.47 40.89 60.52 36.85 60.69 29.56H59.75C59.45 34.16 58.64 39.13 57.15 43.69Z" fill="#F2E8DE"/>
<path d="M94.52 16.87V17.86H107.44V21.1H110.25V25.4H107.44V28.56H94.47V29.3H108.93V32.13H94.47V32.79H110.25V36.32H71.78V32.79H85.77V32.13H73.1V29.3H85.77V28.56H74.43V25.62H85.77V25.03H71.61V21.35H85.77V20.73H74.43V17.86H85.56V16.87H94.52ZM71.61 50.2V45.78H110.59V50.2H71.61ZM73.62 37.03H108.08V45.09H73.62V37.03ZM81.68 39.06V39.91H86.58V39.06H81.68ZM81.68 43.07H86.58V42.26H81.68V43.07ZM100.06 39.06H94.17V39.91H100.06V39.06ZM94.18 43.07H100.07V42.26H94.18V43.07ZM99.72 20.74H94.47V21.36H99.72V20.74ZM99.72 25.04H94.47V25.63H99.72V25.04Z" fill="#F2E8DE"/>
<path d="M116.66 50.54L115 43.99C116.15 44.17 117.22 44.21 117.86 44.21C118.67 44.21 118.88 43.99 118.88 43.4V39.21C117.81 39.39 116.71 39.61 115.47 39.8L114.11 33.25C115.69 33.25 117.69 33.1 118.89 32.96V29.06H114.63V22.73H118.89V16.84H126.48V22.73H129.38V29.06H126.48V32.04C127.55 31.86 128.36 31.71 129.38 31.45V37.63C128.36 37.85 127.59 38.03 126.48 38.22V46.64C126.47 50.39 121.43 50.61 116.66 50.54ZM134.7 42.74C133.29 41.67 131.5 40.13 129.92 37.99L134.1 35.75H129.84V29.5H137.18V26.96H129.84V20.67H137.18V16.84H144.69V20.67H152.84V26.96H144.69V29.5H151.51V34.94C150.36 38.4 149.21 40.24 147.16 42.74C149.04 43.4 151.3 43.88 153.94 44.14L150.36 50.84C146.39 50.03 143.11 48.78 140.38 47.23C137.61 48.56 134.75 49.77 130.74 50.69L126.69 44.25C129.75 43.95 132.69 43.51 134.7 42.74ZM140.8 39.39C141.95 38.32 142.72 37.11 143.27 35.75H137.6C138.45 37.11 139.52 38.36 140.8 39.39Z" fill="#F2E8DE"/>
<path d="M166.52 22.54C167.71 22.54 169.08 22.5 170.32 22.39C169.94 21.14 169.55 20.22 169.08 19.23L174.97 17.57C175.86 19.67 176.42 21.54 177.14 23.68V16.98H184.56V19.56C187.08 19.01 188.91 18.6 192.11 17.43L195.39 23.1C193.04 23.84 191.17 24.28 189.25 24.64L195.9 26.11C195.52 28.83 194.49 30.63 193.26 31.66C192.02 32.69 190.19 33.2 188.23 33.2H181.58C178.6 33.2 177.14 32.17 177.14 30.4V27.42L172.92 28.74H175.82V45.77C175.82 47.5 175.27 49.04 173.77 49.82C172.23 50.59 169.98 50.67 167.29 50.67L166.1 44.78C167.04 44.89 167.81 44.93 168.19 44.93C168.7 44.93 168.83 44.78 168.83 44.45V43.71H165.29V50.7H158.34V28.74H172.24L171.9 27.42C167.12 27.79 162.3 28.04 157.19 28.3L156.34 22.41C157.24 22.48 158.17 22.56 159.2 22.56C160.1 20.39 160.52 18.84 160.99 16.49L168.5 17.93C167.84 19.82 167.16 21.21 166.52 22.54ZM165.28 33.58V34.76H168.82V33.58H165.28ZM165.28 38.69V39.76H168.82V38.69H165.28ZM191.85 33.72L195.56 39.39C194.37 39.94 191.3 40.82 189.72 41.19L195.73 42.66C195.35 45.64 194.49 47.44 193.47 48.55C192.45 49.65 190.48 50.21 188.31 50.21H181.91C179.05 50.21 177.39 48.63 177.39 47.01V33.58H184.85V36C187.25 35.53 189.59 34.72 191.85 33.72ZM184.56 25.52V26.26C184.56 27.14 184.86 27.29 186.31 27.33C187.21 27.29 187.72 27.22 187.97 26.67C188.18 26.45 188.31 25.75 188.4 24.83C187.25 25.08 185.97 25.3 184.56 25.52ZM184.73 42.22V43.1C184.73 43.8 184.77 44.17 185.97 44.17H186.78C187.55 44.17 187.8 43.95 187.93 43.47C187.97 43.25 188.01 42.48 188.06 41.56C187.03 41.82 185.92 42.04 184.73 42.22Z" fill="#F2E8DE"/>
<path d="M210.58 40.16C210.24 39.5 210.03 38.84 209.77 38.03V50.69H202.95V41.46C202.65 42.6 202.4 43.52 201.93 44.59L198.86 37.64C200.48 35.36 201.5 32.71 202.19 29.73H199.67V23.11H202.95V16.89H209.77V23.11H211.56V19.47H216.04V16.93H222.65V19.47H227.38V23.7H229.98V16.89H236.63V23.66H238.46V29.77H236.63V46.84C236.63 49.12 235.14 50.37 232.45 50.59C231.13 50.7 229.89 50.7 228.31 50.7L226.39 44.63V44.67L226.47 48.02C221.74 48.94 217.17 49.64 212.31 50.34L210.65 44.64C211.93 44.6 213.17 44.53 213.55 44.49C213.04 43.35 212.48 42.21 211.29 40.48L215.13 38.79H212.61V36.91L210.58 40.16ZM229.99 29.71H226.71V23.9H222.66V24.86H225.82V29.24H212.98V24.86H216.09V23.9H212.21V29.75H210.29C210.93 31.04 211.78 32.1 212.64 32.91V29.93H225.99V32.62L228.38 31.37L230 34.06V29.71H229.99ZM218.04 43.88L218.47 42.78L215.4 44.29C216.34 44.17 217.15 44.06 218.04 43.88ZM218.56 42.59C218.99 41.38 219.33 40.13 219.54 38.76H216.04C216.98 40.05 217.75 41.12 218.56 42.59ZM218.26 35.05H220.35V33.65H218.26V35.05ZM229.13 44.21C229.68 44.21 229.98 44.14 229.98 43.62V39.68L227.12 41.34C226.69 40.49 226.31 39.61 225.75 38.76H220.76L225.71 39.86C225.41 40.82 225.07 41.7 224.64 42.66C225.24 42.55 225.88 42.4 226.39 42.22V43.95C227.34 44.06 228.24 44.21 229.13 44.21Z" fill="#F2E8DE"/>
<path d="M266.12 17.06V23.79H280.71V31.33H266.85C269.58 37.29 275.08 41.52 281.48 43.76L275.89 50.79C269.54 47.52 264.8 43.17 261.6 38.1C261.05 38.91 260.24 39.83 259.64 40.6C261.86 42.51 263.52 44.24 265.78 46.82L259.68 50.98C258.14 48.81 256.87 47.26 255.12 45.42C252.9 47.33 250.26 49.17 247.32 50.87L241.69 44.03C248.22 41.31 254.14 36.3 255.98 31.34H242.4V23.8H256.77V17.07H266.12V17.06Z" fill="#F2E8DE"/>
<path d="M300.92 28.65C302.03 29.39 302.97 29.83 304.16 30.67L301.6 34.24C300.75 33.5 300.11 33.06 299.3 32.47L298.23 33.87V34.46H304.63V40.09H300.37C301.44 41.63 302.8 42.67 305.1 43.99L301.3 49.21C299.93 48.11 299 46.97 298.14 45.35V50.72H291.66V45.5C290.77 47.19 289.78 48.3 288.12 49.73L284.28 44.65C286.58 43.22 287.99 41.85 288.93 40.09H285.05V34.46H288.8L284.36 31.66C286.24 29.6 287.52 27.98 288.28 25.59H285.08V19.81H291.31C290.97 18.96 290.67 18.45 290.24 17.64L297.87 16.57C298.21 17.89 298.47 18.67 298.68 19.81H304.39V22.53C305.5 20.73 306.44 18.85 307.42 16.53L313.82 18.63C313.14 20.29 312.37 21.43 311.69 22.57H313.91C314.98 20.55 315.62 18.74 316.13 16.98L322.44 18.97C321.84 20.22 321.33 21.43 320.69 22.54H323.42V28.28H320.09V29.9H323.07V34.9H320.09V36.56H322.9V41.71H320.09V43.59H323.59V49.4H311.52V50.72L305.12 50.68V30.34L304.74 31.11L301.2 28.06C301.14 28.24 301.01 28.54 300.92 28.65ZM296.96 25.59H289.97L293.64 26.36C293.38 26.8 293.17 27.24 292.83 27.76C293.68 28.24 294.28 28.57 295.13 29.16L291.93 33.02C291.5 32.65 290.99 32.36 290.57 32.06C290.1 32.94 289.67 33.6 289.03 34.45H291.29V33.31H295.43L293.13 32.43C294.95 30.3 296.27 27.95 296.96 25.59ZM302.37 25.59H297.38L301.47 26.55L302.37 25.59ZM311.5 29.9H314.14V28.28H311.5V29.9ZM311.5 36.59H314.14V34.9H311.5V36.59ZM311.5 41.67V43.58H314.14V41.67H311.5Z" fill="#F2E8DE"/>
<path d="M355.95 42.92L360.47 41.56H353.05C354.33 44.14 355.1 46.2 356.16 49.14L349.21 51.13C348.49 48.22 347.84 46.27 346.69 43.26L352.92 41.57H331.25L337.22 43C336.33 46.16 335.51 48.33 334.19 51.09L327.15 48.44C328.64 46.01 329.5 44.25 330.26 41.6H328.77V35.64H333.33V33.73H328.3V28.03H331.24L326.55 24.13C329.37 21.89 331.5 19.53 333.42 16.63L339.9 19.09C339.69 19.38 339.47 19.57 339.26 19.79H364.59V25.79H362.37V28.03H365.78V33.73H362.37V35.64H365.27L365.57 41.53H362.88C364.29 43.96 365.31 46.13 366.46 48.63L359.51 51.17C358.5 48.29 357.57 46.05 355.95 42.92ZM333.34 26.33C332.7 27.07 332.36 27.43 331.68 28.02H333.34V26.33ZM344.35 41.89C345.33 44.47 345.84 46.31 346.7 49.32L339.62 50.94C339.19 48.18 338.77 46.34 337.87 43.25L344.35 41.89ZM341.28 25.78H339.19V28.02H341.28V25.78ZM341.28 33.72H339.19V35.63H341.28V33.72ZM348.78 25.78H346.99V28.02H348.78V25.78ZM348.78 33.72H346.99V35.63H348.78V33.72ZM356.59 25.78H354.5V28.02H356.59V25.78ZM356.59 33.72H354.5V35.63H356.59V33.72Z" fill="#F2E8DE"/>
<path d="M388.41 16.87L395.75 18.49C395.37 19.78 394.68 21.32 394.17 22.43C395.19 23.5 396.18 24.6 397.16 25.81C398.4 22.87 399.25 19.74 399.68 16.83L406.89 18.01C406.51 19.59 406.21 20.55 405.65 22.09C406.97 23.16 408.25 24.48 409.4 25.81L405.48 31.51C404.67 30.19 403.9 29.16 403.01 28.27C402.71 29.71 402.41 30.81 401.65 32.35L401.01 32.06V34.45H408.05V40.78H401.01V43.76C403.82 44.05 406.09 44.13 409.67 43.8L407.62 50.53C400.84 50.53 394.1 49.72 388.04 46.3C387.49 47.88 387.06 49.39 386.12 50.97L381.05 47.81V50.68H373.59V38.8C373.21 39.13 372.82 39.5 372.39 39.76L369.36 33.4C373.84 30.94 377.25 28.1 379.89 24.86L383.26 27.58C386.06 24.71 387.6 20.41 388.41 16.87ZM372.54 27.76L369.42 21.69C373.56 20.59 377.27 19 380.6 16.8L384.69 21.32C381.16 23.68 377.36 25.81 372.54 27.76ZM396.13 28.02L392.93 31.96C392.21 30.52 391.56 29.13 390.75 28.13C390.07 29.49 389.34 30.78 388.11 32.25L384.57 29.93C383.46 31.25 382.31 32.58 381.03 33.76V45.09C382.91 41.3 383.89 36.67 384.1 32.29L391.31 33.39C391.14 35.63 390.46 38.58 390.07 40.31C391.01 41.16 392.42 41.85 393.53 42.26V31.37H399.5L395.41 29.35C395.66 28.94 395.91 28.5 396.13 28.02Z" fill="#F2E8DE"/>
<path d="M435.33 30.85L438.4 27.87C443.13 30.81 446.67 33.24 451.11 36.55L445.18 42.88C441.81 39.94 438.61 37.47 435.33 35.15V50.71H426.54V25.33H412.98V18.05H451.28V25.33H435.33V30.85Z" fill="#F2E8DE"/>
<path d="M479.69 24.6V26.77H492.48V32.73H479.69V34.5H494.32V40.9H479.69V46.38C479.69 49.62 476.57 50.68 466.64 50.72L464.17 43.66C466.52 43.88 467.75 43.99 469.97 43.99C470.74 43.99 471.08 43.73 471.08 43.22V40.9H455.34V34.5H471.08V32.73H457.52V26.77H471.08V24.86C467.2 25.04 463.23 25.19 458.41 25.34L456.83 19.01C467.54 18.94 479.09 18.27 488.56 17.13L491.29 23.79C488.09 24.12 484.08 24.42 479.69 24.6Z" fill="#F2E8DE"/>
<path d="M518.5 25.92C518.5 23.71 513.6 23.97 511.42 25.66L509.12 20.4C512.02 18.96 513.77 18.52 516.24 18.52C521.66 18.52 525.54 21.54 525.54 26.1C525.54 29.71 522.55 32.68 518.72 33.94V39.09H513.09V29.38C517.22 29.38 518.5 27.73 518.5 25.92ZM512.06 45.16C512.06 42.99 513.98 41.92 515.77 41.92C517.56 41.92 519.48 42.99 519.48 45.16C519.48 47.4 517.52 48.43 515.77 48.43C514.03 48.44 512.06 47.41 512.06 45.16Z" fill="#F2E8DE"/>
</svg>
