<svg width="555" height="67" viewBox="0 0 555 67" fill="none" xmlns="http://www.w3.org/2000/svg">
<path d="M554.25 0.649994H0.25V66.59H554.25V0.649994Z" fill="#4F26E9"/>
<path d="M45.81 19.2H50.76C51.7 18.13 52.3 17.32 52.89 16.29L60.52 18.24C60.14 18.79 59.88 18.83 59.5 19.2H67.05V23.32H52.5V24.06H65.04V27.63H52.5V28.33H67.85V32.52H50.11L51.65 32.85C51.48 33.14 51.39 33.25 51.22 33.44H66.87V38.52C66.06 40.51 65.38 41.9 64.18 43.56L58 40.69C58.43 40.21 58.9 39.62 59.41 38.78H56.81C56.68 39.37 56.55 39.77 56.3 40.4C60.05 43.31 62.61 43.97 68.63 44.52L65.52 50.85C60.19 50 56.56 48.2 53.11 45.92C51.11 47.69 48.5 49.27 43.56 50.78L39.81 45.81C37.59 47.28 34.99 48.79 32.01 50.41L28.77 46.03C30.86 45.11 32.82 44.26 34.91 43.16C32.65 41.91 31.11 41.17 28.56 40L31.03 36.25C33.97 37.39 35.59 38.13 38.79 39.49L37.25 41.88L38.91 40.81L40.49 45.19C45.14 43.87 48.64 42.73 49.4 38.79H47.78C46.67 40.52 45.9 41.55 44.58 43.06L39.04 39.42C41.26 37.14 42.96 35.08 44.29 32.54H37.47L40.84 33.94L38.07 38.21C35.13 36.59 33.59 35.82 30.61 34.46L31.89 32.55H29.42V28.36H44.26V27.66H32.06V24.09H44.26V23.35H30.06V19.23H37.27C36.67 18.75 36.2 18.64 35.48 18.09L42.65 16.43C44.23 17.54 44.61 18.06 45.81 19.2Z" fill="#F2E8DE"/>
<path d="M105.91 44.07C106.68 45.17 107.49 46.5 108.13 47.68L102.37 50C101.09 46.95 99.98 44.7 98.62 42.42L100.11 41.9C97.64 40.87 95.42 39.77 93.46 38.4H87.79C87.15 38.81 86.64 39.17 85.96 39.58C84.85 40.28 83.66 40.94 82.42 41.6L84.42 42.52L82.76 45.06C83.53 45.13 84.68 45.17 85.19 45.17C85.7 45.17 85.96 45.06 85.96 44.66V39.58H92.53V42.16L96.79 40.84C98.03 43.38 99.48 46.58 100.29 48.68L94.75 50.52C93.94 47.76 93.21 45.63 92.53 43.86V46.95C92.53 50.7 86.99 50.52 83.45 50.56L82.38 45.63C81.44 47.17 80.38 48.72 78.97 50.34L73.94 46.99C74.75 46.18 75.65 45.3 76.46 44.34L74.5 45.08L71.34 40.15C74.03 39.75 76.42 39.23 78.12 38.42H72.41V33.67H84.95C85.29 33.41 85.59 33.19 85.93 32.86H75.01V23.22H80.55V22.41H72.57V17.78H80.42V16.57H88.05V17.78H94.45V16.53H102.08V17.78H110.18V22.41H101.86V23.22H107.79V32.86H94.19C93.98 33.12 93.68 33.41 93.38 33.67H110.35V38.42H104.29C106.08 39.19 108.26 39.75 111.28 40.15L108.17 44.97C107.36 44.73 106.59 44.36 105.91 44.07ZM99.98 26.08H82.75V27H99.98V26.08ZM82.75 29.09V29.97H99.98V29.09H82.75ZM94.56 22.4H87.82V23.21H94.56V22.4Z" fill="#F2E8DE"/>
<path d="M120.16 50.98L114.02 46.2C117.77 41.82 118.84 37.04 119.31 31.34H115.73V17.14H136.41V31.34H126.52L126.35 33.11H136.5L136.41 36.02C136.24 44.48 135.73 47.94 133.68 49.12C132.02 50.08 129.33 50.26 125.24 50.26L123.75 44.85C122.89 46.79 121.73 48.89 120.16 50.98ZM123.23 25.53H128.9V22.95H123.23V25.53ZM124.04 44.1C125.4 44.25 126.98 44.28 127.88 44.28C128.48 44.28 128.61 44.06 128.82 43.73C129.12 42.81 129.25 41.67 129.37 39.09H125.49C125.23 40.5 124.81 42.23 124.04 44.1ZM137.69 19.71H144.17V42.08H137.69V19.71ZM151.2 49.22C149.71 50.18 146.98 50.21 140.24 50.25L138.53 43.44C141.22 43.66 143.22 43.84 144.54 43.84C145.22 43.84 145.61 43.66 145.61 43.03V16.65H152.82V44.94C152.83 46.72 152.44 48.45 151.2 49.22Z" fill="#F2E8DE"/>
<path d="M196.84 44.07L190.83 50.77C184.35 46.69 180.72 42.09 176.54 35.28C172.96 41.9 169.16 46.13 162.68 50.66L156.67 44.08C166.91 38.93 171.85 30.54 171.85 21.09V16.64H181.15V21.39C181.15 30.64 187.12 39.8 196.84 44.07Z" fill="#F2E8DE"/>
<path d="M212.8 21.22H217.83V26.41C219.66 23.72 221.11 20.16 222.14 16.51L229.09 18.39C228.58 19.68 228.24 20.49 227.73 21.44H237.97C237.93 23.06 237.88 25.6 237.5 37.3C237.33 42.38 236.65 45.8 234.98 47.71C233.53 49.33 229.14 50.21 222.06 50.1L220.23 43.29C223.22 43.69 225.65 43.77 227.31 43.73C228.76 43.69 229.1 43.1 229.53 42.11C230 41.01 230.43 35.64 230.51 27.25H225.22C224.32 29.05 223.73 30.19 222.58 31.85L225.78 30.86C227.49 34.13 228.42 36.49 229.58 39.51L223.44 41.53C222.76 38.92 221.99 36.56 220.84 34.17C220.54 34.65 220.24 35.13 219.9 35.6L217.85 33.8V49.14H211.28V47.85H208V49.95H201.18V21.22H205.45C206.05 19.67 206.39 18.2 206.69 16.25L214.11 17.72C213.61 19.23 213.27 20.04 212.8 21.22ZM207.73 27.22V31.16H211.27V27.22H207.73ZM207.73 37.3V41.49H211.27V37.3H207.73Z" fill="#F2E8DE"/>
<path d="M267.61 20.93H268.42V16.74H275.46V20.93H280.36V26.74H275.46V28.98H281.18V34.68H261.35V28.94H263.4L260.54 27.28V50.38H254.83V48.8H248.52V50.38H242.93V24.85H245.53V23.19H242.54V17.52H261.13V22.41C261.81 20.83 262.32 19.25 262.79 17.37L268.38 18.8C268.12 19.68 267.95 20.19 267.61 20.93ZM248.12 30.57H247.22V35.57C248.21 33.99 248.12 32.74 248.12 30.57ZM252.17 35.46V30.57H251.53V32.56C251.53 34.14 251.36 36.31 249.87 38.23L248.16 36.65V38.34H255.15V36.91H253.96C253.02 36.89 252.17 36.67 252.17 35.46ZM248.16 43.99H255.15V42.55H248.16V43.99ZM251.36 24.86H252.47V23.2H251.36V24.86ZM256.01 33.4H256.27V30.57H255.5V32.96C255.5 33.29 255.58 33.4 256.01 33.4ZM260.74 23.21H258.31V24.87H259.85C260.19 24.31 260.49 23.76 260.74 23.21ZM273.54 49.26H268.98V50.4H262.11V35.87H280.32V50.4H273.54V49.26ZM264.71 28.98H268.42V26.74H265.78C265.35 27.7 265.18 28.18 264.71 28.98ZM268.85 43.63H273.58V41.46H268.85V43.63Z" fill="#F2E8DE"/>
<path d="M310.27 20.93H311.08V16.74H318.12V20.93H323.02V26.74H318.12V28.98H323.83V34.68H304V28.94H306.05L303.19 27.28V50.38H297.48V48.8H291.17V50.38H285.58V24.85H288.18V23.19H285.19V17.52H303.78V22.41C304.46 20.83 304.97 19.25 305.44 17.37L311.03 18.8C310.78 19.68 310.61 20.19 310.27 20.93ZM290.77 30.57H289.87V35.57C290.86 33.99 290.77 32.74 290.77 30.57ZM294.83 35.46V30.57H294.19V32.56C294.19 34.14 294.02 36.31 292.53 38.23L290.82 36.65V38.34H297.81V36.91H296.62C295.68 36.89 294.83 36.67 294.83 35.46ZM290.82 43.99H297.81V42.55H290.82V43.99ZM294.02 24.86H295.13V23.2H294.02V24.86ZM298.67 33.4H298.93V30.57H298.16V32.96C298.15 33.29 298.24 33.4 298.67 33.4ZM303.4 23.21H300.97V24.87H302.51C302.84 24.31 303.14 23.76 303.4 23.21ZM316.19 49.26H311.63V50.4H304.76V35.87H322.97V50.4H316.19V49.26ZM307.37 28.98H311.08V26.74H308.44C308 27.7 307.83 28.18 307.37 28.98ZM311.5 43.63H316.23V41.46H311.5V43.63Z" fill="#F2E8DE"/>
<path d="M338.55 39.69L342.3 39.25C342.77 42.08 342.98 44.03 343.2 46.98V38.37L338.68 39.25C338.59 38.55 338.51 37.96 338.38 37.41C335.05 37.89 332.75 38.11 328.66 38.51L327.47 33.1C328.45 33.17 329.52 33.17 330.46 33.14C331.27 32.22 332.29 30.9 333.1 29.57C331.35 28.36 329.56 27.29 327.04 25.89L329.73 21.84L330.75 22.5C331.9 20.66 332.8 19.15 333.61 16.83L338.94 18.89C337.53 21.5 336.17 23.64 334.97 25.18C335.18 25.29 335.52 25.51 335.7 25.66C336.77 24.26 337.66 22.75 338.6 20.91L343.21 23.3V17.52H366.07V46.44C366.07 49.02 364.19 50.34 357.11 50.34L355.57 44.78C356.98 44.96 358.09 45.04 359.11 45.04C359.66 45.04 359.96 44.89 359.96 44.49V38.71H356.59V39.3C356.59 40.04 356.93 39.96 357.83 40H359.41V44.05H353.4C351.74 44.05 350.93 43.28 350.93 41.92V38.72H349.61V50.38H343.21V47.69L339.12 48.13C339.1 44.84 339.06 42.82 338.55 39.69ZM332.66 49.99L327.54 49.44C328.18 45.83 328.44 42.52 328.52 38.77L333.17 38.95C333.09 43.55 333.13 46.5 332.66 49.99ZM338.42 49.4H333.64C333.9 45.76 333.98 42.63 333.81 38.99L338.12 38.84C338.38 43.44 338.38 46.02 338.42 49.4ZM336.46 33.1L337.61 32.95L337.4 31.96C337.1 32.37 336.76 32.74 336.46 33.1ZM338.08 31.04L341.66 30.34C342.26 32.44 342.73 34.17 343.2 36.45V23.83C341.4 26.59 339.78 28.87 338.08 31.04ZM349.38 23.1H348.91V26.63H349.93C349.81 25.42 349.59 24.24 349.38 23.1ZM349.34 31.6V33.22H351.56V31.6H349.34ZM354.45 26.63H355.3C355.51 25.67 355.73 24.31 355.77 23.1H353.98C354.2 24.39 354.33 25.34 354.45 26.63ZM359.96 31.6H357.7V33.22H359.96V31.6ZM359.4 26.63H360.38V23.1H359.87C359.7 24.46 359.57 25.67 359.4 26.63Z" fill="#F2E8DE"/>
<path d="M393.19 23.06L392.64 24.24H406.59V43.55H400.45C404.37 44.21 406.08 44.43 409.49 45.24L406.25 50.94C401.77 49.47 398.57 48.81 392.6 47.19L394.65 43.55H385L387.39 47.19C383.17 48.85 379.24 49.95 374.55 50.83L370.33 45.13C374.55 44.73 377.58 44.32 380.48 43.55H373.36V24.24H384.06L384.61 23.06H370.96V17.43H408.92V23.06H393.19ZM381.63 28.76V29.83H398.26V28.76H381.63ZM381.63 33.36V34.39H398.26V33.36H381.63ZM381.63 39.06H398.26V37.92H381.63V39.06Z" fill="#F2E8DE"/>
<path d="M438.1 50.95L435.58 49.07V49.4C428.71 49.95 421.16 50.14 414.38 50.32L413.31 45.17C416.25 45.32 418.77 45.39 421.33 45.32V44.55H414.68V40.25H421.33V39.55H414.12V27.7H421.33V27.04H413.53V22.37H421.33V21.71C419.28 21.82 417.24 21.89 415.06 21.93L413.99 17.55C420.69 17.48 427.21 17.18 433.22 16.52L435.05 21.12C432.92 21.38 430.66 21.52 427.84 21.67V22.37H435.69V22.92H437.35C437.39 20.97 437.44 18.8 437.31 16.48L444.56 16.74C444.52 18.65 444.39 20.49 444.22 23.03H451.81L451.77 26.56C451.56 40.54 451.39 46.68 449.04 48.82C447.38 50.03 445.54 50.4 441.11 50.4L440.3 46.54C439.68 48.08 438.95 49.55 438.1 50.95ZM419.55 31.27V32.45H421.6V31.27H419.55ZM419.55 35.94H421.6V34.87H419.55V35.94ZM429.7 31.27H427.7V32.45H429.7V31.27ZM427.7 35.94H429.7V34.87H427.7V35.94ZM434.18 27.7V27.04H427.87V27.7H434.18ZM437.29 29.28H435.2V39.54H427.86V40.24H434.17V43.51C436.44 38.99 437.16 33.29 437.29 29.28ZM433.28 45.13L433.62 44.54H427.86V45.24C429.66 45.28 431.45 45.24 433.28 45.13ZM441.47 43.41C442.24 43.48 442.79 43.48 443.05 43.48C443.82 43.48 444.12 43.22 444.24 42.71C444.79 40.61 444.84 36.57 445.01 29.28H444.07C443.77 33.88 442.96 38.84 441.47 43.41Z" fill="#F2E8DE"/>
<path d="M478.84 16.59V17.58H491.76V20.82H494.57V25.12H491.76V28.28H478.8V29.02H493.26V31.85H478.8V32.51H494.58V36.04H456.1V32.51H470.09V31.85H457.42V29.02H470.09V28.28H458.75V25.34H470.09V24.75H455.93V21.07H470.09V20.45H458.75V17.58H469.88V16.59H478.84ZM455.93 49.92V45.5H494.91V49.92H455.93ZM457.94 36.75H492.4V44.81H457.94V36.75ZM466 38.77V39.62H470.9V38.77H466ZM466 42.78H470.9V41.97H466V42.78ZM484.38 38.77H478.49V39.62H484.38V38.77ZM478.5 42.78H484.39V41.97H478.5V42.78ZM484.04 20.45H478.79V21.07H484.04V20.45ZM484.04 24.75H478.79V25.34H484.04V24.75Z" fill="#F2E8DE"/>
<path d="M518.93 25.64C518.93 23.43 514.03 23.69 511.85 25.38L509.55 20.12C512.45 18.68 514.2 18.24 516.67 18.24C522.09 18.24 525.97 21.26 525.97 25.82C525.97 29.43 522.98 32.4 519.15 33.66V38.81H513.52V29.1C517.65 29.09 518.93 27.44 518.93 25.64ZM512.49 44.88C512.49 42.71 514.41 41.64 516.2 41.64C517.99 41.64 519.91 42.71 519.91 44.88C519.91 47.12 517.95 48.15 516.2 48.15C514.46 48.15 512.49 47.12 512.49 44.88Z" fill="#F2E8DE"/>
</svg>
