<svg width="96" height="21" viewBox="0 0 96 21" fill="none" xmlns="http://www.w3.org/2000/svg">
<path d="M8.17001 2.75H11.04V5.66998H8.17001V6.48999H11.31V9.54999H10.51L10.19 11.04H10.94V14.04H8.26001V14.88H11.43V17.9H8.26001V20.54H4.14001V17.9H0.460022V14.88H4.14001V14.04H1.05002V11.04H1.88002L1.59001 9.54999H0.76001V6.48999H4.27002V5.66998H1.23001V2.75H4.25002V1.28003H8.17001V2.75ZM5.15001 9.48999L5.47002 11.11H6.59001L6.93001 9.48999H5.15001ZM20.88 7.97998C19.91 8.28998 18.44 8.22998 16.45 8.22998L15.7 5.41998C17.01 5.51998 17.89 5.57001 18.45 5.57001C18.72 5.57001 18.84 5.39998 18.84 5.22998V4.81H15.21V8.59003H22.35V11.42C22.11 13.41 21.67 14.67 21.08 16.1C21.64 16.52 22.27 16.86 23.05 17.21L20.57 20.44C19.91 20 19.26 19.35 18.67 18.7C17.99 19.37 17.23 19.96 16.31 20.49L15.21 18.98V20.6H11.65V1.53998H22.44V5.98999C22.44 6.81999 22.05 7.59998 20.88 7.97998ZM16.48 16.46C16.14 16.04 15.53 15.28 15.21 14.84V17.19C15.6 17.05 16.18 16.69 16.48 16.46ZM18.35 13.82C18.64 13.08 18.76 12.37 18.84 11.49H16.82C17.28 12.43 17.77 13.23 18.35 13.82Z" fill="#1F1F1F"/>
<path d="M32.23 10.14C31.74 9.53001 31.11 8.99002 30.43 8.46002C29.75 8.99002 28.75 9.57002 27.75 10.08L24.9 6.89001C28.58 5.17001 30.84 3.31997 33.01 0.969971L38.34 1.87L37.73 2.47998H45.35V5.90002C43.91 7.58002 42.09 9.08998 40.11 10.48H46.37V20.56H41.69V19.76H34.68V20.58H29.96V14.91C28.91 15.31 27.89 15.62 26.7 15.92L24.73 12.06C27.22 11.72 29.92 10.98 32.23 10.14ZM39.25 6.23999H33.7C34.43 6.75999 35.14 7.28999 35.82 7.85999L33.26 9.71002C35.81 8.65002 38.05 7.40999 39.25 6.23999ZM34.6 14.09V16.17H41.76V14.09H34.6Z" fill="#1F1F1F"/>
<path d="M54.39 19.13V18.17H53.15V19.58H49.62V2.03003H57.9V19.14H54.39V19.13ZM53.15 5.88V8.22998H54.39V5.88H53.15ZM53.15 11.59V14.34H54.39V11.59H53.15ZM66.62 1.26001V2.81H70.49V6.19H66.62V6.90002H71.39V10.2H69.12V10.96H71.09V14.32H69.12V17.87C69.12 19.63 67.83 20.35 65.91 20.39C64.79 20.41 63.4 20.47 62.26 20.39L61.48 18.31L60.26 19.15C59.63 17.81 58.95 16.74 58.07 15.54L60.58 14.32H58.61V10.96H64.55V10.2H58.15V6.90002H62.27V6.19H58.81V2.81H62.24V1.26001H66.62ZM63.38 16.57C63.62 16.61 63.79 16.65 64.11 16.65C64.4 16.65 64.57 16.5 64.57 16.21V14.32H61.77C62.43 15.16 62.87 15.75 63.38 16.57Z" fill="#1F1F1F"/>
<path d="M78.14 10.0201V20.6001H73.83V1.6001H84.08V10.0201H78.14ZM77.92 4.20013V4.83014H80.26V4.20013H77.92ZM77.92 6.89014V7.56012H80.26V6.89014H77.92ZM88.78 20.5601L88.22 19.1501H79.5V10.5401H89.66V16.4801C90 16.5201 90.51 16.5201 90.68 16.5201C90.95 16.5201 91 16.4201 91 16.2501V10.0101H84.98V1.61011H95.4V18.1801C95.4 19.9501 94.62 20.5601 88.78 20.5601ZM83.01 13.1601V13.8701H86.2V13.1601H83.01ZM83.01 16.4801H86.2V15.6801H83.01V16.4801ZM88.88 4.18011V4.81012H91.24V4.18011H88.88ZM88.88 7.56012H91.24V6.87012H88.88V7.56012Z" fill="#1F1F1F"/>
</svg>
