<svg width="106" height="19" viewBox="0 0 106 19" fill="none" xmlns="http://www.w3.org/2000/svg">
<path d="M13.24 12.7882H10.91L10.48 16.2282H7.10004L7.51001 12.7882H6.12L5.71002 16.2282H2.31L2.72003 12.7882H0.76001V9.98819H3.09003L3.32001 7.72818H1.33002V4.91815H3.66003L4.07001 1.62817H7.45001L7.06 4.91815H8.45001L8.84003 1.62817H12.24L11.85 4.91815H13.81V7.72818H11.48L11.25 9.98819H13.24V12.7882ZM8.12 7.72818H6.67999L6.42999 9.98819H7.87L8.12 7.72818Z" fill="#1F1F1F"/>
<path d="M30.45 10.5982C30.29 11.5582 30.08 12.3081 29.72 13.1181L30.45 12.8081C31.11 13.9681 31.68 15.1082 32.25 16.3482L29.74 17.6682C29.4 16.7082 29.17 16.1481 28.76 15.4281C28.3 16.3881 27.69 17.3782 27 18.3382L24.95 15.7382V16.9381C21.91 17.4281 19.43 17.7282 16.46 18.0382L15.57 14.9281C15.96 14.9281 16.32 14.9081 16.69 14.8681C17.35 14.8281 18.01 14.7481 18.72 14.6881V13.8781L16.69 14.8582C16.37 13.9482 15.94 13.1682 15.25 12.1582L17.49 11.1382C17.97 11.7082 18.36 12.3582 18.72 12.9882V11.0182H16.05V8.04819H18.72V7.19815H16.64V5.42816L15.48 3.37817C16.85 2.56817 18.01 1.60816 18.79 0.20816H22.33C23.24 1.28816 24.34 2.01817 25.82 2.68817L25.29 3.31815H28.17L28.15 0.128174H32.62V3.31815L36.16 3.29816V6.95816H33.06C33.63 9.61816 34.36 12.6881 36.76 14.6781L33.88 18.3382C32 15.8982 31.04 12.9282 30.45 10.5982ZM20.7 3.21817C20.4 3.62817 19.97 4.08815 19.56 4.41815H21.98C21.45 4.04815 21.06 3.66817 20.7 3.21817ZM27.77 6.95816L25.01 6.97818V3.68817L24.42 4.39816H24.6V7.20816H22.18V8.05814H25.03V11.0282H22.18V12.7182C22.52 12.2882 22.77 11.8482 23.05 11.1082L25.17 11.8382C24.85 12.7982 24.62 13.3382 24.19 14.0782C24.33 14.0582 24.49 14.0381 24.6 13.9981C26.59 12.0981 27.41 9.53816 27.77 6.95816ZM22.18 14.2982L23.62 14.1382L22.18 13.5882V14.2982Z" fill="#1F1F1F"/>
<path d="M44.14 0.348145V4.51813H45.81V8.13812H44.14V11.6381C44.87 11.4381 45.14 11.3381 45.85 11.0881V14.3181H58.95V17.7581H44.55V15.0381C43.07 15.5281 41.79 15.8881 39.69 16.4581L38.14 12.6781C38.98 12.5581 39.46 12.4581 40.08 12.2881V8.13812H38.48V4.51813H40.08V0.348145H44.14ZM46.31 0.488129H58.11V13.1682H46.31V0.488129ZM50.28 3.74814V5.12814H54.07V3.74814H50.28ZM50.28 9.71814H54.07V8.16815H50.28V9.71814Z" fill="#1F1F1F"/>
<path d="M68.08 3.74817V5.22815H70.48V8.09818L72.4 6.00815C74.02 7.06815 74.68 7.54814 76.14 8.68814L73.88 11.2282C74.68 11.1682 75.27 11.0482 76.19 10.9482V4.44815L74.45 6.53818C72.78 5.23818 72.12 4.82815 70.5 3.75815L72.78 1.17816C74.31 2.09816 74.97 2.53815 76.18 3.35815V0.128174H80.15V10.4582C80.9 10.3582 81.18 10.3181 81.84 10.1781L82.07 13.7182C81.45 13.8182 80.91 13.9182 80.15 14.0182V18.1482H76.18V14.4482C74.44 14.6682 72.64 14.8782 70.81 15.0382L70.31 12.4182L68.92 13.9682C68.58 13.4182 68.42 13.1181 68.08 12.6881V18.1582H64.18V13.9682C63.95 14.4782 63.43 15.1482 63.02 15.7182L60.87 12.3681C61.92 11.3081 63.08 9.76817 63.59 8.52817H61.49V5.17816H64.18V4.11816C63.31 4.21816 62.72 4.27817 61.97 4.33817L61.13 1.24817C64.1 1.00817 66.56 0.718171 69.42 0.188171L70.93 3.25815C69.98 3.49815 69.13 3.62817 68.08 3.74817ZM70.41 8.56815H68.45C69.57 9.49815 70.3 10.1482 71.42 11.2082L71.26 11.4082C71.94 11.3882 72.68 11.3282 73.41 11.2682C72.21 10.1682 71.62 9.53815 70.41 8.56815Z" fill="#1F1F1F"/>
<path d="M85.4301 18.0981L84.5401 14.5981C85.1601 14.6981 85.7301 14.7181 86.0701 14.7181C86.5001 14.7181 86.6201 14.5981 86.6201 14.2881V12.0481C86.0501 12.1481 85.4601 12.2681 84.7901 12.3581L84.0601 8.85812C84.9001 8.85812 85.9801 8.77809 86.6201 8.69809V6.60812H84.3401V3.21811H86.6201V0.0680847H90.6801V3.21811H92.2301V6.60812H90.6801V8.19809C91.2501 8.09809 91.6801 8.01809 92.2301 7.88809V11.1981C91.6801 11.3181 91.2701 11.4181 90.6801 11.5081V16.0181C90.6801 18.0181 87.9901 18.1381 85.4301 18.0981ZM95.0901 13.9281C94.3401 13.3581 93.3801 12.5281 92.5301 11.3881L94.7701 10.1881H92.4901V6.8381H96.42V5.47809H92.4901V2.10809H96.42V0.0581055H100.44V2.10809H104.8V5.47809H100.44V6.8381H104.09V9.74808C103.47 11.5981 102.86 12.5781 101.76 13.9181C102.76 14.2681 103.97 14.5281 105.39 14.6681L103.47 18.2481C101.35 17.8181 99.5901 17.1481 98.1301 16.3181C96.6501 17.0281 95.1201 17.6781 92.9701 18.1681L90.8 14.7281C92.44 14.5781 94.0101 14.3381 95.0901 13.9281ZM98.3501 12.1381C98.9701 11.5681 99.38 10.9181 99.67 10.1881H96.6301C97.0901 10.9181 97.6601 11.5881 98.3501 12.1381Z" fill="#1F1F1F"/>
</svg>
