<svg width="152" height="19" viewBox="0 0 152 19" fill="none" xmlns="http://www.w3.org/2000/svg">
<path d="M13.42 12.7882H11.09L10.66 16.2282H7.28L7.69 12.7882H6.30002L5.89001 16.2282H2.49002L2.90002 12.7882H0.940002V9.98819H3.27002L3.5 7.72818H1.51001V4.91815H3.84003L4.25 1.62817H7.63L7.24002 4.91815H8.63L9.02002 1.62817H12.42L12.03 4.91815H13.99V7.72818H11.66L11.43 9.98819H13.42V12.7882ZM8.31 7.72818H6.87003L6.62003 9.98819H8.06L8.31 7.72818Z" fill="#1F1F1F"/>
<path d="M24.93 14.0881C25.3 14.0481 25.93 13.9881 26.28 13.9281C26.69 12.6281 26.83 11.0781 26.83 8.9281V0.408142H33.93V13.4381C33.93 13.9281 33.89 14.4182 34.16 14.4182C34.34 14.4182 34.3 13.9681 34.32 13.4581C34.32 13.2581 34.3 11.0381 34.27 9.77814L36.78 10.3481C36.76 13.0281 36.64 15.4881 36.46 16.4281C36.28 17.3381 35.62 17.9681 34.52 17.9681H32.85C31.34 17.9681 30.75 17.0381 30.75 15.9581V4.32812H30.11V9.3681C30.11 13.3281 29.86 15.9081 28.12 18.4481L25.97 16.9281C22.73 17.2981 19.65 17.6181 16.34 17.9081L15.59 14.6581C16.25 14.7181 16.87 14.7181 17.51 14.6581C17.24 14.2081 16.89 13.8681 16.44 13.5381L17.33 13.0482H16.05V8.3681H26.21V13.0881H25.43C25.27 13.5381 25.13 13.6481 24.93 14.0881ZM15.68 7.78815V5.24814H26.66V7.78815H15.68ZM19.59 2.19812V0.0681152H22.92V2.19812H23.63V0.738129H26.48V4.75812H16.05V0.758118H18.9V2.19812H19.59ZM19.5 10.9981H22.76V10.4481H19.5V10.9981ZM21.41 14.4182C21.71 13.9082 21.91 13.6681 22.07 13.0381H19.92C20.24 13.4081 20.42 13.5681 20.74 13.9481L19.71 14.5981C20.41 14.5581 20.84 14.5182 21.41 14.4182Z" fill="#1F1F1F"/>
<path d="M47.5699 13.9082C47.8199 13.8682 48 13.8282 48.14 13.7882V17.0982C45.06 17.4882 43.21 17.6682 39.37 18.0182L38.4799 14.5382C39.0299 14.5582 39.6 14.5582 40.15 14.5382C39.67 13.6882 39.2399 13.0782 38.5099 12.1382L40.61 10.9182C41.16 11.5882 41.48 11.9782 42.05 12.7282V10.6982H39.0099V7.80817H42.05V7.17816H40.02V6.17816L39.7499 6.41821L38.2 3.8382C40.12 2.6782 41.2799 1.70818 42.2599 0.388184H45.7799C46.5599 1.40818 47.4199 2.21818 48.5699 2.94818V0.758179H59.2499V18.1982H56.08V17.7282H51.7199V18.1782H48.5699V12.3682C48.2299 12.9582 47.9599 13.3982 47.5699 13.9082ZM42.05 14.3982V13.3982L40.3099 14.5382C40.8399 14.5182 41.09 14.4782 42.05 14.3982ZM44.12 3.23819C43.69 3.76819 43.32 4.12818 42.84 4.47818H45.3099C44.8099 4.04818 44.51 3.74819 44.12 3.23819ZM48.0699 7.17816H45.7599V7.80817H48.2299V10.6982H45.7599V12.6082C46.3099 11.9582 46.5099 11.6882 47.0399 10.8182L48.55 11.5282V5.34821L48.0699 5.95819V7.17816ZM47.27 13.9482L45.7599 13.0982V14.0982C46.2499 14.0682 46.57 14.0282 47.27 13.9482ZM51.6599 4.3382V7.32819H52.34V4.3382H51.6599ZM51.6599 10.7182V14.1782H52.34V10.7182H51.6599ZM56.11 4.3382H55.36V7.32819H56.11V4.3382ZM55.36 10.7182V14.1782H56.11V10.7182H55.36Z" fill="#1F1F1F"/>
<path d="M82.2701 9.63815H79.7801V15.3282C79.7801 17.2782 78.14 18.1082 75.99 18.1082H71.81L70.81 14.0282C72.04 14.1282 73.44 14.2082 74.64 14.2082C75.12 14.2082 75.17 14.0681 75.17 13.8181V9.64816H69.67V8.16818C69.24 8.69818 68.7101 9.16816 68.1601 9.64816V18.2082H64.01V12.6781C63.76 12.8981 63.48 13.0882 63.17 13.3282L61.1801 9.93814C63.9901 8.20814 65.49 6.92816 67.64 4.67816L69.63 6.30814V5.85815H82.2801V9.63815H82.2701ZM63.14 6.52817L61.2701 3.35815C63.7301 2.37815 65.2 1.60815 67.3 0.108154L69.61 2.60815C67.47 4.20815 65.88 5.26817 63.14 6.52817ZM70.2801 0.938171H81.67V4.53815H70.2801V0.938171Z" fill="#1F1F1F"/>
<path d="M97.63 18.4781L96.28 17.4781V17.6581C92.61 17.9581 88.56 18.0481 84.94 18.1481L84.37 15.3881C85.95 15.4681 87.29 15.5081 88.66 15.4681V15.0581H85.1V12.7581H88.66V12.3881H84.8V6.04813H88.66V5.69809H84.48V3.19809H88.66V2.84811C87.56 2.90811 86.47 2.94811 85.3 2.96811L84.73 0.628113C88.31 0.588113 91.81 0.428094 95.02 0.0780945L96 2.53809C94.86 2.67809 93.65 2.75809 92.14 2.82809V3.19809H96.34V3.49811H97.23C97.25 2.45811 97.27 1.2881 97.21 0.0480957L101.09 0.18811C101.07 1.20811 101 2.19811 100.91 3.55811H104.97L104.95 5.44809C104.84 12.9281 104.74 16.2181 103.49 17.3581C102.6 18.0081 101.62 18.2081 99.24 18.2081L98.81 16.1381C98.47 16.9381 98.08 17.7281 97.63 18.4781ZM87.7 7.94809V8.57809H88.8V7.94809H87.7ZM87.7 10.4481H88.8V9.87808H87.7V10.4481ZM93.13 7.94809H92.06V8.57809H93.13V7.94809ZM92.06 10.4481H93.13V9.87808H92.06V10.4481ZM95.53 6.03812V5.68811H92.15V6.03812H95.53ZM97.19 6.87808H96.07V12.3681H92.14V12.7381H95.52V14.4881C96.74 12.0781 97.12 9.02808 97.19 6.87808ZM95.05 15.3681L95.23 15.0581H92.15V15.4281C93.11 15.4481 94.07 15.4281 95.05 15.3681ZM99.43 14.4381C99.84 14.4781 100.14 14.4781 100.27 14.4781C100.68 14.4781 100.84 14.3381 100.91 14.0681C101.21 12.9481 101.23 10.7781 101.32 6.88809H100.82C100.66 9.33809 100.23 11.9981 99.43 14.4381Z" fill="#1F1F1F"/>
<path d="M113.92 3.74817V5.22815H116.32V8.09818L118.24 6.00815C119.86 7.06815 120.52 7.54814 121.98 8.68814L119.72 11.2282C120.52 11.1682 121.11 11.0482 122.02 10.9482V4.44815L120.29 6.53818C118.62 5.23818 117.96 4.82815 116.34 3.75815L118.62 1.17816C120.15 2.09816 120.81 2.53815 122.02 3.35815V0.128174H125.99V10.4582C126.74 10.3582 127.02 10.3181 127.68 10.1781L127.91 13.7182C127.29 13.8182 126.75 13.9182 125.99 14.0182V18.1482H122.02V14.4482C120.29 14.6682 118.48 14.8782 116.66 15.0382L116.16 12.4182L114.77 13.9682C114.43 13.4182 114.27 13.1181 113.93 12.6881V18.1582H110.03V13.9682C109.8 14.4782 109.28 15.1482 108.87 15.7182L106.72 12.3681C107.77 11.3081 108.93 9.76817 109.44 8.52817H107.34V5.17816H110.03V4.11816C109.16 4.21816 108.57 4.27817 107.82 4.33817L106.98 1.24817C109.95 1.00817 112.41 0.718171 115.27 0.188171L116.78 3.25815C115.82 3.49815 114.97 3.62817 113.92 3.74817ZM116.25 8.56815H114.29C115.41 9.49815 116.14 10.1482 117.26 11.2082L117.1 11.4082C117.79 11.3882 118.52 11.3282 119.25 11.2682C118.06 10.1682 117.46 9.53815 116.25 8.56815Z" fill="#1F1F1F"/>
<path d="M131.27 18.0981L130.38 14.5981C131 14.6981 131.57 14.7181 131.91 14.7181C132.34 14.7181 132.46 14.5981 132.46 14.2881V12.0481C131.89 12.1481 131.3 12.2681 130.63 12.3581L129.9 8.85812C130.74 8.85812 131.82 8.77809 132.46 8.69809V6.60812H130.18V3.21811H132.46V0.0680847H136.52V3.21811H138.07V6.60812H136.52V8.19809C137.09 8.09809 137.52 8.01809 138.07 7.88809V11.1981C137.52 11.3181 137.11 11.4181 136.52 11.5081V16.0181C136.52 18.0181 133.83 18.1381 131.27 18.0981ZM140.93 13.9281C140.18 13.3581 139.22 12.5281 138.37 11.3881L140.61 10.1881H138.33V6.8381H142.26V5.47809H138.33V2.10809H142.26V0.0581055H146.28V2.10809H150.64V5.47809H146.28V6.8381H149.93V9.74808C149.31 11.5981 148.7 12.5781 147.6 13.9181C148.6 14.2681 149.81 14.5281 151.23 14.6681L149.31 18.2481C147.19 17.8181 145.43 17.1481 143.97 16.3181C142.49 17.0281 140.96 17.6781 138.81 18.1681L136.64 14.7281C138.28 14.5781 139.85 14.3381 140.93 13.9281ZM144.19 12.1381C144.81 11.5681 145.22 10.9181 145.51 10.1881H142.47C142.94 10.9181 143.51 11.5881 144.19 12.1381Z" fill="#1F1F1F"/>
</svg>
