<svg width="106" height="20" viewBox="0 0 106 20" fill="none" xmlns="http://www.w3.org/2000/svg">
<path d="M13.27 13.7882H10.94L10.51 17.2282H7.13001L7.54001 13.7882H6.15001L5.74001 17.2282H2.34001L2.75002 13.7882H0.790009V10.9882H3.12001L3.35001 8.72818H1.35001V5.91815H3.68002L4.09001 2.62817H7.47001L7.08001 5.91815H8.47001L8.86002 2.62817H12.26L11.87 5.91815H13.83V8.72818H11.5L11.27 10.9882H13.26V13.7882H13.27ZM8.15001 8.72818H6.71001L6.46001 10.9882H7.90001L8.15001 8.72818Z" fill="#1F1F1F"/>
<path d="M21.05 1.36807H24.63V5.49808H25.43V8.88806H19.97V9.65808H24.88V13.868C25.45 12.198 25.68 10.7381 25.68 8.88806V1.73807C29.33 1.55807 31.91 1.42808 35.56 1.02808L36.66 4.41806C34.65 4.59806 32.14 4.73806 29.51 4.82806V6.00806H36.36C36.34 9.50806 35.72 12.6581 34.72 14.6081C35.4 15.1981 36.14 15.728 36.93 16.188L34.6 19.3981C33.94 18.8881 33.23 18.298 32.61 17.688C31.92 18.358 31.19 18.968 30.33 19.498L27.98 16.8181C27.66 17.6281 27.34 18.2781 26.7 19.3181L24.87 17.8381V19.1981H21.03V13.2181H19.84C19.77 15.5181 19.57 17.308 19.04 19.438L15.3 17.808C16.35 14.088 16.49 11.5281 16.49 7.88806V1.23807H19.96V5.58807H21.03V1.36807H21.05ZM29.17 13.4481C28.9 14.5281 28.67 15.2181 28.21 16.2581C28.99 15.8681 29.51 15.5681 30.22 14.9581C29.81 14.4981 29.52 14.0781 29.17 13.4481ZM31.87 11.558C32.14 10.828 32.28 10.1981 32.37 9.33807H30.57C30.93 10.2181 31.3 10.868 31.87 11.558Z" fill="#1F1F1F"/>
<path d="M47.32 11.2282H45.38V2.44815H49.06C49.31 1.89815 49.52 1.38815 49.65 0.858154L53.92 1.40817C53.74 1.79817 53.6 2.05815 53.37 2.44815H58.57V11.2282H56.77L56.61 11.7182L58.28 11.2682C58.69 12.2282 59.12 13.3582 59.51 14.5782L58.05 15.0081L59.37 15.3382C59.16 17.1882 58.55 18.0181 57.73 18.4281C57.16 18.7081 56.31 18.8582 54.94 18.8582H52.98C51.18 18.8582 50.47 18.0282 50.47 17.0482V12.3781C49.85 14.4681 48.42 17.2581 46.13 19.2481L43.25 16.7082C43.71 16.4182 44.14 16.0981 44.53 15.7581C43.07 16.1281 41.56 16.4682 39.28 16.9182L38.21 13.3582C38.96 13.3182 39.53 13.2582 40.2 13.1582V9.15817H38.56V5.63815H40.2V1.44815H43.53V5.63815H44.99V9.15817H43.53V12.6781C44.17 12.5781 44.78 12.4582 45.22 12.3482V15.0882C46.38 13.8682 47.09 12.4482 47.32 11.2282ZM48.83 4.98816V5.94815H50.29V4.98816H48.83ZM48.83 8.88815H50.29V7.82816H48.83V8.88815ZM54.35 11.2282H53.57V13.0982C53.85 12.6682 54.17 11.9582 54.35 11.2282ZM55.1 4.98816H53.62V5.94815H55.1V4.98816ZM53.62 8.88815H55.1V7.82816H53.62V8.88815ZM55.95 14.6482L53.76 15.0782V15.7282C53.76 15.9482 53.94 16.1181 54.74 16.1181C55.04 16.1181 55.65 16.1181 55.79 15.8081C55.9 15.5581 55.93 15.0482 55.95 14.6482ZM56.54 11.9981C56.45 12.3181 56.33 12.5882 56.22 12.8282L56.7 12.7481C56.66 12.4881 56.61 12.2081 56.54 11.9981ZM57.23 14.3982L56.39 14.5782L57.35 14.8181C57.3 14.6681 57.25 14.5382 57.23 14.3982Z" fill="#1F1F1F"/>
<path d="M71.06 1.40796H78.59V4.92795C78.59 5.14795 78.61 5.65794 78.91 5.63794C79.25 5.61794 79.23 5.26796 79.23 4.90796L79.21 3.36795L82.29 4.03793C82.24 6.08793 82.02 7.14795 81.51 7.83795C81.05 8.48795 79.91 8.56793 79.23 8.56793H77.56C76.01 8.56793 75.32 8.13794 75.32 7.26794V4.62796H74.5C74.34 6.39796 74 7.73792 72.86 9.05792H81.05V12.0679C80.55 13.3679 79.82 14.348 79.13 15.098C80.13 15.338 81.18 15.488 82.35 15.548L80.32 19.2479C78.65 18.8979 77.22 18.378 75.78 17.658C74.55 18.288 73.06 18.8779 71.4 19.3279L69.48 16.788V19.1479H66.28V18.8179H64.98V19.1479H61.65V12.8079H69.48V16.0179C70.35 15.9179 71.31 15.7079 72.17 15.3879C71.33 14.7979 70.57 14.2079 69.89 13.5179L72.24 12.098H70.16V9.02795H72.12L69.61 7.43793V9.60797H61.57V7.18793H69.49C69.63 7.02793 69.76 6.90793 69.88 6.75793H61.18V3.86795H63.78C63.6 3.09795 63.39 2.66796 63.03 1.87796L67.03 0.897949C67.42 1.76795 67.62 2.25794 68.01 3.29794L66.02 3.86795H70.11V6.42795C70.99 5.04795 71.06 3.66796 71.06 1.40796ZM61.56 10.028H69.6V12.4479H61.56V10.028ZM65.06 15.1979V16.1779H66.29V15.1979H65.06ZM75.65 13.728C76.13 13.338 76.63 12.6879 76.95 12.1179H73.85C74.3 12.6879 75.03 13.328 75.65 13.728Z" fill="#1F1F1F"/>
<path d="M97.56 6.12808V1.18808H101.94V6.12808H105.02V9.90808H101.94V19.178H97.56V9.90808H94.25V6.91806H84.14V3.90808H87.56C87.33 3.11808 87.08 2.50806 86.72 1.72806L90.6 0.778076C91.08 1.83808 91.35 2.50807 91.76 3.55807L90.37 3.90808H94.57V6.12808H97.56ZM84.66 9.88806V7.38806H93.86V9.88806H84.66ZM84.66 12.7781V10.2781H93.86V12.7781H84.66ZM90.3 18.7681H88.66V19.1981H84.94V13.2781H93.68V19.1581H90.3V18.7681ZM88.59 15.5981V16.368H90.35V15.5981H88.59Z" fill="#1F1F1F"/>
</svg>
