<svg width="170" height="50" viewBox="0 0 170 50" fill="none" xmlns="http://www.w3.org/2000/svg">
<path d="M153.34 17.1201H0V49.6701H153.34V17.1201Z" fill="#F2E8DE"/>
<path d="M52.86 44.0699C52.48 43.6699 51.97 43.1999 51.32 42.6799V42.8099H45.8V43.2399C45.8 43.2999 45.81 43.3899 45.83 43.5099C45.83 43.5899 45.83 43.6399 45.83 43.6699C45.81 43.7499 45.28 43.7799 44.24 43.7799C43.2 43.7799 42.63 43.7399 42.55 43.6699C42.65 42.9799 42.71 42.0399 42.71 40.8399V37.9899L42.55 38.0299C42.38 37.6899 42.1 37.2799 41.73 36.8199C41.36 36.3599 41.01 35.9799 40.7 35.6999C42.24 35.2499 43.67 34.5999 44.97 33.7399L43.69 32.9799C43.53 33.0999 43.28 33.2599 42.93 33.4699C42.23 32.7399 41.47 32.0999 40.64 31.5599C41.66 31.0499 42.59 30.3999 43.43 29.5999C44.28 28.8099 44.92 27.9499 45.36 27.0399C46.11 27.2099 46.82 27.3899 47.5 27.5899C48.18 27.7899 48.51 27.9099 48.49 27.9499C48.47 27.9899 48.43 28.0099 48.36 28.0099C48.24 28.0199 48.16 28.0699 48.13 28.1399C48.08 28.2399 48 28.3899 47.9 28.5699H49.75L50.27 28.4599L52.38 29.2899C51.79 30.7699 50.95 32.1399 49.85 33.3799C51.1 34.0799 52.18 34.7399 53.11 35.3599L51.34 37.3199V41.7499C53.01 41.0799 54.34 40.3299 55.33 39.4999H53.4V33.4999V27.4799H56.53C56.63 26.9999 56.7 26.6099 56.74 26.3099H52.81V27.3699C52.81 27.7299 52.83 28.0699 52.86 28.3999C52.84 28.4599 52.32 28.4899 51.3 28.4899C50.27 28.4899 49.75 28.4599 49.71 28.3999C49.75 28.1899 49.76 27.9699 49.76 27.7299V27.0299H44.24V27.7299C44.24 27.9699 44.26 28.1899 44.29 28.3999C44.27 28.4599 43.76 28.4899 42.75 28.4899C41.76 28.4899 41.24 28.4599 41.19 28.3999C41.26 27.7699 41.29 27.1299 41.29 26.4699V24.5399H45.28V23.6899C45.28 23.4699 45.26 23.1599 45.23 22.7699C46.01 22.7399 46.81 22.7499 47.63 22.7899C48.64 22.8499 49.14 22.9499 49.14 23.0799C48.86 23.3199 48.72 23.5599 48.72 23.7999V24.5399H52.73V23.5499H58.77C60.58 23.5499 62.59 23.4699 64.81 23.3299C64.86 23.4299 64.89 23.9599 64.89 24.9099C64.89 25.8599 64.86 26.3599 64.81 26.3999C64.11 26.3399 63.42 26.3099 62.73 26.3099H60.65C60.61 26.3899 60.56 26.4999 60.49 26.6499C60.32 27.0299 60.2 27.2999 60.13 27.4799H64.35V33.4999C64.35 35.9399 64.44 37.9399 64.64 39.4999C64.64 39.6099 64.54 39.6599 64.35 39.6599C63.1 39.5599 61.67 39.4999 60.05 39.4999H55.72L58.4 41.0499C57.72 41.6199 56.87 42.1799 55.85 42.7499C54.81 43.2999 53.81 43.7399 52.86 44.0699ZM45.8 40.3699H47H48.2V38.9299H45.8V40.3699ZM47.23 31.8999C47.44 31.6799 47.6 31.4799 47.73 31.3199C47.85 31.1899 48.02 30.9799 48.23 30.7099H46.28C46.19 30.8199 46.06 30.9599 45.89 31.1399L47.23 31.8999ZM45.93 36.4799H49.34C49.17 36.3599 48.89 36.1799 48.51 35.9399C48.47 35.9099 48.41 35.8699 48.33 35.8299C48 35.6199 47.76 35.4699 47.6 35.3799C47.04 35.7799 46.49 36.1499 45.93 36.4799ZM56.69 30.7999H58.75H60.83V29.8599H56.69V30.7999ZM56.69 33.9399H58.75H60.83V32.9999H56.69V33.9399ZM56.69 37.1099H58.75H60.83V36.1699H56.69V37.1099ZM62.81 44.0999C62.34 43.6199 61.76 43.1099 61.06 42.5699C60.17 41.8699 59.46 41.3299 58.92 40.9799L61.6 39.4999C63.6 40.7999 64.95 41.7899 65.66 42.4699L62.81 44.0999Z" fill="#1F1F1F"/>
<path d="M84.85 44.1601C83.53 44.1601 82.81 44.1201 82.69 44.0501C82.85 42.8801 82.92 41.3201 82.92 39.3501V34.6501C81.98 33.7201 81.06 32.6501 80.16 31.4401C78.25 37.3901 75 41.5301 70.42 43.8601C70.09 43.4901 69.63 43.0501 69.04 42.5601C68.42 42.0401 67.88 41.6501 67.45 41.4101C70.12 40.2001 72.32 38.4001 74.04 36.0201C73.26 35.3801 72.19 34.6401 70.84 33.8201C70.35 34.3301 69.98 34.7001 69.72 34.9201C69.39 34.6401 68.9 34.2701 68.26 33.8301C67.62 33.3901 67.08 33.0501 66.64 32.8101C68.01 31.7301 69.22 30.2801 70.26 28.4501C71.25 26.7301 72.02 24.8201 72.58 22.7201C73.55 22.9001 74.46 23.1101 75.29 23.3501C76.16 23.6001 76.58 23.7901 76.54 23.9101C76.5 24.0001 76.43 24.0801 76.3 24.1601C76.09 24.2601 75.95 24.4401 75.88 24.6801C75.84 24.7701 75.8 24.8901 75.75 25.0401C75.61 25.4401 75.5 25.7401 75.41 25.9401H78.28L78.9 25.8301L81.35 26.5501C81.26 27.0101 81.13 27.7001 80.96 28.5901L81.92 28.2801C82.23 28.8201 82.56 29.3001 82.91 29.7201V26.2601C82.91 25.0001 82.85 23.8301 82.73 22.7301C83.69 22.7001 84.67 22.7101 85.67 22.7501C86.9 22.8101 87.52 22.9101 87.52 23.0401C87.28 23.4301 87.11 23.7401 87.02 23.9801C86.86 24.3801 86.79 24.8501 86.79 25.3701V28.1101V33.4101C88.39 34.5801 90.05 35.4901 91.79 36.1501C91.37 36.4601 90.89 36.9201 90.33 37.5201C89.83 38.0601 89.41 38.5601 89.08 39.0201C88.12 38.5601 87.36 38.1401 86.79 37.7601V40.9101C86.79 42.2301 86.84 43.2701 86.95 44.0301C86.89 44.1301 86.19 44.1601 84.85 44.1601ZM75.73 33.1101C76.03 32.4801 76.29 31.8301 76.51 31.1601C76.74 30.5001 76.94 29.7901 77.13 29.0301H74.03C73.54 29.9901 73.1 30.7501 72.7 31.3201C73.96 31.9901 74.97 32.5901 75.73 33.1101Z" fill="#1F1F1F"/>
<path d="M94.7 44.1201C94.51 43.7501 94.21 43.3201 93.8 42.8301C93.39 42.3401 93.01 41.97 92.67 41.72C93.69 41.26 94.4301 40.6101 94.8801 39.7901C95.2101 39.18 95.43 38.3301 95.53 37.2501H94.36V34.19C94.36 32.92 94.31 31.9001 94.2 31.1401C94.2 31.0201 94.25 30.9601 94.36 30.9601C95.66 31.0801 97.3 31.1401 99.28 31.1401H104.2V37.2501H102.74V39.7401L104.59 39.1801L105.03 40.9601C105.72 40.5701 106.21 40.0601 106.49 39.4301C106.72 38.9401 106.86 38.2101 106.93 37.2501H106.02V31.1401H111.1H116.21V37.2501H114.02V40.5101C114.02 40.6001 114.04 40.6901 114.07 40.7801C114.12 40.8701 114.22 40.91 114.36 40.91H114.62C114.72 40.91 114.8 40.8701 114.85 40.8001C114.9 40.7601 114.94 40.6701 114.98 40.5301C115 40.5001 115.01 40.4801 115.01 40.4601C115.08 40.0001 115.1 39.37 115.09 38.57C115.38 38.81 115.8 39.06 116.34 39.32C116.88 39.58 117.36 39.7701 117.77 39.8901C117.72 41.0101 117.58 41.8601 117.35 42.4301C117.18 42.9201 116.85 43.3001 116.39 43.5501C116.04 43.7901 115.53 43.91 114.85 43.91H113.34C112.47 43.91 111.82 43.7001 111.39 43.2801C111.15 43.0401 110.99 42.77 110.92 42.47C110.83 42.17 110.79 41.6501 110.79 40.9201V37.2401H110.11C109.99 39.0701 109.64 40.4501 109.07 41.3701C108.32 42.5501 107.01 43.4401 105.14 44.0401C104.86 43.4701 104.45 42.8801 103.92 42.2701C103.23 42.5201 102.2 42.8801 100.85 43.3301C100.33 43.5001 99.95 43.6201 99.7 43.7101L98.81 40.8601L99.51 40.6801V37.2401H98.62C98.46 38.8901 98.15 40.1901 97.68 41.1501C97.07 42.4101 96.07 43.4001 94.7 44.1201ZM93.32 30.5901C93.27 30.5301 93.2401 30.0801 93.2401 29.2301C93.2401 28.3801 93.27 27.95 93.32 27.94C93.67 27.97 94.01 27.9801 94.36 27.9801H95.4C95.24 27.3401 95.11 26.8601 94.98 26.5601H94.3501C94.2601 26.5601 94.15 26.5701 94.01 26.5801C93.89 26.5801 93.8 26.5801 93.75 26.5801C93.7 26.5701 93.67 26.1501 93.67 25.3401C93.67 24.5301 93.7 24.1101 93.75 24.0801C94.22 24.1201 94.86 24.1501 95.68 24.1501H97.61V23.4501C97.61 23.2701 97.59 23.02 97.56 22.69C98.31 22.66 99.06 22.6701 99.83 22.7101C100.77 22.7701 101.24 22.8701 101.24 23.0001C101.03 23.1801 100.93 23.3701 100.93 23.5601V24.1401H102.81C103.43 24.1401 104.06 24.12 104.69 24.07C104.74 24.1 104.77 24.5201 104.77 25.3301C104.77 26.1401 104.74 26.55 104.69 26.57C104.65 26.57 104.59 26.57 104.51 26.57C104.37 26.56 104.27 26.5501 104.2 26.5501H103.68C103.54 26.8201 103.38 27.18 103.18 27.63C103.11 27.78 103.06 27.89 103.02 27.97H103.93C104.16 27.97 104.46 27.9601 104.84 27.9301C104.89 27.9401 104.92 28.38 104.92 29.22C104.92 30.07 104.89 30.5201 104.84 30.5801C104.06 30.5101 103.1 30.47 101.97 30.47H99.08H96.19C95.32 30.48 94.36 30.5201 93.32 30.5901ZM97.51 34.8601H100.82V33.4901H99.15H97.51V34.8601ZM98.37 27.9901H100.06L99.93 27.97C99.95 27.93 99.97 27.8601 100.01 27.7701C100.08 27.5601 100.14 27.4001 100.19 27.3001C100.29 26.9701 100.37 26.7301 100.42 26.5801H97.97C98.14 26.9801 98.27 27.4501 98.37 27.9901ZM105.3 30.5901C105.25 30.5301 105.22 30.0801 105.22 29.2301C105.22 28.3801 105.25 27.95 105.3 27.94C105.58 27.97 105.88 27.9801 106.21 27.9801H107.15C107.05 27.5201 106.91 27.0401 106.73 26.5601H106.13C106.04 26.5601 105.93 26.5701 105.79 26.5801C105.67 26.5801 105.58 26.5801 105.53 26.5801C105.48 26.5701 105.45 26.1501 105.45 25.3401C105.45 24.5301 105.48 24.1101 105.53 24.0801C105.98 24.1201 106.59 24.1501 107.35 24.1501H109.17V23.4501C109.17 23.2701 109.15 23.02 109.12 22.69C109.9 22.66 110.69 22.6701 111.49 22.7101C112.46 22.7701 112.95 22.8701 112.95 23.0001C112.74 23.1801 112.64 23.3701 112.64 23.5601V24.1401H114.78C115.27 24.1401 115.98 24.1101 116.92 24.0501C116.97 24.0901 117 24.5201 117 25.3301C117 26.1401 116.97 26.55 116.92 26.57C116.89 26.57 116.81 26.57 116.69 26.57C116.53 26.56 116.42 26.5501 116.35 26.5501H115.78L114.97 27.97H116.06C116.3 27.97 116.67 27.9601 117.15 27.9301C117.2 27.9401 117.23 28.38 117.23 29.22C117.23 30.07 117.2 30.5201 117.15 30.5801C116.33 30.5101 115.34 30.47 114.18 30.47H111.21H108.24C107.36 30.48 106.38 30.5201 105.3 30.5901ZM109.37 34.8601H112.68V33.4901H111.01H109.37V34.8601ZM110.12 27.9901H112L111.87 27.97C111.96 27.76 112.04 27.5401 112.1 27.3001C112.2 27.0601 112.28 26.8201 112.33 26.5801H109.8C109.97 26.9901 110.11 27.45 110.22 27.97L110.12 27.9901Z" fill="#1F1F1F"/>
<path d="M122.03 44.1C121.51 43.49 120.8 42.81 119.89 42.06C121.7 41.88 123.53 41.57 125.39 41.12H123.75V36.49C122.88 36.85 122 37.16 121.09 37.41C120.52 36.53 119.81 35.74 118.98 35.05C120.93 34.69 122.64 34.15 124.11 33.43H122.05C121.6 33.43 120.92 33.46 120.02 33.52C119.97 33.48 119.94 33.08 119.94 32.34C119.94 31.6 119.97 31.2 120.02 31.14C120.84 31.21 121.83 31.25 122.99 31.25H125.96V30.8H124.5C124.01 30.8 123.54 30.82 123.07 30.87C123.02 30.84 122.99 30.56 122.99 30.02C122.99 29.48 123.02 29.2 123.07 29.17C123.42 29.21 123.9 29.24 124.5 29.24H125.96V28.77H122.86V27.89H120.07V23.94H129.4V23.33C129.4 23.18 129.38 22.96 129.35 22.66C130.2 22.63 131.05 22.64 131.9 22.68C132.94 22.74 133.46 22.84 133.46 22.97C133.25 23.12 133.15 23.28 133.15 23.44V23.93H137.84H142.53V27.88H139.87V28.76H136.64V29.23H138.2C138.74 29.23 139.25 29.21 139.74 29.16C139.79 29.19 139.82 29.47 139.82 30.01C139.82 30.55 139.79 30.83 139.74 30.86C139.38 30.82 138.86 30.79 138.2 30.79H136.64V31.24H139.66C140.56 31.24 141.56 31.2 142.66 31.13C142.71 31.19 142.74 31.59 142.74 32.33C142.74 33.07 142.71 33.46 142.66 33.49C142.24 33.45 141.69 33.42 140.99 33.42H139.32C140.62 33.97 142.06 34.41 143.62 34.72C143.26 35.01 142.85 35.39 142.4 35.89C141.97 36.38 141.62 36.83 141.36 37.22C140.42 36.94 139.61 36.64 138.94 36.32V41.11H137.51C139.68 41.63 141.3 42.05 142.36 42.37L139.29 44.1C137.17 43.37 134.75 42.68 132.02 42.06L133.32 41.12H129.2L130.66 42.02C129.62 42.48 128.28 42.91 126.65 43.3C125.08 43.65 123.54 43.92 122.03 44.1ZM123.44 27.07H125.97V26.78C125.97 26.75 125.97 26.71 125.97 26.65C125.95 26.56 125.94 26.49 125.94 26.43C126.69 26.4 127.46 26.41 128.26 26.45C129.22 26.51 129.69 26.61 129.69 26.74C129.48 26.77 129.38 26.82 129.38 26.9V27.08H133.21V26.79C133.21 26.76 133.21 26.72 133.21 26.66C133.19 26.57 133.18 26.5 133.18 26.44C133.94 26.41 134.72 26.42 135.5 26.46C136.47 26.52 136.96 26.62 136.96 26.75C136.75 26.78 136.65 26.83 136.65 26.91V27.09H139.02V26.35H131.23H123.44V27.07ZM127.11 35.83H135.39V35.38H131.25H127.11V35.83ZM127.11 37.69H135.39V37.26H131.25H127.11V37.69ZM127.11 39.6H131.25H135.39V39.13H127.11V39.6ZM128.07 33.87H131.56H135.08C134.91 33.72 134.73 33.57 134.56 33.42H128.57C128.52 33.46 128.44 33.54 128.32 33.63C128.21 33.74 128.13 33.81 128.07 33.87ZM129.38 29.22H133.21V28.75H131.28H129.38V29.22ZM129.38 31.25H133.21V30.8H131.28H129.38V31.25Z" fill="#1F1F1F"/>
<path d="M30.21 23.8499C30.14 23.7799 30.04 23.7299 29.94 23.7299L26.65 23.6899C26.66 23.6799 26.68 23.6599 26.69 23.6399C26.78 23.4699 26.95 22.4299 26.52 22.0399C26.09 21.6499 22.48 20.9299 19.84 20.9299C17.2 20.9299 13.92 21.5199 13.49 21.9499C13.06 22.3799 13.14 22.5999 13.14 23.0799C13.14 23.3899 13.35 23.5799 13.49 23.6599C13.49 23.6699 13.49 23.6799 13.49 23.6899L10.11 23.7299C10.01 23.7299 9.90998 23.7699 9.83998 23.8499C9.76998 23.9199 9.72998 24.0199 9.72998 24.1299C9.72998 24.2599 9.79998 27.2699 11.95 29.0999C13.6 30.5099 14.74 31.0299 15.16 31.1899C15.16 31.1999 15.17 31.1999 15.17 31.2099C15.21 31.2699 15.25 31.3299 15.29 31.3899C15.3 31.3999 15.3 31.4099 15.31 31.4199C15.35 31.4799 15.39 31.5399 15.43 31.5999C15.44 31.6099 15.44 31.6199 15.45 31.6199C15.49 31.6799 15.53 31.7399 15.57 31.7899C15.57 31.7999 15.58 31.7999 15.58 31.8099C15.62 31.8699 15.66 31.9299 15.71 31.9799L15.72 31.9899C15.76 32.0499 15.81 32.1099 15.85 32.1699C16.89 33.5399 18.02 34.5699 18.32 34.8299C18.19 34.8799 18.09 35.0099 18.09 35.1599C18.09 35.3199 18.19 35.4499 18.34 35.4899C18.32 35.5299 18.3 35.5799 18.3 35.6299C18.3 35.7999 18.44 35.9399 18.61 35.9399H19.1C19.13 36.2899 19.18 37.2599 18.87 38.0599C18.56 38.8599 17.64 39.2099 17.28 39.3199C16.7 39.3699 16.7 39.7499 16.7 39.7499C16.7 39.7499 15.9 39.5799 15.5 40.6999H15.37C15.05 40.6999 14.79 40.9599 14.79 41.2799V45.2699C14.79 45.5899 15.05 45.8499 15.37 45.8499H15.82H17.42H18.98H19.77H24.81C25.13 45.8499 25.39 45.5899 25.39 45.2699V41.2799C25.39 40.9599 25.13 40.6999 24.81 40.6999H24.38C23.98 39.5799 23.18 39.7499 23.18 39.7499C23.18 39.7499 23.18 39.3699 22.6 39.3199C22.24 39.2099 21.32 38.8599 21.01 38.0599C20.7 37.2599 20.75 36.2899 20.78 35.9399H21.31C21.48 35.9399 21.62 35.7999 21.62 35.6299C21.62 35.5799 21.61 35.5299 21.58 35.4899C21.72 35.4499 21.83 35.3199 21.83 35.1599C21.83 34.9999 21.72 34.8599 21.57 34.8199C21.95 34.4799 23.54 33.0199 24.7 31.2099L24.71 31.2499C24.76 31.2299 26.03 30.8599 28.1 29.0899C30.24 27.2599 30.31 24.2499 30.32 24.1199C30.32 24.0299 30.28 23.9299 30.21 23.8499ZM10.52 24.5099L13.51 24.4699C13.58 25.8099 13.79 28.2699 14.51 29.9999C13.99 29.6999 13.29 29.2199 12.43 28.4999C10.98 27.2699 10.61 25.3299 10.52 24.5099ZM27.6 28.4999C26.62 29.3399 25.83 29.8399 25.3 30.1299C26.06 28.3999 26.29 25.8399 26.36 24.4599L29.52 24.4999C29.41 25.3299 29.05 27.2699 27.6 28.4999Z" fill="#1F1F1F"/>
<path d="M157.12 1L152.68 9.20999" stroke="#F2E8DE" stroke-width="2" stroke-miterlimit="10"/>
<path d="M158.08 12.8401L165.55 5.79004" stroke="#F2E8DE" stroke-width="2" stroke-miterlimit="10"/>
<path d="M160.43 18.21L169.32 16.1899" stroke="#F2E8DE" stroke-width="2" stroke-miterlimit="10"/>
</svg>
