<svg width="92" height="24" viewBox="0 0 92 24" fill="none" xmlns="http://www.w3.org/2000/svg">
<path d="M0.224 22.632C0.176 22.52 0.152 21.864 0.152 20.664C0.152 19.448 0.176 18.784 0.224 18.672C1.824 18.832 3.768 18.912 6.056 18.912H11.912C12.424 17.472 12.904 15.808 13.352 13.92C13.8 11.968 14.128 10.16 14.336 8.496C15.392 8.688 16.352 8.952 17.216 9.288C18.16 9.64 18.6 9.936 18.536 10.176C18.488 10.352 18.384 10.52 18.224 10.68C17.968 10.92 17.776 11.288 17.648 11.784C17.056 14.168 16.352 16.544 15.536 18.912H18.704C19.776 18.912 20.824 18.864 21.848 18.768C21.896 18.832 21.92 19.464 21.92 20.664C21.92 21.864 21.896 22.52 21.848 22.632C20.504 22.488 18.704 22.416 16.448 22.416H11.024H5.624C3.832 22.416 2.032 22.488 0.224 22.632ZM5.864 18.432C5.784 17.2 5.56 15.744 5.192 14.064C4.824 12.304 4.408 10.76 3.944 9.432L7.208 8.544C7.736 9.952 8.2 11.48 8.6 13.128C9 14.76 9.264 16.2 9.392 17.448L5.864 18.432ZM0.992 8.04C0.944 7.928 0.92 7.288 0.92 6.12C0.92 4.936 0.944 4.304 0.992 4.224C2.176 4.336 3.536 4.392 5.072 4.392H9.176V2.424C9.176 1.832 9.144 1.152 9.08 0.383999C9.928 0.351999 10.8 0.359999 11.696 0.407999C12.8 0.471999 13.352 0.575999 13.352 0.719999C12.968 1.328 12.776 1.936 12.776 2.544V4.392H16.952C18.12 4.392 19.504 4.336 21.104 4.224C21.152 4.304 21.176 4.936 21.176 6.12C21.176 7.288 21.152 7.928 21.104 8.04C19.856 7.896 18.184 7.824 16.088 7.824H11.048H6.008C4.328 7.824 2.656 7.896 0.992 8.04ZM37.856 23.4C36.656 23.4 35.992 23.36 35.864 23.28C36.024 21.792 36.104 19.984 36.104 17.856V12.432V6.984C36.104 4.856 36.024 3.048 35.864 1.56C35.864 1.432 35.944 1.368 36.104 1.368C37.336 1.496 38.872 1.56 40.712 1.56H45.344V15.576C45.344 16.408 45.264 17.072 45.104 17.568C44.928 18.144 44.616 18.584 44.168 18.888C43.736 19.176 43.216 19.376 42.608 19.488C42.128 19.568 41.472 19.608 40.64 19.608C40.528 18.456 40.184 17.272 39.608 16.056V19.68C39.608 21.2 39.656 22.4 39.752 23.28C39.688 23.36 39.056 23.4 37.856 23.4ZM28.712 22.488C27.144 22.488 26.096 22.208 25.568 21.648C25.056 21.12 24.8 20.104 24.8 18.6V15.744C24.8 14.656 24.76 13.672 24.68 12.792C25.416 12.76 26.152 12.768 26.888 12.816C27.784 12.88 28.232 12.984 28.232 13.128C28.04 13.32 27.944 13.52 27.944 13.728V14.352H31.208C32.312 14.352 33.4 14.304 34.472 14.208C34.52 14.272 34.544 14.808 34.544 15.816C34.544 16.808 34.52 17.32 34.472 17.352C34.072 17.304 33.528 17.28 32.84 17.28H31.208H27.944V18.576C27.944 18.976 28.008 19.232 28.136 19.344C28.28 19.44 28.608 19.488 29.12 19.488H31.76C32.16 19.488 32.424 19.384 32.552 19.176C32.68 18.952 32.776 18.456 32.84 17.688C33.128 17.912 33.568 18.144 34.16 18.384C34.704 18.608 35.208 18.768 35.672 18.864C35.496 20.272 35.144 21.232 34.616 21.744C34.12 22.24 33.272 22.488 32.072 22.488H28.712ZM41.432 15.864C41.672 15.864 41.792 15.728 41.792 15.456V5.088H39.608V10.464V15.816C40.072 15.848 40.68 15.864 41.432 15.864ZM24.704 12.192V2.496H27.656C27.848 1.696 27.976 0.991999 28.04 0.383999C29 0.447999 29.904 0.552 30.752 0.696C31.616 0.823999 32.032 0.935999 32 1.032C31.968 1.096 31.912 1.144 31.832 1.176C31.688 1.24 31.584 1.368 31.52 1.56C31.424 1.768 31.296 2.08 31.136 2.496H35.216V12.192H29.96H24.704ZM27.848 9.576H29.888H31.928V8.544H27.848V9.576ZM27.848 6.12H29.888H31.928V5.112H27.848V6.12ZM60.488 23.376C59.448 23.376 58.864 23.336 58.736 23.256C58.896 21.768 58.976 19.952 58.976 17.808V12.36V6.888C58.976 4.744 58.896 2.928 58.736 1.44C58.736 1.296 58.816 1.224 58.976 1.224C60.256 1.368 61.952 1.44 64.064 1.44H69.176V5.928C69.176 6.68 69.088 7.248 68.912 7.632C68.72 8.08 68.368 8.416 67.856 8.64C67.392 8.848 66.808 8.984 66.104 9.048C65.624 9.096 64.872 9.12 63.848 9.12C63.736 8.256 63.432 7.264 62.936 6.144C63.576 6.176 64.448 6.192 65.552 6.192C65.744 6.176 65.872 6.152 65.936 6.12C66 6.072 66.032 5.984 66.032 5.856V4.464H62.048V9.768H67.184L67.736 9.648L69.752 10.392C69.304 13.432 68.544 16.032 67.472 18.192C68.4 19.216 69.416 20.016 70.52 20.592C70.168 20.896 69.776 21.32 69.344 21.864C68.912 22.392 68.568 22.88 68.312 23.328C67.384 22.72 66.512 21.96 65.696 21.048C64.976 21.976 64.232 22.736 63.464 23.328C63.144 22.816 62.672 22.264 62.048 21.672V22.464C62.048 22.736 62.064 23 62.096 23.256C62.08 23.336 61.544 23.376 60.488 23.376ZM53.432 23.328C52.376 23.328 51.832 23.288 51.8 23.208C51.832 22.888 51.848 22.552 51.848 22.2V21.168V19.104H50.192C49.632 19.104 49.088 19.128 48.56 19.176C48.512 19.144 48.488 18.64 48.488 17.664C48.488 16.672 48.512 16.16 48.56 16.128C48.976 16.176 49.52 16.2 50.192 16.2H51.848V14.76H50.096C49.52 14.76 48.944 14.784 48.368 14.832C48.32 14.8 48.296 14.296 48.296 13.32C48.296 12.328 48.32 11.824 48.368 11.808C48.592 11.84 48.84 11.856 49.112 11.856H49.88C49.704 11.008 49.48 10.256 49.208 9.6L49.976 9.408H48.896C48.656 9.408 48.296 9.424 47.816 9.456C47.768 9.424 47.744 8.92 47.744 7.944C47.744 6.968 47.768 6.456 47.816 6.408C48.488 6.472 49.16 6.504 49.832 6.504H51.848V5.28H50.24C49.712 5.28 49.184 5.304 48.656 5.352C48.608 5.32 48.584 4.824 48.584 3.864C48.584 2.888 48.608 2.384 48.656 2.352C49.04 2.4 49.568 2.424 50.24 2.424H51.848V1.488C51.848 1.232 51.832 0.895999 51.8 0.48C52.504 0.447999 53.232 0.455999 53.984 0.503999C54.912 0.567999 55.376 0.671999 55.376 0.816C55.12 1.072 54.992 1.336 54.992 1.608V2.424H56.432C56.912 2.424 57.392 2.4 57.872 2.352C57.92 2.384 57.944 2.888 57.944 3.864C57.944 4.824 57.92 5.32 57.872 5.352C57.52 5.304 57.04 5.28 56.432 5.28H54.992V6.504H56.864C57.296 6.504 57.912 6.472 58.712 6.408C58.76 6.456 58.784 6.968 58.784 7.944C58.784 8.92 58.76 9.424 58.712 9.456C58.456 9.424 58.184 9.408 57.896 9.408H57.08L57.848 9.6C57.704 9.92 57.512 10.376 57.272 10.968C57.096 11.368 56.968 11.664 56.888 11.856H57.632C57.792 11.856 58.032 11.84 58.352 11.808C58.4 11.824 58.424 12.328 58.424 13.32C58.424 14.296 58.4 14.8 58.352 14.832C57.952 14.784 57.392 14.76 56.672 14.76H54.992V16.2H56.552C57.096 16.2 57.616 16.176 58.112 16.128C58.16 16.16 58.184 16.672 58.184 17.664C58.184 18.64 58.16 19.144 58.112 19.176C57.728 19.128 57.208 19.104 56.552 19.104H54.992V21.168C54.992 21.856 55.024 22.536 55.088 23.208C55.04 23.288 54.488 23.328 53.432 23.328ZM62.048 20.28C62.64 19.736 63.216 19.08 63.776 18.312C63.072 17.016 62.496 15.712 62.048 14.4V17.352V20.28ZM65.408 15.24C65.76 14.328 66.04 13.416 66.248 12.504H64.232C64.376 13.016 64.552 13.48 64.76 13.896C64.968 14.392 65.184 14.84 65.408 15.24ZM51.92 11.856H54.944L54.272 11.664C54.544 10.912 54.768 10.16 54.944 9.408H51.944C52.104 9.776 52.248 10.176 52.376 10.608C52.488 10.992 52.56 11.344 52.592 11.664L51.92 11.856ZM89.816 23.4C88.616 23.4 88.008 23.36 87.992 23.28C87.992 23.248 87.992 23.192 87.992 23.112C88.008 22.984 88.016 22.888 88.016 22.824V22.344H80.072V22.8C80.072 22.864 80.08 22.96 80.096 23.088C80.096 23.168 80.096 23.224 80.096 23.256C80.08 23.336 79.496 23.376 78.344 23.376C77.192 23.376 76.576 23.336 76.496 23.256C76.592 22.376 76.64 21.184 76.64 19.68V16.08C75.584 16.432 74.504 16.744 73.4 17.016C73.208 16.504 72.952 15.944 72.632 15.336C72.28 14.68 71.952 14.168 71.648 13.8C74.448 13.24 77.048 12.376 79.448 11.208C78.744 10.472 77.672 9.496 76.232 8.28C75.432 8.728 74.816 9.064 74.384 9.288C74.128 8.84 73.776 8.336 73.328 7.776C72.848 7.2 72.416 6.768 72.032 6.48C75.616 4.976 78.24 2.92 79.904 0.311999C80.864 0.519999 81.768 0.767999 82.616 1.056C83.464 1.344 83.856 1.528 83.792 1.608C83.744 1.672 83.672 1.712 83.576 1.728C83.416 1.744 83.28 1.832 83.168 1.992C83.024 2.184 82.808 2.456 82.52 2.808H88.592L89.168 2.64L91.568 4.056C90.096 7.208 87.832 9.872 84.776 12.048H91.568V17.664V20.472C91.568 21.576 91.608 22.512 91.688 23.28C91.624 23.36 91 23.4 89.816 23.4ZM80.072 19.2H88.016V15.192H84.032H80.072V19.2ZM82.616 9.36C84.168 8.288 85.408 7.152 86.336 5.952H82.904H79.472L78.992 6.336C80.528 7.472 81.736 8.48 82.616 9.36Z" fill="#1F1F1F"/>
</svg>
