<svg width="168" height="23" viewBox="0 0 168 23" fill="none" xmlns="http://www.w3.org/2000/svg">
<path d="M4.26001 9.28992V20.4799H0.0700073V1.41992H10.49V9.28992H4.26001ZM4.26001 3.93994V4.54993H6.77002V3.93994H4.26001ZM4.26001 6.22992V6.87994H6.77002V6.22992H4.26001ZM14.96 12.4999V13.4399H16.93V16.2999H14.96V20.27H11.53V16.2999H10.24C10.14 17.8999 9.95 18.8199 8 20.6299L5.04999 18.59C6.26999 17.73 6.77998 17.1799 6.84998 16.2999H4.76001V13.4399H6.97998V12.4999H5.09998V9.91992H16.6V12.4999H14.96ZM10.35 13.45H11.57V12.5099H10.35V13.45ZM16.37 20.52L15.45 16.89C16.11 16.95 16.67 16.9899 17.08 16.9899C17.4 16.9899 17.49 16.8899 17.49 16.6299V9.27997H11.13V1.40991H21.58V18.33C21.58 19.79 20.78 20.52 16.37 20.52ZM15.08 3.93994V4.54993H17.49V3.93994H15.08ZM15.08 6.85992H17.49V6.22992H15.08V6.85992Z" fill="#1F1F1F"/>
<path d="M32.29 1.34991L37.48 0.909912C37.6 1.19991 37.67 1.40994 37.8 1.80994H46.08V7.13995H44.18V7.99994H40.28V8.33997H46.49V10.6099H43.3C44.22 11.1399 45.27 11.5599 46.76 11.9099L44.76 14.89C44.3 14.68 43.88 14.4099 43.42 14.1099V18.0399H41.62C43.23 18.0999 44.64 18.1899 46.27 18.2899L45.08 20.64C42.35 20.2 40.5 19.9499 36.48 19.4799L37.16 18.03H33.02L33.8 19.4799C30.39 20.1699 28.66 20.3799 25.57 20.6099L24.3 18.2999C26.3 18.2999 27.37 18.26 29.05 18.03H26.86V14.2499C26.52 14.4799 26.23 14.6899 25.72 14.9199L23.89 12.1099C25.23 11.7099 26.16 11.3299 27.3 10.5999H24.16V8.32996H30.2V7.98993H26.01V7.12994H24.28V1.79993H32.63C32.51 1.60993 32.42 1.51991 32.29 1.34991ZM28.16 4.14996V4.62994H30.2V4.14996H28.16ZM28.18 6.40991H30.2V6.06995H28.18V6.40991ZM31.17 12.6899V13.1699H39.11V12.6899H31.17ZM31.17 14.3699V14.77H39.11V14.3699H31.17ZM31.17 16.4299H39.11V15.9699H31.17V16.4299ZM31.42 11.0099H38.43L37.94 10.6099H31.88C31.73 10.7599 31.56 10.8899 31.42 11.0099ZM36.29 4.14996H34V4.62994H36.29V4.14996ZM36.29 6.07996H34V6.41992H36.29V6.07996ZM34 8.00995V8.34991H36.29V8.00995H34ZM42.13 4.14996H40.28V4.62994H42.13V4.14996ZM42.13 6.07996H40.28V6.41992H42.13V6.07996Z" fill="#1F1F1F"/>
<path d="M64.71 1.32996L56.99 22.9299L53.61 21.7999L61.33 0.189941L64.71 1.32996Z" fill="#1F1F1F"/>
<path d="M82.22 6.47992H86.31C85.53 5.31992 84.82 3.72996 84.29 1.70996L88.5 1.01996C88.55 1.43996 88.65 1.85993 88.77 2.29993C89.31 1.91993 89.74 1.56996 90.28 0.959961L92.81 2.97992C91.71 3.87992 91.03 4.34992 90.01 4.97992C90.16 5.20992 90.3 5.39997 90.47 5.58997C91.27 4.99997 91.88 4.49993 92.83 3.48993L95.34 5.54993C94.49 6.34993 93.81 6.88994 93 7.43994C93.63 7.75994 94.36 7.98993 95.34 8.17993L93.51 11.8099C93.12 11.6599 92.8 11.5199 92.54 11.3699V16.1199H90.4L90.11 16.8499H94.93V20.0999H72.91V16.8499H77.98L77.79 16.1199H75.52V11.7299C75.33 11.8799 75.13 12 74.86 12.15L72.45 9.03992C73.62 8.69992 74.45 8.34993 75.23 7.92993C74.35 7.14993 73.72 6.70994 72.97 6.18994L75.21 4.54993H73.63V1.41992H83.62L84.33 3.24994C83.66 4.66994 82.97 5.63992 82.22 6.47992ZM77.88 5.90991C78.34 5.46991 78.61 5.17997 79.05 4.52997H76.25C76.88 5.02997 77.23 5.29991 77.88 5.90991ZM88.26 8.76996V9.39996H79.64V8.84991C79.18 9.28991 78.57 9.74992 78.01 10.1099H89.92C89.35 9.78992 88.79 9.28996 88.26 8.76996ZM80.1 13.4699H87.99V12.7399H80.1V13.4699ZM82.51 16.09L82.7 16.8199H85.38L85.72 16.09H82.51Z" fill="#1F1F1F"/>
<path d="M106.96 13.2798L108.88 11.2398C109.81 11.7798 110.56 12.2498 111.32 12.7698V11.1898H106.67V8.09979H112.76C112.86 7.92979 112.96 7.71985 113 7.52985H106.84C107.67 5.59985 108.45 3.49982 109.18 1.31982L112.93 1.58984L112.71 2.13983H118.72C118.06 4.21983 117.48 6.14979 116.8 8.09979H119.28V11.1898H115.33V12.5298C115.87 12.1898 116.64 11.6698 117.13 11.2098L119.39 13.3498C118.59 13.9198 117.66 14.4198 116.88 14.8398C117.59 15.4698 118.46 16.0798 119.39 16.5398L117.49 19.3298C116.69 18.6798 116 18.0698 115.32 17.2498V18.5098C115.32 19.9198 114.03 20.3598 112.47 20.3598H110.45L109.67 17.7398C109.09 18.1398 108.5 18.5198 107.92 18.8698L106.65 17.1098V18.7298C103.65 19.3598 102.12 19.6498 97.98 20.2798L96.84 16.8198C97.3 16.7998 97.79 16.7798 98.25 16.7398C97.93 15.8598 97.35 14.6798 96.86 13.6298L99.25 12.6398C99.64 13.3298 99.83 13.6698 100.2 14.3998V12.4098H97.4V9.17981H100.2V8.44983H99.1V8.02985L98.73 8.48981L96.73 5.52985C98.34 4.20985 99.34 3.06979 100.21 1.53979H104.35C105.1 3.02979 106.49 3.88982 107.83 4.99982L106.12 6.69983V8.43982H103.78V9.1698H106.41V12.3998H103.78V14.3898C104.24 13.6798 104.49 13.2098 104.8 12.4598L106.94 13.1898C106.96 13.2398 106.96 13.2598 106.96 13.2798ZM98.53 16.7398L100.21 16.5698V15.8998L98.53 16.7398ZM102.31 4.52985C101.99 5.00985 101.77 5.32979 101.46 5.65979H103.07C102.75 5.25979 102.55 4.94985 102.31 4.52985ZM105.11 15.7798L103.82 15.1898V16.0098C104.21 15.9498 104.67 15.8798 105.11 15.7798ZM106.89 13.4498C106.6 14.2698 106.43 14.9398 106.09 15.5898C106.26 15.5498 106.5 15.5098 106.7 15.4398V16.0898C107.45 15.7498 108.36 15.2898 109.04 14.7898C108.4 14.3098 107.71 13.8698 106.89 13.4498ZM110.08 17.4598C110.4 17.4998 110.71 17.4998 110.93 17.4998C111.32 17.4998 111.32 17.3998 111.32 17.2698V16.4298C110.93 16.7898 110.52 17.1398 110.08 17.4598ZM111.47 5.21979H113.73C113.85 4.92979 113.92 4.75985 114 4.52985H111.74C111.66 4.75985 111.56 4.96979 111.47 5.21979Z" fill="#1F1F1F"/>
<path d="M128.07 5.98999V8.20001C129.77 6.10001 131.11 3.29002 131.67 1.02002L136.3 2.10999C136.18 2.54999 135.89 3.1 135.69 3.5H143.7V7.23999H135.62V8.59998H142.97V12.21H135.62V13.49H143.22V17.08H135.62V20.46H131.02V10.72C130.73 11.22 130.48 11.6 130.17 12.04L128.08 10.02V20.46H123.77V11.94C123.53 12.36 123.38 12.63 123.09 13.01L121.09 9.27002C123.13 6.56002 124.55 3.42998 125.23 1.03998L129.76 2.10999C129.22 3.68999 128.61 4.98999 128.07 5.98999Z" fill="#1F1F1F"/>
<path d="M152.55 19.6401H150.53V20.42H146.54V10.4901H156.57V20.42H152.55V19.6401ZM147.97 1.56006H165.99V9.64008H147.97V1.56006ZM150.48 14.04V16.1H152.62V14.04H150.48ZM152.69 6.25006H161.26V4.97003H152.69V6.25006ZM163.31 19.6401H161.29V20.42H157.3V10.4901H167.33V20.42H163.31V19.6401ZM161.24 14.04V16.1H163.38V14.04H161.24Z" fill="#1F1F1F"/>
</svg>
