<svg width="648" height="646" viewBox="0 0 648 646" fill="none" xmlns="http://www.w3.org/2000/svg">
<path d="M130.04 100.43L133.78 64.11L137.95 64.03L134.24 100.67L171.38 101.87L170.41 105.92L133.78 104.73L130.05 141.49L125.96 141.39L129.62 104.69L92.81 103.43L92.7 99.29L130.04 100.43Z" fill="#1F1F1F"/>
<path d="M208 49.6L213.88 61.13L192.9 71.84L203.88 93.36L187.1 101.92L158.46 45.8L197.9 25.67L204.18 37.97L181.52 49.53L187.01 60.29L208 49.6Z" fill="#1F1F1F"/>
<path d="M239.31 54.84L245.39 75.99L227.73 81.06L210.45 20.92C218.06 17.84 225.79 15.17 233.64 12.91C251.75 7.71004 262.59 11.33 266.17 23.77C267.17 27.25 266.92 30.83 265.43 34.49C263.93 38.15 261.5 41.16 258.12 43.5L258.17 43.67C260.25 44.09 262.11 44.86 263.73 45.98C265.36 47.1 267.11 48.86 268.97 51.25L280.26 65.96L261.7 71.29L251.56 57.14C250.34 55.4 249.1 54.26 247.83 53.72C246.56 53.19 245.09 53.16 243.4 53.65L239.31 54.84ZM235.86 42.81L240.84 41.38C243.92 40.5 246.15 39.09 247.52 37.17C248.9 35.25 249.23 33.07 248.53 30.64C247.02 25.39 242.95 23.71 236.31 25.62C234.38 26.18 232.76 26.79 231.45 27.47L235.86 42.81Z" fill="#1F1F1F"/>
<path d="M280.15 10.76C286.19 4.62999 294.6 1.24999 305.38 0.639991C316.16 0.0299906 324.9 2.41999 331.6 7.83999C338.29 13.25 341.93 20.95 342.49 30.95C343.05 40.95 340.32 49.01 334.29 55.15C328.25 61.29 319.84 64.66 309.06 65.27C298.27 65.88 289.53 63.49 282.84 58.08C276.15 52.67 272.52 44.97 271.95 34.97C271.38 24.96 274.11 16.9 280.15 10.76ZM291.23 33.86C291.92 45.92 297.59 51.65 308.25 51.04C318.91 50.43 323.9 44.1 323.21 32.04C322.52 19.98 316.85 14.25 306.19 14.86C295.53 15.46 290.55 21.8 291.23 33.86Z" fill="#1F1F1F"/>
<path d="M385.62 41.92L385.81 41.95L391.96 7.98002L410.04 11.25L398.82 73.24L380.74 69.97L366.68 32.34L366.49 32.31L360.34 66.28L342.26 63.01L353.48 1.02002L371.56 4.29002L385.62 41.92Z" fill="#1F1F1F"/>
<path d="M475.48 37.3L469.94 50.42L452.76 43.16L433.78 88.08L416.08 80.6001L435.06 35.68L417.88 28.42L423.42 15.3L475.48 37.3Z" fill="#1F1F1F"/>
<path d="M453.19 76.64L459.87 65.55L488.12 82.57L481.44 93.66L453.19 76.64Z" fill="#1F1F1F"/>
<path d="M532.52 109.05L524.17 118.94L505.45 103.14L497.66 112.37L517.82 129.38L508.91 139.93L474.35 110.77L514.98 62.62L549.54 91.78L540.64 102.33L520.48 85.32L513.8 93.24L532.52 109.05Z" fill="#1F1F1F"/>
<path d="M556.93 153.78L557.05 153.93L584.2 132.61L595.55 147.06L546 185.97L534.66 171.52L549.13 134.05L549 133.9L521.85 155.22L510.51 140.77L560.06 101.87L571.4 116.32L556.93 153.78Z" fill="#1F1F1F"/>
<path d="M600.98 226.12C591.47 230.64 582.7 231.23 574.68 227.88C566.65 224.53 560.16 217.64 555.19 207.21C552.03 200.57 549.45 194.15 547.46 187.94L603.57 161.25C607.13 166.72 610.49 172.78 613.64 179.41C618.6 189.85 619.94 199.19 617.66 207.44C615.37 215.69 609.81 221.92 600.98 226.12ZM566.65 199.16C567.01 200.59 567.49 201.93 568.08 203.17C572.94 213.38 581.34 215.64 593.29 209.96C604.2 204.77 607.23 197.07 602.37 186.86C601.78 185.61 601.04 184.4 600.16 183.22L566.65 199.16Z" fill="#1F1F1F"/>
<path d="M617.22 310.37C606.81 311.93 598.25 309.95 591.54 304.41C584.83 298.87 580.62 290.39 578.91 278.96C577.82 271.69 577.22 264.79 577.11 258.27L638.56 249.05C640.37 255.32 641.83 262.09 642.92 269.36C644.63 280.79 643.2 290.12 638.61 297.35C634.03 304.57 626.9 308.92 617.22 310.37ZM592.22 274.58C592.15 276.05 592.22 277.47 592.42 278.84C594.1 290.02 601.48 294.63 614.57 292.66C626.52 290.87 631.65 284.38 629.98 273.2C629.77 271.83 629.42 270.46 628.92 269.07L592.22 274.58Z" fill="#1F1F1F"/>
<path d="M621.04 358.83L608.11 358.22L609.26 333.75L597.19 333.18L595.96 359.53L582.17 358.88L584.29 313.71L647.22 316.66L645.1 361.83L631.31 361.18L632.54 334.83L622.2 334.35L621.04 358.83Z" fill="#1F1F1F"/>
<path d="M591.67 390.74L633.74 414.58L628.98 433.59L573.36 396.35L578.17 377.16L644.78 370.53L639.93 389.9L591.72 390.55L591.67 390.74Z" fill="#1F1F1F"/>
<path d="M583.78 471.87L572.12 466.26L582.74 444.19L571.85 438.95L560.41 462.72L547.97 456.73L567.58 415.98L624.35 443.31L604.73 484.06L592.29 478.07L603.73 454.3L594.4 449.81L583.78 471.87Z" fill="#1F1F1F"/>
<path d="M586.37 511.14L547 482.38L530.6 504.82L519.1 496.42L546.89 458.38L597.76 495.55L586.37 511.14Z" fill="#1F1F1F"/>
<path d="M555.86 537.86C555.08 546.43 550.71 554.37 542.75 561.68C534.8 568.99 526.51 572.67 517.91 572.73C509.3 572.78 501.61 569.13 494.84 561.76C488.07 554.39 485.07 546.42 485.85 537.84C486.63 529.27 491 521.33 498.96 514.02C506.92 506.71 515.2 503.03 523.8 502.97C532.41 502.91 540.1 506.57 546.87 513.94C553.64 521.32 556.64 529.29 555.86 537.86ZM532.65 527.01C524.48 518.11 516.46 517.28 508.59 524.5C500.73 531.72 500.88 539.78 509.06 548.68C517.23 557.58 525.25 558.41 533.12 551.19C540.98 543.97 540.82 535.91 532.65 527.01Z" fill="#1F1F1F"/>
<path d="M468.14 562.73L458.31 545.68L474.23 536.51L505.48 590.72C500.31 594.7 494.54 598.52 488.17 602.19C469.67 612.85 456.9 612.08 449.86 599.87C446.04 593.24 445.22 587.02 447.42 581.2C449.61 575.39 454.71 570.17 462.71 565.56C464.82 564.34 466.64 563.4 468.14 562.73ZM474.39 573.57C473.27 574.02 472 574.65 470.59 575.46C467.05 577.5 464.76 579.81 463.72 582.41C462.68 585 462.95 587.67 464.53 590.41C467.55 595.64 472.73 596.14 480.07 591.91C481.27 591.22 482.42 590.39 483.53 589.42L474.39 573.57Z" fill="#1F1F1F"/>
<path d="M401.74 612.41L397.5 600.18L420.64 592.16L416.68 580.74L391.76 589.38L387.24 576.33L429.97 561.52L450.61 621.04L407.88 635.85L403.36 622.8L428.28 614.16L424.89 604.38L401.74 612.41Z" fill="#1F1F1F"/>
<path d="M370.4 601.32L367.35 579.53L385.54 576.98L394.22 638.94C386.25 640.93 378.23 642.49 370.14 643.62C351.48 646.24 341.25 641.13 339.45 628.31C338.95 624.72 339.69 621.22 341.69 617.8C343.69 614.38 346.52 611.75 350.19 609.9L350.17 609.73C348.17 609.02 346.44 608 344.98 606.67C343.52 605.33 342.04 603.35 340.53 600.71L331.42 584.56L350.55 581.88L358.61 597.31C359.57 599.21 360.64 600.51 361.82 601.22C363 601.93 364.46 602.16 366.2 601.91L370.4 601.32ZM372.13 613.71L367 614.43C363.83 614.87 361.43 615.95 359.79 617.66C358.16 619.37 357.52 621.48 357.87 623.99C358.63 629.4 362.43 631.63 369.27 630.67C371.26 630.39 372.95 630.01 374.34 629.52L372.13 613.71Z" fill="#1F1F1F"/>
<path d="M288.97 617.04L259.56 638.68L256.69 635.65L286.32 613.78L262.25 585.47L265.9 583.47L289.64 611.39L319.37 589.44L322.04 592.54L292.4 614.5L316.21 642.6L313.21 645.46L288.97 617.04Z" fill="#1F1F1F"/>
<path d="M204.89 561.71C211.1 559.35 218.42 559.89 226.86 563.31C235.3 566.73 240.93 571.45 243.74 577.47C246.55 583.48 246.31 590.57 243 598.73L229.06 633.12L211.42 625.97L225.85 590.38C227.39 586.59 227.77 583.55 227.01 581.26C226.25 578.96 224.41 577.23 221.5 576.05C218.59 574.87 216.06 574.84 213.91 575.95C211.76 577.07 209.92 579.52 208.39 583.3L193.96 618.89L176.67 611.88L190.61 577.49C193.93 569.32 198.69 564.06 204.89 561.71Z" fill="#1F1F1F"/>
<path d="M198.15 550.76L165.4 604.58L147.69 593.81L180.44 539.99L198.15 550.76Z" fill="#1F1F1F"/>
<path d="M96.2 508.59C103.63 501.13 111.69 497.62 120.37 498.07C129.06 498.52 137.49 502.82 145.68 510.97C150.89 516.15 155.48 521.34 159.46 526.51L115.62 570.55C110.43 566.6 105.23 562.03 100.02 556.84C91.83 548.69 87.42 540.34 86.79 531.8C86.16 523.26 89.3 515.52 96.2 508.59ZM137.61 522.42C136.79 521.2 135.89 520.1 134.91 519.12C126.9 511.14 118.22 511.84 108.89 521.22C100.37 529.78 100.11 538.05 108.12 546.03C109.1 547 110.2 547.9 111.43 548.72L137.61 522.42Z" fill="#1F1F1F"/>
<path d="M64.24 471.9L74.99 464.69L88.63 485.03L98.66 478.3L83.97 456.39L95.44 448.7L120.63 486.26L68.31 521.35L43.12 483.79L54.59 476.1L69.28 498.01L77.88 492.24L64.24 471.9Z" fill="#1F1F1F"/>
<path d="M34.44 424.12C34.3 431.08 35.52 437.57 38.1 443.57C39.27 446.28 40.58 448.14 42.05 449.15C43.52 450.16 44.9601 450.36 46.3901 449.75C48.6101 448.8 49.39 446.24 48.73 442.08C47.06 432.07 46.98 424.55 48.48 419.53C49.99 414.51 53.15 410.96 57.96 408.9C63.78 406.4 69.15 406.7 74.07 409.78C78.99 412.86 83.3501 418.82 87.1401 427.65C88.73 431.34 89.86 435.56 90.55 440.29C91.24 445.02 91.2801 449.02 90.6701 452.28L76.71 453.66C77.3 449.92 77.38 446.11 76.96 442.22C76.54 438.33 75.71 434.95 74.48 432.06C72.25 426.87 69.42 425.01 65.98 426.48C63.76 427.43 63.03 430.48 63.8 435.62C65.2 445 65.11 452.15 63.52 457.07C61.94 461.99 58.77 465.47 54.01 467.51C48.78 469.76 43.69 469.36 38.75 466.32C33.81 463.28 29.62 457.75 26.18 449.73C22.51 441.19 20.74 433.41 20.85 426.39L34.44 424.12Z" fill="#1F1F1F"/>
<path d="M75.52 399.36L14.57 415.3L9.32996 395.25L70.28 379.31L75.52 399.36Z" fill="#1F1F1F"/>
<path d="M26.91 351.27L24.14 319.36L59.39 316.3C62.97 324.25 65.16 332.88 65.97 342.21C66.97 353.66 64.8299 363.04 59.5799 370.33C54.3199 377.63 46.79 381.7 36.99 382.55C26.96 383.42 18.79 380.81 12.49 374.7C6.18995 368.6 2.51995 359.63 1.48995 347.81C0.689952 338.55 2.00996 330.55 5.46996 323.82L18.21 327.91C15.54 333.75 14.44 339.37 14.91 344.75C15.47 351.2 17.54 356.06 21.12 359.34C24.7 362.62 29.44 364.01 35.34 363.49C41.19 362.98 45.6 360.74 48.57 356.76C51.55 352.78 52.76 347.7 52.22 341.5C52.01 339.06 51.53 336.9 50.79 335L38.5799 336.06L39.7999 350.14L26.91 351.27Z" fill="#1F1F1F"/>
<path d="M40.4 272.07L40.43 271.88L6.26001 266.96L8.88 248.78L71.24 257.76L68.62 275.94L31.52 291.35L31.49 291.54L65.66 296.46L63.04 314.64L0.679993 305.66L3.29999 287.48L40.4 272.07Z" fill="#1F1F1F"/>
<path d="M50.88 201.37L63.04 205.8L54.65 228.81L66 232.95L75.04 208.17L88.01 212.9L72.52 255.39L13.33 233.81L28.82 191.32L41.79 196.05L32.75 220.83L42.48 224.38L50.88 201.37Z" fill="#1F1F1F"/>
<path d="M79.27 184.07L98.1 195.46L88.59 211.18L35.05 178.81C38.54 171.38 42.39 164.17 46.62 157.18C56.37 141.06 66.78 136.34 77.86 143.04C80.96 144.92 83.21 147.71 84.6 151.41C85.99 155.11 86.25 158.98 85.36 162.99L85.51 163.08C87.32 161.97 89.21 161.28 91.16 160.99C93.11 160.7 95.59 160.81 98.59 161.3L116.87 164.43L106.88 180.96L89.83 177.47C87.75 177.02 86.06 177.03 84.77 177.49C83.48 177.96 82.38 178.94 81.47 180.45L79.27 184.07ZM68.56 177.59L71.24 173.16C72.9 170.42 73.58 167.88 73.28 165.53C72.98 163.19 71.75 161.36 69.59 160.05C64.91 157.22 60.79 158.76 57.21 164.68C56.17 166.4 55.4 167.95 54.9 169.34L68.56 177.59Z" fill="#1F1F1F"/>
</svg>
