<svg width="548" height="399" viewBox="0 0 548 399" fill="none" xmlns="http://www.w3.org/2000/svg">
<path d="M542.86 177.72C533.4 156.62 522.43 136.47 506.08 119.74C505.1 116.29 502.27 114.34 499.84 112.07C498.51 105.03 493.31 100.83 488.36 96.4401L487.9 96.8701C487.9 96.8701 487.89 96.8701 487.89 96.8601C488.05 96.7201 488.2 96.5801 488.36 96.4401C481.41 87.9701 470.51 87.1201 461.54 82.5501C459.09 80.7001 456.45 79.2901 453.31 79.0501C447.05 74.1001 439.51 72.6001 431.96 71.1301C427.4 69.9001 422.84 68.6701 418.28 67.4401C416.3 64.9301 413.91 63.3101 410.52 63.8501C409.26 62.8601 408 61.8701 406.73 60.8701C400.81 54.0301 398.22 44.4201 389.4 39.9901C388.75 39.3801 388.1 38.7801 387.46 38.1701C383.41 32.8401 377.24 31.7501 371.36 30.9301C350.24 27.9701 328.99 26.3901 307.64 26.7701C300.05 24.3401 292.13 23.9501 284.29 23.0501C281.71 22.2801 279.13 21.5101 276.55 20.7401C274.43 18.1301 271.61 18.7601 268.85 19.0601C255.63 11.2101 240.58 10.1501 225.96 7.51007C225.45 7.22007 224.9 7.06007 224.31 7.05007C217.94 4.45007 211.35 3.18007 204.45 3.69007C199.39 3.63007 194.32 3.57007 189.26 3.50007C185.96 2.90007 182.66 2.31007 179.36 1.71007C178.11 1.68007 176.86 1.64007 175.6 1.61007C172.33 1.61007 169.06 1.61007 165.79 1.60007C155.94 1.62007 145.9 0.190071 136.69 5.25007C130.93 7.32007 125.18 9.38007 119.42 11.4501C104.39 16.7001 91.73 25.6901 80.12 36.3301C77.56 37.7001 75 39.0801 72.44 40.4501C69.06 39.9401 65.92 40.7201 62.93 42.2501C59.07 42.9801 55.22 43.7101 51.36 44.4301C36.53 49.7701 20.25 50.8401 6.57999 59.6201C-1.31003 61.1401 -8.69 63.5301 -12.92 71.2101C-15.64 71.3401 -18.61 70.4601 -20.67 73.1801C-24.71 75.5201 -29.8 76.3401 -32.19 81.0801C-32.91 81.7801 -33.62 82.4801 -34.34 83.1701C-38.54 81.8801 -41.05 84.9201 -43.97 86.9201C-45.47 86.7901 -46.92 86.8201 -47.85 88.3001C-52.36 89.8601 -56.86 91.4101 -61.37 92.9701C-68.37 94.9401 -75.38 96.9101 -82.38 98.8801C-88.65 104.04 -95.73 99.5701 -102.33 100.57C-118.41 103 -134.61 103.69 -150.82 104.41C-153.96 104.46 -157.11 104.5 -160.25 104.55C-171.88 107.06 -184.2 106.43 -195.14 112.13C-198.99 113.29 -202.82 114.54 -206.7 115.61C-225.96 120.93 -245.4 125.39 -265.29 127.63C-265.16 127.76 -265.03 127.88 -264.91 128.01C-265.06 127.9 -265.2 127.78 -265.29 127.63C-293.65 129.23 -319.25 137.96 -340.97 156.78L-341 156.81C-342.97 158.06 -344.93 159.3 -346.9 160.55C-357.3 172.17 -371.26 178.99 -383.78 187.73C-399.02 191.22 -412.52 200.49 -428.6 201.2H-428.61C-436.1 200.46 -443.58 199.73 -451.07 199C-452.99 199.63 -455.21 199.15 -457.14 199.72V203.27C-454.79 204.49 -451.83 204.42 -447.56 203.36C-451.46 204.52 -453.16 205.17 -453.7 207.25C-453.06 208.56 -452.41 209.87 -451.77 211.19C-455.75 211.29 -455.63 214.15 -455.63 216.92C-457.65 222.16 -452.83 222.23 -450.4 224.1C-450.86 224.08 -451.33 224.13 -451.8 224.27C-455.61 223.08 -452.5 231.49 -457.14 228.47V242.11V244.62V244.66V254.58V279.22V280.85V312.75C-456.88 312.9 -456.64 313.06 -456.38 313.21C-457.05 315.63 -452.79 319.08 -457.14 320.98V327.53V330.39V340.77V343.36V352.85C-456.64 352.85 -456.14 352.85 -455.65 352.85C-455.78 353.6 -456.4 354.07 -457.14 354.45V360.97C-456.9 361.49 -456.92 361.84 -457.14 362.04V381.88V384.24V395.53C-441.54 390.89 -426.02 385.89 -409.4 386.09C-409.12 386 -408.88 385.89 -408.62 385.79C-408.86 386.15 -409.08 386.52 -409.34 386.87C-409.58 387.19 -408.95 387.98 -408.5 388.44C-398.62 390.29 -388.96 394.26 -378.6 391.94C-378.14 392.74 -377.79 393.55 -377.68 394.38C-370.92 399.7 -363.37 397.37 -356.5 395.55C-340.86 391.41 -325.2 389.43 -309.1 391.53C-307.8 391.16 -306.47 390.93 -305.14 390.74C-301.06 391.88 -296.75 391.28 -292.58 391.72C-292.4 392.03 -292.21 392.16 -292.03 392.4C-290.42 392.2 -288.82 392 -287.21 391.8C-280.68 391.01 -274.14 390.28 -267.59 389.6C-260.43 388.86 -253.26 388.15 -246.09 387.47C-245.98 387.5 -245.85 387.49 -245.71 387.43C-245.07 387.37 -244.43 387.3 -243.8 387.24C-243.79 387.22 -243.77 387.19 -243.76 387.17C-241.33 387.33 -239.63 387.73 -236.5 386.13C-233.82 386.24 -231.77 386.08 -230.22 385.74C-230.13 385.8 -230.04 385.86 -229.95 385.91C-225.21 385.46 -220.47 385.01 -215.74 384.53C-214.11 384.03 -212.47 383.52 -210.84 383.02C-210.82 383.02 -210.8 383.03 -210.78 383.03C-209.62 382.66 -208.47 382.28 -207.32 381.91C-207.25 381.89 -207.18 381.86 -207.11 381.84C-206.99 381.8 -206.87 381.76 -206.75 381.72C-206.73 381.71 -206.71 381.71 -206.69 381.7C-202.58 380.37 -198.47 379.04 -194.36 377.7C-190.06 376.3 -185.75 374.92 -181.44 373.55C-181.54 373.24 -181.65 372.91 -181.81 372.55C-178.85 371.69 -175.55 370.44 -171.95 368.69C-171.68 368.69 -171.41 368.68 -171.14 368.69C-170.72 368.66 -170.31 368.64 -169.89 368.62C-161.47 363.18 -151.17 361.63 -142.78 356.72C-120.41 343.64 -98.7 329.42 -76.94 315.33C-72.46 312.43 -68.87 308.15 -64.88 304.5C-64.33 304.61 -63.83 304.5 -63.39 304.15C-52.1 299.19 -42.96 291.22 -33.9 283.13C-26.37 279.36 -19.47 274.61 -12.78 269.52C-4.01001 266.97 3.03 261.09 11.07 257.09C54.69 235.35 90.27 203.74 121.13 166.46C123.15 164.45 125.64 162.73 127.12 160.37C135.92 146.29 148.02 135.97 163.63 130.82C173.56 127.54 181.54 119.43 192.69 119.5C204.02 133.47 215.01 147.75 229.48 158.79C231.23 163.65 235.25 164.24 239.61 164.17C240.17 164.5 240.78 164.65 241.43 164.61C242.99 166.42 245.12 166.54 247.28 166.57L247.34 166.54C247.72 166.77 248.08 166.91 248.43 167C255.06 169.57 262.01 167.45 268.78 168.05C270.03 168.27 271.29 168.49 272.54 168.71C286.56 171.66 300.7 174.19 314.01 179.79C314.01 179.79 314.01 179.78 314 179.78C314 179.78 314.01 179.78 314.01 179.79C324.79 186.37 335.57 192.95 346.35 199.52C346.47 199.31 346.59 199.1 346.71 198.9C346.73 198.94 346.74 198.99 346.75 199.03C346.74 199.04 346.35 199.52 346.35 199.52C351.33 205.31 356.31 211.1 361.28 216.9C364.07 220.57 360.09 223.36 360.02 226.67C359.74 227.1 359.53 227.53 359.36 227.96C357.45 232.06 358.11 236.2 359.85 240.35C366.94 251.58 369.74 251.86 376.56 242.04C377.45 240.76 378.42 239.53 379.36 238.27C380.69 237 382.02 235.73 383.36 234.46L383.37 234.49C385.37 235.01 387.37 235.53 389.37 236.05C389.73 236.45 390.17 236.66 390.71 236.66C397.65 240.65 405.59 242.93 411.72 237.26C417.01 232.37 421.43 225.27 416.28 217.07C411.45 203.55 401.05 191.88 402.6 176.22C403.1 171.74 401.5 167.57 400.81 163.26C400.38 160.62 399.43 157.25 402.41 155.52C405.35 153.81 406.36 157.91 408.7 158.44C409.29 159.19 409.88 159.93 410.48 160.68C413.16 165.77 418.74 167.85 422.3 172.04C422.88 172.2 423.47 172.33 424.07 172.41C430.79 177.16 433.34 184.36 435.51 191.79C437.93 197.49 440.74 202.95 445.27 207.33C448.97 212.5 449.86 218.25 449.89 224.56C449.94 235.83 455.84 243.88 465.34 246.36C470.93 247.82 474.78 246.99 471 239.89C471.01 237.6 471.03 235.31 471.04 233.02C475.23 231.44 476.7 234.42 478.47 237.24C480.57 240.58 483.44 243.29 487.24 244.49C491.19 245.74 495.62 247.4 499.31 244.71C503.19 241.88 499.45 238.12 498.95 235C498.14 230.01 495.94 225.24 494.32 220.37C494.01 205.18 493.3 190.07 486.62 175.98C485.19 170.84 483.76 165.7 482.33 160.57C482.82 157.97 480.87 154.56 484.52 153.02C488.11 151.51 490.34 153.74 492.69 156.15C495.54 159.07 498.81 161.58 501.89 164.27C502.56 165 503.24 165.73 503.91 166.46C507.22 172.02 509.56 178.3 515.35 182.04C527.55 192.76 535.35 193.71 546.08 185.78C548.21 181.81 544.92 180.01 542.86 177.72ZM366.81 160.93C364.83 160.63 362.91 160.55 361.32 161.67C360.55 160.9 359.79 160.12 359.01 159.36C353.66 155.15 350.51 148.24 343.15 146.48C342.82 147.72 342.44 148.28 342.04 148.46C342.23 148.07 342.42 147.6 342.61 146.96C341.83 145.16 341.2 143.2 338.72 143.09C337.58 141.08 336.43 139.08 335.29 137.07C333.93 131.92 334.43 128.62 341.11 130.81C344.72 131.99 348.44 132.84 352.11 133.84C352.75 134.4 353.39 134.95 354.03 135.51C355.83 138.93 358.9 141.09 361.88 143.32C362.39 144.69 362.89 146.06 363.4 147.43C369.16 149.21 366.06 155.79 369.57 158.79C369.62 159.9 369.41 160.89 368.85 161.73C368.17 161.47 367.49 161.21 366.81 160.93Z" fill="#1F1F1F" stroke="#D9F24F" stroke-width="2" stroke-miterlimit="10" stroke-linecap="round" stroke-linejoin="round"/>
</svg>
