<svg width="540" height="459" viewBox="0 0 540 459" fill="none" xmlns="http://www.w3.org/2000/svg">
<path d="M950.21 10.2401V1.40006C950.08 1.34006 949.95 1.28006 949.82 1.19006C947.14 3.03006 944.46 4.86006 941.79 6.70006C937.75 7.27006 935.06 10.1101 932.1 12.4901C917.51 20.8901 908.71 35.6301 895.69 45.7501C894.37 47.0601 893.04 48.3801 891.72 49.6901C889.62 49.9301 888.45 51.3201 887.56 53.0701C885.7 54.5401 883.83 56.0201 881.97 57.4901C876.19 59.0401 875.7 68.0501 868.24 67.2201C860.8 71.4601 852.59 72.1601 844.29 72.5201C841.8 72.6301 839.18 72.2501 837.16 74.2601C822.78 71.9101 808.02 73.9701 793.77 70.6601C789.61 69.6901 786.35 70.7001 782.96 72.5401C776.51 73.3601 770.03 70.1801 763.58 72.6601C762.88 73.2701 762.1 73.4701 761.3 73.5301C762.06 73.2401 762.82 72.9501 763.58 72.6601C753.63 71.8501 743.92 72.9501 734.54 76.4901C719.99 78.6901 706.85 84.0401 695.69 93.8401C695.69 93.8401 695.69 93.8401 695.68 93.8401C690.58 95.6801 685.5 97.5801 680.37 99.3501C655.4 107.97 628.84 111.59 604.83 123.24C597.05 127.03 589.26 130.82 581.48 134.61C572.81 138.27 564.14 141.93 555.48 145.59C555.05 145.74 554.61 145.91 554.15 146.15C539.34 147.44 524.54 148.73 509.73 150.01C501.97 151.36 494.22 152.71 486.46 154.06C480.78 154.96 474.8 155.03 469.46 156.89C447.17 164.64 424.75 169.87 400.75 170.18C388.56 170.34 375.55 174.26 364.36 181.06C361.65 181.19 359.67 182.47 358.37 184.84C349.63 188.13 340.46 186.59 331.48 187.23C330.83 187.22 330.18 187.22 329.54 187.21C327.6 187.19 325.67 187.18 323.73 187.16C309.35 189.24 295.01 191.65 281.91 198.29C276.03 201.27 270.12 202.86 263.61 202.38C261.67 202.39 259.73 202.4 257.79 202.41C255.66 202.43 253.44 202.16 251.96 204.25C239.56 206.8 227.59 210.47 217 217.72C215.74 218.43 214.47 219.13 213.21 219.83C204.55 223.83 195.91 227.91 186.05 227.78C180.15 227.55 174.18 226.61 168.63 229.63C161.96 233.34 154.62 235.19 147.35 237.2C146.06 237.19 144.77 237.19 143.48 237.18C123.36 233.9 103.24 234.38 83.11 237.06C81.27 237.78 79.44 238.51 77.6 239.23C66.69 242.71 56.74 248.66 45.29 250.93C40.05 251.97 34.44 248.99 29.55 253.01C23.54 257.96 16.44 260.74 8.98999 262.98C2.35999 264.98 -0.530004 269.29 3.75 276.05C4.73 277.73 5.85997 279.21 8.03997 279.32C8.61997 279.52 9.19001 279.74 9.76001 279.98C16.45 281.16 23.14 281.22 29.83 280.16C31.07 280.62 32.31 281.1 33.54 281.57C42.98 282.92 50.89 277.83 59.22 275.01C68.98 271.7 79.88 276.28 89.02 270.09C96.3 269.49 103.61 268.48 110.7 271.31C123 277.66 136.48 274.32 149.34 276.02C153.12 279.29 158.38 280.71 161.04 285.38C163.45 290.11 168.73 290.49 172.6 293C173.19 293.26 173.81 293.36 174.46 293.3C178.83 301.25 168.06 301.74 167.57 307.29C167.17 307.79 166.89 308.34 166.72 308.96C164.98 309.66 164.94 311.24 164.78 312.75C162.31 313.71 160.94 315.53 160.52 318.11C153.56 321.23 148.72 326.97 143.33 332.02C140.88 332.79 137.83 332.89 136.1 334.45C131.33 338.76 122.53 340.27 122.74 348.04C122.88 353.16 124.5 359.79 131.75 361.28C135.55 363.85 139.34 366.43 143.14 369C143.2 368.79 143.27 368.58 143.33 368.38C143.25 372.33 143.48 378.55 143.4 382.5C141.14 386.22 143.85 390.68 141.62 394.4C141.77 394.95 141.74 395.49 141.54 396.02C139.86 401.12 140.27 406.26 141.25 411.41C142.14 417.08 142.5 422.9 144.03 428.4C146.83 438.48 145.3 450.33 155.35 457.61C161.57 458.84 166.53 455.71 170.46 451.89C174.18 454.14 178.25 454.27 182.41 453.83C183.58 453.77 184.76 453.72 185.93 453.66C190.36 452.13 192.45 448.67 193.57 444.41C199.19 432.77 195.97 418.78 203.38 407.62C205.59 404.07 206.98 400.23 207.4 396.05C210.06 392.6 209.54 388.14 211.12 384.34L211.16 384.27C213.64 382.91 215.64 381.08 216.87 378.48C222.28 375.31 224.9 369.64 228.79 365.1C232.91 360.3 237.46 359.09 242.82 363.05C242.44 364.32 243.28 364.75 244.24 365.1C245.41 374.59 241.6 382.75 237.33 390.77C237.17 391.42 237 392.08 236.84 392.73C232.49 401.52 234.33 410.38 236.56 419.24C236.56 421.11 236.56 422.98 236.55 424.86C236.63 424.98 236.73 425.08 236.82 425.18C235.91 425.9 236.5 429.24 237.5 432.37C237.55 433.14 237.73 433.9 238.16 434.64C241.14 446.67 248.47 449.19 257.95 441.62C258.41 441.28 258.86 440.91 259.3 440.5C259.31 440.49 259.31 440.49 259.32 440.48C266.61 426.17 261.49 410.76 263.27 395.96C267.78 389.44 271.34 382.48 273.32 374.77C274.67 373.49 276.01 372.2 277.36 370.92C286.84 369.64 296.6 372.23 305.92 368.78C308 368.18 310.07 367.59 312.15 366.99C316.48 365.16 320.64 363.08 323.5 359.13C329.48 355.41 337.81 357.53 342.81 351.36C348.76 349.15 354.59 346.78 356.52 339.8L356.57 339.73C356.67 339.27 356.73 338.79 356.77 338.3C356.87 338.63 356.83 339.08 356.57 339.73C359.85 336.55 363.13 333.38 366.4 330.2C367.88 329.98 369.53 330.12 370.27 328.35C373.17 327.73 375.86 326.75 377.64 324.15C383.87 321.73 387.55 315.89 393.15 312.62C405.29 304.52 417.12 295.34 433.17 298.77C446.59 301.64 459.94 304.87 473.31 307.94C473.31 307.94 473.31 307.94 473.32 307.94C476.52 308.21 479.81 308.08 482.91 308.8C514.83 316.28 547.18 317.49 579.76 315.69C582.96 315.83 586.25 316.51 589.36 316.04C613.59 312.35 637.93 314.83 662.21 314.46C666.35 312.42 669.49 316.17 673.25 316.37L673.91 316.21L674.46 316.61C677.46 318.85 681.37 316.28 684.38 318.46L685.28 318.32L686.12 318.66C689.36 320.54 693.2 318.52 696.46 320.28C698.82 321.01 701.18 321.74 703.54 322.47C722.16 323.7 740.78 324.45 759.37 322.1C759.85 321.6 760.03 321.08 759.97 320.55C768.71 322.01 776.7 318.54 784.92 316.63C802.31 310.79 819.71 304.96 837.1 299.12C840.83 298.43 844.57 297.75 848.3 297.06C852.15 294.98 856.71 297.66 860.52 295.25L861.16 294.89L861.86 295.13C865.06 293.25 868.96 295.49 872.12 293.41C883.4 292.03 893.9 288.55 903.19 281.84C911.39 277.31 918.7 271.03 928.04 268.76C935.71 266.89 943.14 264.55 950.22 261.52V258.11V254.49V234.08V232.33V227.7V225.07V212.7V209.62V206.98V205.27V204.77V203.06V172.74V168.22V162.54V158.18V140.35V140.23V130.72V128.08V127.29V124.34V118.12V116.97V115.87V113.75V111.46V109.41V102.39V100.49V97.8301V95.6001V72.6701V70.9701V48.2501V45.6101V42.8501V38.9701V26.2401C950 26.3101 949.78 26.3701 949.56 26.4701C947.88 27.2001 947.89 25.5901 947.87 24.0401C948.15 23.8701 948.42 23.7001 948.69 23.5101C949.51 23.0501 949.98 22.5501 950.23 22.0201V19.6801C949.68 17.9201 948.41 16.0901 949.65 14.5201C949.9 14.3701 950.08 14.2301 950.23 14.0801V11.9501C949.99 11.5101 949.73 11.0701 949.67 10.6301C949.85 10.5201 950.03 10.3901 950.21 10.2401Z" fill="#1F1F1F" stroke="#D9F24F" stroke-width="2" stroke-miterlimit="10" stroke-linecap="round" stroke-linejoin="round"/>
</svg>
