<svg width="42" height="42" viewBox="0 0 42 42" fill="none" xmlns="http://www.w3.org/2000/svg">
<path fill-rule="evenodd" clip-rule="evenodd" d="M0 21C11.598 21 21 11.598 21 0C21 11.598 30.402 21 42 21C30.402 21 21 30.402 21 42C21 30.402 11.598 21 0 21Z" fill="#D9F24F"/>
<path d="M20 0C20 11.0457 11.0457 20 0 20V22C12.1503 22 22 12.1503 22 0H20ZM42 20C30.9543 20 22 11.0457 22 0H20C20 12.1503 29.8497 22 42 22V20ZM22 42C22 30.9543 30.9543 22 42 22V20C29.8497 20 20 29.8497 20 42H22ZM0 22C11.0457 22 20 30.9543 20 42H22C22 29.8497 12.1503 20 0 20V22Z" fill="#4F26E9"/>
</svg>
