<svg width="472" height="67" viewBox="0 0 472 67" fill="none" xmlns="http://www.w3.org/2000/svg">
<path d="M471.3 0.300171H0.710022V66.0702H471.3V0.300171Z" fill="#4F26E9"/>
<path d="M68.75 16.64V21.0802H74.83V16.6801H83.25V21.0802H89.67V28.0902H83.25V32.3102H91.04V39.7902H80.7C84.32 41.0002 87.76 42.17 91.51 43.64L87.64 50.5001C83.6 48.2601 80.11 46.54 75.35 44.63L78.67 39.7902H65.1L68.84 44.63C64.33 47.16 60.5 48.9602 56.46 50.6102L52.33 44.15C56.03 43.05 59.86 41.5802 63.39 39.7802H52.71V32.3002H60.45V28.0802H54.03V21.0702H60.45V16.63H68.75V16.64ZM68.75 28.0902V32.3102H74.83V28.0902H68.75Z" fill="#F2E8DE"/>
<path d="M127.63 49.92C125.29 50.07 122.87 50.1002 120.65 50.1002L119.16 45.5201H105.9V31.8702H123.04V42.91C123.21 42.95 124.19 42.9501 124.32 42.9501C125 42.9501 125.04 42.8002 125.04 42.2902V23.5502H103.73V50.2902H95.94V17.3102H132.82V45.15C132.82 48.37 131.29 49.66 127.63 49.92ZM104.58 24.9301H124.15V30.3602H104.58V24.9301ZM112.57 40.3402H116.36V37.0001H112.57V40.3402Z" fill="#F2E8DE"/>
<path d="M155.76 17.1901H169.8V23.7601C169.8 24.1601 169.84 25.1202 170.4 25.0802C171.04 25.0402 171 24.3801 171 23.7201L170.96 20.8602L176.7 22.1102C176.62 25.9202 176.19 27.9101 175.25 29.1901C174.4 30.4001 172.27 30.5502 171 30.5502H167.89C165 30.5502 163.72 29.74 163.72 28.13V23.2101H162.19C161.89 26.5101 161.25 29.0101 159.13 31.4601H174.4V37.0702C173.46 39.4902 172.1 41.3201 170.83 42.7201C172.7 43.1601 174.66 43.4502 176.83 43.5602L173.04 50.4601C169.93 49.8001 167.25 48.8501 164.57 47.4901C162.27 48.6601 159.51 49.7602 156.4 50.6102L152.83 45.88V50.2802H146.87V49.66H144.45V50.2802H138.24V38.4701H152.83V44.4501C154.45 44.2701 156.23 43.8602 157.85 43.2802C156.28 42.1802 154.87 41.0802 153.6 39.8002L157.98 37.16H154.11V31.4401H157.77L153.09 28.4701V32.5101H138.1V28.0001H152.86C153.12 27.7101 153.37 27.4901 153.58 27.1901H137.37V21.8002H142.22C141.88 20.3702 141.5 19.5602 140.82 18.0902L148.27 16.2601C148.99 17.8701 149.38 18.7901 150.1 20.7401L146.4 21.8002H154.02V26.5702C155.63 23.9802 155.76 21.4101 155.76 17.1901ZM138.06 33.2601H153.03V37.7701H138.06V33.2601ZM144.57 42.91V44.7401H146.87V42.91H144.57ZM164.31 40.16C165.2 39.43 166.14 38.22 166.73 37.15H160.94C161.8 38.21 163.16 39.42 164.31 40.16Z" fill="#F2E8DE"/>
<path d="M205.15 26.0001V16.7902H213.32V26.0001H219.06V33.0402H213.32V50.3202H205.15V33.0402H198.98V27.4601H180.14V21.8502H186.52C186.09 20.3802 185.63 19.2502 184.95 17.7802L192.18 16.0201C193.07 18.0001 193.58 19.2501 194.35 21.1901L191.76 21.8502H199.59V26.0001H205.15ZM181.12 33.0001V28.3402H198.26V33.0001H181.12ZM181.12 38.4V33.7401H198.26V38.4H181.12ZM191.63 49.5502H188.57V50.3602H181.64V39.3202H197.93V50.2902H191.63V49.5502ZM188.44 43.64V45.0702H191.72V43.64H188.44Z" fill="#F2E8DE"/>
<path d="M238.04 25.67V16.5702H246.21V25.67H251.32V18.0001H259.15V32.5602H246.22V41.4401H252.35V34.14H260.48V50.3502H252.31V48.5201H231.81V50.3502H223.6V34.14H231.73V41.4401H238.07V32.5602H225.14V18.14H232.97V25.66H238.04V25.67Z" fill="#F2E8DE"/>
<path d="M274.21 49.2902C273.36 49.9102 270.98 50.13 266.3 50.17L264.81 43.16C266 43.34 266.81 43.38 267.4 43.38C268.04 43.38 268.38 43.3802 268.38 42.7902V39.42C267.57 39.6 267.02 39.7901 265.83 39.9701L264.64 33.1102C266.13 33.0402 267.32 32.8902 268.38 32.7802V28.67H265.02V22.14H268.38V16.67H275.27V22.1002H277.74V28.67H275.27V31.8602C276.08 31.7102 276.55 31.64 277.57 31.38V37.5402C276.72 37.7602 276.12 37.9102 275.27 38.0902V46.64C275.27 47.9 274.97 48.7102 274.21 49.2902ZM281.78 24.8202H278.76V19.13H286.55C286.34 18.47 286.13 17.9202 285.83 17.3302L294.17 16.2701C294.42 17.2601 294.59 18.14 294.77 19.13H302.85V24.8202H299.62C299.45 25.4402 299.28 26.0701 299.02 26.7301H303.66V32.5602H294.13L293.62 33.5502H304.13V39.3502H301.2C300.48 40.7802 299.63 41.99 298.6 43.17C300.47 43.76 302.34 44.4202 304.6 45.3002L300.01 50.7301C297.97 49.4801 295.33 48.4201 293.12 47.4701C290.27 48.8301 285.59 49.9601 280.36 50.7701L276.7 44.8602C279.38 44.8202 282.53 44.7101 284.82 44.2001C282.65 43.5801 280.44 42.9502 278.31 42.6202C279.46 41.5202 280.52 40.4202 281.5 39.3602H277.8V33.5602H285.5C285.71 33.2302 285.93 32.9402 286.05 32.5702H278.09V26.7401H282.47C282.29 26.1101 282.04 25.4502 281.78 24.8202ZM289.91 26.7301H292.04C292.25 26.1401 292.42 25.5902 292.64 24.8202H289.24C289.52 25.5202 289.65 25.9301 289.91 26.7301ZM292.88 39.3502H290.2C289.94 39.7202 289.69 40.0102 289.39 40.3402L291.52 40.9601C292.03 40.4501 292.37 40.0102 292.88 39.3502Z" fill="#F2E8DE"/>
<path d="M317.99 17.0802V25.2201H320.59V26.6102C320.97 26.5702 321.4 26.5001 321.78 26.4301V18.91H328.63V25.0001L330.03 24.67V16.7101H336.92V23.0201L345.43 20.5602C345.39 25.6602 345.39 30.46 345.22 35.38C345.22 36.63 344.84 37.9102 344.16 38.5302C343.56 39.0802 341.99 39.37 339.48 39.41L346.93 41.2802C346.55 44.6202 345.57 46.7802 344.42 48.0302C343.23 49.2802 340.29 49.9 338.42 49.9C334.34 49.97 330.68 50.01 326.59 49.9C323.78 49.83 321.78 48.2901 321.78 46.0101V33.5702L319.87 34.1202L319.57 31.9601H318V38.2001C319.36 37.8301 319.92 37.5802 321.06 37.1002V43.8102C317.53 45.2002 314.47 46.27 309.83 47.66L307.07 40.5402C308.86 40.2802 309.79 40.1001 310.98 39.7701V31.9601H307.62V25.2101H310.98V17.0702H317.99V17.0802ZM330.71 43.9C332.67 44.01 334.67 43.97 336.71 43.9C337.39 43.86 338.5 43.6101 338.75 43.0201C338.96 42.6201 339.09 41.3001 339.09 39.4601L337.6 39.5702L336.92 35.13V42.3202H330.03V31.5001L328.63 31.8702V42.6202C328.62 43.6102 329.52 43.9 330.71 43.9ZM338.53 32.3402V29.3702L336.91 29.7701V32.9601L337.85 33.0001C338.32 33.0001 338.53 32.9302 338.53 32.3402Z" fill="#F2E8DE"/>
<path d="M362.28 17.8202H388.66V22.41H359.18C358.93 22.74 358.88 22.8102 358.63 23.0302H384.33V26.5902H357.74V24.5001C356.85 25.6001 356.38 26.2601 355.23 27.2501L384.58 27.2101C384.37 31.9401 384.37 35.0602 384.75 39.5702C384.92 41.5502 385.18 42.2501 385.47 42.2501C385.72 42.2501 386.19 41.5202 386.79 39.5402L389.98 46.4701C388.02 49.1501 385.81 50.4701 384.24 50.4701C382.28 50.4701 379.99 48.12 379.22 45.92C378.2 43.02 377.9 39.0601 377.73 31.9401H372.11L375.64 33.5201C374.58 35.0201 373.9 35.8701 372.96 36.7501H377.3V42.14H372.15C373.85 43.46 375.3 43.9701 378.28 44.9301L374.66 50.4C371.64 48.97 369.51 47.32 367.68 45.41V50.3602H360.58V45.66C358.33 47.79 356.41 49.0402 353.35 50.3602L350.07 45.3002C353.13 44.3802 354.71 43.69 356.58 42.15H350.79V36.7601H354.92C354.07 35.8101 353.3 35.11 351.98 34.16L355.26 31.9601H351.56V27.2301H353.6L349.73 23.4901C352.58 21.6201 354.62 18.7902 355.81 16.1202L362.66 17.3302L362.28 17.8202ZM370.79 31.9401H356.75C358.37 33.0801 359.09 33.7401 360.58 34.9801V32.38H367.68V35.2401C369 34.1401 369.68 33.4501 370.79 31.9401ZM360.58 35.13L358.45 36.7401H360.58V35.13ZM370.15 36.7501L367.68 35.39V36.7501H370.15Z" fill="#F2E8DE"/>
<path d="M405.72 21.2301H410.74V26.4C412.57 23.72 414.02 20.1602 415.04 16.5302L421.97 18.4C421.46 19.68 421.12 20.4901 420.61 21.4401H430.82C430.78 23.0501 430.74 25.5801 430.35 37.2501C430.18 42.3101 429.5 45.72 427.84 47.63C426.39 49.24 422.01 50.1201 414.95 50.0101L413.12 43.2201C416.1 43.6201 418.52 43.7 420.18 43.66C421.63 43.62 421.97 43.0402 422.39 42.0502C422.86 40.9502 423.28 35.5901 423.37 27.2301H418.09C417.2 29.0301 416.6 30.1602 415.45 31.8202L418.64 30.8302C420.34 34.0902 421.28 36.4401 422.43 39.4501L416.3 41.4701C415.62 38.8701 414.85 36.52 413.71 34.13C413.41 34.61 413.11 35.0802 412.77 35.5602L410.73 33.7601V49.0602H404.18V47.7802H400.9V49.8702H394.09V21.2201H398.34C398.94 19.6801 399.28 18.2101 399.57 16.2701L406.97 17.7401C406.53 19.2501 406.19 20.0601 405.72 21.2301ZM400.65 27.2101V31.13H404.18V27.2101H400.65ZM400.65 37.2601V41.4401H404.18V37.2601H400.65Z" fill="#F2E8DE"/>
</svg>
