<svg width="442" height="411" viewBox="0 0 442 411" fill="none" xmlns="http://www.w3.org/2000/svg">
<path d="M236.89 0.689941C123.74 0.689941 32.02 92.4101 32.02 205.56C32.02 318.71 123.75 410.43 236.89 410.43C350.03 410.43 441.76 318.7 441.76 205.56C441.76 92.4201 350.04 0.689941 236.89 0.689941Z" fill="#D9F24F"/>
<path d="M266.26 293.13H0.230042V348.68H266.26V293.13Z" fill="#4F26E9"/>
<path d="M77.98 308.2L68.28 333.62H48.96L45.73 325.16L42.53 333.62H23.18L13.52 308.2H32.84L40.83 329.19L44.06 320.73L39.3 308.2H58.62L66.61 329.19L74.6 308.2H77.98Z" fill="#F2E8DE"/>
<path d="M114.95 308.2V311.4H99.05V319.28H114.95V322.51H99.05V330.43H114.95V333.63H80.05V308.21H114.95V308.2Z" fill="#F2E8DE"/>
<path d="M153.66 308.2V311.4H137.76V319.28H153.66V322.51H137.76V330.43H153.66V333.63H118.76V308.21H153.66V308.2Z" fill="#F2E8DE"/>
<path d="M192.29 308.2L179.58 320.95H187.46L195.52 333.62H184.26L176.78 321.82V333.62H157.46V308.2H176.78V319.13L187.71 308.2H192.29Z" fill="#F2E8DE"/>
<path d="M228.61 324.14C228.44 324.14 228.3 324.19 228.19 324.3C228.08 324.41 228.03 324.54 228.03 324.68V330.38H253.81V333.61H208.93V327.62C208.93 326.7 209.1 325.83 209.46 325.01C209.81 324.19 210.29 323.47 210.89 322.87C211.49 322.27 212.21 321.79 213.03 321.44C213.85 321.09 214.72 320.91 215.64 320.91L233.98 320.87C234.13 320.87 234.25 320.82 234.36 320.71C234.47 320.6 234.52 320.47 234.52 320.33V311.98C234.52 311.83 234.47 311.71 234.36 311.6C234.25 311.49 234.12 311.44 233.98 311.44H228.61C228.44 311.44 228.3 311.49 228.19 311.6C228.08 311.71 228.03 311.84 228.03 311.98V316.12H208.93C208.98 315.2 209.26 314.29 209.78 313.4C210.3 312.5 210.9 311.72 211.58 311.04C212.94 309.68 214.57 308.8 216.48 308.39C217.16 308.27 217.8 308.21 218.4 308.21H243.13C244.61 308.21 245.99 308.42 247.29 308.83C248.58 309.24 249.72 309.8 250.69 310.5C251.66 311.2 252.42 312.04 252.98 313.01C253.54 313.98 253.81 315.03 253.81 316.17C253.81 317.36 253.53 318.44 252.98 319.42C252.43 320.4 251.66 321.24 250.69 321.94C249.72 322.64 248.59 323.19 247.29 323.57C245.99 323.95 244.61 324.15 243.13 324.15H228.61V324.14Z" fill="#F2E8DE"/>
<path d="M93.71 161.91C88.26 166.51 80.4 171.11 73.12 173.78L66.75 163.44C74.72 161.56 82.35 157.75 87.17 153.4H99.5C104.2 157.6 112.75 161.32 120.72 163.05L114.58 173.78C106.5 171.01 98.99 166.61 93.71 161.91ZM102.77 171.11L98.35 174.97H116.42V184.12C108.22 191.1 97.72 196.24 86.77 199.31L79.6 189.76C87.11 188.23 92.28 186.79 96.18 184.47H71.29V174.97H91.08C89.3 173.44 87.41 171.95 85.06 170.42L92.8 163.99C96.69 166.41 99.56 168.44 102.77 171.11Z" fill="#1F1F1F"/>
<path d="M135.76 193.52H133.87V196.64H125.61V154.89H143.85V159.99C147.06 157.81 150.1 155.29 152.17 152.62L162.21 154.9C161.81 155.3 161.46 155.64 161.12 155.89H173.39V162.67C172.59 163.86 171.84 164.7 171.04 165.54H175.69V182.95H167.72V189.13C167.72 189.67 167.78 190.37 168.69 190.37C169.32 190.37 169.49 190.02 169.55 189.13C169.61 188.59 169.61 186.9 169.55 184.53L177.58 186.46C177.41 191.8 176.78 194.72 174.83 196.4C173.51 197.54 171.39 197.98 168.46 197.98H165.13C160.83 197.98 158.88 196.84 158.88 193.53V182.94H157.33C157.21 188.58 155.61 194.02 149.13 199.12L143.8 194.52V195.66H135.77V193.52H135.76ZM133.87 163.98V170.06H135.76V163.98H133.87ZM133.87 177.54V184.47H135.76V177.54H133.87ZM148.38 182.93H144.94V168.34L143.85 167V191.54C146.89 189.12 148.32 186.25 148.38 182.93ZM161.57 163.09H154.46C153.6 163.88 152.57 164.67 151.36 165.51H159.45C160.25 164.68 160.94 163.98 161.57 163.09ZM153.77 175.61H156.06V172.89H153.77V175.61ZM164.38 175.61H166.85V172.89H164.38V175.61Z" fill="#1F1F1F"/>
<path d="M204.71 177.94C203.56 177.15 202.3 175.42 202.3 173.88C202.3 171.11 204.71 168.93 207.92 168.93C211.53 168.93 213.71 171.6 213.71 174.52C213.71 180.36 207.57 184.27 204.88 185.95L200.12 181.45C202.01 180.31 204.25 178.73 204.71 177.94Z" fill="#1F1F1F"/>
<path d="M88.15 221.66V225.07H95.95C95.55 221.46 95.03 217.01 94.69 212.6L105.01 213.04C105.01 213.58 104.95 216.9 105.01 217.54L111.09 213.38C114.19 215.95 116.94 218.72 119.46 221.69L113.95 225.05H119.86V233.36H111.77L118.54 238.5C115.67 241.42 112.35 244.54 109.65 246.51C110.22 247.5 110.97 248.04 112.17 248.04C113.14 248.04 115.21 246.11 117.5 243.39L120.2 253.23C116.7 256.45 113.78 257.78 110.79 257.78C106.49 257.78 102.93 255.31 101.04 252.04C98.75 253.47 96.16 255.16 93.76 256.34L88.14 249.76V252.43C88.14 257.43 80.45 257.62 72.02 257.67L69.55 248.72C72.53 249.02 74.77 249.17 76.26 249.17C77.35 249.17 77.87 248.77 77.87 247.93V245.01C75.29 245.21 72.31 245.41 68.81 245.6L67.32 236.84C70.93 236.94 74.32 236.94 77.87 236.84V233.33H67.72V225.02H77.87V222.79C75.69 223.04 73.51 223.33 70.87 223.48L68.86 215.66C76.66 215.31 83.72 214.23 90.54 212.74L94.27 220.56C92.22 221.07 90.61 221.32 88.15 221.66ZM98.01 243.83C97.44 241.01 96.92 237.35 96.63 233.39H88.14V236.66C91.01 236.51 93.3 236.31 95.54 236.07V243.89C93.13 244.14 90.84 244.34 88.14 244.53V248.54C91.47 247.59 95.09 245.95 98.01 243.83ZM105.07 219.29C105.18 220.87 105.41 223.1 105.64 225.08H110.06C108.79 223.2 107.02 221.17 105.07 219.29ZM110.57 233.39H106.56C106.62 234.92 106.79 236.11 107.02 237.35C108.28 236.36 109.71 234.62 110.57 233.39Z" fill="#1F1F1F"/>
<path d="M147.46 237.59C146.14 236.35 144.71 234.62 143.56 233.19V241.7H133.69V235.76C132.49 237.15 131.28 238.43 129.9 239.42L124.51 232C128.24 230.32 130.93 227.8 133 225.27H125.54V217.06H133.91V212.46H144.29V217.06H150.66V225.27H145.78C147.04 226.9 149.45 228.88 151.63 230.17V213.3H175.78V241.74H173.2C175.09 245.94 176.76 249.95 178.08 253.96L168.84 256.63C168.55 255.1 167.92 253.02 167.46 251.68C165.85 255.14 162.3 257.12 157.94 257.22C152.78 257.27 148.36 257.27 143.2 257.22C139.19 257.17 137.58 255.19 137.58 253.11V242.28H145.72C145.61 242.18 145.43 242.08 145.32 241.93L151.17 237.48L151.63 237.83V232.44L147.46 237.59ZM133.58 257.33L124.69 254.46C126.64 250.11 127.96 246 128.7 241.5L137.25 243.23C136.39 248.48 135.24 252.68 133.58 257.33ZM159.33 244.37L152.73 249.56C150.78 247.23 149.29 245.45 147.05 243.43V248.33C147.05 249.22 147.91 249.67 149.75 249.67C151.64 249.72 152.79 249.77 154.74 249.67C156.12 249.62 157.03 249.47 157.66 248.98C158.35 248.44 158.75 246.8 158.81 245.52L166.04 247.99C165.58 246.21 164.95 244.92 164.03 243.14L168.68 241.76H156.46C157.33 242.54 158.24 243.33 159.33 244.37ZM160.65 219.49V221.32H166.79V219.49H160.65ZM160.65 226.41V228.14H166.79V226.41H160.65ZM160.65 235.27H166.79V233.24H160.65V235.27Z" fill="#1F1F1F"/>
<path d="M213.66 215.88H233.45V224.64H220.43L228.92 227.11C228.35 228.5 227.6 229.73 226.97 230.82C229.49 232.25 232.53 233.84 235.4 235.77L229.84 243.49C227.72 241.36 225.14 239.68 222.38 237.85C221.63 238.94 221.18 239.63 220.32 240.47C224.16 243.39 229.21 246.16 235.29 248.48L228.87 257.14C223.42 254.12 218.2 250.46 213.67 246.65V257.98H201.97L202.03 248.38C197.84 251.5 192.97 254.96 188.44 257.28L182.13 248.67C189.76 245.85 197.39 241.5 202.03 236.45V224.63H189.99L197.73 226.56C197.33 227.8 196.64 228.98 196.18 229.92C197.9 231.16 199.91 232.74 201.63 234.37L195.84 241.05C194.75 239.57 193.95 238.58 192.8 237.49C191.48 239.86 190.39 241.6 188.61 243.77L181.55 237.29C184.88 233.88 187.4 229.28 188.43 224.63H183.67V215.87H201.91V212.46H213.61L213.66 215.88ZM219.51 224.63H213.66V235.02C216.35 232.2 218.48 228.29 219.51 224.63Z" fill="#1F1F1F"/>
<path d="M242.23 248.77L248.25 249.56C248.19 249.51 248.19 249.51 248.19 249.46L253.75 248.77C254.44 252.13 254.78 254.36 255.07 257.48L248.88 258.27C248.76 254.91 248.54 253.08 248.25 250.26C247.79 253.43 247.33 255.65 246.41 258.37L239.47 256.74C240.73 254.22 241.65 251.74 242.11 248.78C241.54 248.78 241.02 248.83 240.45 248.83L239.47 241.76C242.68 241.76 246.53 241.76 250.08 241.66V240.37H241.02V234.78H250.08V233.59H240.9V213.31H268.2V233.59H258.91V234.78H267.8V240.37H258.91V241.51C262.12 241.41 265.51 241.26 268.49 241.06V247.24C260.35 247.83 251.41 248.28 242.23 248.77ZM248.54 220.28C249.17 220.87 249.97 221.67 250.61 222.41V219.44H247.28V221.42L248.54 220.28ZM247.28 224.88V227.5H250.61V224.93L248.66 226.91C248.19 226.02 247.74 225.32 247.28 224.88ZM262.02 257.08L256.57 258.12C256.11 254.66 255.77 252.38 255.08 249.12L260.24 248.28C261.1 251.84 261.56 254.02 262.02 257.08ZM259.72 220.33L261.78 221.12V219.44H258.45V223C258.86 222.41 259.32 221.52 259.72 220.33ZM260.58 227.06L258.46 225.77V227.5H261.79V224.48C261.39 225.42 261.16 226.07 260.58 227.06ZM268.61 256.64L263.05 257.78C262.59 254.61 262.19 251.79 261.5 248.83L266.55 247.89C267.47 251.2 268.04 253.62 268.61 256.64ZM291.16 226.56H283.07V231.85H290.99V257.72H282.1V255.64H277.91V257.72H268.91V231.85H273.84V212.51H283.07V218.3H291.16V226.56ZM277.68 240.36V247.43H282.21V240.36H277.68Z" fill="#1F1F1F"/>
<path d="M299.6 248.77L305.62 249.56C305.56 249.51 305.56 249.51 305.56 249.46L311.12 248.77C311.81 252.13 312.15 254.36 312.44 257.48L306.25 258.27C306.13 254.91 305.91 253.08 305.62 250.26C305.16 253.43 304.7 255.65 303.78 258.37L296.84 256.74C298.1 254.22 299.02 251.74 299.48 248.78C298.91 248.78 298.39 248.83 297.82 248.83L296.84 241.76C300.05 241.76 303.9 241.76 307.45 241.66V240.37H298.39V234.78H307.45V233.59H298.27V213.31H325.57V233.59H316.28V234.78H325.17V240.37H316.28V241.51C319.49 241.41 322.88 241.26 325.86 241.06V247.24C317.72 247.83 308.77 248.28 299.6 248.77ZM305.9 220.28C306.53 220.87 307.33 221.67 307.97 222.41V219.44H304.64V221.42L305.9 220.28ZM304.64 224.88V227.5H307.97V224.93L306.02 226.91C305.56 226.02 305.1 225.32 304.64 224.88ZM319.38 257.08L313.93 258.12C313.47 254.66 313.13 252.38 312.44 249.12L317.6 248.28C318.47 251.84 318.92 254.02 319.38 257.08ZM317.09 220.33L319.15 221.12V219.44H315.82V223C316.23 222.41 316.69 221.52 317.09 220.33ZM317.95 227.06L315.83 225.77V227.5H319.16V224.48C318.75 225.42 318.52 226.07 317.95 227.06ZM325.98 256.64L320.42 257.78C319.96 254.61 319.56 251.79 318.87 248.83L323.92 247.89C324.83 251.2 325.41 253.62 325.98 256.64ZM348.52 226.56H340.43V231.85H348.35V257.72H339.46V255.64H335.27V257.72H326.27V231.85H331.2V212.51H340.43V218.3H348.52V226.56ZM335.04 240.36V247.43H339.57V240.36H335.04Z" fill="#1F1F1F"/>
<path d="M373.31 223.49L367.06 225.27C366.08 223.59 365.45 222.65 364.31 221.26H363.85C363.22 223.14 362.47 224.62 361.1 226.31L353.7 222.06C356.57 219.04 358.98 215.04 360.35 211.97L368.84 213.9C368.61 214.3 368.38 214.64 368.15 214.94H380.54V218.21C381.92 216.53 383.06 214.1 384.04 211.88L392.36 213.86C392.07 214.3 391.84 214.7 391.61 214.95H406.24V221.28H399.99C400.62 222.07 401.25 222.96 401.83 224.05L392.94 225.88C397.18 227.12 401.43 227.91 407.39 228.5L403.49 236.46C401.2 236.02 399.76 235.57 398.27 234.98V237.06H363.05V234.69C361.39 235.38 359.9 235.88 357.77 236.37L353.87 228.8C361.72 227.75 367.46 226.12 373.31 223.49ZM381.11 252.09C383.58 251.2 385.41 250.16 386.96 248.73H381.22V237.85H404.68V248.83H399.23C401.58 250.17 403.82 250.96 407.2 251.65L402.27 258.53C398.89 257.24 396.02 255.56 392.92 253.43C390.8 255.51 388.85 257.04 385.87 258.43L380.82 253.78L376.52 258.53C373.88 256.5 371.64 255.17 368.89 253.68C366.65 255.51 364.47 256.9 361.66 258.33L354.78 252.15C358.34 251.11 360.69 250.02 362.75 248.59H356.78V237.86H379.38V248.59H374.1C376.86 249.76 378.64 250.6 381.11 252.09ZM365.96 244.27H370.2V242.34H365.96V244.27ZM375.03 222.65C375.14 222.55 375.32 222.5 375.49 222.4H380.02L378.59 221.26H373.83L375.03 222.65ZM380.25 228.99C378.41 230.03 376.69 230.77 374.11 231.66H386.04C383.34 230.77 381.68 229.93 380.25 228.99ZM392.12 225.62C391.6 223.99 390.97 222.55 390.17 221.27H388.1C387.76 221.96 387.41 222.56 386.72 223.3C388.33 224.19 390 224.93 392.12 225.62ZM390.46 244.27H395.45V242.34H390.46V244.27Z" fill="#1F1F1F"/>
<path d="M315.48 66.48H158.31V105.38H315.48V66.48Z" fill="#1F1F1F"/>
<path d="M195.11 90.8501H191.98L191.4 95.48H186.86L187.41 90.8501H185.54L184.99 95.48H180.42L180.97 90.8501H178.33V87.0901H181.46L181.77 84.05H179.1V80.26H182.23L182.78 75.8401H187.32L186.8 80.26H188.67L189.19 75.8401H193.76L193.24 80.26H195.88V84.05H192.75L192.44 87.0901H195.11V90.8501ZM188.23 84.04H186.3L185.96 87.0801H187.89L188.23 84.04Z" fill="#F2E8DE"/>
<path d="M198.79 85.6599C198.79 79.3299 201.68 75.49 207.94 75.49C212.05 75.49 214.05 77.0799 215.52 78.6899L212.3 81.95C211.29 80.63 210.06 79.73 208.09 79.73C205.48 79.73 203.79 80.7599 203.79 85.6599C203.79 90.5799 205.42 91.5901 208.27 91.5901C210.36 91.5901 211.59 90.6399 212.57 89.3899L215.95 92.54C214.41 94.26 212.24 95.8201 208.12 95.8201C201.68 95.8301 198.79 92.0399 198.79 85.6599Z" fill="#F2E8DE"/>
<path d="M227.83 94.8999C226.82 95.5399 225.74 95.77 224.45 95.77C221.04 95.77 218.28 93.92 218.28 90.74C218.28 87.77 220.89 86.1599 224.57 86.1599H226.47C226.47 85.2099 226.01 84.52 224.84 84.52C223.8 84.52 222.81 84.8399 221.13 86.1599L218.31 83.0601C221.56 81.0501 223.13 80.8899 224.91 80.8899C227.34 80.8899 230.8 81.71 230.8 85.71V91.5601C230.8 91.9801 231.35 92.2 232.52 92.54L230.4 96.0901C229.34 95.8001 228.54 95.4299 227.83 94.8999ZM222.74 90.8999C222.74 91.5899 223.45 92.28 224.67 92.28C225.53 92.28 226.24 91.9099 226.48 91.6399V89.3401H224.85C223.23 89.3401 222.74 90.2399 222.74 90.8999Z" fill="#F2E8DE"/>
<path d="M242.29 84.73C240.85 84.73 240.05 85.6 240.05 86.98V95.48H235.51V81.1299H239.93V81.8999C240.61 81.2399 241.59 80.8899 242.75 80.8899C245.73 80.8899 248.52 82.3501 248.52 86.1101V95.48H243.98V86.3701C243.98 85.2401 243.4 84.73 242.29 84.73Z" fill="#F2E8DE"/>
<path d="M255.67 81.1899L258.74 89.1899L261.81 81.1899H266.85L260.71 95.49H256.75L250.61 81.1899H255.67Z" fill="#F2E8DE"/>
<path d="M277.59 94.8999C276.58 95.5399 275.5 95.77 274.21 95.77C270.8 95.77 268.04 93.92 268.04 90.74C268.04 87.77 270.65 86.1599 274.33 86.1599H276.23C276.23 85.2099 275.77 84.52 274.6 84.52C273.56 84.52 272.57 84.8399 270.89 86.1599L268.07 83.0601C271.32 81.0501 272.89 80.8899 274.67 80.8899C277.1 80.8899 280.56 81.71 280.56 85.71V91.5601C280.56 91.9801 281.11 92.2 282.28 92.54L280.16 96.0901C279.1 95.8001 278.3 95.4299 277.59 94.8999ZM272.5 90.8999C272.5 91.5899 273.21 92.28 274.43 92.28C275.29 92.28 276 91.9099 276.24 91.6399V89.3401H274.61C272.99 89.3401 272.5 90.2399 272.5 90.8999Z" fill="#F2E8DE"/>
<path d="M283.33 92.5701L286.65 89.8401C287.79 91.1401 288.74 91.96 289.81 91.96C290.58 91.96 290.95 91.6201 290.95 91.0901C290.95 90.4001 289.23 89.95 288.77 89.77C286.01 88.74 284.41 87.8599 284.41 85.1899C284.41 82.7499 286.77 80.8999 290.15 80.8999C293.07 80.8999 294.94 82.6701 295.65 83.6001L292.95 86.4299C292.24 85.6399 291.48 84.52 290.16 84.52C289.21 84.52 289.09 85.1299 289.09 85.4199C289.09 85.8699 290.9 86.4501 291.27 86.5801C293.51 87.3701 295.78 88.7001 295.78 91.1101C295.78 94.0201 293.14 95.77 289.73 95.77C286.59 95.77 284.65 94.2401 283.33 92.5701Z" fill="#F2E8DE"/>
</svg>
