<svg width="442" height="410" viewBox="0 0 442 410" fill="none" xmlns="http://www.w3.org/2000/svg">
<path d="M236.82 0.0102539C123.67 0.0102539 31.9501 91.7301 31.9501 204.88C31.9501 318.03 123.68 409.75 236.82 409.75C349.96 409.75 441.69 318.02 441.69 204.88C441.69 91.7401 349.97 0.0102539 236.82 0.0102539Z" fill="#D9F24F"/>
<path d="M266.2 292.45H0.170044V348H266.2V292.45Z" fill="#4F26E9"/>
<path d="M77.86 307.52L68.16 332.94H48.84L45.61 324.48L42.41 332.94H23.07L13.41 307.52H32.73L40.72 328.51L43.95 320.05L39.19 307.52H58.51L66.5 328.51L74.49 307.52H77.86Z" fill="#F2E8DE"/>
<path d="M114.83 307.52V310.72H98.9301V318.6H114.83V321.83H98.9301V329.75H114.83V332.95H79.9301V307.53H114.83V307.52Z" fill="#F2E8DE"/>
<path d="M153.54 307.52V310.72H137.64V318.6H153.54V321.83H137.64V329.75H153.54V332.95H118.64V307.53H153.54V307.52Z" fill="#F2E8DE"/>
<path d="M192.17 307.52L179.46 320.27H187.34L195.4 332.94H184.14L176.66 321.14V332.94H157.34V307.52H176.66V318.45L187.59 307.52H192.17Z" fill="#F2E8DE"/>
<path d="M253.17 317.47C253.17 317.95 253.07 318.43 252.88 318.89C252.69 319.35 252.52 319.8 252.37 320.23C252.51 320.67 252.68 321.11 252.88 321.57C253.07 322.03 253.17 322.5 253.17 322.99V323.28C253.17 324.64 252.92 325.89 252.43 327.06C251.93 328.22 251.25 329.24 250.38 330.11C249.51 330.98 248.49 331.67 247.31 332.18C246.14 332.69 244.88 332.94 243.55 332.94H218.02C217.41 332.94 216.77 332.88 216.1 332.76C214.19 332.35 212.55 331.47 211.2 330.11C210.52 329.43 209.92 328.65 209.4 327.75C208.88 326.85 208.59 325.95 208.55 325.03H227.5V329.17C227.5 329.56 227.69 329.75 228.08 329.75H233.49C233.88 329.75 234.07 329.56 234.07 329.17V322.42C234.07 322.03 233.88 321.84 233.49 321.84L224.45 321.88V318.61L233.49 318.65C233.88 318.65 234.07 318.46 234.07 318.07V311.32C234.07 311.17 234.02 311.04 233.91 310.92C233.8 310.8 233.66 310.74 233.49 310.74H228.08C227.69 310.74 227.5 310.93 227.5 311.32V315.46H208.55C208.6 314.54 208.88 313.63 209.4 312.74C209.92 311.84 210.52 311.06 211.2 310.38C212.56 309.02 214.19 308.14 216.1 307.73C216.78 307.61 217.42 307.55 218.02 307.55H243.55C244.88 307.55 246.13 307.8 247.31 308.31C248.48 308.82 249.51 309.51 250.38 310.38C251.25 311.25 251.93 312.27 252.43 313.43C252.93 314.59 253.17 315.85 253.17 317.21V317.47Z" fill="#F2E8DE"/>
<path d="M59.0001 216.39L65.0201 210.4C67.3701 213.22 69.8401 215.3 74.2001 215.3C78.3901 215.3 79.3101 213.77 79.3101 212.33C79.3101 210.25 77.1301 209.41 75.4101 208.67C71.8501 207.28 68.3001 206.44 65.2601 204.32C62.8501 202.59 60.9001 200.12 60.9001 196.45C60.9001 189.23 66.9201 185.27 75.2401 185.27C83.0401 185.27 87.1701 188.73 89.5201 191.4L83.6101 197.48C81.2001 194.86 79.0801 192.93 75.6401 192.93C71.9101 192.93 70.4801 194.61 70.4801 196C70.4801 198.13 73.3501 199.02 75.1301 199.66C81.9601 201.89 89.5801 204.66 89.5801 211.93C89.5801 219 82.7501 223.31 74.2701 223.31C66.4501 223.31 61.4601 219.75 59.0001 216.39Z" fill="#1F1F1F"/>
<path d="M94.2701 209.16C94.2701 200.65 99.0901 195.06 108.38 195.06C113.48 195.06 116.52 196.94 119.62 199.86L114.23 205.94C112.51 203.91 110.73 202.77 108.61 202.77C105.97 202.77 103.73 203.46 103.73 209.1C103.73 214.39 106.2 215.38 108.72 215.38C110.67 215.38 112.56 214.29 114.57 212.02L120.13 218.15C117.43 220.97 114.11 223.15 108.37 223.15C98.8101 223.16 94.2701 217.52 94.2701 209.16Z" fill="#1F1F1F"/>
<path d="M126.28 195.81H134.65V198.33C135.85 197.64 138.32 195.41 142.57 195.51V204.51C135.52 204.51 134.83 206.49 134.83 209.26V222.62H126.28V195.81Z" fill="#1F1F1F"/>
<path d="M160.36 222.67C154.8 222.67 149.58 219.95 149.58 212.92V195.9H157.9V211.88C157.9 214.01 158.99 214.95 161.05 214.95C163.92 214.95 165.58 213.32 165.58 210.74V195.9H173.9V222.66H165.64V220.58C164.37 221.83 162.54 222.67 160.36 222.67Z" fill="#1F1F1F"/>
<path d="M213.82 202.54C210.72 202.54 209.17 204.07 209.17 206.6V222.63H200.11V205.61C200.11 203.48 199.08 202.54 196.67 202.54C193.63 202.54 191.97 204.17 191.97 206.75V222.63H183.25V195.82H191.74V197.3C193 196.46 195.12 195.37 197.53 195.37C201.49 195.37 204.24 196.61 205.96 197.89C207.79 196.65 210.38 195.37 214.68 195.37C220.76 195.37 226.32 197.6 226.32 205.12V222.63H217.31V205.61C217.32 203.48 216.23 202.54 213.82 202.54Z" fill="#1F1F1F"/>
<path d="M274.34 218.91L270.27 223.96C269.06 222.53 267.92 221.19 266.71 220.35V227.62H256.84V221.14C255.69 222.48 254.37 223.76 252.88 225.05L246.69 218.27C249.33 216.79 251.79 215.05 253.23 213.22H248.12V205.7H256.84V203.77H247.78V195.85H252.66C252.32 194.76 251.91 193.87 251.46 192.88H248.82V185.41H256.79C256.62 184.57 256.39 183.73 255.99 182.84L267.12 181.7C267.35 182.94 267.58 184.12 267.69 185.41H275.66V192.93H273.54C273.2 194.07 272.97 194.76 272.56 195.85H275.89V203.77H266.71V205.7H275.43V213.22H270.38C272.22 214.41 273.76 215.35 275.26 216.44C276.29 213.08 276.52 209.42 276.52 204.17V184.23C283.57 184.03 289.37 183.39 296.08 182.4L300.27 191.21C295.51 191.75 290.86 192.2 285.76 192.35V196.85H299.87V205.56H296.89V227.57H287.83V205.56H285.76C285.76 216.15 285.24 220.85 281.11 228.07L272.51 222.08C273.25 220.99 273.82 220 274.34 218.91ZM261.49 195.86H263.73C264.13 194.87 264.42 194.03 264.71 192.84H260.58C260.92 193.88 261.2 194.72 261.49 195.86Z" fill="#1F1F1F"/>
<path d="M337.55 192.44V195.36H354.76V203.37H337.55V205.74H357.22V214.35H337.55V221.72C337.55 226.07 333.36 227.51 320 227.56L316.67 218.06C319.82 218.36 321.49 218.51 324.47 218.51C325.5 218.51 325.96 218.16 325.96 217.47V214.35H304.8V205.74H325.97V203.37H307.73V195.36H325.97V192.79C320.75 193.04 315.42 193.23 308.93 193.43L306.81 184.92C321.21 184.82 336.75 183.93 349.48 182.4L353.15 191.35C348.85 191.8 343.46 192.2 337.55 192.44Z" fill="#1F1F1F"/>
<path d="M380.52 211.24V227.61H370.48V215C369.56 216.78 368.24 218.86 367.04 220.39L361.25 211.04C364.46 207.38 367.21 203.22 368.88 198.67H362.4V189.72H370.49V182.1H380.53V189.72H387.41V198.67H380.53V198.92C382.42 200.55 384.43 201.89 386.09 202.98L391.94 200.01C394.58 203.57 396.87 206.99 398.94 210.25V198.48H388.39V189.53H398.94V182.11H409.78V189.43H414.66V198.48H409.78V221.38C409.78 225.54 405.77 227.51 401.23 227.51H391.36L389.24 217.27C392.22 217.67 394.57 218.01 397.33 218.01C398.42 218.01 398.94 217.52 398.94 216.87V211.28L390.51 215.98C389.31 213.21 387.99 210.79 386.38 208.61L383.11 214.05C382.01 212.97 381.32 212.28 380.52 211.24Z" fill="#1F1F1F"/>
<path d="M353.38 65.8003H120.27V104.7H353.38V65.8003Z" fill="#1F1F1F"/>
<path d="M153.48 90.1602H150.35L149.77 94.7903H145.23L145.78 90.1602H143.91L143.36 94.7903H138.79L139.34 90.1602H136.7V86.4001H139.83L140.14 83.3604H137.47V79.5703H140.6L141.15 75.1501H145.69L145.17 79.5703H147.04L147.56 75.1501H152.13L151.61 79.5703H154.25V83.3604H151.12L150.81 86.4001H153.48V90.1602ZM146.6 83.3604H144.67L144.33 86.4001H146.26L146.6 83.3604Z" fill="#F2E8DE"/>
<path d="M155.44 92.9402L157.71 88.9202C158.91 89.9802 160.04 90.4301 160.84 90.3801C162.1 90.3801 162.34 89.9302 162.34 88.6902V75.1602H167.22V89.6104C167.22 92.1504 166.21 95.0103 161.05 95.0103C158.08 95.0103 156.45 93.9502 155.44 92.9402Z" fill="#F2E8DE"/>
<path d="M170.42 91.4602L173.64 88.2603C174.9 89.7703 176.22 90.8801 178.55 90.8801C180.79 90.8801 181.28 90.0603 181.28 89.2903C181.28 88.1803 180.11 87.7303 179.19 87.3303C177.29 86.5903 175.38 86.1402 173.76 85.0002C172.47 84.0702 171.43 82.7503 171.43 80.7903C171.43 76.9203 174.65 74.8103 179.1 74.8103C183.28 74.8103 185.49 76.6603 186.74 78.0903L183.58 81.3503C182.29 79.9503 181.15 78.9102 179.31 78.9102C177.31 78.9102 176.55 79.8103 176.55 80.5503C176.55 81.6903 178.09 82.1703 179.04 82.5103C182.69 83.7003 186.78 85.1803 186.78 89.0803C186.78 92.8703 183.13 95.1702 178.58 95.1702C174.41 95.1702 171.74 93.2602 170.42 91.4602Z" fill="#F2E8DE"/>
<path d="M203.73 95.0903C199.55 95.0903 196.98 92.1503 196.98 87.3103C196.98 82.4403 199.56 79.5002 203.73 79.5002C204.87 79.5002 205.76 79.7403 206.46 80.3203V73.7002H211V94.8303H206.61L206.3 93.9001C205.57 94.5601 204.95 95.0903 203.73 95.0903ZM201.58 87.3103C201.58 90.5403 202.81 91.0703 204.07 91.0703C205.33 91.0703 206.56 90.5403 206.56 87.3103C206.56 84.0803 205.33 83.5503 204.07 83.5503C202.81 83.5503 201.58 84.0803 201.58 87.3103Z" fill="#F2E8DE"/>
<path d="M215.79 80.4503H220.27V81.8004C220.91 81.4304 222.23 80.2403 224.51 80.2903V85.1104C220.73 85.1104 220.37 86.1702 220.37 87.6502V94.8004H215.8V80.4503H215.79Z" fill="#F2E8DE"/>
<path d="M236.82 94.2102C235.81 94.8502 234.73 95.0803 233.44 95.0803C230.03 95.0803 227.27 93.2303 227.27 90.0503C227.27 87.0803 229.88 85.4702 233.56 85.4702H235.46C235.46 84.5202 235 83.8303 233.83 83.8303C232.79 83.8303 231.8 84.1502 230.12 85.4702L227.3 82.3704C230.55 80.3604 232.12 80.2002 233.9 80.2002C236.33 80.2002 239.79 81.0203 239.79 85.0203V90.8704C239.79 91.2904 240.34 91.5103 241.51 91.8503L239.39 95.4001C238.32 95.1201 237.52 94.7402 236.82 94.2102ZM231.72 90.2202C231.72 90.9102 232.43 91.6003 233.65 91.6003C234.51 91.6003 235.22 91.2302 235.46 90.9602V88.6602H233.83C232.21 88.6602 231.72 89.5602 231.72 90.2202Z" fill="#F2E8DE"/>
<path d="M250.69 101.89C248.27 101.89 245.93 101.28 243.51 98.9202L246.49 95.5603C247.72 96.8603 249.04 97.7302 250.57 97.7302C252.81 97.7302 253.33 96.9102 253.33 95.6702V94.6902C252.62 95.2702 251.73 95.5103 250.6 95.5103C246.42 95.5103 243.85 92.7003 243.85 87.8303C243.85 82.9603 246.43 80.2102 250.6 80.2102C251.7 80.2102 252.99 80.7101 253.49 81.1401V80.4502H257.91V95.9902C257.91 100.33 254.5 101.89 250.69 101.89ZM248.42 87.8303C248.42 90.9303 249.65 91.4602 250.94 91.4602C252.23 91.4602 253.43 90.9303 253.43 87.8303C253.43 84.7103 252.23 84.1501 250.94 84.1501C249.65 84.1501 248.42 84.7103 248.42 87.8303Z" fill="#F2E8DE"/>
<path d="M268.87 101.89C266.44 101.89 264.11 101.28 261.69 98.9202L264.67 95.5603C265.9 96.8603 267.22 97.7302 268.75 97.7302C270.99 97.7302 271.51 96.9102 271.51 95.6702V94.6902C270.8 95.2702 269.91 95.5103 268.78 95.5103C264.6 95.5103 262.03 92.7003 262.03 87.8303C262.03 82.9603 264.61 80.2102 268.78 80.2102C269.89 80.2102 271.17 80.7101 271.67 81.1401V80.4502H276.09V95.9902C276.08 100.33 272.67 101.89 268.87 101.89ZM266.59 87.8303C266.59 90.9303 267.82 91.4602 269.11 91.4602C270.4 91.4602 271.6 90.9303 271.6 87.8303C271.6 84.7103 270.4 84.1501 269.11 84.1501C267.82 84.1501 266.59 84.7103 266.59 87.8303Z" fill="#F2E8DE"/>
<path d="M289.4 94.2102C288.39 94.8502 287.31 95.0803 286.02 95.0803C282.61 95.0803 279.85 93.2303 279.85 90.0503C279.85 87.0803 282.46 85.4702 286.14 85.4702H288.04C288.04 84.5202 287.58 83.8303 286.41 83.8303C285.37 83.8303 284.38 84.1502 282.7 85.4702L279.88 82.3704C283.13 80.3604 284.7 80.2002 286.48 80.2002C288.91 80.2002 292.37 81.0203 292.37 85.0203V90.8704C292.37 91.2904 292.92 91.5103 294.09 91.8503L291.97 95.4001C290.91 95.1201 290.11 94.7402 289.4 94.2102ZM284.31 90.2202C284.31 90.9102 285.02 91.6003 286.24 91.6003C287.1 91.6003 287.81 91.2302 288.05 90.9602V88.6602H286.42C284.8 88.6602 284.31 89.5602 284.31 90.2202Z" fill="#F2E8DE"/>
<path d="M300.76 93.6902L300.58 94.8303H296.99V73.7002H301.53V80.3203C302.24 79.7403 303.13 79.5002 304.26 79.5002C308.44 79.5002 311.01 82.4403 311.01 87.3103C311.01 92.1503 308.43 95.0903 304.26 95.0903C302.69 95.0903 301.56 94.4302 300.76 93.6902ZM301.43 87.3103C301.43 90.5403 302.66 91.0703 303.92 91.0703C305.18 91.0703 306.44 90.5403 306.44 87.3103C306.44 84.0803 305.18 83.5503 303.92 83.5503C302.66 83.5503 301.43 84.0803 301.43 87.3103Z" fill="#F2E8DE"/>
<path d="M319.12 89.5303C319.12 90.0303 319.61 90.1702 320.87 90.1702L320.84 95.0903C316.48 95.0903 314.24 94.3002 314.24 91.2202V73.6902H319.12V89.5303Z" fill="#F2E8DE"/>
<path d="M330.6 91.3003C331.74 91.3003 332.87 90.7202 334.01 89.4502L337.2 92.4702C335.02 94.4002 332.84 95.0903 330.38 95.0903C325.96 95.0903 323.1 92.5201 323.1 87.6501C323.1 83.1501 325.46 80.2102 330.13 80.2102C335.78 80.2102 336.85 84.1803 336.85 89.2603H327.98C328.32 90.6703 329.22 91.3003 330.6 91.3003ZM327.93 85.9602H332.17C331.96 84.6902 331.22 83.7402 330.17 83.7402C328.97 83.7302 328.29 84.6002 327.93 85.9602Z" fill="#F2E8DE"/>
</svg>
