<svg width="442" height="411" viewBox="0 0 442 411" fill="none" xmlns="http://www.w3.org/2000/svg">
<path d="M236.82 0.370239C123.67 0.370239 31.9501 92.0901 31.9501 205.24C31.9501 318.39 123.68 410.11 236.82 410.11C349.96 410.11 441.69 318.38 441.69 205.24C441.7 92.1001 349.97 0.370239 236.82 0.370239Z" fill="#D9F24F"/>
<path d="M266.2 292.82H0.170044V348.37H266.2V292.82Z" fill="#4F26E9"/>
<path d="M86.18 307.88L76.49 333.3H57.17L53.94 324.84L50.74 333.3H31.38L21.72 307.88H41.04L49.03 328.87L52.26 320.41L47.5 307.88H66.82L74.81 328.87L82.8 307.88H86.18Z" fill="#F2E8DE"/>
<path d="M123.14 307.88V311.08H107.24V318.96H123.14V322.19H107.24V330.11H123.14V333.31H88.2401V307.89H123.14V307.88Z" fill="#F2E8DE"/>
<path d="M161.85 307.88V311.08H145.95V318.96H161.85V322.19H145.95V330.11H161.85V333.31H126.95V307.89H161.85V307.88Z" fill="#F2E8DE"/>
<path d="M200.49 307.88L187.78 320.63H195.66L203.72 333.3H192.46L184.98 321.5V333.3H165.66V307.88H184.98V318.81L195.91 307.88H200.49Z" fill="#F2E8DE"/>
<path d="M244.64 307.88V333.3H225.36V312.24L218.93 320.59H215.59L225.36 307.88H244.64Z" fill="#F2E8DE"/>
<path d="M77.8101 163.82H66.7401V155.76H98.34V163.82H87.2701V192.46H77.8101V163.82Z" fill="#1F1F1F"/>
<path d="M116.76 171.39C114.06 171.39 112.97 173.57 112.97 176.29V192.47H104.48V153.04H112.97V164.71C114.29 164.22 115.95 163.87 118.02 163.87C123.64 163.87 128.92 166.2 128.92 173.52V192.47H120.32V174.56C120.31 172.33 118.82 171.39 116.76 171.39Z" fill="#1F1F1F"/>
<path d="M149.91 185.93C152.03 185.93 154.15 184.84 156.28 182.47L162.25 188.11C158.18 191.72 154.11 193.01 149.52 193.01C141.26 193.01 135.93 188.21 135.93 179.11C135.93 170.7 140.35 165.21 149.06 165.21C159.61 165.21 161.62 172.63 161.62 182.13H145.04C145.67 184.74 147.33 185.93 149.91 185.93ZM144.92 175.94H152.84C152.44 173.57 151.06 171.78 149.11 171.78C146.88 171.78 145.61 173.42 144.92 175.94Z" fill="#1F1F1F"/>
<path d="M207.11 177.52H192.48V192.46H183.53V155.75H210.09V163.62H192.48V169.7H207.11V177.52Z" fill="#1F1F1F"/>
<path d="M217.03 192.46V186.33C229.88 176.73 235.27 171.44 235.27 167.24C235.27 164.62 233.72 162.79 229.99 162.79C227.01 162.79 225 164.72 221.61 168.23L215.47 162.05C220.29 157.99 224.02 155.07 230.5 155.07C239.39 155.07 244.44 160.31 244.44 166.84C244.44 173.52 239.45 178.81 231.94 184.8H244.33V192.47H217.03V192.46Z" fill="#1F1F1F"/>
<path d="M281.62 163.62H262.92V169.7H278.64V177.52H262.92V184.59H281.62V192.46H253.92V155.75H281.62V163.62Z" fill="#1F1F1F"/>
<path d="M76.4301 256.42L67.0801 251.82C70.8701 246.38 72.5301 243.11 75.0001 237.28L83.6601 240.74C81.1401 247.72 79.4201 251.48 76.4301 256.42ZM81.9401 228.42V224.96H95.2501V222.29C91.8101 222.54 88.8301 222.79 84.6401 222.98L83.0301 217.09L77.6401 224.31C74.1401 222.13 71.9601 220.85 67.5501 218.52L73.1101 211.4C76.6701 212.98 79.1301 214.17 82.8001 216.05L82.4001 214.52C95.3101 213.88 102.99 213.09 113.95 211.7L117.91 220.41C113.78 221 109.88 221.35 105.75 221.7V224.96H119.57V233.22H105.75V235.64H117.28V256.76H106.96V255.33H94.2801V256.76H84.0701V235.64H95.2501V233.22H81.9401V231.83L77.9201 237.27C74.4201 234.99 71.8401 233.56 67.4201 231.23L72.9801 224.11C76.2001 225.55 78.7801 226.79 81.9401 228.42ZM94.0401 244.06V246.93H107.23V244.06H94.0401Z" fill="#1F1F1F"/>
<path d="M158.46 257.46L155.08 254.94V255.39C145.85 256.13 135.69 256.38 126.57 256.63L125.14 249.7C129.1 249.9 132.48 250 135.92 249.9V248.86H126.97V243.07H135.92V242.13H126.23V226.2H135.92V225.31H125.42V219.03H135.92V218.14C133.17 218.29 130.41 218.39 127.49 218.44L126.06 212.55C135.07 212.45 143.84 212.06 151.93 211.16L154.4 217.34C151.53 217.69 148.49 217.88 144.71 218.08V219.02H155.26V219.76H157.5C157.56 217.14 157.61 214.22 157.44 211.1L167.19 211.45C167.13 214.02 166.96 216.5 166.73 219.91H176.94L176.88 224.66C176.59 243.46 176.36 251.72 173.21 254.59C170.97 256.22 168.51 256.72 162.54 256.72L161.45 251.53C160.58 253.6 159.61 255.58 158.46 257.46ZM133.51 231V232.58H136.26V231H133.51ZM133.51 237.28H136.26V235.85H133.51V237.28ZM147.16 231H144.46V232.58H147.16V231ZM144.47 237.28H147.17V235.85H144.47V237.28ZM153.18 226.2V225.31H144.69V226.2H153.18ZM157.37 228.33H154.56V242.13H144.69V243.07H153.18V247.47C156.22 241.38 157.2 233.72 157.37 228.33ZM151.98 249.65L152.44 248.86H144.7V249.8C147.1 249.84 149.51 249.79 151.98 249.65ZM162.99 247.32C164.02 247.42 164.77 247.42 165.11 247.42C166.14 247.42 166.54 247.07 166.72 246.38C167.47 243.56 167.52 238.12 167.75 228.32H166.49C166.09 234.51 165 241.19 162.99 247.32Z" fill="#1F1F1F"/>
<path d="M196.67 242.32L201.72 241.73C202.35 245.54 202.64 248.16 202.92 252.12V240.54L196.84 241.73C196.73 240.79 196.61 240 196.44 239.26C191.97 239.9 188.87 240.2 183.36 240.74L181.75 233.47C183.07 233.57 184.5 233.57 185.77 233.52C186.86 232.28 188.24 230.5 189.33 228.72C186.98 227.09 184.57 225.65 181.19 223.77L184.8 218.33L186.18 219.22C187.73 216.75 188.93 214.72 190.02 211.6L197.19 214.37C195.3 217.88 193.46 220.75 191.86 222.83C192.15 222.98 192.61 223.28 192.84 223.47C194.27 221.59 195.48 219.56 196.74 217.09L202.93 220.31V212.54H233.67V251.42C233.67 254.88 231.15 256.66 221.62 256.66L219.56 249.19C221.45 249.44 222.94 249.54 224.32 249.54C225.07 249.54 225.47 249.34 225.47 248.8V241.03H220.94V241.82C220.94 242.81 221.4 242.71 222.6 242.76H224.72V248.2H216.63C214.39 248.2 213.3 247.16 213.3 245.33V241.03H211.52V256.71H202.92V253.1L197.41 253.69C197.41 249.25 197.36 246.53 196.67 242.32ZM188.75 256.18L181.87 255.44C182.73 250.59 183.07 246.14 183.19 241.09L189.44 241.34C189.33 247.52 189.38 251.48 188.75 256.18ZM196.5 255.38H190.08C190.42 250.48 190.54 246.28 190.31 241.38L196.1 241.18C196.44 247.37 196.44 250.83 196.5 255.38ZM193.86 233.47L195.41 233.27L195.12 231.93C194.72 232.48 194.26 232.98 193.86 233.47ZM196.04 230.7L200.86 229.76C201.66 232.58 202.29 234.9 202.92 237.97V221C200.51 224.71 198.33 227.78 196.04 230.7ZM211.24 220.01H210.61V224.76H211.99C211.81 223.13 211.52 221.55 211.24 220.01ZM211.18 231.44V233.62H214.16V231.44H211.18ZM218.06 224.76H219.21C219.5 223.47 219.78 221.64 219.84 220.01H217.43C217.72 221.75 217.89 223.03 218.06 224.76ZM225.46 231.44H222.42V233.62H225.46V231.44ZM224.72 224.76H226.04V220.01H225.35C225.12 221.84 224.95 223.48 224.72 224.76Z" fill="#1F1F1F"/>
<path d="M257.93 244.45C259.54 244.2 260.4 244.05 261.83 243.66V252.17C254.37 253.46 248.81 254.4 241.87 255.39L239.4 246.49C242.78 246.34 245.88 246.04 248.98 245.65C249.44 244.46 249.61 243.52 249.84 242.34L243.01 244.27C242.03 239.42 241.12 235.32 239.45 229.28L246.79 227.6C248.4 232.6 249.14 235.42 250.29 239.77C250.98 235.27 251.38 231.81 251.55 226.41L261.07 227.89C260.11 234.61 259.25 239.21 257.93 244.45ZM256.96 217.29H263.44V225.85H239.69V217.29H246.52C246.06 215.71 245.43 214.22 244.63 212.74L255.3 210.81C255.98 213.14 256.39 214.77 256.96 217.29ZM279.96 217.05H291.6V225.56H279.96V230.46H290.86V256.73H280.7V255H272.5V256.73H262.41V230.46H269.52V211.41H279.96V217.05ZM272.39 238.96V246.48H280.88V238.96H272.39Z" fill="#1F1F1F"/>
<path d="M321.55 212.05H340.48V220.9C340.48 221.44 340.54 222.73 341.28 222.68C342.14 222.63 342.08 221.74 342.08 220.85L342.02 216.99L349.76 218.67C349.64 223.81 349.07 226.49 347.81 228.22C346.66 229.85 343.8 230.05 342.07 230.05H337.88C333.98 230.05 332.26 228.96 332.26 226.78V220.15H330.2C329.8 224.6 328.94 227.97 326.07 231.28H346.66V238.85C345.4 242.12 343.56 244.59 341.84 246.47C344.36 247.06 347 247.46 349.93 247.61L344.83 256.91C340.64 256.02 337.03 254.73 333.42 252.9C330.32 254.48 326.59 255.97 322.41 257.1L317.59 250.72V256.66H309.56V255.82H306.29V256.66H297.92V240.73H317.59V248.79C319.77 248.54 322.18 248 324.36 247.21C322.24 245.73 320.34 244.24 318.62 242.51L324.53 238.95H319.31V231.23H324.24L317.93 227.22V232.66H297.74V226.58H317.64C317.98 226.18 318.33 225.89 318.61 225.49H296.76V218.22H303.3C302.84 216.29 302.33 215.2 301.41 213.22L311.45 210.75C312.43 212.93 312.94 214.16 313.92 216.79L308.93 218.22H319.2V224.65C321.38 221.2 321.55 217.74 321.55 212.05ZM297.69 233.72H317.88V239.8H297.69V233.72ZM306.47 246.73V249.2H309.57V246.73H306.47ZM333.08 243.02C334.29 242.03 335.55 240.4 336.35 238.96H328.55C329.7 240.4 331.53 242.03 333.08 243.02Z" fill="#1F1F1F"/>
<path d="M388.15 223.92V211.5H399.16V223.92H406.9V233.42H399.16V256.72H388.15V233.42H379.83V225.9H354.42V218.33H363.02C362.45 216.35 361.82 214.82 360.9 212.84L370.65 210.47C371.85 213.14 372.54 214.82 373.57 217.45L370.07 218.34H380.62V223.93H388.15V223.92ZM355.74 233.37V227.09H378.86V233.37H355.74ZM355.74 240.64V234.36H378.86V240.64H355.74ZM369.91 255.68H365.78V256.77H356.43V241.88H378.4V256.67H369.91V255.68ZM365.61 247.72V249.65H370.03V247.72H365.61Z" fill="#1F1F1F"/>
<path d="M323.3 66.17H150.35V105.07H323.3V66.17Z" fill="#1F1F1F"/>
<path d="M183.65 90.5302H180.52L179.94 95.16H175.4L175.95 90.5302H174.08L173.53 95.16H168.96L169.51 90.5302H166.87V86.7701H170L170.31 83.7301H167.64V79.9401H170.77L171.32 75.5201H175.86L175.34 79.9401H177.21L177.73 75.5201H182.3L181.78 79.9401H184.42V83.7301H181.29L180.98 86.7701H183.65V90.5302ZM176.78 83.7301H174.85L174.51 86.7701H176.44L176.78 83.7301Z" fill="#F2E8DE"/>
<path d="M196.39 85.5001C197.46 86.3501 198.29 87.0602 199.4 88.0702V73.9301H214.11V90.0802H211V93.4401C211 93.7301 211 93.89 211.18 93.89C211.4 93.89 211.4 93.6501 211.43 93.4401C211.49 93.1001 211.46 92.3302 211.52 90.6102L214.96 91.4601C214.87 94.4301 214.53 96.0902 213.76 96.8302C213.3 97.2802 212.44 97.5702 211.12 97.5702H208.88C207.34 97.5702 206.58 96.8001 206.58 95.7701V90.0802H205.94C205.6 93.7902 204.44 95.7502 201.83 98.1002L197.72 94.9501C199.65 93.4701 200.79 92.2002 201.07 90.1102H199.6L197.45 92.5201C196.71 91.5101 196.16 90.7201 195.67 90.2201V97.7902H190.76V91.3602C190.33 91.8902 190.02 92.2902 189.44 92.8402L186.4 88.3702C188.61 86.6502 189.93 85.2201 191.34 82.7001H186.95V78.15H191.25C190.6 77.04 190.21 76.46 189.19 75.16L193.64 73.0702C194.74 74.4202 195.7 75.7402 196.8 77.3302L195.2 78.15H198.7V81.6202C197.96 83.2002 197.56 83.9401 196.39 85.5001ZM204.53 77.64V78.7301H208.98V77.64H204.53ZM204.53 81.3402V82.3502H208.98V81.3402H204.53ZM204.53 86.1102H208.98V85.0001H204.53V86.1102Z" fill="#F2E8DE"/>
<path d="M220.52 97.7001L217.02 93.5402C219.51 92.0302 221.75 89.7002 222.58 87.8702H217.61V83.9301H228.48V83.3202H219.67V80.1202H228.48V79.5101H218.4V75.7501H223.4C223.19 75.3301 222.91 74.9601 222.6 74.5101L228.4 73.2701C228.86 74.2501 229.14 74.9101 229.47 75.7601H233.64C234.07 74.8601 234.41 74.0401 234.65 73.2701L240.45 74.2501C240.17 74.8301 239.93 75.2301 239.62 75.7601H244.69V79.5201H234.65V80.13H243.74V83.3302H234.65V83.9401H245.49V87.88H228.02C227.87 88.22 227.71 88.4402 227.5 88.7802H244V92.67H237.09V93.5402H245.07V97.4801H222.3V96.0502C221.78 96.5902 221.19 97.1201 220.52 97.7001ZM225.25 92.67L224.58 93.5402H230.29V92.67H225.25Z" fill="#F2E8DE"/>
<path d="M253.06 81.2601L252.88 81.0001C254.81 80.5501 256.47 79.9902 257.7 79.2802H254.91V77.2902L252.7 80.2601C250.98 79.0701 250.18 78.5702 247.73 77.3202L250.65 73.64C252.58 74.51 253.48 74.9101 254.92 75.7001V75.5402H261.67C261.52 75.0602 261.3 74.6401 261.06 74.0001L267.26 73.2101C267.47 74.1601 267.66 74.6702 267.81 75.5402H276.16V79.2701H272.6C273.8 79.8801 275.12 80.4301 276.62 80.7501L274.29 84.5402C273.95 84.3802 273.74 84.2502 273.4 84.0402V87.7701L275.98 90.3402C274.94 91.1102 274.11 91.5802 273.09 92.0902C274.2 92.7502 275.24 93.2302 276.65 93.6002L273.79 97.6801C271.64 96.7001 269.89 95.54 268.11 93.63L268.23 96.1202C264.36 96.7802 261.11 97.2301 256.75 97.7301L255.65 93.5502C256.88 93.5202 258.11 93.4702 259.24 93.3602V92.0402C257.95 92.5202 256.72 93.02 255.19 93.42L254.51 92.3102C253.99 94.0002 253.44 95.4901 252.67 97.2601L247.73 95.2501C249.33 92.2601 250.09 90.2701 251.11 86.9901L255.59 88.2902L255.34 89.2401C256.88 88.9001 258.17 88.5002 259.09 88.0702H256.26V83.9901C255.89 84.2001 255.68 84.3301 255.31 84.4901L254.85 83.8502L252.64 86.8402C250.95 85.6002 250 85.0402 247.82 83.8502L250.74 80.14C251.68 80.6 252.38 80.9201 253.06 81.2601ZM261.53 84.9701H268.1V83.6202H261.53V84.9701ZM261.71 80.5201H267.3C266.81 80.1501 266.41 79.7502 265.98 79.2802H263.16C262.7 79.7502 262.3 80.1001 261.71 80.5201ZM264.88 89.0201C264.7 89.2101 264.48 89.3601 264.27 89.5201V92.8002C265.19 92.6902 265.9 92.6101 266.82 92.4301C266.14 91.4801 265.46 90.2401 264.88 89.0201ZM270.1 89.39C270.87 89.02 271.51 88.6502 272.13 88.0702H269.24C269.48 88.5402 269.76 88.97 270.1 89.39Z" fill="#F2E8DE"/>
<path d="M296.89 98.1801L295.08 96.8302V97.0702C290.14 97.4702 284.7 97.6001 279.82 97.7301L279.05 94.0201C281.17 94.1301 282.98 94.18 284.82 94.13V93.5702H280.03V90.4701H284.82V89.9701H279.63V81.4501H284.82V80.9701H279.2V77.6102H284.82V77.13C283.35 77.21 281.87 77.2602 280.31 77.2902L279.54 74.14C284.36 74.09 289.06 73.88 293.39 73.4L294.71 76.7101C293.17 76.9001 291.55 77.0002 289.52 77.1102V77.6102H295.17V78.0101H296.37C296.4 76.6101 296.43 75.05 296.34 73.38L301.56 73.5702C301.53 74.9502 301.44 76.2702 301.31 78.1002H306.77L306.74 80.64C306.59 90.7 306.46 95.12 304.78 96.66C303.58 97.53 302.26 97.8002 299.07 97.8002L298.49 95.0201C298.03 96.1201 297.51 97.1701 296.89 98.1801ZM283.54 84.0201V84.8702H285.01V84.0201H283.54ZM283.54 87.38H285.01V86.6102H283.54V87.38ZM290.85 84.0201H289.41V84.8702H290.85V84.0201ZM289.4 87.38H290.84V86.6102H289.4V87.38ZM294.07 81.4501V80.9701H289.53V81.4501H294.07ZM296.31 82.5902H294.81V89.9801H289.53V90.4801H294.07V92.8402C295.7 89.5802 296.22 85.4702 296.31 82.5902ZM293.43 94.0001L293.68 93.5802H289.54V94.0802C290.82 94.1002 292.11 94.0801 293.43 94.0001ZM299.32 92.7501C299.87 92.8001 300.27 92.8002 300.46 92.8002C301.01 92.8002 301.23 92.6101 301.32 92.2401C301.72 90.7301 301.75 87.8202 301.87 82.5802H301.19C300.98 85.9002 300.39 89.4701 299.32 92.7501Z" fill="#F2E8DE"/>
</svg>
