<svg width="472" height="66" viewBox="0 0 472 66" fill="none" xmlns="http://www.w3.org/2000/svg">
<path d="M471.3 0.0701904H0.710022V65.8402H471.3V0.0701904Z" fill="#4F26E9"/>
<path d="M63.14 39.41L66.88 38.9701C67.35 41.7901 67.56 43.74 67.77 46.67V38.0902L63.26 38.9701C63.18 38.2701 63.09 37.69 62.96 37.14C59.64 37.62 57.34 37.8401 53.26 38.2401L52.07 32.8502C53.05 32.9202 54.11 32.92 55.05 32.89C55.86 31.97 56.88 30.6502 57.69 29.3302C55.95 28.1202 54.16 27.06 51.65 25.66L54.33 21.63L55.35 22.2902C56.5 20.4602 57.39 18.95 58.2 16.64L63.52 18.6901C62.12 21.2901 60.76 23.4201 59.56 24.9601C59.77 25.0701 60.11 25.2901 60.28 25.4401C61.34 24.0501 62.24 22.5401 63.17 20.7101L67.76 23.0902V17.3302H90.56V46.16C90.56 48.73 88.69 50.0502 81.63 50.0502L80.1 44.5101C81.5 44.6901 82.61 44.7701 83.63 44.7701C84.18 44.7701 84.48 44.6201 84.48 44.2201V38.4601H81.12V39.0502C81.12 39.7802 81.46 39.7101 82.35 39.7501H83.92V43.7902H77.92C76.26 43.7902 75.45 43.02 75.45 41.66V38.4701H74.13V50.1002H67.75V47.42L63.67 47.8602C63.69 44.5502 63.65 42.53 63.14 39.41ZM57.27 49.6801L52.16 49.13C52.8 45.54 53.05 42.2301 53.14 38.4901L57.78 38.67C57.69 43.26 57.73 46.2001 57.27 49.6801ZM63.01 49.1002H58.25C58.51 45.4702 58.59 42.3501 58.42 38.7201L62.72 38.5702C62.97 43.1502 62.97 45.7202 63.01 49.1002ZM61.05 32.8502L62.2 32.7001L61.99 31.7101C61.69 32.1101 61.35 32.4802 61.05 32.8502ZM62.67 30.7902L66.24 30.0902C66.84 32.1802 67.3 33.9001 67.77 36.1801V23.6002C65.99 26.3502 64.37 28.6302 62.67 30.7902ZM73.94 22.8702H73.47V26.39H74.49C74.37 25.18 74.16 24.0102 73.94 22.8702ZM73.9 31.3402V32.9501H76.11V31.3402H73.9ZM79.01 26.39H79.86C80.07 25.44 80.29 24.0802 80.33 22.8702H78.54C78.75 24.1502 78.88 25.11 79.01 26.39ZM84.49 31.3402H82.24V32.9501H84.49V31.3402ZM83.94 26.39H84.92V22.8702H84.41C84.24 24.2302 84.11 25.44 83.94 26.39Z" fill="#F2E8DE"/>
<path d="M117.64 22.8302L117.09 24.0001H131V43.2601H124.87C128.78 43.9201 130.49 44.1401 133.89 44.9501L130.66 50.64C126.19 49.17 123 48.51 117.05 46.9L119.09 43.2701H109.48L111.86 46.9C107.65 48.55 103.73 49.6502 99.05 50.5302L94.84 44.8402C99.05 44.4402 102.07 44.0301 104.96 43.2601H97.86V24.0001H108.54L109.09 22.8302H95.48V17.2201H133.34V22.8302H117.64ZM106.11 28.5201V29.5802H122.7V28.5201H106.11ZM106.11 33.1002V34.13H122.7V33.1002H106.11ZM106.11 38.7902H122.7V37.65H106.11V38.7902Z" fill="#F2E8DE"/>
<path d="M153.08 23.9C153 24.52 152.87 25.1802 152.74 25.8402H172.73C171.67 31.7502 170.6 37.06 169.41 42.9H176.17V49.39H137.75V42.9H160.3L160.94 40.5502H141.16C142.82 34.8302 144.01 29.73 144.86 23.9H138.61V17.41H175.2V23.9H153.08ZM151.21 34.3502H162.27L162.87 31.89H151.77C151.63 32.77 151.38 33.4702 151.21 34.3502Z" fill="#F2E8DE"/>
<path d="M204.98 50.64L202.47 48.7701V49.1002C195.62 49.6502 188.09 49.8301 181.33 50.0201L180.27 44.88C183.21 45.03 185.72 45.1002 188.27 45.0302V44.2601H181.63V39.9701H188.27V39.2701H181.08V27.4601H188.27V26.8002H180.48V22.14H188.27V21.4801C186.23 21.5901 184.19 21.6601 182.02 21.7001L180.96 17.3302C187.64 17.2602 194.15 16.9602 200.15 16.3002L201.98 20.88C199.85 21.14 197.6 21.2801 194.79 21.4301V22.13H202.62V22.6801H204.28C204.32 20.7401 204.36 18.5701 204.24 16.2601L211.47 16.5201C211.43 18.4301 211.3 20.2602 211.13 22.7902H218.7L218.66 26.3102C218.45 40.2502 218.28 46.3701 215.94 48.5001C214.28 49.7101 212.45 50.0802 208.03 50.0802L207.22 46.2301C206.56 47.7801 205.83 49.24 204.98 50.64ZM186.48 31.0101V32.1801H188.52V31.0101H186.48ZM186.48 35.67H188.52V34.6102H186.48V35.67ZM196.6 31.0101H194.6V32.1801H196.6V31.0101ZM194.6 35.67H196.6V34.6102H194.6V35.67ZM201.07 27.4601V26.8002H194.77V27.4601H201.07ZM204.18 29.0302H202.1V39.2601H194.78V39.9601H201.08V43.2201C203.32 38.7201 204.05 33.0302 204.18 29.0302ZM200.18 44.8402L200.52 44.2501H194.78V44.9501C196.56 44.9901 198.35 44.9502 200.18 44.8402ZM208.34 43.1202C209.11 43.1902 209.66 43.1901 209.91 43.1901C210.68 43.1901 210.97 42.93 211.1 42.42C211.65 40.33 211.7 36.2902 211.87 29.0302H210.93C210.64 33.6202 209.83 38.5702 208.34 43.1202Z" fill="#F2E8DE"/>
<path d="M239.66 38.0902L237.06 39.3702L235.7 35.9601V36.9501C234.85 37.1701 233.79 37.3902 232.89 37.5702V46.5602C232.89 47.7002 232.55 48.5 231.7 49.13C230.81 49.75 228.55 50.0502 223.79 50.0802L222.26 43.0702C223.41 43.2902 224 43.3302 224.56 43.3302C225.33 43.3302 225.62 43.1801 225.62 42.7401V38.63C224.9 38.78 224.34 38.8902 223.28 39.0302L222.22 32.3202C223.67 32.2802 224.39 32.2102 225.62 32.1002V28.4301H222.6V21.9H225.62V16.3602H232.89V21.9H235.23V23.0001L237.83 19.9901C238.68 20.6101 239.4 21.1301 240.21 21.7501V16.5802H246.51V32.17C246.51 40.64 246.13 44.2701 238.9 50.2201L233.37 45.0502C236.68 43.3002 238.85 41.1002 239.66 38.0902ZM235.15 26.3502V28.4401H232.9V31.3002C233.67 31.1902 234.77 31.0402 235.54 30.8602V32.1801C236.9 31.6701 238.86 30.9701 240.22 30.2401V27.8202L238.73 29.6901C237.45 28.4801 236.51 27.4202 235.15 26.3502ZM256.25 19.3502L261.61 21.88C259.99 24.89 258.89 26.6102 257.1 28.8102L254.34 27.2701V31.42L255.96 29.66C258.51 31.27 260.38 32.63 262.34 34.17L258.3 38.4601L261.66 39.0802C261.66 44.3302 261.57 46.7102 260.38 48.0702C259.27 49.3202 257.74 49.7902 254.85 49.7902H251.83C248.98 49.7902 247.53 48.6502 247.53 46.8202V16.5602H254.34V22.2802C254.93 21.6202 255.65 20.6302 256.25 19.3502ZM254.34 35.67V41.8302C254.34 42.4502 254.55 42.8602 255.02 42.8602C255.7 42.8602 255.83 42.6002 255.83 41.8702C255.83 40.7002 255.75 39.3401 255.62 37.9501L257.19 38.2101C256.38 37.2101 255.19 36.3 254.34 35.67Z" fill="#F2E8DE"/>
<path d="M289.99 25.0702C289.73 22.1702 289.52 19.2701 289.39 16.2701L297.18 16.64V18.1801L302.16 16.9301C302.97 18.9501 303.65 20.9302 304.2 23.0602L298.63 24.42C298.29 22.44 297.74 20.5301 297.18 18.7301C297.18 20.6401 297.18 22.9102 297.26 24.7802C299.51 24.6702 301.6 24.4501 303.85 24.2701V29.9901C301.6 30.1701 299.81 30.2801 297.51 30.4301C297.51 30.7201 297.55 31.97 297.68 34.13C298.19 33.21 298.74 31.5601 299.04 30.5001L304.61 32.7701C303.04 36.2501 300.91 39.9202 299.04 42.3102C299.21 42.7502 299.42 42.9701 299.68 42.9701C300.83 42.9701 302.19 41.2101 302.91 40.4401L304.4 47.1202C302.15 49.1402 300.1 50.0902 298.53 50.0902C296.7 50.0902 294.96 48.2202 294.15 46.7902C292.75 47.9602 291.34 49.0601 289.9 49.9501L287.6 46.9401H279.56V50.13H273.39V46.9401H265.05V41.8002H273.3V40.8502H265.73V27.0902H287.13L287 26.2101H276.88V16.9701H287.52V25.0001L289.99 25.0702ZM265.44 26.2101V16.9701H276.08V26.2101H265.44ZM269.83 22.4301H271.7V20.7401H269.83V22.4301ZM271.53 30.9801V32.3002H273.66V30.9801H271.53ZM271.53 37.14H273.66V35.7802H271.53V37.14ZM281.57 30.9801H279.4V32.3002H281.57V30.9801ZM279.4 37.14H281.57V35.7802H279.4V37.14ZM291.95 40.7701C290.93 36.5201 290.63 33.8701 290.38 30.7201L287.83 30.9L287.36 28.1901V40.8502H279.66V41.8002H288.34V43.3002C289.69 42.5302 290.97 41.6101 291.95 40.7701ZM281.27 22.4301H283.14V20.7401H281.27V22.4301Z" fill="#F2E8DE"/>
<path d="M346.23 17.1102V46.42C346.23 48.77 344.19 49.7601 338.27 49.9401L337.21 46.1202H332.53V49.2401H327.47V40.6202L327.13 40.66L326.79 39.2701L324.79 39.67H326.15V44.7301C326.15 46.4201 325.51 47.7701 324.11 48.7301C322.83 49.6501 321.13 49.98 317.47 50.38L315.26 46.6002C318.49 46.5302 320.15 46.3801 321.17 45.5001H315.77V40.3302L315 38.3102V50.0802H308.19V17.1002H326.36V29.1002H322.96C322.02 30.1602 321.09 31.08 320.02 31.92L320.7 32.4C321.68 31.41 322.36 30.5301 323.12 29.4701L326.23 31.41L327.85 29.4301C328.15 29.6101 328.45 29.8701 328.66 30.0201C328.96 29.8001 329.21 29.47 329.47 29.14H327.85V17.1102H346.23ZM315.01 22.0602H320.33V21.14H315.01V22.0602ZM315.01 25.2201H320.33V24.3002H315.01V25.2201ZM315.01 30.8302L316.16 29.4L317.05 30.0201C317.39 29.7601 317.69 29.4702 317.94 29.1002H315V30.8302H315.01ZM317.9 35.1202C316.88 34.2402 315.94 33.6501 315.01 33.1801V36.2601C315.48 36.3001 316.12 36.2601 316.88 36.1901C317.35 35.8201 317.6 35.5202 317.9 35.1202ZM324.62 39.67L324.45 38.9401C321.94 39.4501 320.03 39.7102 317.35 40.0802H319.99V41.88H321.73V39.6801H324.62V39.67ZM321.82 35.8202L324.07 35.4901C323.94 35.0101 323.86 34.61 323.64 34.17C323.01 34.79 322.5 35.2702 321.82 35.8202ZM329.39 35.7101C327.94 34.4301 326.8 33.4401 325.48 32.4801C325.01 32.9201 324.37 33.5101 323.86 33.9501L326.45 33.2902C326.96 34.5702 327.34 35.5302 327.64 36.5602L328.36 36.4901C328.75 36.2201 329.09 35.9701 329.39 35.7101ZM339.6 39.6002L337.22 40.15L336.92 39.0101C334.88 39.4501 333.22 39.7102 330.5 40.0402H332.71V41.9501H334.11V40.2301H338.45V44.16C338.7 44.2 338.88 44.2301 339.13 44.2301C339.43 44.2301 339.6 44.1601 339.6 43.7501V39.6002ZM339.6 29.2501H333.39L334.41 29.6901C333.64 30.6401 332.67 31.5202 331.65 32.3302C331.86 32.5902 332.12 32.8101 332.33 32.9901C333.44 32.1101 334.63 30.9002 335.56 29.5802L338.75 31.6002C337.9 32.4102 336.75 33.3601 335.94 33.9801L338.45 33.14C338.92 34.2 339.26 35.0502 339.6 36.0402V29.2501ZM336.32 35.6002C336.11 35.0902 335.98 34.6501 335.68 34.2101L333.34 36.0802C334.37 35.9702 335.3 35.7502 336.32 35.6002ZM339.6 21.0001H334.45V21.92H339.6V21.0001ZM339.6 24.3002H334.45V25.2902H339.6V24.3002Z" fill="#F2E8DE"/>
<path d="M386.78 25.2902H371.17V27.7101H388.78V34.39H371.81C377.64 36.48 381.72 38.06 387 40.41L382.7 46.8702C379 44.5602 375.3 42.7202 371.68 41.1102V50.13H362.87V34.39H350.49V27.7101H362.53V16.38H371.17V19.17H386.78V25.2902Z" fill="#F2E8DE"/>
<path d="M408.06 44.66C408.06 42.5 409.97 41.4301 411.76 41.4301C413.55 41.4301 415.46 42.49 415.46 44.66C415.46 46.9 413.5 47.92 411.76 47.92C410.02 47.92 408.06 46.9 408.06 44.66ZM415.12 19.0902L414.31 38.7501H409.2L408.39 19.0902H415.12Z" fill="#F2E8DE"/>
</svg>
