<svg width="473" height="67" viewBox="0 0 473 67" fill="none" xmlns="http://www.w3.org/2000/svg">
<path d="M472.1 0.459961H0.309998V66.4H472.1V0.459961Z" fill="#4F26E9"/>
<path d="M68.87 29.67V46.4799C68.87 48.32 68.32 49.79 66.99 50.2C64.73 50.9 62.43 50.64 59.53 50.64L58.46 45.8199L59.06 45.9299L57.44 45.0099V50.0899H51.64V46.5599L50.28 47.4399C49.64 46.2599 49.47 45.2299 49.13 43.3599C48.83 45.1999 48.53 46.2299 47.85 47.5199L46.14 46.5299V50.6099H40.17L40.13 40.6799C39.23 44.0999 38.38 46.7499 37.02 49.8799L30.15 47.0799C32.37 42.9199 33.43 39.9099 34.84 35.3399L40.13 36.8799V30.8099L36.97 35.0399C34.62 33.3099 33.3 32.5399 30.27 30.8799L34.32 25.7299C37.35 27.1299 38.67 27.7899 41.23 29.2999L40.93 29.67H51.64V28.6799H43.37V24.0099H39.57V22.8699L37.05 26.2499C34.66 24.5899 33.55 23.9 30.14 22.17L34.19 17.0599C36.62 18.1599 37.86 18.72 39.56 19.64V18.4599H43.18V16.7999H50.26V18.4599H58.7V16.7999H65.69V18.4599H69.31V24.0199H65.69V28.6899H57.42V29.6799H68.87V29.67ZM46.14 35.4799H50.87C50.83 37.5399 51 39.1599 51.64 40.9299V34.4899H46.14V35.4799ZM47.2 39.1599H46.13V42.4699C46.73 41.3299 47.03 40.5199 47.2 39.1599ZM50.19 23.3399V24.3699H58.89V23.3399H50.19ZM62.13 35.4799C62.13 37.7199 62.3 38.68 62.94 40.2299V34.4899H57.44V35.4799H62.13ZM58.46 39.1599H57.44V42.0999C57.95 41.1499 58.29 40.3799 58.46 39.1599ZM60.51 43.14C60.17 44.46 59.87 45.0199 59.32 45.9699C60.13 46.0799 60.94 46.1499 61.75 46.1499H62.09C62.64 46.1499 62.94 46 62.94 45.67V45.1199L61.75 46.1499C61.15 45.3099 60.81 44.61 60.51 43.14Z" fill="#F2E8DE"/>
<path d="M97.83 31.92V34.0899H110.11V40.3799H97.83V43.5099C98.51 43.5499 99.24 43.5799 99.92 43.5799C104.7 43.5799 109 43.32 113.06 42.7299L111.31 50.2299L99.37 50.45C93.87 50.56 90.03 49.8599 87.81 48.6799C86.36 47.9099 84.65 46.5799 82.69 44.5999C81.67 47.0599 80.86 48.68 79.58 50.89L72.8 46.3299C75.83 41.7299 77.79 37.1699 79.33 31.9099H76.13V17.7499H109.65V31.9099H97.83V31.92ZM85.42 38.2399C86.78 39.6399 88.28 40.9299 89.56 41.5899V31.9099H79.75L87.17 33.8199C86.66 35.5199 86.15 36.7699 85.42 38.2399ZM84.4 25.8099H101.5V23.8999H84.4V25.8099Z" fill="#F2E8DE"/>
<path d="M139.29 28.64V30.8499L143.21 28.2C147.77 32.62 150.5 35.2999 155.19 40.5599L148.54 45.7099C144.96 41.3299 142.1 37.6199 139.29 34.7499V50.6099H130.46V36.8099C127.39 39.5699 124.32 41.78 120.27 44.17L115.49 37.3299C122.01 34.1299 128.03 30.0499 131.95 24.7499H116.43V17.7599H154.81V24.7499H142.1C141.34 26.0299 140.23 27.46 139.29 28.64Z" fill="#F2E8DE"/>
<path d="M183.44 34.31V45.02C183.44 48.55 180.84 50.06 177.13 50.21C174.53 50.32 171.67 50.36 168.86 50.36L166.9 42.38C169.29 42.67 171.34 42.75 173.6 42.75C174.37 42.75 174.92 42.38 174.92 41.87V29.44H177.69C179.35 28.41 181.4 26.9 183.19 25.14H160.2V18.08H195.64V24.55C191.37 29.08 187.75 31.73 183.44 34.31Z" fill="#F2E8DE"/>
<path d="M234.2 50.2C231.85 50.35 229.42 50.3799 227.21 50.3799L225.72 45.7799H212.4V32.0999H229.59V43.17C229.76 43.21 230.74 43.2099 230.87 43.2099C231.55 43.2099 231.6 43.0599 231.6 42.5499V23.7499H210.23V50.5699H202.43V17.4999H239.41V45.42C239.4 48.65 237.87 49.94 234.2 50.2ZM211.08 25.1499H230.7V30.5899H211.08V25.1499ZM219.1 40.5999H222.9V37.2499H219.1V40.5999Z" fill="#F2E8DE"/>
<path d="M268.19 16.83V17.9H283.07V22.54H268.19V23.31H280.26V30.93H268.19V31.78H280.26V36.16H283.03V41.24H280.26V46.94H273.1V45.1H268.2V46.79C268.2 47.86 267.77 49.25 266.84 49.81C265.52 50.58 261.64 50.73 254.9 50.77L253.71 45.51C255.84 45.69 257.25 45.8 258.36 45.8C259.13 45.8 259.51 45.95 259.51 45.47V45.1H246.1V41.35H259.49V40.5H244.44V36.34H259.49V35.53H246.44V31.78H259.49V30.93H247.08V23.31H259.49V22.54H244.26V17.9H259.4V16.83H268.19ZM253.91 27.61H259.5V26.62H253.91V27.61ZM268.19 27.61H273.01V26.62H268.19V27.61ZM273.14 35.52H268.19V36.33H273.14V35.52ZM273.14 40.49H268.19V41.34H273.14V40.49Z" fill="#F2E8DE"/>
<path d="M299.72 21.43H304.75V26.62C306.58 23.93 308.03 20.37 309.06 16.72L316.01 18.6C315.5 19.89 315.16 20.7 314.65 21.65H324.89C324.85 23.27 324.81 25.81 324.42 37.51C324.25 42.59 323.57 46.01 321.9 47.92C320.45 49.54 316.06 50.42 308.98 50.31L307.15 43.5C310.14 43.9 312.57 43.98 314.23 43.94C315.68 43.9 316.02 43.31 316.45 42.32C316.92 41.22 317.35 35.85 317.43 27.46H312.14C311.24 29.26 310.65 30.4 309.5 32.06L312.7 31.07C314.41 34.34 315.34 36.7 316.5 39.72L310.36 41.74C309.68 39.13 308.91 36.77 307.76 34.38C307.46 34.86 307.16 35.34 306.82 35.81L304.77 34.01V49.35H298.2V48.06H294.92V50.16H288.1V21.43H292.37C292.97 19.88 293.31 18.41 293.61 16.46L301.03 17.93C300.53 19.44 300.19 20.25 299.72 21.43ZM294.64 27.43V31.37H298.18V27.43H294.64ZM294.64 37.51V41.7H298.18V37.51H294.64Z" fill="#F2E8DE"/>
<path d="M349.33 16.4599L356.5 18.4799C356.03 19.3299 355.77 19.9099 355.26 20.7199H367.59V27.3799H361.62V31.8999H368.53V38.5599H361.62V50.7H353.39V38.5599H345.8V31.8999H353.39V27.3799H352.03C351.31 28.9999 350.49 30.2499 349.39 31.7199L345.34 29.4399V32.7899H330.11V28.2699H343.42L342.87 27.9399C343 27.7599 343.17 27.57 343.34 27.39H329.35V21.6899H334.43C334 20.2599 333.53 19.3699 332.85 17.8999L340.57 15.95C341.38 17.53 341.89 18.5999 342.66 20.5499L338.65 21.6899H346.28V23.2C347.62 20.92 348.64 18.5999 349.33 16.4599ZM330.05 33.4999H345.28V38.0299H330.05V33.4999ZM339.09 49.7599H336.66V50.64H330.18V38.8699H345.53V50.5699H339.09V49.7599ZM336.53 43.5799V45.1599H339.09V43.5799H336.53Z" fill="#F2E8DE"/>
<path d="M411.68 45.6399L409.12 50.5299C406.52 48.9499 404.68 48.1399 401.61 47.1099C399.01 48.6499 397.13 49.5699 393.55 50.6799L391.93 47.2999L389.84 47.6999C389.67 45.0099 389.37 42.2899 388.9 39.5299V47.7299C388.9 49.2399 387.75 50.3799 385.19 50.3799H383.4L382.5 46.6299C382.37 47.6999 382.29 48.2899 381.95 49.3499L377.81 47.9499C378.88 44.7899 379.39 42.4299 379.77 38.8599L383.52 39.2699C383.39 41.2899 383.14 43.3899 382.88 45.0799L383.22 45.1199C383.56 45.1599 383.73 45.0099 383.73 44.7199V38.2499H379.42V24.5599H382.53C382.7 24.0399 382.83 23.5699 382.91 23.0499H378.77V32.1399C378.77 38.2499 378.6 44.5399 376.34 50.6099L371.43 46.4499C373.43 41.6999 373.22 34.7899 373.22 30.0399V17.7499H392.84V23.0499H389L388.66 24.5599H393.14V38.2499H388.88V39.3199L392.55 38.7299C392.98 40.8299 393.4 42.9199 393.74 45.0999C394.85 44.8099 396.04 44.4399 397.02 43.9599H394.12V24.4999H398.26C398.39 24.0599 398.56 23.6199 398.69 23.0999H393.23V17.6599H410.89V23.0999H405.47C405.34 23.6099 405.17 24.0599 405.04 24.4999H410.16V43.9599H406.32C408.14 44.4999 409.76 44.9399 411.68 45.6399ZM387.76 28.5699H384.86V29.7099H387.76V28.5699ZM387.76 32.9499H384.86V34.2399H387.76V32.9499ZM403.2 43.9499H399.7L401.53 46.5299L403.2 43.9499ZM404.26 28.9699H400.08V30.1499H404.26V28.9699ZM404.26 33.6099H400.08V34.6799H404.26V33.6099ZM404.26 38.1299H400.08V39.4199H404.26V38.1299Z" fill="#F2E8DE"/>
<path d="M435.23 25.8499C435.23 23.6399 430.33 23.8999 428.15 25.5899L425.85 20.3299C428.75 18.8899 430.5 18.45 432.97 18.45C438.39 18.45 442.27 21.4699 442.27 26.0299C442.27 29.6399 439.28 32.6099 435.45 33.8699V39.0199H429.82V29.3099C433.95 29.2999 435.23 27.6499 435.23 25.8499ZM428.79 45.0899C428.79 42.9199 430.71 41.8499 432.5 41.8499C434.29 41.8499 436.21 42.9199 436.21 45.0899C436.21 47.3299 434.25 48.3599 432.5 48.3599C430.75 48.3599 428.79 47.3299 428.79 45.0899Z" fill="#F2E8DE"/>
</svg>
